G75*
%MOIN*%
%OFA0B0*%
%FSLAX24Y24*%
%IPPOS*%
%LPD*%
%AMOC8*
5,1,8,0,0,1.08239X$1,22.5*
%
%ADD10C,0.1380*%
%ADD11R,0.0552X0.1340*%
%ADD12C,0.0620*%
%ADD13OC8,0.0552*%
%ADD14R,0.0552X0.0552*%
%ADD15C,0.0157*%
%ADD16R,0.0157X0.0276*%
%ADD17R,0.0276X0.0157*%
%ADD18R,0.0453X0.0453*%
%ADD19R,0.0552X0.0237*%
%ADD20OC8,0.0671*%
%ADD21R,0.0671X0.0592*%
%ADD22R,0.0592X0.0671*%
%ADD23R,0.0840X0.2180*%
%ADD24C,0.0740*%
%ADD25OC8,0.0930*%
%ADD26C,0.1386*%
%ADD27R,0.1655X0.0434*%
%ADD28C,0.0456*%
%ADD29OC8,0.0456*%
%ADD30C,0.0417*%
D10*
X004500Y001650D03*
X007130Y006380D03*
X007130Y011120D03*
X004500Y026650D03*
X036000Y026650D03*
X036000Y001650D03*
D11*
X008287Y001811D03*
X006712Y001811D03*
X006712Y004489D03*
X008287Y004489D03*
D12*
X009300Y004480D02*
X009300Y005020D01*
X010300Y005020D02*
X010300Y004480D01*
X007400Y013180D02*
X007400Y013720D01*
X006400Y013720D02*
X006400Y013180D01*
X012000Y025980D02*
X012000Y026520D01*
X013000Y026520D02*
X013000Y025980D01*
D13*
X013000Y025150D03*
X014000Y025150D03*
X015000Y025150D03*
X016000Y025150D03*
X017000Y025150D03*
X018000Y025150D03*
X019000Y025150D03*
X020000Y025150D03*
X021000Y025150D03*
X022000Y025150D03*
X023000Y025150D03*
X024000Y025150D03*
X025000Y025150D03*
X026000Y025150D03*
X027000Y025150D03*
X026000Y026150D03*
X025000Y026150D03*
X024000Y026150D03*
X018000Y026150D03*
X017000Y026150D03*
X016000Y026150D03*
X012000Y025150D03*
X016000Y005150D03*
X017000Y005150D03*
X018000Y005150D03*
X018000Y004150D03*
X017000Y004150D03*
X017000Y003150D03*
X018000Y003150D03*
X019000Y003150D03*
X020000Y003150D03*
X021000Y003150D03*
X022000Y003150D03*
X023000Y003150D03*
X024000Y003150D03*
X025000Y003150D03*
X026000Y003150D03*
X027000Y003150D03*
X027000Y004150D03*
X026000Y004150D03*
X025000Y004150D03*
X024000Y004150D03*
X023000Y004150D03*
X022000Y004150D03*
X021000Y004150D03*
X020000Y004150D03*
X019000Y004150D03*
X021000Y002150D03*
X022000Y002150D03*
X023000Y002150D03*
X024000Y005150D03*
X025000Y005150D03*
X026000Y005150D03*
X016000Y004150D03*
X016000Y003150D03*
X015000Y003150D03*
X014000Y003150D03*
X014000Y004150D03*
X015000Y004150D03*
X013000Y004150D03*
X013000Y003150D03*
X012000Y003150D03*
X012000Y004150D03*
X013000Y002150D03*
X014000Y002150D03*
X015000Y002150D03*
D14*
X012000Y002150D03*
X019000Y005150D03*
X020000Y002150D03*
X027000Y005150D03*
X030300Y005063D03*
X030300Y004237D03*
X030300Y008937D03*
X030300Y009763D03*
X030300Y013737D03*
X030300Y014563D03*
X030300Y018437D03*
X030300Y019263D03*
X030300Y023137D03*
X030300Y023963D03*
X027000Y026150D03*
X019000Y026150D03*
D15*
X018998Y016413D03*
X019195Y016413D03*
X019392Y016413D03*
X019589Y016413D03*
X019785Y016413D03*
X019963Y016236D03*
X019963Y016039D03*
X019963Y015842D03*
X019963Y015645D03*
X019963Y015448D03*
X019963Y015252D03*
X019963Y015055D03*
X019963Y014858D03*
X019963Y014661D03*
X019963Y014464D03*
X019785Y014287D03*
X019589Y014287D03*
X019392Y014287D03*
X019195Y014287D03*
X018998Y014287D03*
X018801Y014287D03*
X018604Y014287D03*
X018407Y014287D03*
X018211Y014287D03*
X018014Y014287D03*
X017837Y014464D03*
X017837Y014661D03*
X017837Y014858D03*
X017837Y015055D03*
X017837Y015252D03*
X017837Y015448D03*
X017837Y015645D03*
X017837Y015842D03*
X017837Y016039D03*
X017837Y016236D03*
X018014Y016413D03*
X018211Y016413D03*
X018407Y016413D03*
X018604Y016413D03*
X018801Y016413D03*
D16*
X018801Y016551D03*
X018604Y016551D03*
X018407Y016551D03*
X018211Y016551D03*
X018014Y016551D03*
X018998Y016551D03*
X019195Y016551D03*
X019392Y016551D03*
X019589Y016551D03*
X019785Y016551D03*
X019785Y014149D03*
X019589Y014149D03*
X019392Y014149D03*
X019195Y014149D03*
X018998Y014149D03*
X018801Y014149D03*
X018604Y014149D03*
X018407Y014149D03*
X018211Y014149D03*
X018014Y014149D03*
D17*
X017699Y014464D03*
X017699Y014661D03*
X017699Y014858D03*
X017699Y015055D03*
X017699Y015252D03*
X017699Y015448D03*
X017699Y015645D03*
X017699Y015842D03*
X017699Y016039D03*
X017699Y016236D03*
X020100Y016236D03*
X020100Y016039D03*
X020100Y015842D03*
X020100Y015645D03*
X020100Y015448D03*
X020100Y015252D03*
X020100Y015055D03*
X020100Y014858D03*
X020100Y014661D03*
X020100Y014464D03*
D18*
X019470Y014779D03*
X018900Y014779D03*
X018900Y015350D03*
X019470Y015350D03*
X019470Y015921D03*
X018900Y015921D03*
X018329Y015921D03*
X018329Y015350D03*
X018329Y014779D03*
D19*
X007843Y015000D03*
X007843Y015500D03*
X007843Y016000D03*
X007843Y014500D03*
X005756Y014500D03*
X005756Y015000D03*
X005756Y015500D03*
X005756Y016000D03*
X006643Y023900D03*
X006643Y024400D03*
X006643Y024900D03*
X006643Y025400D03*
X004556Y025400D03*
X004556Y024900D03*
X004556Y024400D03*
X004556Y023900D03*
D20*
X033100Y023650D03*
X034100Y023650D03*
X034100Y022650D03*
X033100Y022650D03*
X033100Y021650D03*
X034100Y021650D03*
X034100Y020650D03*
X034100Y019650D03*
X033100Y019650D03*
X033100Y020650D03*
X033100Y018650D03*
X034100Y018650D03*
X034100Y017650D03*
X033100Y017650D03*
X033100Y016650D03*
X034100Y016650D03*
X034100Y015650D03*
X033100Y015650D03*
X033100Y014650D03*
X034100Y014650D03*
X034100Y013650D03*
X033100Y013650D03*
X033100Y012650D03*
X034100Y012650D03*
X034100Y011650D03*
X033100Y011650D03*
X033100Y010650D03*
X034100Y010650D03*
X034100Y009650D03*
X033100Y009650D03*
X033100Y008650D03*
X034100Y008650D03*
X034100Y007650D03*
X033100Y007650D03*
X033100Y006650D03*
X034100Y006650D03*
X034100Y005650D03*
X034100Y004650D03*
X033100Y004650D03*
X033100Y005650D03*
D21*
X031300Y005024D03*
X031300Y004276D03*
X031300Y008976D03*
X031300Y009724D03*
X031300Y013776D03*
X031300Y014524D03*
X031300Y018476D03*
X031300Y019224D03*
X031300Y023176D03*
X031300Y023924D03*
X014500Y026176D03*
X014500Y026924D03*
X010700Y026924D03*
X010700Y026176D03*
X008900Y026176D03*
X008900Y026924D03*
X006700Y026924D03*
X006700Y026176D03*
X012800Y023824D03*
X012800Y023076D03*
X012800Y021624D03*
X012800Y020876D03*
X012800Y019824D03*
X012800Y019076D03*
X010700Y015324D03*
X010700Y014576D03*
X009700Y014576D03*
X009700Y015324D03*
X010100Y011824D03*
X010100Y011076D03*
X010900Y003624D03*
X010900Y002876D03*
X009400Y002224D03*
X009400Y001476D03*
D22*
X021926Y011250D03*
X022674Y011250D03*
X023226Y015950D03*
X023974Y015950D03*
X023974Y016950D03*
X023226Y016950D03*
X016274Y013850D03*
X015526Y013850D03*
X014874Y014650D03*
X014126Y014650D03*
X013874Y013750D03*
X013126Y013750D03*
X009674Y016650D03*
X008926Y016650D03*
X006574Y016750D03*
X005826Y016750D03*
X005174Y013750D03*
X004426Y013750D03*
X004426Y012650D03*
X005174Y012650D03*
X006526Y012350D03*
X007274Y012350D03*
X014726Y017050D03*
X015474Y017050D03*
X015474Y018050D03*
X014726Y018050D03*
D23*
X014500Y019650D03*
X014500Y023450D03*
D24*
X008980Y009242D03*
X008200Y009242D03*
X008200Y008258D03*
X008980Y008258D03*
D25*
X026400Y017350D03*
D26*
X007400Y017863D03*
X007400Y023037D03*
D27*
X009171Y021828D03*
X009171Y020844D03*
X009171Y020056D03*
X009171Y019072D03*
D28*
X010200Y018350D03*
X010200Y017750D03*
X009300Y018050D03*
X008600Y018050D03*
X007300Y016750D03*
X008600Y015550D03*
X009100Y013950D03*
X007950Y013950D03*
X010100Y012650D03*
X009200Y012450D03*
X009400Y011650D03*
X008700Y011450D03*
X005900Y012550D03*
X004200Y011850D03*
X004200Y014450D03*
X004700Y015050D03*
X010500Y020050D03*
X010500Y020850D03*
X013500Y018150D03*
X016100Y016450D03*
X016700Y016050D03*
X017500Y016950D03*
X016300Y014650D03*
X014900Y013550D03*
X013400Y014650D03*
X014800Y011750D03*
X015400Y011750D03*
X016000Y011750D03*
X016600Y011750D03*
X017200Y011750D03*
X017800Y011750D03*
X018700Y012450D03*
X020500Y013650D03*
X022700Y012050D03*
X023500Y013850D03*
X024500Y013850D03*
X022600Y016250D03*
X021500Y016850D03*
X020700Y016250D03*
X018300Y010450D03*
X018500Y008850D03*
X019500Y007950D03*
X019900Y008850D03*
X020300Y009450D03*
X015500Y006750D03*
X015000Y006250D03*
X014100Y007450D03*
X014500Y008050D03*
X011900Y007550D03*
X017500Y001950D03*
X019000Y001950D03*
X030300Y003450D03*
X030300Y010450D03*
X030300Y012950D03*
X030300Y017350D03*
X030300Y024850D03*
X013800Y027050D03*
X012000Y023850D03*
X009600Y027050D03*
X007700Y027050D03*
X007700Y026150D03*
X006000Y027050D03*
X005500Y024950D03*
X005800Y024350D03*
X007400Y024400D03*
X005600Y022850D03*
D29*
X016500Y008550D03*
X008200Y005650D03*
X006700Y003150D03*
X024800Y016950D03*
X031100Y011250D03*
X029000Y002700D03*
X029800Y002150D03*
X031300Y001850D03*
D30*
X016500Y010450D03*
X015900Y010450D03*
X015300Y010450D03*
X014700Y010450D03*
X014100Y010450D03*
X013100Y010950D03*
X012100Y011250D03*
M02*
