G75*
%MOIN*%
%OFA0B0*%
%FSLAX24Y24*%
%IPPOS*%
%LPD*%
%AMOC8*
5,1,8,0,0,1.08239X$1,22.5*
%
%ADD10C,0.0100*%
%ADD11C,0.0080*%
%ADD12C,0.0030*%
%ADD13C,0.0040*%
%ADD14C,0.0060*%
%ADD15C,0.0050*%
%ADD16R,0.0240X0.0240*%
%ADD17R,0.0200X0.0200*%
%ADD18R,0.0197X0.0197*%
%ADD19R,0.0421X0.0118*%
%ADD20C,0.0160*%
%ADD21R,0.0551X0.0256*%
%ADD22R,0.0571X0.0295*%
%ADD23R,0.0295X0.0571*%
%ADD24C,0.0020*%
%ADD25R,0.0256X0.0551*%
%ADD26R,0.0128X0.0197*%
%ADD27R,0.0059X0.0098*%
%ADD28R,0.0157X0.0069*%
%ADD29R,0.0079X0.0079*%
%ADD30R,0.0118X0.0118*%
%ADD31R,0.0128X0.0030*%
%ADD32R,0.0260X0.0260*%
%ADD33R,0.4010X0.0010*%
%ADD34R,0.4030X0.0010*%
%ADD35R,0.2710X0.0010*%
%ADD36R,0.0610X0.0010*%
%ADD37R,0.0670X0.0010*%
%ADD38R,0.1520X0.0010*%
%ADD39R,0.0140X0.0010*%
%ADD40R,0.0540X0.0010*%
%ADD41R,0.0090X0.0010*%
%ADD42R,0.0100X0.0010*%
%ADD43R,0.0050X0.0010*%
%ADD44R,0.0110X0.0010*%
%ADD45R,0.0370X0.0010*%
%ADD46R,0.0120X0.0010*%
%ADD47R,0.0080X0.0010*%
%ADD48R,0.0500X0.0010*%
%ADD49R,0.0030X0.0010*%
%ADD50R,0.0070X0.0010*%
%ADD51R,0.0480X0.0010*%
%ADD52R,0.0380X0.0010*%
%ADD53R,0.0600X0.0010*%
%ADD54R,0.0710X0.0010*%
%ADD55R,0.0060X0.0010*%
%ADD56R,0.0460X0.0010*%
%ADD57R,0.0040X0.0010*%
%ADD58R,0.0550X0.0010*%
%ADD59R,0.0020X0.0010*%
%ADD60R,0.0520X0.0010*%
%ADD61R,0.0630X0.0010*%
%ADD62R,0.0450X0.0010*%
%ADD63R,0.0390X0.0010*%
%ADD64R,0.0490X0.0010*%
%ADD65R,0.0580X0.0010*%
%ADD66R,0.0440X0.0010*%
%ADD67R,0.0560X0.0010*%
%ADD68R,0.0010X0.0010*%
%ADD69R,0.0400X0.0010*%
%ADD70R,0.0420X0.0010*%
%ADD71R,0.0530X0.0010*%
%ADD72R,0.0640X0.0010*%
%ADD73R,0.0410X0.0010*%
%ADD74R,0.0620X0.0010*%
%ADD75R,0.0360X0.0010*%
%ADD76R,0.0510X0.0010*%
%ADD77R,0.0150X0.0010*%
%ADD78R,0.0340X0.0010*%
%ADD79R,0.0190X0.0010*%
%ADD80R,0.0180X0.0010*%
%ADD81R,0.0330X0.0010*%
%ADD82R,0.0280X0.0010*%
%ADD83R,0.0320X0.0010*%
%ADD84R,0.0430X0.0010*%
%ADD85R,0.0310X0.0010*%
%ADD86R,0.0470X0.0010*%
%ADD87R,0.0300X0.0010*%
%ADD88R,0.0290X0.0010*%
%ADD89R,0.0270X0.0010*%
%ADD90R,0.0260X0.0010*%
%ADD91R,0.1560X0.0010*%
%ADD92R,0.0680X0.0010*%
%ADD93R,0.0250X0.0010*%
%ADD94R,0.2880X0.0010*%
%ADD95R,0.0240X0.0010*%
%ADD96R,0.0220X0.0010*%
%ADD97R,0.2870X0.0010*%
%ADD98R,0.0230X0.0010*%
%ADD99R,0.0200X0.0010*%
%ADD100R,0.2860X0.0010*%
%ADD101R,0.2850X0.0010*%
%ADD102R,0.0170X0.0010*%
%ADD103R,0.2840X0.0010*%
%ADD104R,0.0210X0.0010*%
%ADD105R,0.0160X0.0010*%
%ADD106R,0.2830X0.0010*%
%ADD107R,0.2820X0.0010*%
%ADD108R,0.2810X0.0010*%
%ADD109R,0.0130X0.0010*%
%ADD110R,0.0350X0.0010*%
%ADD111R,0.3990X0.0010*%
%ADD112R,0.3970X0.0010*%
%ADD113R,0.3930X0.0010*%
D10*
X025050Y019300D02*
X025236Y019487D01*
X025423Y019300D01*
X025423Y019860D01*
X025657Y019860D02*
X025844Y019860D01*
X025751Y019860D02*
X025751Y019300D01*
X025844Y019300D02*
X025657Y019300D01*
X026062Y019300D02*
X026062Y019860D01*
X026436Y019300D01*
X026436Y019860D01*
X026670Y019767D02*
X026670Y019393D01*
X026764Y019300D01*
X026950Y019300D01*
X027044Y019393D01*
X027044Y019580D01*
X026857Y019580D01*
X027044Y019767D02*
X026950Y019860D01*
X026764Y019860D01*
X026670Y019767D01*
X026545Y020290D02*
X026265Y020290D01*
X026265Y020850D01*
X026545Y020850D01*
X026639Y020757D01*
X026639Y020664D01*
X026545Y020570D01*
X026265Y020570D01*
X026031Y020477D02*
X026031Y020383D01*
X025937Y020290D01*
X025751Y020290D01*
X025657Y020383D01*
X025751Y020570D02*
X025937Y020570D01*
X026031Y020477D01*
X026031Y020757D02*
X025937Y020850D01*
X025751Y020850D01*
X025657Y020757D01*
X025657Y020664D01*
X025751Y020570D01*
X025423Y020383D02*
X025330Y020290D01*
X025143Y020290D01*
X025050Y020383D01*
X025050Y020850D01*
X025423Y020850D02*
X025423Y020383D01*
X025050Y019860D02*
X025050Y019300D01*
X026545Y020290D02*
X026639Y020383D01*
X026639Y020477D01*
X026545Y020570D01*
X026873Y020757D02*
X026966Y020850D01*
X027153Y020850D01*
X027246Y020757D01*
X027246Y020664D01*
X026873Y020290D01*
X027246Y020290D01*
X027480Y020290D02*
X027480Y020850D01*
X027761Y020850D01*
X027854Y020757D01*
X027854Y020570D01*
X027761Y020477D01*
X027480Y020477D01*
X028088Y020570D02*
X028462Y020570D01*
X028462Y020664D02*
X028462Y020290D01*
X028088Y020290D02*
X028088Y020664D01*
X028275Y020850D01*
X028462Y020664D01*
X028449Y021250D02*
X028449Y021530D01*
X028356Y021624D01*
X028262Y021530D01*
X028262Y021250D01*
X028076Y021250D02*
X028076Y021624D01*
X028169Y021624D01*
X028262Y021530D01*
X027842Y021530D02*
X027842Y021343D01*
X027748Y021250D01*
X027561Y021250D01*
X027468Y021343D01*
X027468Y021530D01*
X027561Y021624D01*
X027748Y021624D01*
X027842Y021530D01*
X027234Y021624D02*
X026954Y021624D01*
X026860Y021530D01*
X026860Y021343D01*
X026954Y021250D01*
X027234Y021250D01*
X026650Y021250D02*
X026556Y021250D01*
X026556Y021343D01*
X026650Y021343D01*
X026650Y021250D01*
X026322Y021343D02*
X026229Y021437D01*
X026042Y021437D01*
X025949Y021530D01*
X026042Y021624D01*
X026322Y021624D01*
X026322Y021343D02*
X026229Y021250D01*
X025949Y021250D01*
X025730Y021250D02*
X025637Y021343D01*
X025637Y021717D01*
X025730Y021624D02*
X025543Y021624D01*
X025232Y021624D02*
X025232Y021250D01*
X025325Y021250D02*
X025138Y021250D01*
X024904Y021250D02*
X024904Y021624D01*
X025138Y021624D02*
X025232Y021624D01*
X025232Y021810D02*
X025232Y021904D01*
X024904Y021250D02*
X024624Y021250D01*
X024531Y021343D01*
X024531Y021624D01*
X024297Y021624D02*
X024016Y021624D01*
X023923Y021530D01*
X023923Y021343D01*
X024016Y021250D01*
X024297Y021250D01*
X023697Y021624D02*
X023603Y021624D01*
X023416Y021437D01*
X023416Y021250D02*
X023416Y021624D01*
X023105Y021624D02*
X023105Y021250D01*
X023198Y021250D02*
X023011Y021250D01*
X022777Y021250D02*
X022497Y021250D01*
X022404Y021343D01*
X022404Y021530D01*
X022497Y021624D01*
X022777Y021624D01*
X023011Y021624D02*
X023105Y021624D01*
X023105Y021810D02*
X023105Y021904D01*
X022170Y021530D02*
X021796Y021530D01*
X021562Y021530D02*
X021562Y021250D01*
X021562Y021530D02*
X021468Y021624D01*
X021188Y021624D01*
X021188Y021250D01*
X020954Y021343D02*
X020954Y021530D01*
X020861Y021624D01*
X020674Y021624D01*
X020580Y021530D01*
X020580Y021343D01*
X020674Y021250D01*
X020861Y021250D01*
X020954Y021343D01*
X020346Y021250D02*
X020066Y021250D01*
X019973Y021343D01*
X019973Y021530D01*
X020066Y021624D01*
X020346Y021624D01*
X019661Y021624D02*
X019661Y021250D01*
X019568Y021250D02*
X019754Y021250D01*
X019661Y021624D02*
X019568Y021624D01*
X019661Y021810D02*
X019661Y021904D01*
X019256Y021810D02*
X019256Y021250D01*
X019349Y021250D02*
X019162Y021250D01*
X018944Y021250D02*
X018757Y021250D01*
X018851Y021250D02*
X018851Y021624D01*
X018757Y021624D01*
X018851Y021810D02*
X018851Y021904D01*
X019162Y021810D02*
X019256Y021810D01*
X018523Y021624D02*
X018243Y021624D01*
X018150Y021530D01*
X018243Y021437D01*
X018430Y021437D01*
X018523Y021343D01*
X018430Y021250D01*
X018150Y021250D01*
D11*
X025040Y018860D02*
X025040Y018440D01*
X025040Y018580D02*
X025250Y018580D01*
X025320Y018650D01*
X025320Y018790D01*
X025250Y018860D01*
X025040Y018860D01*
X025180Y018580D02*
X025320Y018440D01*
X025500Y018510D02*
X025500Y018650D01*
X025570Y018720D01*
X025710Y018720D01*
X025780Y018650D01*
X025780Y018580D01*
X025500Y018580D01*
X025500Y018510D02*
X025570Y018440D01*
X025710Y018440D01*
X025960Y018720D02*
X026100Y018440D01*
X026241Y018720D01*
X026881Y018790D02*
X026881Y018510D01*
X027161Y018790D01*
X027161Y018510D01*
X027091Y018440D01*
X026951Y018440D01*
X026881Y018510D01*
X026881Y018790D02*
X026951Y018860D01*
X027091Y018860D01*
X027161Y018790D01*
X027342Y018510D02*
X027412Y018510D01*
X027412Y018440D01*
X027342Y018440D01*
X027342Y018510D01*
X027572Y018440D02*
X027852Y018440D01*
X027712Y018440D02*
X027712Y018860D01*
X027572Y018720D01*
X032013Y014898D02*
X032292Y014898D01*
X032300Y014898D02*
X032300Y025355D01*
X031985Y025670D01*
X031985Y002630D01*
X032300Y002945D01*
X032300Y013402D01*
X032292Y013402D02*
X032013Y013402D01*
X028400Y012520D02*
X028400Y012070D01*
X027880Y011970D01*
X027700Y011510D02*
X027990Y011080D01*
X027670Y010760D01*
X027250Y011040D01*
X027070Y010940D01*
X026740Y011740D01*
X026170Y011740D02*
X025840Y010940D01*
X025660Y011040D01*
X025240Y010750D01*
X024910Y011080D01*
X025210Y011510D01*
X025020Y011970D02*
X024500Y012070D01*
X024500Y012520D01*
X025030Y012620D01*
X025220Y013060D02*
X024910Y013510D01*
X025240Y013830D01*
X025690Y013520D01*
X026120Y013700D02*
X026220Y014240D01*
X026680Y014240D01*
X026780Y013700D01*
X027210Y013520D02*
X027670Y013830D01*
X027990Y013510D01*
X027680Y013060D01*
X027870Y012620D02*
X028400Y012520D01*
X026740Y011740D02*
X026782Y011764D01*
X026821Y011792D01*
X026858Y011823D01*
X026893Y011857D01*
X026925Y011893D01*
X026953Y011932D01*
X026979Y011973D01*
X027001Y012016D01*
X027019Y012061D01*
X027034Y012107D01*
X027046Y012154D01*
X027053Y012201D01*
X027057Y012249D01*
X027056Y012298D01*
X027052Y012346D01*
X027044Y012393D01*
X027032Y012440D01*
X027017Y012486D01*
X026998Y012530D01*
X026975Y012573D01*
X026949Y012614D01*
X026920Y012652D01*
X026888Y012688D01*
X026853Y012722D01*
X026815Y012752D01*
X026776Y012779D01*
X026734Y012804D01*
X026690Y012824D01*
X026645Y012841D01*
X026599Y012855D01*
X026551Y012864D01*
X026503Y012870D01*
X026455Y012872D01*
X026407Y012870D01*
X026359Y012864D01*
X026311Y012855D01*
X026265Y012841D01*
X026220Y012824D01*
X026176Y012804D01*
X026134Y012779D01*
X026095Y012752D01*
X026057Y012722D01*
X026022Y012688D01*
X025990Y012652D01*
X025961Y012614D01*
X025935Y012573D01*
X025912Y012530D01*
X025893Y012486D01*
X025878Y012440D01*
X025866Y012393D01*
X025858Y012346D01*
X025854Y012298D01*
X025853Y012249D01*
X025857Y012201D01*
X025864Y012154D01*
X025876Y012107D01*
X025891Y012061D01*
X025909Y012016D01*
X025931Y011973D01*
X025957Y011932D01*
X025985Y011893D01*
X026017Y011857D01*
X026052Y011823D01*
X026089Y011792D01*
X026128Y011764D01*
X026170Y011740D01*
X025689Y013520D02*
X025747Y013553D01*
X025806Y013583D01*
X025867Y013610D01*
X025928Y013634D01*
X025991Y013656D01*
X026055Y013675D01*
X026119Y013690D01*
X025220Y013060D02*
X025184Y013002D01*
X025151Y012941D01*
X025120Y012879D01*
X025093Y012816D01*
X025069Y012752D01*
X025048Y012686D01*
X025030Y012620D01*
X026779Y013690D02*
X026853Y013671D01*
X026925Y013648D01*
X026996Y013621D01*
X027066Y013591D01*
X027133Y013557D01*
X027199Y013520D01*
X027680Y013060D02*
X027716Y013001D01*
X027749Y012941D01*
X027779Y012879D01*
X027806Y012816D01*
X027831Y012752D01*
X027852Y012686D01*
X027870Y012620D01*
X027880Y011970D02*
X027864Y011900D01*
X027845Y011832D01*
X027822Y011765D01*
X027797Y011699D01*
X027768Y011634D01*
X027735Y011571D01*
X027700Y011509D01*
X025210Y011509D02*
X025175Y011571D01*
X025142Y011634D01*
X025113Y011699D01*
X025088Y011765D01*
X025065Y011832D01*
X025046Y011900D01*
X025030Y011970D01*
X032300Y002945D02*
X034899Y002945D01*
X035214Y002630D01*
X035214Y025670D01*
X034899Y025355D01*
X034899Y002945D01*
X035214Y002630D02*
X031985Y002630D01*
X009499Y006388D02*
X009499Y011112D01*
X007963Y011112D01*
X006310Y011112D02*
X004814Y011112D01*
X004814Y006388D01*
X006310Y006388D01*
X004814Y006388D02*
X003278Y006388D01*
X003278Y011112D01*
X004814Y011112D01*
X006052Y014325D02*
X007548Y014325D01*
X007548Y016175D01*
X006052Y016175D01*
X006052Y014325D01*
X007183Y014610D02*
X007185Y014632D01*
X007191Y014654D01*
X007200Y014674D01*
X007213Y014692D01*
X007229Y014708D01*
X007247Y014721D01*
X007267Y014730D01*
X007289Y014736D01*
X007311Y014738D01*
X007333Y014736D01*
X007355Y014730D01*
X007375Y014721D01*
X007393Y014708D01*
X007409Y014692D01*
X007422Y014674D01*
X007431Y014654D01*
X007437Y014632D01*
X007439Y014610D01*
X007437Y014588D01*
X007431Y014566D01*
X007422Y014546D01*
X007409Y014528D01*
X007393Y014512D01*
X007375Y014499D01*
X007355Y014490D01*
X007333Y014484D01*
X007311Y014482D01*
X007289Y014484D01*
X007267Y014490D01*
X007247Y014499D01*
X007229Y014512D01*
X007213Y014528D01*
X007200Y014546D01*
X007191Y014566D01*
X007185Y014588D01*
X007183Y014610D01*
X007963Y006388D02*
X009499Y006388D01*
X005983Y024010D02*
X005985Y024032D01*
X005991Y024054D01*
X006000Y024074D01*
X006013Y024092D01*
X006029Y024108D01*
X006047Y024121D01*
X006067Y024130D01*
X006089Y024136D01*
X006111Y024138D01*
X006133Y024136D01*
X006155Y024130D01*
X006175Y024121D01*
X006193Y024108D01*
X006209Y024092D01*
X006222Y024074D01*
X006231Y024054D01*
X006237Y024032D01*
X006239Y024010D01*
X006237Y023988D01*
X006231Y023966D01*
X006222Y023946D01*
X006209Y023928D01*
X006193Y023912D01*
X006175Y023899D01*
X006155Y023890D01*
X006133Y023884D01*
X006111Y023882D01*
X006089Y023884D01*
X006067Y023890D01*
X006047Y023899D01*
X006029Y023912D01*
X006013Y023928D01*
X006000Y023946D01*
X005991Y023966D01*
X005985Y023988D01*
X005983Y024010D01*
X031985Y025670D02*
X035214Y025670D01*
X034899Y025355D02*
X032300Y025355D01*
D12*
X005814Y001426D02*
X005814Y001241D01*
X006185Y001241D01*
X006061Y001241D02*
X006061Y001426D01*
X005999Y001488D01*
X005876Y001488D01*
X005814Y001426D01*
X005814Y001610D02*
X006185Y001610D01*
X005999Y001610D02*
X005999Y001856D01*
X005876Y001978D02*
X005999Y002101D01*
X006185Y002101D01*
X005999Y002101D02*
X005876Y002225D01*
X005814Y002225D01*
X005814Y002346D02*
X005814Y002531D01*
X005876Y002593D01*
X005999Y002593D01*
X006061Y002531D01*
X006061Y002346D01*
X006185Y002346D02*
X005814Y002346D01*
X006061Y002470D02*
X006185Y002593D01*
X006123Y002715D02*
X005999Y002715D01*
X005938Y002776D01*
X005938Y002900D01*
X005999Y002961D01*
X006061Y002961D01*
X006061Y002715D01*
X006123Y002715D02*
X006185Y002776D01*
X006185Y002900D01*
X006185Y003083D02*
X006185Y003268D01*
X006123Y003330D01*
X006061Y003268D01*
X006061Y003145D01*
X005999Y003083D01*
X005938Y003145D01*
X005938Y003330D01*
X005999Y003451D02*
X005938Y003513D01*
X005938Y003636D01*
X005999Y003698D01*
X006061Y003698D01*
X006061Y003451D01*
X006123Y003451D02*
X005999Y003451D01*
X006123Y003451D02*
X006185Y003513D01*
X006185Y003636D01*
X006123Y003881D02*
X005876Y003881D01*
X005938Y003819D02*
X005938Y003943D01*
X006123Y003881D02*
X006185Y003943D01*
X006130Y005765D02*
X005883Y005765D01*
X005883Y006135D01*
X006130Y006135D01*
X006007Y005950D02*
X005883Y005950D01*
X005762Y005827D02*
X005700Y005765D01*
X005577Y005765D01*
X005515Y005827D01*
X005515Y006074D01*
X005577Y006135D01*
X005700Y006135D01*
X005762Y006074D01*
X005393Y006135D02*
X005269Y006135D01*
X005331Y006135D02*
X005331Y005765D01*
X005269Y005765D02*
X005393Y005765D01*
X005148Y005888D02*
X005148Y006135D01*
X005148Y005888D02*
X005025Y005765D01*
X004901Y005888D01*
X004901Y006135D01*
X004780Y006135D02*
X004533Y006135D01*
X004533Y005765D01*
X004780Y005765D01*
X004656Y005950D02*
X004533Y005950D01*
X004411Y005827D02*
X004411Y006074D01*
X004350Y006135D01*
X004165Y006135D01*
X004165Y005765D01*
X004350Y005765D01*
X004411Y005827D01*
X008828Y003035D02*
X008828Y002665D01*
X008828Y002788D02*
X009013Y002788D01*
X009075Y002850D01*
X009075Y002974D01*
X009013Y003035D01*
X008828Y003035D01*
X008951Y002788D02*
X009075Y002665D01*
X009196Y002665D02*
X009443Y002665D01*
X009320Y002665D02*
X009320Y003035D01*
X009196Y002912D01*
X010428Y002235D02*
X010613Y002235D01*
X010675Y002174D01*
X010675Y002050D01*
X010613Y001988D01*
X010428Y001988D01*
X010428Y001865D02*
X010428Y002235D01*
X010551Y001988D02*
X010675Y001865D01*
X010796Y001865D02*
X011043Y002112D01*
X011043Y002174D01*
X010981Y002235D01*
X010858Y002235D01*
X010796Y002174D01*
X010796Y001865D02*
X011043Y001865D01*
X006185Y001856D02*
X005814Y001856D01*
X005814Y001978D02*
X005876Y001978D01*
X010614Y011315D02*
X010614Y011500D01*
X010676Y011562D01*
X010799Y011562D01*
X010861Y011500D01*
X010861Y011315D01*
X010861Y011438D02*
X010985Y011562D01*
X010923Y011683D02*
X010985Y011745D01*
X010985Y011868D01*
X010923Y011930D01*
X010676Y011930D01*
X010614Y011868D01*
X010614Y011745D01*
X010676Y011683D01*
X010738Y011683D01*
X010799Y011745D01*
X010799Y011930D01*
X010985Y011315D02*
X010614Y011315D01*
X008643Y011765D02*
X008396Y011765D01*
X008643Y012012D01*
X008643Y012074D01*
X008581Y012135D01*
X008458Y012135D01*
X008396Y012074D01*
X008151Y012135D02*
X008151Y011765D01*
X008028Y011765D02*
X008275Y011765D01*
X008028Y012012D02*
X008151Y012135D01*
X007906Y012074D02*
X007906Y011950D01*
X007845Y011888D01*
X007660Y011888D01*
X007660Y011765D02*
X007660Y012135D01*
X007845Y012135D01*
X007906Y012074D01*
X007783Y011888D02*
X007906Y011765D01*
X009465Y013665D02*
X009465Y014035D01*
X009650Y014035D01*
X009711Y013974D01*
X009711Y013850D01*
X009650Y013788D01*
X009465Y013788D01*
X009588Y013788D02*
X009711Y013665D01*
X009833Y013665D02*
X010080Y013665D01*
X009956Y013665D02*
X009956Y014035D01*
X009833Y013912D01*
X010201Y013850D02*
X010386Y013850D01*
X010448Y013788D01*
X010448Y013727D01*
X010386Y013665D01*
X010263Y013665D01*
X010201Y013727D01*
X010201Y013850D01*
X010325Y013974D01*
X010448Y014035D01*
X011214Y014310D02*
X011214Y014495D01*
X011276Y014557D01*
X011399Y014557D01*
X011461Y014495D01*
X011461Y014310D01*
X011461Y014433D02*
X011585Y014557D01*
X011585Y014678D02*
X011585Y014925D01*
X011585Y014802D02*
X011214Y014802D01*
X011338Y014678D01*
X011214Y014310D02*
X011585Y014310D01*
X011523Y015047D02*
X011585Y015108D01*
X011585Y015232D01*
X011523Y015294D01*
X011399Y015294D01*
X011338Y015232D01*
X011338Y015170D01*
X011399Y015047D01*
X011214Y015047D01*
X011214Y015294D01*
X015578Y013335D02*
X015578Y012965D01*
X015578Y013088D02*
X015763Y013088D01*
X015825Y013150D01*
X015825Y013274D01*
X015763Y013335D01*
X015578Y013335D01*
X015701Y013088D02*
X015825Y012965D01*
X015946Y013027D02*
X016008Y012965D01*
X016131Y012965D01*
X016193Y013027D01*
X016193Y013088D01*
X016131Y013150D01*
X015946Y013150D01*
X015946Y013027D01*
X015946Y013150D02*
X016070Y013274D01*
X016193Y013335D01*
X021460Y010735D02*
X021460Y010365D01*
X021460Y010488D02*
X021645Y010488D01*
X021706Y010550D01*
X021706Y010674D01*
X021645Y010735D01*
X021460Y010735D01*
X021583Y010488D02*
X021706Y010365D01*
X021828Y010365D02*
X022075Y010365D01*
X022196Y010365D02*
X022443Y010365D01*
X022320Y010365D02*
X022320Y010735D01*
X022196Y010612D01*
X021951Y010735D02*
X021951Y010365D01*
X021828Y010612D02*
X021951Y010735D01*
X031114Y010700D02*
X031176Y010762D01*
X031299Y010762D01*
X031361Y010700D01*
X031361Y010515D01*
X031361Y010638D02*
X031485Y010762D01*
X031485Y010883D02*
X031423Y010883D01*
X031176Y011130D01*
X031114Y011130D01*
X031114Y010883D01*
X031114Y010700D02*
X031114Y010515D01*
X031485Y010515D01*
X031423Y006294D02*
X031485Y006232D01*
X031485Y006108D01*
X031423Y006047D01*
X031361Y006047D01*
X031299Y006108D01*
X031299Y006232D01*
X031361Y006294D01*
X031423Y006294D01*
X031299Y006232D02*
X031238Y006294D01*
X031176Y006294D01*
X031114Y006232D01*
X031114Y006108D01*
X031176Y006047D01*
X031238Y006047D01*
X031299Y006108D01*
X031299Y005925D02*
X031176Y005925D01*
X031114Y005864D01*
X031114Y005678D01*
X031485Y005678D01*
X031361Y005678D02*
X031361Y005864D01*
X031299Y005925D01*
X031361Y005802D02*
X031485Y005925D01*
X031385Y015178D02*
X031014Y015178D01*
X031014Y015364D01*
X031076Y015425D01*
X031199Y015425D01*
X031261Y015364D01*
X031261Y015178D01*
X031261Y015302D02*
X031385Y015425D01*
X031323Y015547D02*
X031385Y015608D01*
X031385Y015732D01*
X031323Y015794D01*
X031199Y015794D01*
X031138Y015732D01*
X031138Y015670D01*
X031199Y015547D01*
X031014Y015547D01*
X031014Y015794D01*
X035454Y019047D02*
X035516Y018985D01*
X035763Y018985D01*
X035825Y019047D01*
X035825Y019170D01*
X035763Y019232D01*
X035763Y019353D02*
X035825Y019415D01*
X035825Y019538D01*
X035763Y019600D01*
X035639Y019600D01*
X035578Y019538D01*
X035578Y019415D01*
X035639Y019353D01*
X035763Y019353D01*
X035993Y019415D02*
X036054Y019415D01*
X036178Y019415D02*
X036425Y019415D01*
X036425Y019353D02*
X036425Y019477D01*
X036425Y019599D02*
X036425Y019722D01*
X036425Y019661D02*
X036054Y019661D01*
X036054Y019599D01*
X035948Y019722D02*
X035578Y019722D01*
X035578Y019907D01*
X035639Y019969D01*
X035763Y019969D01*
X035825Y019907D01*
X035825Y019722D01*
X035993Y019906D02*
X036054Y019906D01*
X036178Y019906D02*
X036425Y019906D01*
X036425Y019844D02*
X036425Y019968D01*
X036363Y020090D02*
X036425Y020152D01*
X036425Y020337D01*
X036363Y020458D02*
X036425Y020520D01*
X036425Y020643D01*
X036363Y020705D01*
X036239Y020705D01*
X036178Y020643D01*
X036178Y020520D01*
X036239Y020458D01*
X036363Y020458D01*
X036178Y020337D02*
X036178Y020152D01*
X036239Y020090D01*
X036363Y020090D01*
X036178Y019906D02*
X036178Y019844D01*
X035948Y020213D02*
X035948Y020275D01*
X035886Y020337D01*
X035578Y020337D01*
X035578Y020458D02*
X035825Y020458D01*
X035825Y020337D02*
X035825Y020152D01*
X035763Y020090D01*
X035578Y020090D01*
X035701Y020458D02*
X035578Y020582D01*
X035578Y020643D01*
X035578Y020765D02*
X035578Y020827D01*
X035825Y020827D01*
X035825Y020765D02*
X035825Y020889D01*
X035763Y021011D02*
X035825Y021072D01*
X035825Y021258D01*
X035886Y021258D02*
X035578Y021258D01*
X035578Y021072D01*
X035639Y021011D01*
X035763Y021011D01*
X035948Y021134D02*
X035948Y021196D01*
X035886Y021258D01*
X035825Y021379D02*
X035454Y021379D01*
X035578Y021441D02*
X035578Y021564D01*
X035639Y021626D01*
X035825Y021626D01*
X035763Y021809D02*
X035825Y021871D01*
X035763Y021809D02*
X035516Y021809D01*
X035578Y021747D02*
X035578Y021871D01*
X035578Y021993D02*
X035639Y021993D01*
X035639Y022055D01*
X035578Y022055D01*
X035578Y021993D01*
X035763Y021993D02*
X035825Y021993D01*
X035825Y022055D01*
X035763Y022055D01*
X035763Y021993D01*
X035993Y021993D02*
X036054Y021993D01*
X036178Y021993D02*
X036425Y021993D01*
X036425Y021932D02*
X036425Y022055D01*
X036425Y022177D02*
X036178Y022177D01*
X036301Y022177D02*
X036178Y022300D01*
X036178Y022362D01*
X036239Y022484D02*
X036363Y022484D01*
X036425Y022546D01*
X036425Y022731D01*
X036363Y022852D02*
X036425Y022914D01*
X036425Y023099D01*
X036178Y023099D01*
X036178Y023221D02*
X036178Y023282D01*
X036425Y023282D01*
X036425Y023221D02*
X036425Y023344D01*
X036363Y023528D02*
X036116Y023528D01*
X036178Y023466D02*
X036178Y023590D01*
X036239Y023712D02*
X036178Y023773D01*
X036178Y023959D01*
X036301Y023897D02*
X036301Y023773D01*
X036239Y023712D01*
X036425Y023712D02*
X036425Y023897D01*
X036363Y023959D01*
X036301Y023897D01*
X036363Y024080D02*
X036363Y024142D01*
X036425Y024142D01*
X036425Y024080D01*
X036363Y024080D01*
X036363Y024264D02*
X036425Y024326D01*
X036425Y024511D01*
X036363Y024632D02*
X036425Y024694D01*
X036425Y024818D01*
X036363Y024879D01*
X036239Y024879D01*
X036178Y024818D01*
X036178Y024694D01*
X036239Y024632D01*
X036363Y024632D01*
X036178Y024511D02*
X036178Y024326D01*
X036239Y024264D01*
X036363Y024264D01*
X035825Y023835D02*
X035825Y023712D01*
X035763Y023650D01*
X035825Y023529D02*
X035825Y023282D01*
X035825Y023405D02*
X035454Y023405D01*
X035578Y023282D01*
X035516Y023161D02*
X035763Y022914D01*
X035825Y022975D01*
X035825Y023099D01*
X035763Y023161D01*
X035516Y023161D01*
X035454Y023099D01*
X035454Y022975D01*
X035516Y022914D01*
X035763Y022914D01*
X035825Y022792D02*
X035825Y022545D01*
X035578Y022792D01*
X035516Y022792D01*
X035454Y022731D01*
X035454Y022607D01*
X035516Y022545D01*
X036178Y022546D02*
X036239Y022484D01*
X036178Y022546D02*
X036178Y022731D01*
X036178Y022852D02*
X036363Y022852D01*
X036054Y023282D02*
X035993Y023282D01*
X036363Y023528D02*
X036425Y023590D01*
X035825Y023835D02*
X035763Y023897D01*
X035701Y023897D01*
X035639Y023835D01*
X035639Y023774D01*
X035639Y023835D02*
X035578Y023897D01*
X035516Y023897D01*
X035454Y023835D01*
X035454Y023712D01*
X035516Y023650D01*
X036178Y025001D02*
X036178Y025063D01*
X036239Y025124D01*
X036178Y025186D01*
X036239Y025248D01*
X036425Y025248D01*
X036425Y025124D02*
X036239Y025124D01*
X036178Y025001D02*
X036425Y025001D01*
X036178Y021993D02*
X036178Y021932D01*
X036178Y021810D02*
X036178Y021625D01*
X036239Y021563D01*
X036363Y021563D01*
X036425Y021625D01*
X036425Y021810D01*
X036239Y021442D02*
X036239Y021195D01*
X036239Y021073D02*
X036425Y021073D01*
X036239Y021073D02*
X036178Y021012D01*
X036178Y020827D01*
X036425Y020827D01*
X035639Y021379D02*
X035578Y021441D01*
X035454Y020827D02*
X035393Y020827D01*
X036178Y019415D02*
X036178Y019353D01*
X036178Y019232D02*
X036178Y019047D01*
X036239Y018985D01*
X036301Y019047D01*
X036301Y019170D01*
X036363Y019232D01*
X036425Y019170D01*
X036425Y018985D01*
X035516Y019232D02*
X035454Y019170D01*
X035454Y019047D01*
X031585Y019778D02*
X031214Y019778D01*
X031214Y019964D01*
X031276Y020025D01*
X031399Y020025D01*
X031461Y019964D01*
X031461Y019778D01*
X031461Y019902D02*
X031585Y020025D01*
X031399Y020147D02*
X031214Y020332D01*
X031585Y020332D01*
X031399Y020394D02*
X031399Y020147D01*
X029685Y022065D02*
X029314Y022065D01*
X029314Y022250D01*
X029376Y022312D01*
X029623Y022312D01*
X029685Y022250D01*
X029685Y022065D01*
X029685Y022433D02*
X029685Y022680D01*
X029685Y022557D02*
X029314Y022557D01*
X029438Y022433D01*
X029746Y022802D02*
X029746Y023049D01*
X029685Y023170D02*
X029314Y023170D01*
X029314Y023355D01*
X029376Y023417D01*
X029499Y023417D01*
X029561Y023355D01*
X029561Y023170D01*
X029623Y023538D02*
X029685Y023600D01*
X029685Y023723D01*
X029623Y023785D01*
X029376Y023785D01*
X029314Y023723D01*
X029314Y023600D01*
X029376Y023538D01*
X029623Y023538D01*
X029685Y023907D02*
X029314Y023907D01*
X029314Y024153D02*
X029685Y024153D01*
X029561Y024030D01*
X029685Y023907D01*
X029685Y024275D02*
X029314Y024275D01*
X029314Y024522D01*
X029314Y024643D02*
X029314Y024828D01*
X029376Y024890D01*
X029499Y024890D01*
X029561Y024828D01*
X029561Y024643D01*
X029685Y024643D02*
X029314Y024643D01*
X029561Y024767D02*
X029685Y024890D01*
X029685Y024522D02*
X029685Y024275D01*
X029499Y024275D02*
X029499Y024398D01*
X031114Y024515D02*
X031114Y024700D01*
X031176Y024762D01*
X031299Y024762D01*
X031361Y024700D01*
X031361Y024515D01*
X031361Y024638D02*
X031485Y024762D01*
X031423Y024883D02*
X031485Y024945D01*
X031485Y025068D01*
X031423Y025130D01*
X031361Y025130D01*
X031299Y025068D01*
X031299Y025007D01*
X031299Y025068D02*
X031238Y025130D01*
X031176Y025130D01*
X031114Y025068D01*
X031114Y024945D01*
X031176Y024883D01*
X031114Y024515D02*
X031485Y024515D01*
X012285Y021937D02*
X012285Y021813D01*
X012223Y021752D01*
X011976Y021999D01*
X012223Y021999D01*
X012285Y021937D01*
X012223Y021752D02*
X011976Y021752D01*
X011914Y021813D01*
X011914Y021937D01*
X011976Y021999D01*
X012285Y021630D02*
X012285Y021383D01*
X012285Y021262D02*
X012161Y021138D01*
X012161Y021200D02*
X012161Y021015D01*
X012285Y021015D02*
X011914Y021015D01*
X011914Y021200D01*
X011976Y021262D01*
X012099Y021262D01*
X012161Y021200D01*
X012038Y021383D02*
X011914Y021507D01*
X012285Y021507D01*
X009370Y023615D02*
X009370Y023985D01*
X009493Y023985D02*
X009246Y023985D01*
X009125Y023924D02*
X009063Y023985D01*
X008940Y023985D01*
X008878Y023924D01*
X008878Y023862D01*
X008940Y023800D01*
X009063Y023800D01*
X009125Y023738D01*
X009125Y023677D01*
X009063Y023615D01*
X008940Y023615D01*
X008878Y023677D01*
X008756Y023677D02*
X008756Y023924D01*
X008695Y023985D01*
X008571Y023985D01*
X008510Y023924D01*
X008510Y023677D01*
X008571Y023615D01*
X008695Y023615D01*
X008756Y023677D01*
X008388Y023615D02*
X008388Y023985D01*
X008388Y023800D02*
X008141Y023800D01*
X008141Y023615D02*
X008141Y023985D01*
X009814Y025610D02*
X009814Y025795D01*
X009876Y025857D01*
X009999Y025857D01*
X010061Y025795D01*
X010061Y025610D01*
X010061Y025733D02*
X010185Y025857D01*
X010185Y025978D02*
X010185Y026225D01*
X010185Y026102D02*
X009814Y026102D01*
X009938Y025978D01*
X009814Y025610D02*
X010185Y025610D01*
X010123Y026347D02*
X010185Y026408D01*
X010185Y026532D01*
X010123Y026594D01*
X010061Y026594D01*
X009999Y026532D01*
X009999Y026470D01*
X009999Y026532D02*
X009938Y026594D01*
X009876Y026594D01*
X009814Y026532D01*
X009814Y026408D01*
X009876Y026347D01*
D13*
X009159Y026400D02*
X009159Y026700D01*
X008640Y026690D02*
X008640Y026400D01*
X008633Y025630D02*
X008633Y025170D01*
X008480Y025170D02*
X008787Y025170D01*
X008940Y025247D02*
X009017Y025170D01*
X009171Y025170D01*
X009247Y025247D01*
X009247Y025323D01*
X009171Y025400D01*
X009094Y025400D01*
X009171Y025400D02*
X009247Y025477D01*
X009247Y025554D01*
X009171Y025630D01*
X009017Y025630D01*
X008940Y025554D01*
X008633Y025630D02*
X008480Y025477D01*
X008326Y025554D02*
X008250Y025630D01*
X008096Y025630D01*
X008020Y025554D01*
X008020Y025247D01*
X008096Y025170D01*
X008250Y025170D01*
X008326Y025247D01*
X006959Y026400D02*
X006959Y026700D01*
X006440Y026690D02*
X006440Y026400D01*
X006080Y026337D02*
X006080Y026030D01*
X006080Y026184D02*
X005619Y026184D01*
X005773Y026030D01*
X005696Y025877D02*
X005619Y025800D01*
X005619Y025647D01*
X005696Y025570D01*
X006003Y025570D01*
X006080Y025647D01*
X006080Y025800D01*
X006003Y025877D01*
X006080Y026491D02*
X005773Y026798D01*
X005696Y026798D01*
X005619Y026721D01*
X005619Y026568D01*
X005696Y026491D01*
X006080Y026491D02*
X006080Y026798D01*
X004103Y024117D02*
X004180Y024040D01*
X004180Y023886D01*
X004103Y023810D01*
X004103Y023656D02*
X003719Y023656D01*
X003796Y023810D02*
X003719Y023886D01*
X003719Y024040D01*
X003796Y024117D01*
X003873Y024117D01*
X003949Y024040D01*
X004026Y024117D01*
X004103Y024117D01*
X003949Y024040D02*
X003949Y023963D01*
X004103Y023656D02*
X004180Y023579D01*
X004180Y023426D01*
X004103Y023349D01*
X003719Y023349D01*
X010592Y024157D02*
X010669Y024157D01*
X010823Y024157D02*
X011130Y024157D01*
X011130Y024080D02*
X011130Y024234D01*
X011130Y024387D02*
X010823Y024387D01*
X010823Y024618D01*
X010899Y024694D01*
X011130Y024694D01*
X011053Y024848D02*
X011130Y024924D01*
X011130Y025155D01*
X011206Y025155D02*
X010823Y025155D01*
X010823Y024924D01*
X010899Y024848D01*
X011053Y024848D01*
X011283Y025001D02*
X011283Y025078D01*
X011206Y025155D01*
X011130Y025308D02*
X010823Y025615D01*
X010746Y025615D01*
X010669Y025538D01*
X010669Y025385D01*
X010746Y025308D01*
X011130Y025308D02*
X011130Y025615D01*
X011480Y026820D02*
X011540Y026820D01*
X011600Y026880D01*
X011600Y027180D01*
X011540Y027180D02*
X011660Y027180D01*
X011788Y027180D02*
X011968Y027180D01*
X012028Y027120D01*
X012028Y027000D01*
X011968Y026940D01*
X011788Y026940D01*
X011788Y026820D02*
X011788Y027180D01*
X012156Y027180D02*
X012156Y027000D01*
X012276Y027060D01*
X012336Y027060D01*
X012396Y027000D01*
X012396Y026880D01*
X012336Y026820D01*
X012216Y026820D01*
X012156Y026880D01*
X012156Y027180D02*
X012396Y027180D01*
X011480Y026820D02*
X011420Y026880D01*
X010823Y024157D02*
X010823Y024080D01*
X010669Y023927D02*
X011130Y023927D01*
X010976Y023773D01*
X011130Y023620D01*
X010669Y023620D01*
X011619Y023361D02*
X011696Y023437D01*
X011773Y023437D01*
X011849Y023361D01*
X011849Y023207D01*
X011773Y023130D01*
X011696Y023130D01*
X011619Y023207D01*
X011619Y023361D01*
X011849Y023361D02*
X011926Y023437D01*
X012003Y023437D01*
X012080Y023361D01*
X012080Y023207D01*
X012003Y023130D01*
X011926Y023130D01*
X011849Y023207D01*
X011696Y022977D02*
X011619Y022900D01*
X011619Y022747D01*
X011696Y022670D01*
X012003Y022670D01*
X012080Y022747D01*
X012080Y022900D01*
X012003Y022977D01*
X012540Y023300D02*
X012540Y023600D01*
X013059Y023600D02*
X013059Y023310D01*
X012203Y019717D02*
X011896Y019717D01*
X011819Y019640D01*
X011819Y019486D01*
X011896Y019410D01*
X011973Y019410D01*
X012049Y019486D01*
X012049Y019717D01*
X012203Y019717D02*
X012280Y019640D01*
X012280Y019486D01*
X012203Y019410D01*
X012203Y019256D02*
X012280Y019179D01*
X012280Y019026D01*
X012203Y018949D01*
X011896Y018949D01*
X011819Y019026D01*
X011819Y019179D01*
X011896Y019256D01*
X012540Y019300D02*
X012540Y019590D01*
X013059Y019600D02*
X013059Y019300D01*
X014950Y018310D02*
X015240Y018310D01*
X015250Y017790D02*
X014950Y017790D01*
X014950Y017310D02*
X015240Y017310D01*
X015250Y016790D02*
X014950Y016790D01*
X014066Y016847D02*
X013989Y016770D01*
X013836Y016770D01*
X013759Y016847D01*
X014066Y017154D01*
X014066Y016847D01*
X014066Y017154D02*
X013989Y017230D01*
X013836Y017230D01*
X013759Y017154D01*
X013759Y016847D01*
X013606Y016770D02*
X013299Y016770D01*
X013452Y016770D02*
X013452Y017230D01*
X013299Y017077D01*
X013145Y017154D02*
X013069Y017230D01*
X012915Y017230D01*
X012838Y017154D01*
X012838Y016847D01*
X012915Y016770D01*
X013069Y016770D01*
X013145Y016847D01*
X014175Y015630D02*
X014099Y015554D01*
X014099Y015247D01*
X014175Y015170D01*
X014329Y015170D01*
X014406Y015247D01*
X014559Y015247D02*
X014636Y015170D01*
X014789Y015170D01*
X014866Y015247D01*
X014866Y015323D01*
X014789Y015400D01*
X014713Y015400D01*
X014789Y015400D02*
X014866Y015477D01*
X014866Y015554D01*
X014789Y015630D01*
X014636Y015630D01*
X014559Y015554D01*
X014406Y015554D02*
X014329Y015630D01*
X014175Y015630D01*
X014350Y014910D02*
X014640Y014910D01*
X014650Y014390D02*
X014350Y014390D01*
X013640Y014010D02*
X013350Y014010D01*
X013350Y013490D02*
X013650Y013490D01*
X013713Y013230D02*
X013713Y012770D01*
X013866Y012770D02*
X013559Y012770D01*
X013406Y012847D02*
X013329Y012770D01*
X013175Y012770D01*
X013099Y012847D01*
X013099Y013154D01*
X013175Y013230D01*
X013329Y013230D01*
X013406Y013154D01*
X013559Y013077D02*
X013713Y013230D01*
X017709Y014159D02*
X017827Y014159D01*
X017709Y014159D02*
X017709Y014277D01*
X017709Y014159D02*
X020090Y014159D01*
X019972Y014159D01*
X020090Y014159D02*
X020090Y014277D01*
X020090Y014159D02*
X020090Y016541D01*
X019972Y016541D01*
X020090Y016541D02*
X020090Y016423D01*
X020090Y016541D02*
X017709Y016541D01*
X017709Y016423D01*
X017709Y016541D02*
X017827Y016541D01*
X017709Y016541D02*
X017709Y014159D01*
X018280Y013660D02*
X018510Y013660D01*
X018587Y013583D01*
X018587Y013429D01*
X018510Y013353D01*
X018280Y013353D01*
X018280Y013199D02*
X018280Y013660D01*
X018740Y013660D02*
X018740Y013199D01*
X018740Y013429D02*
X019047Y013429D01*
X019201Y013583D02*
X019354Y013429D01*
X019354Y013199D01*
X019354Y013429D02*
X019508Y013583D01*
X019508Y013660D01*
X019201Y013660D02*
X019201Y013583D01*
X019047Y013660D02*
X019047Y013199D01*
X023520Y015047D02*
X023596Y014970D01*
X023750Y014970D01*
X023826Y015047D01*
X023980Y015047D02*
X024057Y014970D01*
X024210Y014970D01*
X024287Y015047D01*
X024287Y015123D01*
X024210Y015200D01*
X023980Y015200D01*
X023980Y015047D01*
X023980Y015200D02*
X024133Y015354D01*
X024287Y015430D01*
X023826Y015354D02*
X023750Y015430D01*
X023596Y015430D01*
X023520Y015354D01*
X023520Y015047D01*
X023459Y015690D02*
X023750Y015690D01*
X023750Y016210D02*
X023450Y016210D01*
X023459Y016690D02*
X023750Y016690D01*
X023750Y017210D02*
X023450Y017210D01*
X023496Y017470D02*
X023650Y017470D01*
X023726Y017547D01*
X023880Y017547D02*
X023880Y017470D01*
X023880Y017547D02*
X024187Y017854D01*
X024187Y017930D01*
X023880Y017930D01*
X023726Y017854D02*
X023650Y017930D01*
X023496Y017930D01*
X023420Y017854D01*
X023420Y017547D01*
X023496Y017470D01*
X017266Y017970D02*
X016959Y017970D01*
X016806Y017970D02*
X016499Y017970D01*
X016652Y017970D02*
X016652Y018430D01*
X016499Y018277D01*
X016345Y018354D02*
X016269Y018430D01*
X016115Y018430D01*
X016038Y018354D01*
X016038Y018047D01*
X016115Y017970D01*
X016269Y017970D01*
X016345Y018047D01*
X016959Y018277D02*
X017113Y018430D01*
X017113Y017970D01*
X011447Y016700D02*
X011140Y016700D01*
X011371Y016930D01*
X011371Y016470D01*
X010987Y016470D02*
X010680Y016470D01*
X010833Y016470D02*
X010833Y016930D01*
X010680Y016777D01*
X010526Y016854D02*
X010450Y016930D01*
X010296Y016930D01*
X010220Y016854D01*
X010220Y016547D01*
X010296Y016470D01*
X010450Y016470D01*
X010526Y016547D01*
X009450Y016390D02*
X009159Y016390D01*
X009150Y016910D02*
X009450Y016910D01*
X008466Y016604D02*
X008389Y016680D01*
X008236Y016680D01*
X008159Y016604D01*
X008006Y016680D02*
X008006Y016297D01*
X007929Y016220D01*
X007775Y016220D01*
X007699Y016297D01*
X007699Y016680D01*
X008159Y016220D02*
X008466Y016527D01*
X008466Y016604D01*
X008466Y016220D02*
X008159Y016220D01*
X006350Y016490D02*
X006059Y016490D01*
X006050Y017010D02*
X006350Y017010D01*
X005087Y016954D02*
X005010Y017030D01*
X004857Y017030D01*
X004780Y016954D01*
X004626Y016954D02*
X004550Y017030D01*
X004396Y017030D01*
X004320Y016954D01*
X004320Y016647D01*
X004396Y016570D01*
X004550Y016570D01*
X004626Y016647D01*
X004780Y016570D02*
X005087Y016877D01*
X005087Y016954D01*
X005087Y016570D02*
X004780Y016570D01*
X004725Y014730D02*
X004649Y014654D01*
X004649Y014347D01*
X004725Y014270D01*
X004879Y014270D01*
X004956Y014347D01*
X005109Y014500D02*
X005416Y014500D01*
X005339Y014270D02*
X005339Y014730D01*
X005109Y014500D01*
X004956Y014654D02*
X004879Y014730D01*
X004725Y014730D01*
X004650Y014010D02*
X004940Y014010D01*
X004950Y013490D02*
X004650Y013490D01*
X004650Y012910D02*
X004940Y012910D01*
X004950Y012390D02*
X004650Y012390D01*
X004575Y012130D02*
X004499Y012054D01*
X004499Y011747D01*
X004575Y011670D01*
X004729Y011670D01*
X004806Y011747D01*
X004959Y011747D02*
X005036Y011670D01*
X005189Y011670D01*
X005266Y011747D01*
X005266Y011900D01*
X005189Y011977D01*
X005113Y011977D01*
X004959Y011900D01*
X004959Y012130D01*
X005266Y012130D01*
X004806Y012054D02*
X004729Y012130D01*
X004575Y012130D01*
X008120Y013280D02*
X008180Y013220D01*
X008240Y013220D01*
X008300Y013280D01*
X008300Y013580D01*
X008240Y013580D02*
X008360Y013580D01*
X008488Y013580D02*
X008668Y013580D01*
X008728Y013520D01*
X008728Y013400D01*
X008668Y013340D01*
X008488Y013340D01*
X008488Y013220D02*
X008488Y013580D01*
X008856Y013400D02*
X009096Y013400D01*
X009036Y013220D02*
X009036Y013580D01*
X008856Y013400D01*
X011657Y005407D02*
X011657Y005330D01*
X011657Y005177D02*
X011657Y004870D01*
X011733Y004870D02*
X011580Y004870D01*
X011426Y004870D02*
X011426Y005330D01*
X011580Y005177D02*
X011657Y005177D01*
X011887Y005177D02*
X011887Y004870D01*
X012194Y004870D02*
X012194Y005100D01*
X012117Y005177D01*
X011887Y005177D01*
X012347Y005100D02*
X012347Y004947D01*
X012424Y004870D01*
X012654Y004870D01*
X012654Y004793D02*
X012654Y005177D01*
X012424Y005177D01*
X012347Y005100D01*
X012501Y004717D02*
X012577Y004717D01*
X012654Y004793D01*
X012808Y004870D02*
X013115Y004870D01*
X012961Y004870D02*
X012961Y005330D01*
X012808Y005177D01*
X011426Y004870D02*
X011273Y005023D01*
X011120Y004870D01*
X011120Y005330D01*
X006047Y004442D02*
X005740Y004442D01*
X005587Y004442D02*
X005433Y004596D01*
X005280Y004442D01*
X005280Y004902D01*
X005126Y004826D02*
X005050Y004902D01*
X004896Y004902D01*
X004819Y004826D01*
X004819Y004749D01*
X004896Y004672D01*
X005050Y004672D01*
X005126Y004596D01*
X005126Y004519D01*
X005050Y004442D01*
X004896Y004442D01*
X004819Y004519D01*
X005587Y004442D02*
X005587Y004902D01*
X005740Y004749D02*
X005894Y004902D01*
X005894Y004442D01*
X026820Y006370D02*
X027126Y006370D01*
X026973Y006370D02*
X026973Y006830D01*
X026820Y006677D01*
X027280Y006830D02*
X027587Y006830D01*
X027587Y006754D01*
X027280Y006447D01*
X027280Y006370D01*
X028473Y004430D02*
X028626Y004277D01*
X028626Y003970D01*
X028626Y004200D02*
X028320Y004200D01*
X028320Y004277D02*
X028320Y003970D01*
X028320Y004277D02*
X028473Y004430D01*
X028550Y003430D02*
X028626Y003354D01*
X028626Y003277D01*
X028550Y003200D01*
X028320Y003200D01*
X028550Y003200D02*
X028626Y003123D01*
X028626Y003047D01*
X028550Y002970D01*
X028320Y002970D01*
X028320Y003430D01*
X028550Y003430D01*
X030073Y004443D02*
X030073Y004857D01*
X030163Y005015D02*
X030168Y004993D01*
X030176Y004973D01*
X030187Y004955D01*
X030202Y004938D01*
X030218Y004924D01*
X030237Y004912D01*
X030257Y004904D01*
X030278Y004899D01*
X030300Y004897D01*
X030322Y004899D01*
X030343Y004904D01*
X030363Y004912D01*
X030382Y004924D01*
X030398Y004938D01*
X030413Y004955D01*
X030424Y004973D01*
X030432Y004993D01*
X030437Y005015D01*
X030526Y004847D02*
X030526Y004286D01*
X030436Y004315D02*
X030438Y004327D01*
X030443Y004338D01*
X030451Y004347D01*
X030462Y004353D01*
X030474Y004356D01*
X030486Y004355D01*
X030498Y004351D01*
X030507Y004343D01*
X030514Y004333D01*
X030518Y004321D01*
X030518Y004309D01*
X030514Y004297D01*
X030507Y004287D01*
X030497Y004279D01*
X030486Y004275D01*
X030474Y004274D01*
X030462Y004277D01*
X030451Y004283D01*
X030443Y004292D01*
X030438Y004303D01*
X030436Y004315D01*
X030437Y004285D02*
X030432Y004307D01*
X030424Y004327D01*
X030413Y004345D01*
X030398Y004362D01*
X030382Y004376D01*
X030363Y004388D01*
X030343Y004396D01*
X030322Y004401D01*
X030300Y004403D01*
X030278Y004401D01*
X030257Y004396D01*
X030237Y004388D01*
X030218Y004376D01*
X030202Y004362D01*
X030187Y004345D01*
X030176Y004327D01*
X030168Y004307D01*
X030163Y004285D01*
X030163Y008985D02*
X030168Y009007D01*
X030176Y009027D01*
X030187Y009045D01*
X030202Y009062D01*
X030218Y009076D01*
X030237Y009088D01*
X030257Y009096D01*
X030278Y009101D01*
X030300Y009103D01*
X030322Y009101D01*
X030343Y009096D01*
X030363Y009088D01*
X030382Y009076D01*
X030398Y009062D01*
X030413Y009045D01*
X030424Y009027D01*
X030432Y009007D01*
X030437Y008985D01*
X030526Y009143D02*
X030526Y009557D01*
X030437Y009715D02*
X030432Y009693D01*
X030424Y009673D01*
X030413Y009655D01*
X030398Y009638D01*
X030382Y009624D01*
X030363Y009612D01*
X030343Y009604D01*
X030322Y009599D01*
X030300Y009597D01*
X030278Y009599D01*
X030257Y009604D01*
X030237Y009612D01*
X030218Y009624D01*
X030202Y009638D01*
X030187Y009655D01*
X030176Y009673D01*
X030168Y009693D01*
X030163Y009715D01*
X030081Y009685D02*
X030083Y009697D01*
X030088Y009708D01*
X030096Y009717D01*
X030107Y009723D01*
X030119Y009726D01*
X030131Y009725D01*
X030143Y009721D01*
X030152Y009713D01*
X030159Y009703D01*
X030163Y009691D01*
X030163Y009679D01*
X030159Y009667D01*
X030152Y009657D01*
X030142Y009649D01*
X030131Y009645D01*
X030119Y009644D01*
X030107Y009647D01*
X030096Y009653D01*
X030088Y009662D01*
X030083Y009673D01*
X030081Y009685D01*
X030073Y009714D02*
X030073Y009153D01*
X030163Y013785D02*
X030168Y013807D01*
X030176Y013827D01*
X030187Y013845D01*
X030202Y013862D01*
X030218Y013876D01*
X030237Y013888D01*
X030257Y013896D01*
X030278Y013901D01*
X030300Y013903D01*
X030322Y013901D01*
X030343Y013896D01*
X030363Y013888D01*
X030382Y013876D01*
X030398Y013862D01*
X030413Y013845D01*
X030424Y013827D01*
X030432Y013807D01*
X030437Y013785D01*
X030436Y013815D02*
X030438Y013827D01*
X030443Y013838D01*
X030451Y013847D01*
X030462Y013853D01*
X030474Y013856D01*
X030486Y013855D01*
X030498Y013851D01*
X030507Y013843D01*
X030514Y013833D01*
X030518Y013821D01*
X030518Y013809D01*
X030514Y013797D01*
X030507Y013787D01*
X030497Y013779D01*
X030486Y013775D01*
X030474Y013774D01*
X030462Y013777D01*
X030451Y013783D01*
X030443Y013792D01*
X030438Y013803D01*
X030436Y013815D01*
X030526Y013786D02*
X030526Y014347D01*
X030437Y014515D02*
X030432Y014493D01*
X030424Y014473D01*
X030413Y014455D01*
X030398Y014438D01*
X030382Y014424D01*
X030363Y014412D01*
X030343Y014404D01*
X030322Y014399D01*
X030300Y014397D01*
X030278Y014399D01*
X030257Y014404D01*
X030237Y014412D01*
X030218Y014424D01*
X030202Y014438D01*
X030187Y014455D01*
X030176Y014473D01*
X030168Y014493D01*
X030163Y014515D01*
X030073Y014357D02*
X030073Y013943D01*
X030163Y018485D02*
X030168Y018507D01*
X030176Y018527D01*
X030187Y018545D01*
X030202Y018562D01*
X030218Y018576D01*
X030237Y018588D01*
X030257Y018596D01*
X030278Y018601D01*
X030300Y018603D01*
X030322Y018601D01*
X030343Y018596D01*
X030363Y018588D01*
X030382Y018576D01*
X030398Y018562D01*
X030413Y018545D01*
X030424Y018527D01*
X030432Y018507D01*
X030437Y018485D01*
X030436Y018515D02*
X030438Y018527D01*
X030443Y018538D01*
X030451Y018547D01*
X030462Y018553D01*
X030474Y018556D01*
X030486Y018555D01*
X030498Y018551D01*
X030507Y018543D01*
X030514Y018533D01*
X030518Y018521D01*
X030518Y018509D01*
X030514Y018497D01*
X030507Y018487D01*
X030497Y018479D01*
X030486Y018475D01*
X030474Y018474D01*
X030462Y018477D01*
X030451Y018483D01*
X030443Y018492D01*
X030438Y018503D01*
X030436Y018515D01*
X030526Y018486D02*
X030526Y019047D01*
X030437Y019215D02*
X030432Y019193D01*
X030424Y019173D01*
X030413Y019155D01*
X030398Y019138D01*
X030382Y019124D01*
X030363Y019112D01*
X030343Y019104D01*
X030322Y019099D01*
X030300Y019097D01*
X030278Y019099D01*
X030257Y019104D01*
X030237Y019112D01*
X030218Y019124D01*
X030202Y019138D01*
X030187Y019155D01*
X030176Y019173D01*
X030168Y019193D01*
X030163Y019215D01*
X030073Y019057D02*
X030073Y018643D01*
X030163Y023185D02*
X030168Y023207D01*
X030176Y023227D01*
X030187Y023245D01*
X030202Y023262D01*
X030218Y023276D01*
X030237Y023288D01*
X030257Y023296D01*
X030278Y023301D01*
X030300Y023303D01*
X030322Y023301D01*
X030343Y023296D01*
X030363Y023288D01*
X030382Y023276D01*
X030398Y023262D01*
X030413Y023245D01*
X030424Y023227D01*
X030432Y023207D01*
X030437Y023185D01*
X030526Y023343D02*
X030526Y023757D01*
X030437Y023915D02*
X030432Y023893D01*
X030424Y023873D01*
X030413Y023855D01*
X030398Y023838D01*
X030382Y023824D01*
X030363Y023812D01*
X030343Y023804D01*
X030322Y023799D01*
X030300Y023797D01*
X030278Y023799D01*
X030257Y023804D01*
X030237Y023812D01*
X030218Y023824D01*
X030202Y023838D01*
X030187Y023855D01*
X030176Y023873D01*
X030168Y023893D01*
X030163Y023915D01*
X030081Y023885D02*
X030083Y023897D01*
X030088Y023908D01*
X030096Y023917D01*
X030107Y023923D01*
X030119Y023926D01*
X030131Y023925D01*
X030143Y023921D01*
X030152Y023913D01*
X030159Y023903D01*
X030163Y023891D01*
X030163Y023879D01*
X030159Y023867D01*
X030152Y023857D01*
X030142Y023849D01*
X030131Y023845D01*
X030119Y023844D01*
X030107Y023847D01*
X030096Y023853D01*
X030088Y023862D01*
X030083Y023873D01*
X030081Y023885D01*
X030073Y023914D02*
X030073Y023353D01*
D14*
X031050Y023389D02*
X031050Y023711D01*
X031550Y023711D02*
X031550Y023389D01*
X028070Y024170D02*
X027729Y024170D01*
X027729Y024340D01*
X027786Y024397D01*
X027899Y024397D01*
X027956Y024340D01*
X027956Y024170D01*
X027956Y024538D02*
X027956Y024709D01*
X027899Y024765D01*
X027786Y024765D01*
X027729Y024709D01*
X027729Y024538D01*
X028070Y024538D01*
X028126Y024907D02*
X028126Y025134D01*
X028070Y025275D02*
X027729Y025275D01*
X027899Y025275D02*
X027899Y025502D01*
X027729Y025502D02*
X028070Y025502D01*
X028070Y025643D02*
X028070Y025814D01*
X028013Y025870D01*
X027786Y025870D01*
X027729Y025814D01*
X027729Y025643D01*
X028070Y025643D01*
X028070Y026012D02*
X027729Y026012D01*
X027729Y026182D01*
X027786Y026239D01*
X027899Y026239D01*
X027956Y026182D01*
X027956Y026012D01*
X027956Y026125D02*
X028070Y026239D01*
X031050Y019011D02*
X031050Y018689D01*
X031550Y018689D02*
X031550Y019011D01*
X035520Y017848D02*
X035520Y017528D01*
X036161Y017528D01*
X035947Y017528D02*
X035947Y017848D01*
X035841Y017955D01*
X035627Y017955D01*
X035520Y017848D01*
X035947Y017741D02*
X036161Y017955D01*
X036054Y017310D02*
X035627Y017310D01*
X035520Y017203D01*
X035520Y016883D01*
X036161Y016883D01*
X036161Y017203D01*
X036054Y017310D01*
X036161Y016665D02*
X035520Y016665D01*
X035841Y016665D02*
X035841Y016238D01*
X036161Y016238D02*
X035520Y016238D01*
X036268Y016021D02*
X036268Y015594D01*
X036161Y015163D02*
X035520Y015163D01*
X035520Y015376D02*
X035520Y014949D01*
X035627Y014732D02*
X035841Y014732D01*
X035947Y014625D01*
X035947Y014305D01*
X035947Y014518D02*
X036161Y014732D01*
X036161Y014305D02*
X035520Y014305D01*
X035520Y014625D01*
X035627Y014732D01*
X035627Y014087D02*
X035520Y013981D01*
X035520Y013767D01*
X035627Y013660D01*
X036054Y013660D01*
X036161Y013767D01*
X036161Y013981D01*
X036054Y014087D01*
X035627Y014087D01*
X035627Y013443D02*
X035841Y013443D01*
X035947Y013336D01*
X035947Y013016D01*
X036161Y013016D02*
X035520Y013016D01*
X035520Y013336D01*
X035627Y013443D01*
X035627Y012798D02*
X035520Y012691D01*
X035520Y012478D01*
X035627Y012371D01*
X036054Y012371D01*
X036161Y012478D01*
X036161Y012691D01*
X036054Y012798D01*
X036161Y012155D02*
X036161Y011941D01*
X036161Y012048D02*
X035520Y012048D01*
X035520Y011941D02*
X035520Y012155D01*
X035627Y011724D02*
X035520Y011617D01*
X035520Y011404D01*
X035627Y011297D01*
X036054Y011297D01*
X036161Y011404D01*
X036161Y011617D01*
X036054Y011724D01*
X035841Y011724D01*
X035841Y011510D01*
X036054Y011079D02*
X035627Y011079D01*
X035520Y010973D01*
X035520Y010759D01*
X035627Y010652D01*
X036054Y010652D01*
X036161Y010759D01*
X036161Y010973D01*
X036054Y011079D01*
X036161Y010435D02*
X036161Y010008D01*
X035520Y010008D01*
X031550Y009511D02*
X031550Y009189D01*
X031050Y009189D02*
X031050Y009511D01*
X028757Y010252D02*
X028463Y010252D01*
X028463Y010325D02*
X028536Y010399D01*
X028683Y010399D01*
X028757Y010325D01*
X028757Y010252D01*
X028683Y010105D02*
X028536Y010105D01*
X028463Y010178D01*
X028463Y010325D01*
X028296Y010399D02*
X028076Y010399D01*
X028003Y010325D01*
X028003Y010178D01*
X028076Y010105D01*
X028296Y010105D01*
X027954Y009649D02*
X028028Y009575D01*
X028028Y009502D01*
X027734Y009502D01*
X027734Y009575D02*
X027807Y009649D01*
X027954Y009649D01*
X027734Y009575D02*
X027734Y009428D01*
X027807Y009355D01*
X027954Y009355D01*
X027571Y009649D02*
X027497Y009649D01*
X027350Y009502D01*
X027350Y009355D02*
X027350Y009649D01*
X027184Y009575D02*
X027110Y009649D01*
X026963Y009649D01*
X026963Y009502D02*
X027184Y009502D01*
X027184Y009575D02*
X027184Y009355D01*
X026963Y009355D01*
X026890Y009428D01*
X026963Y009502D01*
X026723Y009428D02*
X026723Y009649D01*
X026723Y009428D02*
X026650Y009355D01*
X026576Y009428D01*
X026503Y009355D01*
X026430Y009428D01*
X026430Y009649D01*
X026263Y009649D02*
X026043Y009649D01*
X025969Y009575D01*
X025969Y009428D01*
X026043Y009355D01*
X026263Y009355D01*
X026263Y009795D01*
X026238Y010105D02*
X026458Y010105D01*
X026531Y010178D01*
X026458Y010252D01*
X026311Y010252D01*
X026238Y010325D01*
X026311Y010399D01*
X026531Y010399D01*
X026698Y010325D02*
X026698Y010178D01*
X026771Y010105D01*
X026918Y010105D01*
X026992Y010178D01*
X026992Y010325D01*
X026918Y010399D01*
X026771Y010399D01*
X026698Y010325D01*
X027158Y010399D02*
X027158Y010178D01*
X027232Y010105D01*
X027452Y010105D01*
X027452Y010399D01*
X027619Y010399D02*
X027619Y010105D01*
X027619Y010252D02*
X027766Y010399D01*
X027839Y010399D01*
X027660Y010790D02*
X027250Y011060D01*
X027080Y010980D01*
X026770Y011740D01*
X027070Y012040D01*
X027060Y012550D01*
X026670Y012900D01*
X026200Y012890D01*
X025860Y012540D01*
X025850Y012020D01*
X026130Y011720D01*
X025850Y010980D01*
X025650Y011090D01*
X025240Y010790D01*
X024940Y011080D01*
X025240Y011510D01*
X025040Y011990D01*
X024510Y012090D01*
X024520Y012510D01*
X025060Y012610D01*
X025250Y013080D01*
X024960Y013520D01*
X025622Y013520D01*
X025680Y013480D02*
X026140Y013670D01*
X026250Y014210D01*
X026660Y014220D01*
X026750Y013670D01*
X027220Y013500D01*
X027670Y013790D01*
X027950Y013500D01*
X027640Y013060D01*
X027860Y012590D01*
X028380Y012490D01*
X028370Y012080D01*
X027850Y011990D01*
X027680Y011500D01*
X027960Y011070D01*
X027660Y010790D01*
X027701Y010829D02*
X027600Y010829D01*
X027511Y010888D02*
X027764Y010888D01*
X027827Y010946D02*
X027423Y010946D01*
X027334Y011005D02*
X027889Y011005D01*
X027952Y011063D02*
X027046Y011063D01*
X027070Y011005D02*
X027132Y011005D01*
X027022Y011122D02*
X027926Y011122D01*
X027888Y011180D02*
X026998Y011180D01*
X026974Y011239D02*
X027850Y011239D01*
X027812Y011297D02*
X026950Y011297D01*
X026926Y011356D02*
X027774Y011356D01*
X027736Y011414D02*
X026902Y011414D01*
X026879Y011473D02*
X027697Y011473D01*
X027690Y011531D02*
X026855Y011531D01*
X026831Y011590D02*
X027711Y011590D01*
X027731Y011648D02*
X026807Y011648D01*
X026783Y011707D02*
X027751Y011707D01*
X027771Y011765D02*
X026795Y011765D01*
X026853Y011824D02*
X027792Y011824D01*
X027812Y011882D02*
X026912Y011882D01*
X026970Y011941D02*
X027832Y011941D01*
X027902Y011999D02*
X027029Y011999D01*
X027069Y012058D02*
X028240Y012058D01*
X028370Y012116D02*
X027068Y012116D01*
X027067Y012175D02*
X028372Y012175D01*
X028373Y012233D02*
X027066Y012233D01*
X027065Y012292D02*
X028375Y012292D01*
X028376Y012350D02*
X027063Y012350D01*
X027062Y012409D02*
X028378Y012409D01*
X028379Y012467D02*
X027061Y012467D01*
X027060Y012526D02*
X028195Y012526D01*
X027890Y012584D02*
X027022Y012584D01*
X026956Y012643D02*
X027835Y012643D01*
X027808Y012701D02*
X026891Y012701D01*
X026826Y012760D02*
X027780Y012760D01*
X027753Y012818D02*
X026761Y012818D01*
X026696Y012877D02*
X027725Y012877D01*
X027698Y012935D02*
X025191Y012935D01*
X025167Y012877D02*
X026186Y012877D01*
X026130Y012818D02*
X025144Y012818D01*
X025120Y012760D02*
X026073Y012760D01*
X026016Y012701D02*
X025096Y012701D01*
X025073Y012643D02*
X025959Y012643D01*
X025902Y012584D02*
X024919Y012584D01*
X024604Y012526D02*
X025859Y012526D01*
X025858Y012467D02*
X024519Y012467D01*
X024517Y012409D02*
X025857Y012409D01*
X025856Y012350D02*
X024516Y012350D01*
X024514Y012292D02*
X025855Y012292D01*
X025854Y012233D02*
X024513Y012233D01*
X024512Y012175D02*
X025853Y012175D01*
X025851Y012116D02*
X024510Y012116D01*
X024682Y012058D02*
X025850Y012058D01*
X025869Y011999D02*
X024992Y011999D01*
X025060Y011941D02*
X025924Y011941D01*
X025978Y011882D02*
X025085Y011882D01*
X025109Y011824D02*
X026033Y011824D01*
X026087Y011765D02*
X025133Y011765D01*
X025158Y011707D02*
X026124Y011707D01*
X026102Y011648D02*
X025182Y011648D01*
X025206Y011590D02*
X026080Y011590D01*
X026058Y011531D02*
X025231Y011531D01*
X025213Y011473D02*
X026036Y011473D01*
X026014Y011414D02*
X025173Y011414D01*
X025132Y011356D02*
X025992Y011356D01*
X025970Y011297D02*
X025091Y011297D01*
X025050Y011239D02*
X025947Y011239D01*
X025925Y011180D02*
X025009Y011180D01*
X024969Y011122D02*
X025903Y011122D01*
X025881Y011063D02*
X025699Y011063D01*
X025613Y011063D02*
X024957Y011063D01*
X025018Y011005D02*
X025533Y011005D01*
X025453Y010946D02*
X025078Y010946D01*
X025139Y010888D02*
X025373Y010888D01*
X025293Y010829D02*
X025199Y010829D01*
X025317Y010399D02*
X025537Y010399D01*
X025611Y010325D01*
X025611Y010105D01*
X025317Y010105D02*
X025317Y010399D01*
X025150Y010325D02*
X025150Y010252D01*
X024857Y010252D01*
X024857Y010325D02*
X024930Y010399D01*
X025077Y010399D01*
X025150Y010325D01*
X025077Y010105D02*
X024930Y010105D01*
X024857Y010178D01*
X024857Y010325D01*
X024690Y010325D02*
X024690Y010178D01*
X024616Y010105D01*
X024396Y010105D01*
X024396Y009958D02*
X024396Y010399D01*
X024616Y010399D01*
X024690Y010325D01*
X024229Y010325D02*
X024229Y010178D01*
X024156Y010105D01*
X024009Y010105D01*
X023936Y010178D01*
X023936Y010325D01*
X024009Y010399D01*
X024156Y010399D01*
X024229Y010325D01*
X024665Y009795D02*
X024665Y009355D01*
X024665Y009575D02*
X024738Y009649D01*
X024885Y009649D01*
X024958Y009575D01*
X024958Y009355D01*
X025125Y009428D02*
X025198Y009502D01*
X025419Y009502D01*
X025419Y009575D02*
X025419Y009355D01*
X025198Y009355D01*
X025125Y009428D01*
X025198Y009649D02*
X025345Y009649D01*
X025419Y009575D01*
X025585Y009502D02*
X025732Y009649D01*
X025806Y009649D01*
X025585Y009649D02*
X025585Y009355D01*
X025805Y011005D02*
X025859Y011005D01*
X025215Y012994D02*
X027671Y012994D01*
X027643Y013052D02*
X025238Y013052D01*
X025229Y013111D02*
X027675Y013111D01*
X027716Y013169D02*
X025191Y013169D01*
X025152Y013228D02*
X027758Y013228D01*
X027799Y013286D02*
X025114Y013286D01*
X025075Y013345D02*
X027840Y013345D01*
X027881Y013403D02*
X025037Y013403D01*
X024998Y013462D02*
X027922Y013462D01*
X027930Y013520D02*
X027251Y013520D01*
X027164Y013520D02*
X025777Y013520D01*
X025680Y013480D02*
X025250Y013780D01*
X024960Y013520D01*
X025025Y013579D02*
X025538Y013579D01*
X025454Y013637D02*
X025090Y013637D01*
X025155Y013696D02*
X025371Y013696D01*
X025287Y013754D02*
X025221Y013754D01*
X025918Y013579D02*
X027002Y013579D01*
X026841Y013637D02*
X026060Y013637D01*
X026145Y013696D02*
X026745Y013696D01*
X026736Y013754D02*
X026157Y013754D01*
X026169Y013813D02*
X026726Y013813D01*
X026717Y013871D02*
X026180Y013871D01*
X026192Y013930D02*
X026707Y013930D01*
X026697Y013988D02*
X026204Y013988D01*
X026216Y014047D02*
X026688Y014047D01*
X026678Y014105D02*
X026228Y014105D01*
X026240Y014164D02*
X026669Y014164D01*
X027432Y013637D02*
X027817Y013637D01*
X027761Y013696D02*
X027523Y013696D01*
X027614Y013754D02*
X027704Y013754D01*
X027874Y013579D02*
X027341Y013579D01*
X031050Y013989D02*
X031050Y014311D01*
X031550Y014311D02*
X031550Y013989D01*
X026100Y017350D02*
X026102Y017384D01*
X026108Y017418D01*
X026117Y017451D01*
X026131Y017482D01*
X026148Y017512D01*
X026168Y017540D01*
X026191Y017565D01*
X026217Y017588D01*
X026245Y017607D01*
X026275Y017623D01*
X026307Y017635D01*
X026340Y017644D01*
X026374Y017649D01*
X026409Y017650D01*
X026443Y017647D01*
X026476Y017640D01*
X026509Y017630D01*
X026540Y017615D01*
X026569Y017598D01*
X026596Y017577D01*
X026621Y017553D01*
X026643Y017526D01*
X026661Y017498D01*
X026676Y017467D01*
X026688Y017435D01*
X026696Y017401D01*
X026700Y017367D01*
X026700Y017333D01*
X026696Y017299D01*
X026688Y017265D01*
X026676Y017233D01*
X026661Y017202D01*
X026643Y017174D01*
X026621Y017147D01*
X026596Y017123D01*
X026569Y017102D01*
X026540Y017085D01*
X026509Y017070D01*
X026476Y017060D01*
X026443Y017053D01*
X026409Y017050D01*
X026374Y017051D01*
X026340Y017056D01*
X026307Y017065D01*
X026275Y017077D01*
X026245Y017093D01*
X026217Y017112D01*
X026191Y017135D01*
X026168Y017160D01*
X026148Y017188D01*
X026131Y017218D01*
X026117Y017249D01*
X026108Y017282D01*
X026102Y017316D01*
X026100Y017350D01*
X022461Y011500D02*
X022138Y011500D01*
X022138Y011000D02*
X022461Y011000D01*
X016061Y013600D02*
X015738Y013600D01*
X015738Y014100D02*
X016061Y014100D01*
X010950Y014789D02*
X010950Y015111D01*
X010450Y015111D02*
X010450Y014789D01*
X009950Y014789D02*
X009950Y015111D01*
X009450Y015111D02*
X009450Y014789D01*
X007900Y013850D02*
X007800Y013950D01*
X007000Y013950D01*
X006900Y013850D01*
X006800Y013950D01*
X006000Y013950D01*
X005900Y013850D01*
X005900Y013050D01*
X006000Y012950D01*
X006800Y012950D01*
X006900Y013050D01*
X007000Y012950D01*
X007800Y012950D01*
X007900Y013050D01*
X007900Y013850D01*
X007061Y012600D02*
X006738Y012600D01*
X006738Y012100D02*
X007061Y012100D01*
X009850Y011611D02*
X009850Y011289D01*
X010350Y011289D02*
X010350Y011611D01*
X010700Y005250D02*
X009900Y005250D01*
X009800Y005150D01*
X009700Y005250D01*
X008900Y005250D01*
X008800Y005150D01*
X008800Y004350D01*
X008900Y004250D01*
X009700Y004250D01*
X009800Y004350D01*
X009900Y004250D01*
X010700Y004250D01*
X010800Y004350D01*
X010800Y005150D01*
X010700Y005250D01*
X010650Y003411D02*
X010650Y003089D01*
X011150Y003089D02*
X011150Y003411D01*
X009650Y002011D02*
X009650Y001689D01*
X009150Y001689D02*
X009150Y002011D01*
X027729Y003170D02*
X027729Y003340D01*
X027786Y003397D01*
X027899Y003397D01*
X027956Y003340D01*
X027956Y003170D01*
X028070Y003170D02*
X027729Y003170D01*
X027729Y003538D02*
X027729Y003709D01*
X027786Y003765D01*
X027899Y003765D01*
X027956Y003709D01*
X027956Y003538D01*
X028070Y003538D02*
X027729Y003538D01*
X028126Y003907D02*
X028126Y004134D01*
X028070Y004275D02*
X027729Y004275D01*
X027899Y004275D02*
X027899Y004502D01*
X027729Y004502D02*
X028070Y004502D01*
X028070Y004643D02*
X027729Y004643D01*
X027729Y004814D01*
X027786Y004870D01*
X028013Y004870D01*
X028070Y004814D01*
X028070Y004643D01*
X028070Y005012D02*
X027729Y005012D01*
X027729Y005182D01*
X027786Y005239D01*
X027899Y005239D01*
X027956Y005182D01*
X027956Y005012D01*
X027956Y005125D02*
X028070Y005239D01*
X031050Y004811D02*
X031050Y004489D01*
X031550Y004489D02*
X031550Y004811D01*
X014650Y019000D02*
X014650Y019300D01*
X014350Y019300D01*
X014350Y019000D01*
X014650Y019000D01*
X014650Y019300D02*
X014950Y019300D01*
X015350Y019300D01*
X015367Y019302D01*
X015384Y019306D01*
X015400Y019313D01*
X015414Y019323D01*
X015427Y019336D01*
X015437Y019350D01*
X015444Y019366D01*
X015448Y019383D01*
X015450Y019400D01*
X015450Y023700D01*
X015448Y023717D01*
X015444Y023734D01*
X015437Y023750D01*
X015427Y023764D01*
X015414Y023777D01*
X015400Y023787D01*
X015384Y023794D01*
X015367Y023798D01*
X015350Y023800D01*
X014950Y023800D01*
X014050Y023800D01*
X013650Y023800D01*
X013633Y023798D01*
X013616Y023794D01*
X013600Y023787D01*
X013586Y023777D01*
X013573Y023764D01*
X013563Y023750D01*
X013556Y023734D01*
X013552Y023717D01*
X013550Y023700D01*
X013550Y019400D01*
X013552Y019383D01*
X013556Y019366D01*
X013563Y019350D01*
X013573Y019336D01*
X013586Y019323D01*
X013600Y019313D01*
X013616Y019306D01*
X013633Y019302D01*
X013650Y019300D01*
X014050Y019300D01*
X014350Y019300D01*
X013050Y021089D02*
X013050Y021411D01*
X012550Y021411D02*
X012550Y021089D01*
X014250Y021300D02*
X014500Y021300D01*
X014750Y021300D01*
X014750Y021450D02*
X014750Y021650D01*
X014250Y021650D01*
X014250Y021450D01*
X014750Y021450D01*
X014750Y021800D02*
X014500Y021800D01*
X014250Y021800D01*
X014350Y023800D02*
X014350Y024100D01*
X014650Y024100D01*
X014650Y023800D01*
X013400Y025750D02*
X012600Y025750D01*
X012500Y025850D01*
X012400Y025750D01*
X011600Y025750D01*
X011500Y025850D01*
X011500Y026650D01*
X011600Y026750D01*
X012400Y026750D01*
X012500Y026650D01*
X012600Y026750D01*
X013400Y026750D01*
X013500Y026650D01*
X013500Y025850D01*
X013400Y025750D01*
X014250Y026389D02*
X014250Y026711D01*
X014750Y026711D02*
X014750Y026389D01*
X010950Y026389D02*
X010950Y026711D01*
X010450Y026711D02*
X010450Y026389D01*
D15*
X011500Y025400D02*
X011500Y024650D01*
X012500Y024650D01*
X013500Y024650D01*
X014500Y024650D01*
X015500Y024650D01*
X016500Y024650D01*
X016500Y025650D01*
X017500Y025650D01*
X018500Y025650D01*
X019500Y025650D01*
X019500Y025400D01*
X019500Y024650D01*
X020500Y024650D01*
X021500Y024650D01*
X022500Y024650D01*
X023500Y024650D01*
X024500Y024650D01*
X024500Y025650D01*
X025500Y025650D01*
X026500Y025650D01*
X027500Y025650D01*
X027500Y024650D01*
X026500Y024650D01*
X025500Y024650D01*
X024500Y024650D01*
X025500Y024650D02*
X025500Y025650D01*
X025500Y026400D01*
X025750Y026650D01*
X026250Y026650D01*
X026500Y026400D01*
X026500Y025650D01*
X026500Y024650D01*
X027500Y025650D02*
X027500Y026400D01*
X027250Y026650D01*
X026750Y026650D01*
X026500Y026400D01*
X026340Y026905D02*
X026250Y026905D01*
X026205Y026950D01*
X026205Y027040D02*
X026295Y027085D01*
X026340Y027085D01*
X026385Y027040D01*
X026385Y026950D01*
X026340Y026905D01*
X026205Y027040D02*
X026205Y027175D01*
X026385Y027175D01*
X026616Y027130D02*
X026661Y027175D01*
X026751Y027175D01*
X026796Y027130D01*
X026796Y027040D02*
X026706Y027040D01*
X026796Y027040D02*
X026796Y026950D01*
X026751Y026905D01*
X026661Y026905D01*
X026616Y026950D01*
X026616Y027130D01*
X026910Y027175D02*
X027090Y026905D01*
X027090Y027175D01*
X027205Y027175D02*
X027205Y026905D01*
X027340Y026905D01*
X027385Y026950D01*
X027385Y027130D01*
X027340Y027175D01*
X027205Y027175D01*
X026910Y027175D02*
X026910Y026905D01*
X026090Y026995D02*
X026090Y027175D01*
X025910Y027175D02*
X025910Y026995D01*
X026000Y026905D01*
X026090Y026995D01*
X025796Y026905D02*
X025616Y026905D01*
X025796Y027085D01*
X025796Y027130D01*
X025751Y027175D01*
X025661Y027175D01*
X025616Y027130D01*
X025385Y027130D02*
X025340Y027175D01*
X025250Y027175D01*
X025205Y027130D01*
X025090Y027175D02*
X025090Y026995D01*
X025000Y026905D01*
X024910Y026995D01*
X024910Y027175D01*
X024796Y027130D02*
X024796Y027085D01*
X024751Y027040D01*
X024796Y026995D01*
X024796Y026950D01*
X024751Y026905D01*
X024661Y026905D01*
X024616Y026950D01*
X024706Y027040D02*
X024751Y027040D01*
X024796Y027130D02*
X024751Y027175D01*
X024661Y027175D01*
X024616Y027130D01*
X024185Y027175D02*
X024185Y026995D01*
X024095Y026905D01*
X024005Y026995D01*
X024005Y027175D01*
X023890Y027175D02*
X023710Y027175D01*
X023710Y027040D01*
X023800Y027085D01*
X023845Y027085D01*
X023890Y027040D01*
X023890Y026950D01*
X023845Y026905D01*
X023755Y026905D01*
X023710Y026950D01*
X023750Y026650D02*
X024250Y026650D01*
X024500Y026400D01*
X024500Y025650D01*
X023500Y025650D01*
X023500Y025400D01*
X023500Y024650D01*
X023500Y025400D02*
X023250Y025650D01*
X022750Y025650D01*
X022500Y025400D01*
X022500Y024650D01*
X022500Y025400D02*
X022250Y025650D01*
X021750Y025650D01*
X021500Y025400D01*
X021500Y024650D01*
X021500Y025400D02*
X021250Y025650D01*
X020750Y025650D01*
X020500Y025400D01*
X020500Y024650D01*
X020500Y025400D02*
X020250Y025650D01*
X019750Y025650D01*
X019500Y025400D01*
X019500Y025650D02*
X019500Y026400D01*
X019250Y026650D01*
X018750Y026650D01*
X018500Y026400D01*
X018500Y025650D01*
X018500Y024650D01*
X019500Y024650D01*
X018500Y024650D02*
X017500Y024650D01*
X016500Y024650D01*
X015500Y024650D02*
X015500Y025400D01*
X015500Y025650D01*
X015500Y026400D01*
X015750Y026650D01*
X016250Y026650D01*
X016500Y026400D01*
X016500Y025650D01*
X015500Y025650D01*
X015250Y025650D02*
X015500Y025400D01*
X015250Y025650D02*
X014750Y025650D01*
X014500Y025400D01*
X014500Y024650D01*
X014500Y025400D02*
X014250Y025650D01*
X013750Y025650D01*
X013500Y025400D01*
X013500Y024650D01*
X013500Y025400D02*
X013250Y025650D01*
X012750Y025650D01*
X012500Y025400D01*
X012500Y024650D01*
X012500Y025400D02*
X012250Y025650D01*
X011750Y025650D01*
X011500Y025400D01*
X009650Y023257D02*
X009650Y022174D01*
X009650Y021509D02*
X009650Y021174D01*
X009650Y020580D02*
X009650Y020324D01*
X009650Y019714D02*
X009650Y019399D01*
X009644Y018718D02*
X009644Y017643D01*
X008148Y017643D01*
X006652Y017643D02*
X003344Y017643D01*
X003344Y023257D01*
X006644Y023257D01*
X006348Y023725D02*
X004852Y023725D01*
X004852Y025575D01*
X006348Y025575D01*
X006348Y023725D01*
X006400Y022450D02*
X003900Y022200D01*
X003900Y020950D01*
X006400Y020700D01*
X006400Y020200D02*
X003900Y019950D01*
X003900Y018700D01*
X006400Y018450D01*
X008152Y023257D02*
X009650Y023257D01*
X015710Y026950D02*
X015755Y026905D01*
X015845Y026905D01*
X015890Y026950D01*
X015890Y027040D01*
X015845Y027085D01*
X015800Y027085D01*
X015710Y027040D01*
X015710Y027175D01*
X015890Y027175D01*
X016005Y027175D02*
X016005Y026995D01*
X016095Y026905D01*
X016185Y026995D01*
X016185Y027175D01*
X016616Y027130D02*
X016661Y027175D01*
X016751Y027175D01*
X016796Y027130D01*
X016796Y027085D01*
X016751Y027040D01*
X016796Y026995D01*
X016796Y026950D01*
X016751Y026905D01*
X016661Y026905D01*
X016616Y026950D01*
X016706Y027040D02*
X016751Y027040D01*
X016910Y026995D02*
X017000Y026905D01*
X017090Y026995D01*
X017090Y027175D01*
X017205Y027130D02*
X017250Y027175D01*
X017340Y027175D01*
X017385Y027130D01*
X017385Y027085D01*
X017340Y027040D01*
X017385Y026995D01*
X017385Y026950D01*
X017340Y026905D01*
X017250Y026905D01*
X017205Y026950D01*
X017295Y027040D02*
X017340Y027040D01*
X017616Y027130D02*
X017661Y027175D01*
X017751Y027175D01*
X017796Y027130D01*
X017796Y027085D01*
X017616Y026905D01*
X017796Y026905D01*
X017910Y026995D02*
X018000Y026905D01*
X018090Y026995D01*
X018090Y027175D01*
X018205Y027175D02*
X018205Y027040D01*
X018295Y027085D01*
X018340Y027085D01*
X018385Y027040D01*
X018385Y026950D01*
X018340Y026905D01*
X018250Y026905D01*
X018205Y026950D01*
X018205Y027175D02*
X018385Y027175D01*
X018516Y027130D02*
X018516Y026950D01*
X018561Y026905D01*
X018651Y026905D01*
X018696Y026950D01*
X018696Y027040D01*
X018606Y027040D01*
X018696Y027130D02*
X018651Y027175D01*
X018561Y027175D01*
X018516Y027130D01*
X018810Y027175D02*
X018810Y026905D01*
X018990Y026905D02*
X018810Y027175D01*
X018990Y027175D02*
X018990Y026905D01*
X019105Y026905D02*
X019240Y026905D01*
X019285Y026950D01*
X019285Y027130D01*
X019240Y027175D01*
X019105Y027175D01*
X019105Y026905D01*
X018500Y026400D02*
X018250Y026650D01*
X017750Y026650D01*
X017500Y026400D01*
X017250Y026650D01*
X016750Y026650D01*
X016500Y026400D01*
X016910Y026995D02*
X016910Y027175D01*
X017500Y026400D02*
X017500Y025650D01*
X017500Y024650D01*
X017910Y026995D02*
X017910Y027175D01*
X023500Y026400D02*
X023500Y025650D01*
X023500Y026400D02*
X023750Y026650D01*
X024500Y026400D02*
X024750Y026650D01*
X025250Y026650D01*
X025500Y026400D01*
X025340Y026905D02*
X025250Y026905D01*
X025205Y026950D01*
X025295Y027040D02*
X025340Y027040D01*
X025385Y026995D01*
X025385Y026950D01*
X025340Y026905D01*
X025340Y027040D02*
X025385Y027085D01*
X025385Y027130D01*
X029324Y020340D02*
X029383Y020340D01*
X029499Y020223D01*
X029675Y020223D01*
X029499Y020223D02*
X029383Y020107D01*
X029324Y020107D01*
X029324Y019972D02*
X029324Y019738D01*
X029324Y019855D02*
X029675Y019855D01*
X029675Y019610D02*
X029675Y019493D01*
X029675Y019551D02*
X029324Y019551D01*
X029324Y019493D02*
X029324Y019610D01*
X029324Y019358D02*
X029558Y019358D01*
X029675Y019241D01*
X029558Y019125D01*
X029324Y019125D01*
X029324Y018996D02*
X029324Y018879D01*
X029324Y018937D02*
X029675Y018937D01*
X029675Y018879D02*
X029675Y018996D01*
X029324Y018744D02*
X029324Y018511D01*
X029324Y018627D02*
X029675Y018627D01*
X029616Y018376D02*
X029675Y018317D01*
X029675Y018201D01*
X029616Y018142D01*
X029383Y018142D01*
X029324Y018201D01*
X029324Y018317D01*
X029383Y018376D01*
X029441Y018008D02*
X029324Y017891D01*
X029441Y017774D01*
X029675Y017774D01*
X029733Y017639D02*
X029733Y017406D01*
X029675Y017271D02*
X029675Y017037D01*
X029441Y017271D01*
X029383Y017271D01*
X029324Y017213D01*
X029324Y017096D01*
X029383Y017037D01*
X029383Y016903D02*
X029324Y016844D01*
X029324Y016669D01*
X029675Y016669D01*
X029675Y016844D01*
X029616Y016903D01*
X029383Y016903D01*
X029499Y017774D02*
X029499Y018008D01*
X029441Y018008D02*
X029675Y018008D01*
X028246Y017050D02*
X028171Y017125D01*
X027945Y017125D01*
X027945Y016675D01*
X028171Y016675D01*
X028246Y016750D01*
X028246Y017050D01*
X027785Y017125D02*
X027785Y016675D01*
X027485Y017125D01*
X027485Y016675D01*
X027325Y016750D02*
X027325Y016900D01*
X027175Y016900D01*
X027325Y016750D02*
X027250Y016675D01*
X027100Y016675D01*
X027025Y016750D01*
X027025Y017050D01*
X027100Y017125D01*
X027250Y017125D01*
X027325Y017050D01*
X029324Y015740D02*
X029324Y015507D01*
X029675Y015507D01*
X029675Y015740D01*
X029499Y015623D02*
X029499Y015507D01*
X029499Y015372D02*
X029558Y015314D01*
X029558Y015138D01*
X029675Y015138D02*
X029324Y015138D01*
X029324Y015314D01*
X029383Y015372D01*
X029499Y015372D01*
X029558Y015255D02*
X029675Y015372D01*
X029616Y015004D02*
X029324Y015004D01*
X029324Y014770D02*
X029616Y014770D01*
X029675Y014828D01*
X029675Y014945D01*
X029616Y015004D01*
X029324Y014635D02*
X029324Y014402D01*
X029324Y014519D02*
X029675Y014519D01*
X029499Y014267D02*
X029558Y014209D01*
X029558Y014033D01*
X029675Y014033D02*
X029324Y014033D01*
X029324Y014209D01*
X029383Y014267D01*
X029499Y014267D01*
X029499Y013899D02*
X029499Y013665D01*
X029441Y013665D02*
X029324Y013782D01*
X029441Y013899D01*
X029675Y013899D01*
X029675Y013665D02*
X029441Y013665D01*
X029383Y013530D02*
X029324Y013472D01*
X029324Y013355D01*
X029383Y013297D01*
X029616Y013297D01*
X029675Y013355D01*
X029675Y013472D01*
X029616Y013530D01*
X029733Y013162D02*
X029733Y012928D01*
X029616Y012794D02*
X029675Y012735D01*
X029675Y012619D01*
X029616Y012560D01*
X029616Y012425D02*
X029383Y012425D01*
X029324Y012367D01*
X029324Y012192D01*
X029675Y012192D01*
X029675Y012367D01*
X029616Y012425D01*
X029383Y012560D02*
X029324Y012619D01*
X029324Y012735D01*
X029383Y012794D01*
X029441Y012794D01*
X029499Y012735D01*
X029558Y012794D01*
X029616Y012794D01*
X029499Y012735D02*
X029499Y012677D01*
X029383Y011537D02*
X029324Y011479D01*
X029324Y011304D01*
X029675Y011304D01*
X029675Y011479D01*
X029616Y011537D01*
X029383Y011537D01*
X029324Y011169D02*
X029324Y010935D01*
X029675Y010935D01*
X029675Y011169D01*
X029499Y011052D02*
X029499Y010935D01*
X029499Y010801D02*
X029558Y010742D01*
X029558Y010567D01*
X029675Y010567D02*
X029324Y010567D01*
X029324Y010742D01*
X029383Y010801D01*
X029499Y010801D01*
X029558Y010684D02*
X029675Y010801D01*
X029675Y010432D02*
X029675Y010199D01*
X029324Y010199D01*
X029324Y010432D01*
X029499Y010316D02*
X029499Y010199D01*
X029499Y010064D02*
X029499Y009947D01*
X029499Y010064D02*
X029616Y010064D01*
X029675Y010006D01*
X029675Y009889D01*
X029616Y009830D01*
X029383Y009830D01*
X029324Y009889D01*
X029324Y010006D01*
X029383Y010064D01*
X029383Y009696D02*
X029324Y009637D01*
X029324Y009520D01*
X029383Y009462D01*
X029616Y009462D01*
X029675Y009520D01*
X029675Y009637D01*
X029616Y009696D01*
X029499Y009696D01*
X029499Y009579D01*
X029324Y009333D02*
X029324Y009217D01*
X029324Y009275D02*
X029675Y009275D01*
X029675Y009217D02*
X029675Y009333D01*
X029675Y009082D02*
X029558Y008965D01*
X029558Y009023D02*
X029558Y008848D01*
X029675Y008848D02*
X029324Y008848D01*
X029324Y009023D01*
X029383Y009082D01*
X029499Y009082D01*
X029558Y009023D01*
X029324Y008713D02*
X029324Y008480D01*
X029324Y008597D02*
X029675Y008597D01*
X029733Y008345D02*
X029733Y008112D01*
X029675Y007918D02*
X029324Y007918D01*
X029499Y007743D01*
X029499Y007977D01*
X029383Y007609D02*
X029324Y007550D01*
X029324Y007375D01*
X029675Y007375D01*
X029675Y007550D01*
X029616Y007609D01*
X029383Y007609D01*
X029483Y005740D02*
X029424Y005682D01*
X029424Y005565D01*
X029483Y005507D01*
X029541Y005507D01*
X029599Y005565D01*
X029599Y005682D01*
X029658Y005740D01*
X029716Y005740D01*
X029775Y005682D01*
X029775Y005565D01*
X029716Y005507D01*
X029716Y005372D02*
X029424Y005372D01*
X029424Y005138D02*
X029716Y005138D01*
X029775Y005197D01*
X029775Y005314D01*
X029716Y005372D01*
X029716Y005004D02*
X029775Y004945D01*
X029775Y004770D01*
X029424Y004770D01*
X029424Y004945D01*
X029483Y005004D01*
X029541Y005004D01*
X029599Y004945D01*
X029599Y004770D01*
X029658Y004635D02*
X029424Y004635D01*
X029424Y004402D02*
X029658Y004402D01*
X029775Y004519D01*
X029658Y004635D01*
X029599Y004945D02*
X029658Y005004D01*
X029716Y005004D01*
X029833Y004267D02*
X029833Y004033D01*
X029716Y003899D02*
X029775Y003840D01*
X029775Y003723D01*
X029716Y003665D01*
X029599Y003665D02*
X029541Y003782D01*
X029541Y003840D01*
X029599Y003899D01*
X029716Y003899D01*
X029599Y003665D02*
X029424Y003665D01*
X029424Y003899D01*
X029483Y003530D02*
X029424Y003472D01*
X029424Y003297D01*
X029775Y003297D01*
X029775Y003472D01*
X029716Y003530D01*
X029483Y003530D01*
X027500Y003650D02*
X027500Y002900D01*
X027250Y002650D01*
X026750Y002650D01*
X026500Y002900D01*
X026500Y003650D01*
X027500Y003650D01*
X027500Y004650D01*
X026500Y004650D01*
X025500Y004650D01*
X024500Y004650D01*
X023500Y004650D01*
X023500Y004400D01*
X023500Y003650D01*
X023500Y002900D01*
X023500Y002650D01*
X022500Y002650D01*
X021500Y002650D01*
X020500Y002650D01*
X019500Y002650D01*
X019500Y001900D01*
X019750Y001650D01*
X020250Y001650D01*
X020500Y001900D01*
X020500Y002650D01*
X020500Y003650D01*
X021500Y003650D01*
X021500Y002650D01*
X021500Y001900D01*
X021750Y001650D01*
X022250Y001650D01*
X022500Y001900D01*
X022500Y002650D01*
X022500Y003650D01*
X023500Y003650D01*
X024500Y003650D01*
X024500Y004650D01*
X024500Y005400D01*
X024750Y005650D01*
X025250Y005650D01*
X025500Y005400D01*
X025500Y004650D01*
X025500Y003650D01*
X025500Y002900D01*
X025750Y002650D01*
X026250Y002650D01*
X026500Y002900D01*
X026500Y003650D02*
X025500Y003650D01*
X024500Y003650D01*
X024500Y002900D01*
X024750Y002650D01*
X025250Y002650D01*
X025500Y002900D01*
X024500Y002900D02*
X024250Y002650D01*
X023750Y002650D01*
X023500Y002900D01*
X023500Y002650D02*
X023500Y001900D01*
X023250Y001650D01*
X022750Y001650D01*
X022500Y001900D01*
X022340Y001400D02*
X022385Y001355D01*
X022385Y001310D01*
X022340Y001265D01*
X022385Y001220D01*
X022385Y001175D01*
X022340Y001130D01*
X022250Y001130D01*
X022205Y001175D01*
X022090Y001220D02*
X022090Y001400D01*
X022205Y001355D02*
X022250Y001400D01*
X022340Y001400D01*
X022340Y001265D02*
X022295Y001265D01*
X022090Y001220D02*
X022000Y001130D01*
X021910Y001220D01*
X021910Y001400D01*
X021796Y001355D02*
X021796Y001310D01*
X021751Y001265D01*
X021796Y001220D01*
X021796Y001175D01*
X021751Y001130D01*
X021661Y001130D01*
X021616Y001175D01*
X021706Y001265D02*
X021751Y001265D01*
X021796Y001355D02*
X021751Y001400D01*
X021661Y001400D01*
X021616Y001355D01*
X021385Y001400D02*
X021205Y001400D01*
X021205Y001265D01*
X021295Y001310D01*
X021340Y001310D01*
X021385Y001265D01*
X021385Y001175D01*
X021340Y001130D01*
X021250Y001130D01*
X021205Y001175D01*
X021090Y001220D02*
X021090Y001400D01*
X020910Y001400D02*
X020910Y001220D01*
X021000Y001130D01*
X021090Y001220D01*
X020796Y001130D02*
X020616Y001130D01*
X020796Y001310D01*
X020796Y001355D01*
X020751Y001400D01*
X020661Y001400D01*
X020616Y001355D01*
X020385Y001355D02*
X020340Y001400D01*
X020205Y001400D01*
X020205Y001130D01*
X020340Y001130D01*
X020385Y001175D01*
X020385Y001355D01*
X020090Y001400D02*
X020090Y001130D01*
X019910Y001400D01*
X019910Y001130D01*
X019796Y001175D02*
X019751Y001130D01*
X019661Y001130D01*
X019616Y001175D01*
X019616Y001355D01*
X019661Y001400D01*
X019751Y001400D01*
X019796Y001355D01*
X019796Y001265D02*
X019706Y001265D01*
X019796Y001265D02*
X019796Y001175D01*
X020500Y001900D02*
X020750Y001650D01*
X021250Y001650D01*
X021500Y001900D01*
X022710Y001400D02*
X022710Y001265D01*
X022800Y001310D01*
X022845Y001310D01*
X022890Y001265D01*
X022890Y001175D01*
X022845Y001130D01*
X022755Y001130D01*
X022710Y001175D01*
X022710Y001400D02*
X022890Y001400D01*
X023005Y001400D02*
X023005Y001220D01*
X023095Y001130D01*
X023185Y001220D01*
X023185Y001400D01*
X022500Y003650D02*
X021500Y003650D01*
X021500Y004400D01*
X021750Y004650D01*
X022250Y004650D01*
X022500Y004400D01*
X022500Y003650D01*
X022500Y004400D02*
X022750Y004650D01*
X023250Y004650D01*
X023500Y004400D01*
X023500Y004650D02*
X023500Y005400D01*
X023750Y005650D01*
X024250Y005650D01*
X024500Y005400D01*
X024661Y005905D02*
X024616Y005950D01*
X024661Y005905D02*
X024751Y005905D01*
X024796Y005950D01*
X024796Y005995D01*
X024751Y006040D01*
X024706Y006040D01*
X024751Y006040D02*
X024796Y006085D01*
X024796Y006130D01*
X024751Y006175D01*
X024661Y006175D01*
X024616Y006130D01*
X024910Y006175D02*
X024910Y005995D01*
X025000Y005905D01*
X025090Y005995D01*
X025090Y006175D01*
X025205Y006130D02*
X025250Y006175D01*
X025340Y006175D01*
X025385Y006130D01*
X025385Y006085D01*
X025340Y006040D01*
X025385Y005995D01*
X025385Y005950D01*
X025340Y005905D01*
X025250Y005905D01*
X025205Y005950D01*
X025295Y006040D02*
X025340Y006040D01*
X025616Y006130D02*
X025661Y006175D01*
X025751Y006175D01*
X025796Y006130D01*
X025796Y006085D01*
X025616Y005905D01*
X025796Y005905D01*
X025910Y005995D02*
X026000Y005905D01*
X026090Y005995D01*
X026090Y006175D01*
X026205Y006175D02*
X026205Y006040D01*
X026295Y006085D01*
X026340Y006085D01*
X026385Y006040D01*
X026385Y005950D01*
X026340Y005905D01*
X026250Y005905D01*
X026205Y005950D01*
X026205Y006175D02*
X026385Y006175D01*
X026616Y006130D02*
X026616Y005950D01*
X026661Y005905D01*
X026751Y005905D01*
X026796Y005950D01*
X026796Y006040D01*
X026706Y006040D01*
X026796Y006130D02*
X026751Y006175D01*
X026661Y006175D01*
X026616Y006130D01*
X026910Y006175D02*
X027090Y005905D01*
X027090Y006175D01*
X027205Y006175D02*
X027205Y005905D01*
X027340Y005905D01*
X027385Y005950D01*
X027385Y006130D01*
X027340Y006175D01*
X027205Y006175D01*
X026910Y006175D02*
X026910Y005905D01*
X026750Y005650D02*
X026500Y005400D01*
X026500Y004650D01*
X026500Y003650D01*
X027500Y004650D02*
X027500Y005400D01*
X027250Y005650D01*
X026750Y005650D01*
X026500Y005400D02*
X026250Y005650D01*
X025750Y005650D01*
X025500Y005400D01*
X025910Y005995D02*
X025910Y006175D01*
X024185Y006175D02*
X024185Y005995D01*
X024095Y005905D01*
X024005Y005995D01*
X024005Y006175D01*
X023890Y006175D02*
X023710Y006175D01*
X023710Y006040D01*
X023800Y006085D01*
X023845Y006085D01*
X023890Y006040D01*
X023890Y005950D01*
X023845Y005905D01*
X023755Y005905D01*
X023710Y005950D01*
X021500Y004400D02*
X021250Y004650D01*
X020750Y004650D01*
X020500Y004400D01*
X020500Y003650D01*
X019500Y003650D01*
X019500Y002900D01*
X019500Y002650D01*
X019500Y002900D02*
X019250Y002650D01*
X018750Y002650D01*
X018500Y002900D01*
X018250Y002650D01*
X017750Y002650D01*
X017500Y002900D01*
X017250Y002650D01*
X016750Y002650D01*
X016500Y002900D01*
X016250Y002650D01*
X015750Y002650D01*
X015500Y002900D01*
X015500Y002650D01*
X014500Y002650D01*
X013500Y002650D01*
X012500Y002650D01*
X011500Y002650D01*
X011500Y001900D01*
X011750Y001650D01*
X012250Y001650D01*
X012500Y001900D01*
X012500Y002650D01*
X012500Y003650D01*
X013500Y003650D01*
X013500Y002650D01*
X013500Y001900D01*
X013750Y001650D01*
X014250Y001650D01*
X014500Y001900D01*
X014500Y002650D01*
X014500Y003650D01*
X015500Y003650D01*
X015500Y002900D01*
X015500Y002650D02*
X015500Y001900D01*
X015250Y001650D01*
X014750Y001650D01*
X014500Y001900D01*
X014340Y001400D02*
X014250Y001400D01*
X014205Y001355D01*
X014090Y001400D02*
X014090Y001220D01*
X014000Y001130D01*
X013910Y001220D01*
X013910Y001400D01*
X013796Y001355D02*
X013796Y001310D01*
X013751Y001265D01*
X013796Y001220D01*
X013796Y001175D01*
X013751Y001130D01*
X013661Y001130D01*
X013616Y001175D01*
X013706Y001265D02*
X013751Y001265D01*
X013796Y001355D02*
X013751Y001400D01*
X013661Y001400D01*
X013616Y001355D01*
X013385Y001400D02*
X013205Y001400D01*
X013205Y001265D01*
X013295Y001310D01*
X013340Y001310D01*
X013385Y001265D01*
X013385Y001175D01*
X013340Y001130D01*
X013250Y001130D01*
X013205Y001175D01*
X013090Y001220D02*
X013000Y001130D01*
X012910Y001220D01*
X012910Y001400D01*
X012796Y001355D02*
X012751Y001400D01*
X012661Y001400D01*
X012616Y001355D01*
X012796Y001355D02*
X012796Y001310D01*
X012616Y001130D01*
X012796Y001130D01*
X013090Y001220D02*
X013090Y001400D01*
X013250Y001650D02*
X012750Y001650D01*
X012500Y001900D01*
X012340Y001400D02*
X012205Y001400D01*
X012205Y001130D01*
X012340Y001130D01*
X012385Y001175D01*
X012385Y001355D01*
X012340Y001400D01*
X012090Y001400D02*
X012090Y001130D01*
X011910Y001400D01*
X011910Y001130D01*
X011796Y001175D02*
X011751Y001130D01*
X011661Y001130D01*
X011616Y001175D01*
X011616Y001355D01*
X011661Y001400D01*
X011751Y001400D01*
X011796Y001355D01*
X011796Y001265D02*
X011706Y001265D01*
X011796Y001265D02*
X011796Y001175D01*
X013250Y001650D02*
X013500Y001900D01*
X014205Y001175D02*
X014250Y001130D01*
X014340Y001130D01*
X014385Y001175D01*
X014385Y001220D01*
X014340Y001265D01*
X014295Y001265D01*
X014340Y001265D02*
X014385Y001310D01*
X014385Y001355D01*
X014340Y001400D01*
X014710Y001400D02*
X014710Y001265D01*
X014800Y001310D01*
X014845Y001310D01*
X014890Y001265D01*
X014890Y001175D01*
X014845Y001130D01*
X014755Y001130D01*
X014710Y001175D01*
X014710Y001400D02*
X014890Y001400D01*
X015005Y001400D02*
X015005Y001220D01*
X015095Y001130D01*
X015185Y001220D01*
X015185Y001400D01*
X016500Y002910D02*
X016500Y003650D01*
X016500Y004650D01*
X017500Y004650D01*
X018500Y004650D01*
X019500Y004650D01*
X019500Y004400D01*
X019500Y003650D01*
X018500Y003650D01*
X018500Y002910D01*
X018500Y003650D02*
X018500Y004650D01*
X018500Y005400D01*
X018750Y005650D01*
X019250Y005650D01*
X019500Y005400D01*
X019500Y004650D01*
X019500Y004400D02*
X019750Y004650D01*
X020250Y004650D01*
X020500Y004400D01*
X019240Y005905D02*
X019105Y005905D01*
X019105Y006175D01*
X019240Y006175D01*
X019285Y006130D01*
X019285Y005950D01*
X019240Y005905D01*
X018990Y005905D02*
X018990Y006175D01*
X018810Y006175D02*
X018810Y005905D01*
X018696Y005950D02*
X018651Y005905D01*
X018561Y005905D01*
X018516Y005950D01*
X018516Y006130D01*
X018561Y006175D01*
X018651Y006175D01*
X018696Y006130D01*
X018696Y006040D02*
X018606Y006040D01*
X018696Y006040D02*
X018696Y005950D01*
X018810Y006175D02*
X018990Y005905D01*
X018500Y005400D02*
X018250Y005650D01*
X017750Y005650D01*
X017500Y005400D01*
X017250Y005650D01*
X016750Y005650D01*
X016500Y005400D01*
X016500Y004650D01*
X015500Y004650D01*
X015500Y004400D01*
X015500Y003650D01*
X016500Y003650D01*
X017500Y003650D01*
X017500Y002910D01*
X017500Y003650D02*
X018500Y003650D01*
X017500Y003650D02*
X017500Y004650D01*
X017500Y005400D01*
X017616Y005905D02*
X017796Y006085D01*
X017796Y006130D01*
X017751Y006175D01*
X017661Y006175D01*
X017616Y006130D01*
X017616Y005905D02*
X017796Y005905D01*
X017910Y005995D02*
X018000Y005905D01*
X018090Y005995D01*
X018090Y006175D01*
X018205Y006175D02*
X018205Y006040D01*
X018295Y006085D01*
X018340Y006085D01*
X018385Y006040D01*
X018385Y005950D01*
X018340Y005905D01*
X018250Y005905D01*
X018205Y005950D01*
X018205Y006175D02*
X018385Y006175D01*
X017910Y006175D02*
X017910Y005995D01*
X017385Y005995D02*
X017385Y005950D01*
X017340Y005905D01*
X017250Y005905D01*
X017205Y005950D01*
X017090Y005995D02*
X017090Y006175D01*
X017205Y006130D02*
X017250Y006175D01*
X017340Y006175D01*
X017385Y006130D01*
X017385Y006085D01*
X017340Y006040D01*
X017385Y005995D01*
X017340Y006040D02*
X017295Y006040D01*
X017090Y005995D02*
X017000Y005905D01*
X016910Y005995D01*
X016910Y006175D01*
X016796Y006130D02*
X016796Y006085D01*
X016751Y006040D01*
X016796Y005995D01*
X016796Y005950D01*
X016751Y005905D01*
X016661Y005905D01*
X016616Y005950D01*
X016706Y006040D02*
X016751Y006040D01*
X016796Y006130D02*
X016751Y006175D01*
X016661Y006175D01*
X016616Y006130D01*
X016185Y006175D02*
X016185Y005995D01*
X016095Y005905D01*
X016005Y005995D01*
X016005Y006175D01*
X015890Y006175D02*
X015710Y006175D01*
X015710Y006040D01*
X015800Y006085D01*
X015845Y006085D01*
X015890Y006040D01*
X015890Y005950D01*
X015845Y005905D01*
X015755Y005905D01*
X015710Y005950D01*
X015750Y005650D02*
X016250Y005650D01*
X016500Y005400D01*
X015750Y005650D02*
X015500Y005400D01*
X015500Y004650D01*
X015250Y004650D02*
X015500Y004400D01*
X015250Y004650D02*
X014750Y004650D01*
X014500Y004400D01*
X014500Y003650D01*
X013500Y003650D01*
X013500Y004400D01*
X013750Y004650D01*
X014250Y004650D01*
X014500Y004400D01*
X013500Y004400D02*
X013250Y004650D01*
X012750Y004650D01*
X012500Y004400D01*
X012500Y003650D01*
X011500Y003650D01*
X011500Y002650D01*
X011500Y003650D02*
X011500Y004400D01*
X011750Y004650D01*
X012250Y004650D01*
X012500Y004400D01*
X010164Y005425D02*
X009864Y005425D01*
X010014Y005425D02*
X010014Y005875D01*
X009864Y005725D01*
X009704Y005725D02*
X009704Y005800D01*
X009629Y005875D01*
X009479Y005875D01*
X009404Y005800D01*
X009244Y005800D02*
X009244Y005650D01*
X009169Y005575D01*
X008943Y005575D01*
X008943Y005425D02*
X008943Y005875D01*
X009169Y005875D01*
X009244Y005800D01*
X009404Y005425D02*
X009704Y005725D01*
X009704Y005425D02*
X009404Y005425D01*
X008708Y005500D02*
X008708Y005875D01*
X008633Y005875D02*
X008783Y005875D01*
X008708Y005500D02*
X008633Y005425D01*
X008558Y005425D01*
X008483Y005500D01*
X008681Y004449D02*
X008681Y001851D01*
X006318Y001851D01*
X006318Y004449D01*
X008681Y004449D01*
X007106Y003150D02*
X007108Y003189D01*
X007114Y003228D01*
X007124Y003266D01*
X007137Y003303D01*
X007154Y003338D01*
X007174Y003372D01*
X007198Y003403D01*
X007225Y003432D01*
X007254Y003458D01*
X007286Y003481D01*
X007320Y003501D01*
X007356Y003517D01*
X007393Y003529D01*
X007432Y003538D01*
X007471Y003543D01*
X007510Y003544D01*
X007549Y003541D01*
X007588Y003534D01*
X007625Y003523D01*
X007662Y003509D01*
X007697Y003491D01*
X007730Y003470D01*
X007761Y003445D01*
X007789Y003418D01*
X007814Y003388D01*
X007836Y003355D01*
X007855Y003321D01*
X007870Y003285D01*
X007882Y003247D01*
X007890Y003209D01*
X007894Y003170D01*
X007894Y003130D01*
X007890Y003091D01*
X007882Y003053D01*
X007870Y003015D01*
X007855Y002979D01*
X007836Y002945D01*
X007814Y002912D01*
X007789Y002882D01*
X007761Y002855D01*
X007730Y002830D01*
X007697Y002809D01*
X007662Y002791D01*
X007625Y002777D01*
X007588Y002766D01*
X007549Y002759D01*
X007510Y002756D01*
X007471Y002757D01*
X007432Y002762D01*
X007393Y002771D01*
X007356Y002783D01*
X007320Y002799D01*
X007286Y002819D01*
X007254Y002842D01*
X007225Y002868D01*
X007198Y002897D01*
X007174Y002928D01*
X007154Y002962D01*
X007137Y002997D01*
X007124Y003034D01*
X007114Y003072D01*
X007108Y003111D01*
X007106Y003150D01*
X006908Y003150D02*
X006910Y003198D01*
X006916Y003246D01*
X006926Y003293D01*
X006939Y003340D01*
X006957Y003385D01*
X006978Y003428D01*
X007002Y003470D01*
X007030Y003510D01*
X007061Y003547D01*
X007094Y003581D01*
X007131Y003613D01*
X007170Y003641D01*
X007211Y003667D01*
X007254Y003689D01*
X007299Y003707D01*
X007345Y003721D01*
X007392Y003732D01*
X007440Y003739D01*
X007488Y003742D01*
X007536Y003741D01*
X007584Y003736D01*
X007632Y003727D01*
X007678Y003714D01*
X007724Y003698D01*
X007768Y003678D01*
X007810Y003654D01*
X007850Y003628D01*
X007888Y003597D01*
X007923Y003564D01*
X007955Y003528D01*
X007985Y003490D01*
X008011Y003449D01*
X008033Y003407D01*
X008053Y003363D01*
X008068Y003317D01*
X008080Y003270D01*
X008088Y003222D01*
X008092Y003174D01*
X008092Y003126D01*
X008088Y003078D01*
X008080Y003030D01*
X008068Y002983D01*
X008053Y002937D01*
X008033Y002893D01*
X008011Y002851D01*
X007985Y002810D01*
X007955Y002772D01*
X007923Y002736D01*
X007888Y002703D01*
X007850Y002672D01*
X007810Y002646D01*
X007768Y002622D01*
X007724Y002602D01*
X007678Y002586D01*
X007632Y002573D01*
X007584Y002564D01*
X007536Y002559D01*
X007488Y002558D01*
X007440Y002561D01*
X007392Y002568D01*
X007345Y002579D01*
X007299Y002593D01*
X007254Y002611D01*
X007211Y002633D01*
X007170Y002659D01*
X007131Y002687D01*
X007094Y002719D01*
X007061Y002753D01*
X007030Y002790D01*
X007002Y002830D01*
X006978Y002872D01*
X006957Y002915D01*
X006939Y002960D01*
X006926Y003007D01*
X006916Y003054D01*
X006910Y003102D01*
X006908Y003150D01*
X015899Y021525D02*
X015824Y021600D01*
X015824Y021750D01*
X015899Y021825D01*
X016199Y021825D01*
X016275Y021750D01*
X016275Y021600D01*
X016199Y021525D01*
X015899Y021525D01*
X016124Y021675D02*
X016275Y021825D01*
X016275Y021985D02*
X016275Y022286D01*
X016275Y022136D02*
X015824Y022136D01*
X015974Y021985D01*
D16*
X013000Y026250D03*
X012000Y026250D03*
X007400Y013450D03*
X006400Y013450D03*
X009300Y004750D03*
X010300Y004750D03*
D17*
X012000Y004150D03*
X013000Y004150D03*
X014000Y004150D03*
X015000Y004150D03*
X015000Y004150D03*
X016000Y004150D03*
X017000Y004150D03*
X018000Y004150D03*
X019000Y004150D03*
X020000Y004150D03*
X021000Y004150D03*
X022000Y004150D03*
X023000Y004150D03*
X024000Y004150D03*
X025000Y004150D03*
X026000Y004150D03*
X027000Y004150D03*
X027000Y003150D03*
X026000Y003150D03*
X025000Y003150D03*
X024000Y003150D03*
X023000Y003150D03*
X022000Y003150D03*
X021000Y003150D03*
X020000Y003150D03*
X019000Y003150D03*
X018000Y003150D03*
X017000Y003150D03*
X016000Y003150D03*
X015000Y003150D03*
X014000Y003150D03*
X013000Y003150D03*
X012000Y003150D03*
X012000Y002150D03*
X013000Y002150D03*
X014000Y002150D03*
X015000Y002150D03*
X016000Y005150D03*
X017000Y005150D03*
X018000Y005150D03*
X019000Y005150D03*
X020000Y002150D03*
X021000Y002150D03*
X022000Y002150D03*
X023000Y002150D03*
X024000Y005150D03*
X025000Y005150D03*
X026000Y005150D03*
X027000Y005150D03*
X027000Y025150D03*
X026000Y025150D03*
X025000Y025150D03*
X024000Y025150D03*
X023000Y025150D03*
X022000Y025150D03*
X021000Y025150D03*
X020000Y025150D03*
X019000Y025150D03*
X018000Y025150D03*
X017000Y025150D03*
X016000Y025150D03*
X015000Y025150D03*
X015000Y025150D03*
X014000Y025150D03*
X013000Y025150D03*
X012000Y025150D03*
X016000Y026150D03*
X017000Y026150D03*
X018000Y026150D03*
X019000Y026150D03*
X024000Y026150D03*
X025000Y026150D03*
X026000Y026150D03*
X027000Y026150D03*
D18*
X017817Y014267D03*
D19*
X007790Y014500D03*
X007790Y015000D03*
X007790Y015500D03*
X007790Y016000D03*
X005809Y016000D03*
X005809Y015500D03*
X005809Y015000D03*
X005809Y014500D03*
X006590Y023900D03*
X006590Y024400D03*
X006590Y024900D03*
X006590Y025400D03*
X004609Y025400D03*
X004609Y024900D03*
X004609Y024400D03*
X004609Y023900D03*
D20*
X032403Y024327D02*
X032824Y024052D01*
X032824Y024603D01*
X032403Y024327D01*
D21*
X031299Y023838D03*
X031299Y023258D03*
X031300Y019142D03*
X031300Y018562D03*
X031300Y014442D03*
X031300Y013862D03*
X031299Y009638D03*
X031299Y009058D03*
X031300Y004942D03*
X031300Y004362D03*
X010899Y003538D03*
X010899Y002958D03*
X009399Y002138D03*
X009399Y001558D03*
X010099Y011158D03*
X010099Y011738D03*
X009700Y014662D03*
X009700Y015242D03*
X010700Y015242D03*
X010700Y014662D03*
X012799Y020958D03*
X012799Y021538D03*
X014500Y026262D03*
X014500Y026842D03*
X010700Y026842D03*
X010700Y026262D03*
D22*
X008900Y026262D03*
X008900Y026832D03*
X006700Y026832D03*
X006700Y026262D03*
X012799Y023738D03*
X012799Y023168D03*
X012800Y019732D03*
X012800Y019162D03*
D23*
X014812Y018050D03*
X015382Y018050D03*
X015382Y017050D03*
X014812Y017050D03*
X014782Y014650D03*
X014212Y014650D03*
X013782Y013750D03*
X013212Y013750D03*
X009587Y016650D03*
X009017Y016650D03*
X006487Y016750D03*
X005917Y016750D03*
X005082Y013750D03*
X004512Y013750D03*
X004512Y012650D03*
X005082Y012650D03*
X023317Y015950D03*
X023887Y015950D03*
X023887Y016950D03*
X023317Y016950D03*
D24*
X015300Y020200D02*
X015300Y022900D01*
X015000Y022900D02*
X015000Y020200D01*
X014950Y019539D02*
X014902Y019509D01*
X014853Y019482D01*
X014802Y019459D01*
X014749Y019440D01*
X014695Y019424D01*
X014640Y019412D01*
X014584Y019404D01*
X014528Y019400D01*
X014472Y019400D01*
X014416Y019404D01*
X014360Y019412D01*
X014305Y019424D01*
X014251Y019440D01*
X014198Y019459D01*
X014147Y019482D01*
X014098Y019509D01*
X014050Y019539D01*
X014000Y020200D02*
X014000Y022900D01*
X013700Y022900D02*
X013700Y020200D01*
X014000Y020200D02*
X014001Y020162D01*
X014006Y020125D01*
X014013Y020088D01*
X014022Y020052D01*
X014035Y020016D01*
X014050Y019982D01*
X014950Y019539D02*
X014995Y019571D01*
X015037Y019607D01*
X015077Y019646D01*
X015114Y019688D01*
X015148Y019731D01*
X015179Y019778D01*
X015207Y019826D01*
X015231Y019876D01*
X015252Y019927D01*
X015269Y019980D01*
X015283Y020034D01*
X015292Y020089D01*
X015298Y020144D01*
X015300Y020200D01*
X015000Y020200D02*
X014999Y020162D01*
X014994Y020125D01*
X014987Y020088D01*
X014978Y020052D01*
X014965Y020016D01*
X014950Y019982D01*
X014930Y019944D01*
X014906Y019908D01*
X014879Y019874D01*
X014850Y019843D01*
X014818Y019814D01*
X014784Y019788D01*
X014747Y019765D01*
X014709Y019746D01*
X014669Y019729D01*
X014628Y019717D01*
X014586Y019707D01*
X014543Y019702D01*
X014500Y019700D01*
X014457Y019702D01*
X014414Y019707D01*
X014372Y019717D01*
X014331Y019729D01*
X014291Y019746D01*
X014253Y019765D01*
X014216Y019788D01*
X014182Y019814D01*
X014150Y019843D01*
X014121Y019874D01*
X014094Y019908D01*
X014070Y019944D01*
X014050Y019982D01*
X013700Y020200D02*
X013702Y020144D01*
X013708Y020089D01*
X013717Y020034D01*
X013731Y019980D01*
X013748Y019927D01*
X013769Y019876D01*
X013793Y019826D01*
X013821Y019778D01*
X013852Y019731D01*
X013886Y019687D01*
X013923Y019646D01*
X013963Y019607D01*
X014005Y019571D01*
X014050Y019539D01*
X014500Y021150D02*
X014500Y021300D01*
X014500Y021800D02*
X014500Y021950D01*
X015300Y022900D02*
X015298Y022956D01*
X015292Y023011D01*
X015283Y023066D01*
X015269Y023120D01*
X015252Y023173D01*
X015231Y023224D01*
X015207Y023274D01*
X015179Y023322D01*
X015148Y023369D01*
X015114Y023413D01*
X015077Y023454D01*
X015037Y023493D01*
X014995Y023529D01*
X014950Y023561D01*
X014050Y023561D02*
X014005Y023529D01*
X013963Y023493D01*
X013923Y023454D01*
X013886Y023412D01*
X013852Y023369D01*
X013821Y023322D01*
X013793Y023274D01*
X013769Y023224D01*
X013748Y023173D01*
X013731Y023120D01*
X013717Y023066D01*
X013708Y023011D01*
X013702Y022956D01*
X013700Y022900D01*
X014000Y022900D02*
X014001Y022938D01*
X014006Y022975D01*
X014013Y023012D01*
X014022Y023048D01*
X014035Y023084D01*
X014050Y023118D01*
X014950Y023118D02*
X014965Y023084D01*
X014978Y023048D01*
X014987Y023012D01*
X014994Y022975D01*
X014999Y022938D01*
X015000Y022900D01*
X014950Y023561D02*
X014902Y023591D01*
X014853Y023618D01*
X014802Y023641D01*
X014749Y023660D01*
X014695Y023676D01*
X014640Y023688D01*
X014584Y023696D01*
X014528Y023700D01*
X014472Y023700D01*
X014416Y023696D01*
X014360Y023688D01*
X014305Y023676D01*
X014251Y023660D01*
X014198Y023641D01*
X014147Y023618D01*
X014098Y023591D01*
X014050Y023561D01*
X014050Y023118D02*
X014070Y023156D01*
X014094Y023192D01*
X014121Y023226D01*
X014150Y023257D01*
X014182Y023286D01*
X014216Y023312D01*
X014253Y023335D01*
X014291Y023354D01*
X014331Y023371D01*
X014372Y023383D01*
X014414Y023393D01*
X014457Y023398D01*
X014500Y023400D01*
X014543Y023398D01*
X014586Y023393D01*
X014628Y023383D01*
X014669Y023371D01*
X014709Y023354D01*
X014747Y023335D01*
X014784Y023312D01*
X014818Y023286D01*
X014850Y023257D01*
X014879Y023226D01*
X014906Y023192D01*
X014930Y023156D01*
X014950Y023118D01*
X014012Y026510D02*
X014012Y026730D01*
X013902Y026620D01*
X014048Y026620D01*
X013827Y026510D02*
X013681Y026510D01*
X013754Y026510D02*
X013754Y026730D01*
X013681Y026657D01*
X013606Y026693D02*
X013606Y026620D01*
X013570Y026583D01*
X013460Y026583D01*
X013533Y026583D02*
X013606Y026510D01*
X013460Y026510D02*
X013460Y026730D01*
X013570Y026730D01*
X013606Y026693D01*
D25*
X015612Y013849D03*
X016192Y013849D03*
X022012Y011249D03*
X022592Y011249D03*
X007192Y012349D03*
X006612Y012349D03*
D26*
X030117Y013855D03*
X030117Y014445D03*
X030482Y014445D03*
X030117Y018555D03*
X030117Y019145D03*
X030482Y019145D03*
X030482Y023255D03*
X030117Y023255D03*
X030482Y023845D03*
X030482Y009645D03*
X030482Y009055D03*
X030117Y009055D03*
X030117Y004945D03*
X030482Y004945D03*
X030117Y004355D03*
D27*
X030201Y004404D03*
X030398Y004404D03*
X030398Y004896D03*
X030201Y004896D03*
X030201Y009104D03*
X030398Y009104D03*
X030398Y009596D03*
X030201Y009596D03*
X030201Y013904D03*
X030398Y013904D03*
X030398Y014396D03*
X030201Y014396D03*
X030201Y018604D03*
X030398Y018604D03*
X030398Y019096D03*
X030201Y019096D03*
X030201Y023304D03*
X030398Y023304D03*
X030398Y023796D03*
X030201Y023796D03*
D28*
X030300Y023781D03*
X030300Y023319D03*
X030300Y019081D03*
X030300Y018619D03*
X030300Y014381D03*
X030300Y013919D03*
X030300Y009581D03*
X030300Y009119D03*
X030300Y004881D03*
X030300Y004419D03*
D29*
X030300Y004611D03*
X030300Y009389D03*
X030300Y014111D03*
X030300Y018811D03*
X030300Y023589D03*
D30*
X030122Y023806D03*
X030477Y018594D03*
X030477Y013894D03*
X030122Y009606D03*
X030477Y004394D03*
D31*
X030482Y004271D03*
X030117Y009729D03*
X030482Y013771D03*
X030482Y018471D03*
X030117Y023929D03*
D32*
X026400Y017350D03*
D33*
X030590Y025990D03*
X030590Y027360D03*
D34*
X030590Y026060D03*
X030590Y026050D03*
X030590Y026040D03*
X030590Y026030D03*
X030590Y026020D03*
X030590Y026010D03*
X030590Y026000D03*
D35*
X029930Y026070D03*
D36*
X029790Y026140D03*
X029280Y027170D03*
X031540Y026220D03*
X031540Y026210D03*
X031540Y026200D03*
X031610Y026300D03*
X031610Y026070D03*
D37*
X031570Y026170D03*
X032270Y026070D03*
X029760Y026120D03*
D38*
X029335Y026100D03*
X029335Y026090D03*
X029335Y026080D03*
D39*
X028955Y026390D03*
X028945Y026400D03*
X028935Y026410D03*
X029135Y026590D03*
X029435Y026590D03*
X029615Y027070D03*
X029605Y027080D03*
X028945Y027080D03*
X030495Y027190D03*
X031005Y027190D03*
X031375Y027190D03*
X031885Y027190D03*
X031935Y026940D03*
X031485Y026760D03*
X031895Y026590D03*
X032035Y026290D03*
X030485Y026590D03*
X030305Y026080D03*
D40*
X030695Y026080D03*
X030695Y026090D03*
X030695Y026100D03*
X030695Y026110D03*
X030695Y026120D03*
X030695Y026130D03*
X030695Y026140D03*
X030695Y026150D03*
X030695Y026160D03*
X030695Y026170D03*
X029825Y026170D03*
X031605Y026080D03*
X031605Y026290D03*
D41*
X031290Y026240D03*
X031290Y026230D03*
X031290Y026140D03*
X031290Y026130D03*
X031050Y026090D03*
X031050Y026080D03*
X031060Y026290D03*
X030910Y026680D03*
X030900Y026690D03*
X030890Y026700D03*
X030880Y026720D03*
X030870Y026740D03*
X030630Y026730D03*
X030610Y026700D03*
X030600Y026690D03*
X030590Y026670D03*
X030630Y027050D03*
X030620Y027070D03*
X030610Y027090D03*
X030600Y027100D03*
X030590Y027110D03*
X030310Y027120D03*
X030310Y027060D03*
X030030Y027100D03*
X030020Y027090D03*
X029990Y027040D03*
X030000Y026730D03*
X030010Y026710D03*
X030020Y026700D03*
X030020Y026690D03*
X030030Y026680D03*
X030040Y026670D03*
X030050Y026660D03*
X029750Y026660D03*
X029750Y026670D03*
X029750Y026680D03*
X029750Y026690D03*
X029750Y026700D03*
X029750Y026780D03*
X029750Y026790D03*
X029750Y026800D03*
X029750Y026810D03*
X029340Y026800D03*
X029330Y026780D03*
X029330Y026770D03*
X029330Y026760D03*
X029330Y026750D03*
X029330Y026740D03*
X029330Y026730D03*
X029330Y026720D03*
X029330Y026710D03*
X029330Y026700D03*
X029340Y026680D03*
X029220Y026820D03*
X029030Y026780D03*
X029030Y026770D03*
X029030Y026710D03*
X029030Y026700D03*
X028800Y026710D03*
X028800Y026720D03*
X028800Y026730D03*
X028800Y026750D03*
X028800Y026760D03*
X028800Y026770D03*
X030190Y026150D03*
X030190Y026140D03*
X030190Y026130D03*
X030320Y026170D03*
X030330Y026150D03*
X030330Y026140D03*
X030330Y026130D03*
X030400Y026280D03*
X030890Y027080D03*
X030900Y027090D03*
X030910Y027110D03*
X030920Y027120D03*
X030930Y027130D03*
X031270Y026790D03*
X031480Y026690D03*
X031490Y026700D03*
X031500Y026720D03*
X031510Y026740D03*
X031750Y026730D03*
X031770Y026700D03*
X031780Y026690D03*
X031790Y026670D03*
X031940Y026830D03*
X031950Y026980D03*
X031770Y027080D03*
X031770Y027090D03*
X031780Y027100D03*
X031790Y027110D03*
X031760Y027070D03*
X031750Y027050D03*
X031490Y027080D03*
X031480Y027090D03*
X031470Y027110D03*
X031460Y027120D03*
X031450Y027130D03*
X032350Y027100D03*
X032360Y027090D03*
X032370Y026710D03*
X032360Y026700D03*
X032360Y026690D03*
X032350Y026680D03*
X032340Y026670D03*
X032050Y026260D03*
X032130Y026120D03*
X032130Y026110D03*
X031920Y026140D03*
D42*
X032045Y026270D03*
X032135Y026100D03*
X032335Y026660D03*
X032195Y026800D03*
X032205Y026820D03*
X032205Y026830D03*
X032205Y026840D03*
X032215Y026860D03*
X032215Y026870D03*
X032215Y026880D03*
X032215Y026890D03*
X032215Y026900D03*
X032215Y026910D03*
X032215Y026920D03*
X032205Y026930D03*
X032205Y026940D03*
X032205Y026950D03*
X032205Y026960D03*
X032195Y026970D03*
X032195Y026980D03*
X032065Y027090D03*
X031955Y026990D03*
X031945Y026970D03*
X031945Y026960D03*
X031945Y026950D03*
X031935Y026920D03*
X031945Y026820D03*
X031945Y026810D03*
X031945Y026800D03*
X031955Y026780D03*
X031815Y026650D03*
X031805Y026660D03*
X031785Y026680D03*
X031475Y026680D03*
X031465Y026670D03*
X031455Y026660D03*
X031445Y026650D03*
X031435Y026640D03*
X031185Y026720D03*
X030945Y026640D03*
X030935Y026650D03*
X030925Y026660D03*
X030915Y026670D03*
X030595Y026680D03*
X030575Y026660D03*
X030585Y027120D03*
X030575Y027130D03*
X030565Y027140D03*
X030315Y027110D03*
X030315Y027100D03*
X030315Y027080D03*
X030315Y027070D03*
X030075Y027150D03*
X030065Y027140D03*
X030055Y027130D03*
X030045Y027120D03*
X030035Y027110D03*
X029715Y026930D03*
X029725Y026910D03*
X029735Y026880D03*
X029735Y026870D03*
X029745Y026850D03*
X029745Y026840D03*
X029745Y026830D03*
X029745Y026820D03*
X029755Y026770D03*
X029755Y026760D03*
X029755Y026750D03*
X029755Y026740D03*
X029755Y026730D03*
X029755Y026720D03*
X029755Y026710D03*
X029745Y026650D03*
X029745Y026640D03*
X029745Y026630D03*
X029735Y026610D03*
X029735Y026600D03*
X029735Y026590D03*
X029725Y026570D03*
X029345Y026670D03*
X029335Y026690D03*
X029335Y026790D03*
X029345Y026810D03*
X029215Y026650D03*
X029035Y026680D03*
X029035Y026690D03*
X029025Y026720D03*
X029025Y026730D03*
X029025Y026740D03*
X029025Y026750D03*
X029025Y026760D03*
X029035Y026790D03*
X029035Y026800D03*
X029045Y026810D03*
X028815Y026850D03*
X028815Y026860D03*
X028815Y026870D03*
X028825Y026890D03*
X028825Y026900D03*
X028835Y026920D03*
X028805Y026840D03*
X028805Y026830D03*
X028805Y026820D03*
X028805Y026810D03*
X028805Y026800D03*
X028805Y026790D03*
X028805Y026780D03*
X028795Y026740D03*
X028805Y026700D03*
X028805Y026690D03*
X028805Y026680D03*
X028805Y026670D03*
X028805Y026660D03*
X028805Y026650D03*
X028805Y026640D03*
X028815Y026630D03*
X028815Y026620D03*
X028815Y026610D03*
X028825Y026590D03*
X028825Y026580D03*
X028835Y026560D03*
X030295Y026200D03*
X030305Y026190D03*
X030315Y026180D03*
X030325Y026160D03*
X030325Y026120D03*
X030325Y026110D03*
X030395Y026290D03*
X031195Y026290D03*
X031195Y026080D03*
X030885Y027060D03*
X030905Y027100D03*
X031475Y027100D03*
X031795Y027120D03*
X031805Y027130D03*
X031815Y027140D03*
X031825Y027150D03*
X032305Y027150D03*
X032315Y027140D03*
X032325Y027130D03*
X032335Y027120D03*
X032345Y027110D03*
D43*
X032130Y026180D03*
X032130Y026170D03*
X032130Y026160D03*
X032030Y026170D03*
X032000Y026080D03*
X031170Y026130D03*
X031170Y026140D03*
X031170Y026230D03*
X031170Y026240D03*
X031080Y026230D03*
X031080Y026220D03*
X031030Y026150D03*
X031030Y026140D03*
X030400Y026250D03*
X030300Y026240D03*
X030290Y026250D03*
X030290Y026260D03*
X030280Y026280D03*
X029520Y026810D03*
X029220Y026670D03*
X031190Y027070D03*
D44*
X031420Y027160D03*
X031430Y027150D03*
X031440Y027140D03*
X031500Y026750D03*
X031420Y026630D03*
X031820Y026640D03*
X031830Y026630D03*
X031950Y026790D03*
X031960Y027000D03*
X031840Y027160D03*
X032180Y027000D03*
X032190Y026990D03*
X032210Y026850D03*
X032200Y026810D03*
X032190Y026790D03*
X032180Y026780D03*
X032320Y026650D03*
X032310Y026640D03*
X032300Y026630D03*
X032020Y026200D03*
X032130Y026090D03*
X032130Y026080D03*
X031290Y026150D03*
X030970Y026620D03*
X030960Y026630D03*
X030570Y026650D03*
X030560Y026640D03*
X030550Y026630D03*
X030310Y027090D03*
X030540Y027160D03*
X030550Y027150D03*
X030940Y027140D03*
X030950Y027150D03*
X030960Y027160D03*
X030080Y026630D03*
X030070Y026640D03*
X030060Y026650D03*
X029740Y026620D03*
X029730Y026580D03*
X029720Y026560D03*
X029720Y026550D03*
X029710Y026540D03*
X029710Y026530D03*
X029700Y026520D03*
X029700Y026510D03*
X029690Y026500D03*
X029520Y026650D03*
X029350Y026660D03*
X029350Y026820D03*
X029210Y026830D03*
X029050Y026820D03*
X029040Y026670D03*
X029050Y026660D03*
X028840Y026550D03*
X028840Y026540D03*
X028850Y026530D03*
X028850Y026520D03*
X028860Y026510D03*
X028870Y026490D03*
X028830Y026570D03*
X028820Y026600D03*
X028820Y026880D03*
X028830Y026910D03*
X028840Y026930D03*
X028840Y026940D03*
X028850Y026950D03*
X028860Y026970D03*
X029520Y026830D03*
X029730Y026890D03*
X029730Y026900D03*
X029720Y026920D03*
X029710Y026940D03*
X029710Y026950D03*
X029700Y026960D03*
X029700Y026970D03*
X029690Y026980D03*
X029740Y026860D03*
X030320Y026100D03*
D45*
X031190Y026550D03*
X031000Y027000D03*
X032420Y026090D03*
X032420Y026080D03*
X028760Y026200D03*
D46*
X028895Y026460D03*
X028885Y026470D03*
X028875Y026480D03*
X028865Y026500D03*
X029065Y026830D03*
X029135Y026890D03*
X028895Y027020D03*
X028885Y027010D03*
X028875Y027000D03*
X028875Y026990D03*
X028865Y026980D03*
X028855Y026960D03*
X029365Y026650D03*
X029435Y026890D03*
X029655Y027030D03*
X029665Y027020D03*
X029675Y027000D03*
X029685Y026990D03*
X030085Y027160D03*
X030095Y027170D03*
X030315Y026820D03*
X030315Y026810D03*
X030315Y026800D03*
X030315Y026790D03*
X030315Y026780D03*
X030315Y026770D03*
X030315Y026760D03*
X030315Y026750D03*
X030315Y026740D03*
X030315Y026730D03*
X030315Y026720D03*
X030315Y026710D03*
X030315Y026700D03*
X030315Y026690D03*
X030315Y026680D03*
X030315Y026670D03*
X030315Y026660D03*
X030315Y026650D03*
X030105Y026610D03*
X030095Y026620D03*
X029685Y026490D03*
X029675Y026480D03*
X029675Y026470D03*
X029665Y026460D03*
X030315Y026090D03*
X030535Y026620D03*
X030985Y026610D03*
X031395Y026610D03*
X031415Y026620D03*
X031845Y026620D03*
X031965Y026770D03*
X031935Y026930D03*
X031975Y027010D03*
X031855Y027170D03*
X031865Y027180D03*
X032285Y027170D03*
X032295Y027160D03*
X032175Y026770D03*
X032285Y026620D03*
X032275Y026610D03*
X032045Y026280D03*
X030895Y027050D03*
X030975Y027170D03*
X031405Y027170D03*
X030525Y027170D03*
X030515Y027180D03*
D47*
X030615Y027080D03*
X030625Y027060D03*
X030635Y027040D03*
X030645Y027030D03*
X030645Y027020D03*
X030655Y026990D03*
X030655Y026980D03*
X030665Y026940D03*
X030665Y026930D03*
X030665Y026920D03*
X030665Y026860D03*
X030665Y026850D03*
X030665Y026840D03*
X030655Y026800D03*
X030655Y026790D03*
X030645Y026770D03*
X030645Y026760D03*
X030635Y026750D03*
X030635Y026740D03*
X030625Y026720D03*
X030615Y026710D03*
X030845Y026800D03*
X030845Y026810D03*
X030855Y026780D03*
X030855Y026770D03*
X030865Y026750D03*
X030875Y026730D03*
X030885Y026710D03*
X030835Y026870D03*
X030835Y026880D03*
X030835Y026890D03*
X030835Y026900D03*
X030835Y026910D03*
X030835Y026920D03*
X030845Y026970D03*
X030845Y026980D03*
X030885Y027070D03*
X031185Y027280D03*
X031495Y027070D03*
X031505Y027060D03*
X031505Y027050D03*
X031515Y027040D03*
X031515Y027030D03*
X031525Y027010D03*
X031525Y027000D03*
X031535Y026980D03*
X031535Y026970D03*
X031545Y026900D03*
X031545Y026890D03*
X031505Y026730D03*
X031495Y026710D03*
X031725Y026790D03*
X031725Y026800D03*
X031735Y026770D03*
X031735Y026760D03*
X031745Y026750D03*
X031745Y026740D03*
X031755Y026720D03*
X031765Y026710D03*
X031715Y026830D03*
X031715Y026840D03*
X031715Y026850D03*
X031715Y026940D03*
X031715Y026950D03*
X031715Y026960D03*
X031725Y026990D03*
X031735Y027020D03*
X031735Y027030D03*
X031745Y027040D03*
X031755Y027060D03*
X031935Y026910D03*
X032065Y027280D03*
X032365Y027080D03*
X032375Y027070D03*
X032375Y027060D03*
X032385Y027050D03*
X032385Y027040D03*
X032395Y027030D03*
X032395Y027020D03*
X032405Y027000D03*
X032405Y026990D03*
X032415Y026960D03*
X032415Y026950D03*
X032415Y026830D03*
X032415Y026820D03*
X032405Y026790D03*
X032405Y026780D03*
X032395Y026760D03*
X032395Y026750D03*
X032385Y026740D03*
X032385Y026730D03*
X032375Y026720D03*
X032045Y026250D03*
X032045Y026240D03*
X032045Y026230D03*
X032025Y026190D03*
X031925Y026230D03*
X031925Y026130D03*
X031925Y026120D03*
X031185Y026090D03*
X031045Y026100D03*
X031065Y026270D03*
X031065Y026280D03*
X031185Y026280D03*
X030305Y026210D03*
X030185Y026220D03*
X030185Y026230D03*
X030185Y026240D03*
X030185Y026160D03*
X030185Y026120D03*
X030005Y026720D03*
X029995Y026740D03*
X029985Y026750D03*
X029985Y026760D03*
X029975Y026780D03*
X029975Y026790D03*
X029965Y026810D03*
X029965Y026820D03*
X029965Y026960D03*
X029965Y026970D03*
X029975Y026990D03*
X029975Y027000D03*
X029985Y027020D03*
X029985Y027030D03*
X029995Y027050D03*
X030005Y027060D03*
X030005Y027070D03*
X030015Y027080D03*
X030315Y027050D03*
X030315Y027280D03*
X029525Y026820D03*
X029525Y026660D03*
X029435Y026580D03*
X029225Y026660D03*
X029135Y026580D03*
D48*
X029845Y026190D03*
X030715Y026230D03*
X031605Y026280D03*
X031605Y026090D03*
D49*
X031920Y026260D03*
X032030Y026140D03*
X032030Y026130D03*
X032020Y026110D03*
X032020Y026100D03*
X032010Y026090D03*
X032130Y026190D03*
X032130Y026200D03*
X032130Y026210D03*
X031090Y026200D03*
X031090Y026190D03*
X031020Y026180D03*
X030400Y026230D03*
X029520Y026680D03*
X029510Y026800D03*
X029210Y026800D03*
X029130Y026900D03*
X030310Y027140D03*
X031260Y026990D03*
D50*
X031250Y027000D03*
X031520Y027020D03*
X031530Y026990D03*
X031540Y026960D03*
X031540Y026950D03*
X031540Y026940D03*
X031540Y026930D03*
X031540Y026920D03*
X031540Y026910D03*
X031540Y026880D03*
X031540Y026870D03*
X031540Y026860D03*
X031540Y026850D03*
X031540Y026840D03*
X031540Y026830D03*
X031540Y026820D03*
X031710Y026860D03*
X031710Y026870D03*
X031710Y026880D03*
X031710Y026890D03*
X031710Y026900D03*
X031710Y026910D03*
X031710Y026920D03*
X031710Y026930D03*
X031720Y026970D03*
X031720Y026980D03*
X031730Y027000D03*
X031730Y027010D03*
X031720Y026820D03*
X031720Y026810D03*
X031730Y026780D03*
X031920Y026250D03*
X031920Y026240D03*
X032030Y026180D03*
X032400Y026770D03*
X032410Y026800D03*
X032410Y026810D03*
X032420Y026840D03*
X032420Y026850D03*
X032420Y026860D03*
X032420Y026870D03*
X032420Y026880D03*
X032420Y026890D03*
X032420Y026900D03*
X032420Y026910D03*
X032420Y026920D03*
X032420Y026930D03*
X032420Y026940D03*
X032410Y026970D03*
X032410Y026980D03*
X032400Y027010D03*
X031290Y026120D03*
X031180Y026100D03*
X031040Y026110D03*
X031040Y026120D03*
X031070Y026250D03*
X031070Y026260D03*
X031180Y026270D03*
X030860Y026760D03*
X030850Y026790D03*
X030840Y026820D03*
X030840Y026830D03*
X030840Y026840D03*
X030840Y026850D03*
X030840Y026860D03*
X030840Y026930D03*
X030840Y026940D03*
X030840Y026950D03*
X030840Y026960D03*
X030850Y026990D03*
X030660Y026970D03*
X030660Y026960D03*
X030660Y026950D03*
X030670Y026910D03*
X030670Y026900D03*
X030670Y026890D03*
X030670Y026880D03*
X030670Y026870D03*
X030660Y026830D03*
X030660Y026820D03*
X030660Y026810D03*
X030650Y026780D03*
X030650Y027000D03*
X030650Y027010D03*
X030310Y027130D03*
X029980Y027010D03*
X029970Y026980D03*
X029960Y026950D03*
X029960Y026940D03*
X029960Y026930D03*
X029960Y026920D03*
X029960Y026910D03*
X029960Y026900D03*
X029960Y026890D03*
X029960Y026880D03*
X029960Y026870D03*
X029960Y026860D03*
X029960Y026850D03*
X029960Y026840D03*
X029960Y026830D03*
X029970Y026800D03*
X029980Y026770D03*
X030180Y026250D03*
X030300Y026230D03*
X030300Y026220D03*
X030400Y026270D03*
D51*
X030725Y026270D03*
X030725Y026260D03*
X029855Y026210D03*
X029275Y026270D03*
X029275Y027210D03*
X031605Y026100D03*
D52*
X032065Y026550D03*
X032415Y026120D03*
X032415Y026110D03*
X032415Y026100D03*
X030315Y026550D03*
X029905Y026290D03*
D53*
X028875Y026110D03*
D54*
X029740Y026110D03*
X031590Y026160D03*
D55*
X031295Y026250D03*
X031175Y026250D03*
X031175Y026260D03*
X031075Y026240D03*
X031035Y026130D03*
X031175Y026120D03*
X031175Y026110D03*
X031115Y026790D03*
X031935Y026900D03*
X030395Y026260D03*
X030265Y026290D03*
X030175Y026210D03*
X030175Y026170D03*
X029525Y026670D03*
X029215Y026810D03*
D56*
X028805Y026150D03*
X029865Y026220D03*
X030735Y026290D03*
X031605Y026120D03*
X031605Y026110D03*
D57*
X031925Y026110D03*
X032035Y026150D03*
X032035Y026160D03*
X032585Y026410D03*
X032585Y026420D03*
X032585Y026430D03*
X032585Y026440D03*
X032585Y026450D03*
X032585Y026460D03*
X032585Y026470D03*
X032585Y026480D03*
X032585Y026490D03*
X032585Y026500D03*
X032585Y026510D03*
X032585Y026520D03*
X032585Y026530D03*
X032585Y026540D03*
X032585Y026550D03*
X032585Y026560D03*
X032585Y026570D03*
X032585Y026580D03*
X032585Y026590D03*
X032585Y026600D03*
X032585Y026610D03*
X032585Y026620D03*
X032585Y026630D03*
X032585Y026640D03*
X032585Y026650D03*
X032585Y026660D03*
X032585Y026670D03*
X032585Y026680D03*
X032585Y026690D03*
X032585Y026700D03*
X032585Y026710D03*
X032585Y026720D03*
X032585Y026730D03*
X032585Y026740D03*
X032585Y026750D03*
X032585Y026760D03*
X032585Y026770D03*
X032585Y026780D03*
X032585Y026790D03*
X032585Y026800D03*
X032585Y026810D03*
X032585Y026820D03*
X032585Y026830D03*
X032585Y026840D03*
X032585Y026850D03*
X032585Y026860D03*
X032585Y026870D03*
X032585Y026880D03*
X032585Y026890D03*
X032585Y026900D03*
X032585Y026910D03*
X032585Y026920D03*
X032585Y026930D03*
X032585Y026940D03*
X032585Y026950D03*
X032585Y026960D03*
X032585Y026970D03*
X032585Y026980D03*
X032585Y026990D03*
X032585Y027000D03*
X032585Y027010D03*
X032585Y027020D03*
X032585Y027030D03*
X032585Y027040D03*
X032585Y027050D03*
X032585Y027060D03*
X032585Y027070D03*
X032585Y027080D03*
X032585Y027090D03*
X032585Y027100D03*
X032585Y027110D03*
X032585Y027120D03*
X032585Y027130D03*
X032585Y027140D03*
X032585Y027150D03*
X032585Y027160D03*
X032585Y027170D03*
X032585Y027180D03*
X032585Y027190D03*
X032585Y027200D03*
X032585Y027210D03*
X032585Y027220D03*
X032585Y027230D03*
X032585Y027240D03*
X032585Y027250D03*
X032585Y027260D03*
X032585Y027270D03*
X032585Y027280D03*
X032585Y027290D03*
X032585Y027300D03*
X032585Y027310D03*
X032585Y027320D03*
X032585Y027330D03*
X032585Y027340D03*
X032575Y027350D03*
X031935Y026890D03*
X031195Y026710D03*
X031195Y026700D03*
X031195Y026690D03*
X031195Y026680D03*
X031195Y026670D03*
X031195Y026660D03*
X031115Y026800D03*
X031195Y027080D03*
X031195Y027090D03*
X031195Y027100D03*
X031195Y027110D03*
X031195Y027120D03*
X030315Y027040D03*
X029435Y026900D03*
X028595Y026900D03*
X028595Y026910D03*
X028595Y026920D03*
X028595Y026930D03*
X028595Y026940D03*
X028595Y026950D03*
X028595Y026960D03*
X028595Y026970D03*
X028595Y026980D03*
X028595Y026990D03*
X028595Y027000D03*
X028595Y027010D03*
X028595Y027020D03*
X028595Y027030D03*
X028595Y027040D03*
X028595Y027050D03*
X028595Y027060D03*
X028595Y027070D03*
X028595Y027080D03*
X028595Y027090D03*
X028595Y027100D03*
X028595Y027110D03*
X028595Y027120D03*
X028595Y027130D03*
X028595Y027140D03*
X028595Y027150D03*
X028595Y027160D03*
X028595Y027170D03*
X028595Y027180D03*
X028595Y027190D03*
X028595Y027200D03*
X028595Y027210D03*
X028595Y027220D03*
X028595Y027230D03*
X028595Y027240D03*
X028595Y027250D03*
X028595Y027260D03*
X028595Y027270D03*
X028595Y027280D03*
X028595Y027290D03*
X028595Y027300D03*
X028595Y027310D03*
X028595Y027320D03*
X028595Y027330D03*
X028595Y027340D03*
X028605Y027350D03*
X028595Y026890D03*
X028595Y026880D03*
X028595Y026870D03*
X028595Y026860D03*
X028595Y026850D03*
X028595Y026840D03*
X028595Y026830D03*
X028595Y026820D03*
X028595Y026810D03*
X028595Y026800D03*
X028595Y026790D03*
X028595Y026780D03*
X028595Y026770D03*
X028595Y026760D03*
X028595Y026750D03*
X028595Y026740D03*
X028595Y026730D03*
X028595Y026720D03*
X028595Y026710D03*
X028595Y026700D03*
X028595Y026690D03*
X028595Y026680D03*
X028595Y026670D03*
X028595Y026660D03*
X028595Y026650D03*
X028595Y026640D03*
X028595Y026630D03*
X028595Y026620D03*
X028595Y026610D03*
X028595Y026600D03*
X028595Y026590D03*
X028595Y026580D03*
X028595Y026570D03*
X028595Y026560D03*
X028595Y026550D03*
X028595Y026540D03*
X028595Y026530D03*
X028595Y026520D03*
X028595Y026510D03*
X028595Y026500D03*
X028595Y026490D03*
X028595Y026480D03*
X028595Y026470D03*
X028595Y026460D03*
X028595Y026450D03*
X028595Y026440D03*
X028595Y026430D03*
X028595Y026420D03*
X028595Y026410D03*
X030285Y026270D03*
X030395Y026240D03*
X031025Y026170D03*
X031025Y026160D03*
X031085Y026210D03*
X031165Y026210D03*
X031165Y026220D03*
X031165Y026200D03*
X031165Y026190D03*
X031165Y026180D03*
X031165Y026170D03*
X031165Y026160D03*
X031165Y026150D03*
D58*
X029280Y026290D03*
X028850Y026120D03*
X029280Y027190D03*
D59*
X029215Y026680D03*
X031015Y026200D03*
X031015Y026190D03*
X031095Y026180D03*
X031095Y026170D03*
X031935Y026880D03*
X032065Y026680D03*
X032025Y026120D03*
D60*
X030705Y026190D03*
X030705Y026200D03*
X029835Y026180D03*
X029275Y026280D03*
X028835Y026130D03*
X029275Y027200D03*
D61*
X029780Y026130D03*
D62*
X029870Y026230D03*
X031190Y026570D03*
X031610Y026240D03*
X031610Y026230D03*
X031610Y026140D03*
X031610Y026130D03*
X032380Y026290D03*
D63*
X032410Y026150D03*
X032410Y026140D03*
X032410Y026130D03*
X031190Y027230D03*
X029900Y026280D03*
X028770Y026190D03*
X029280Y027230D03*
D64*
X029850Y026200D03*
X030720Y026240D03*
X030720Y026250D03*
X031610Y026270D03*
X028820Y026140D03*
D65*
X029275Y026300D03*
X029805Y026150D03*
X029275Y027180D03*
X031675Y026150D03*
D66*
X032065Y026570D03*
X032385Y026280D03*
X032385Y026270D03*
X032385Y026260D03*
X030315Y026570D03*
X029875Y026240D03*
X029275Y026260D03*
X028795Y026160D03*
X029275Y027220D03*
D67*
X029815Y026160D03*
D68*
X030400Y026220D03*
X031010Y026210D03*
X031100Y026160D03*
X031110Y026810D03*
X032130Y026230D03*
X032130Y026220D03*
D69*
X032405Y026170D03*
X032405Y026160D03*
X032065Y027230D03*
X030315Y027230D03*
X029895Y026270D03*
X029275Y026250D03*
X028775Y026180D03*
D70*
X028785Y026170D03*
X032395Y026210D03*
X032395Y026220D03*
X032395Y026230D03*
D71*
X030700Y026180D03*
D72*
X031555Y026180D03*
D73*
X031190Y026560D03*
X030310Y026560D03*
X029890Y026260D03*
X032070Y026560D03*
X032400Y026200D03*
X032400Y026190D03*
X032400Y026180D03*
D74*
X031545Y026190D03*
D75*
X032065Y027240D03*
X030315Y027240D03*
X028755Y026210D03*
D76*
X030710Y026210D03*
X030710Y026220D03*
D77*
X031020Y026590D03*
X031360Y026590D03*
X032000Y026210D03*
X032240Y026590D03*
X030900Y027040D03*
X030140Y026590D03*
X029620Y026410D03*
X029610Y026400D03*
X029600Y026390D03*
X029590Y026380D03*
X028970Y026380D03*
X028960Y027090D03*
X028970Y027100D03*
X029590Y027100D03*
X029600Y027090D03*
D78*
X029275Y027240D03*
X030315Y026540D03*
X029275Y026240D03*
X028745Y026220D03*
X031405Y026810D03*
X032065Y026540D03*
D79*
X031470Y026780D03*
X031330Y026840D03*
X031310Y026850D03*
X031290Y026860D03*
X031270Y026870D03*
X031240Y026880D03*
X031220Y026890D03*
X031200Y026900D03*
X031180Y026910D03*
X031150Y026920D03*
X031130Y026930D03*
X031110Y026940D03*
X031090Y026950D03*
X031060Y026960D03*
X029530Y027140D03*
X029030Y027140D03*
X028670Y026390D03*
X029280Y026220D03*
D80*
X029525Y026340D03*
X029545Y026350D03*
X029435Y026600D03*
X029025Y026340D03*
X028665Y026400D03*
X029545Y027130D03*
X030315Y027010D03*
X030915Y027030D03*
X032065Y026700D03*
X031985Y026220D03*
D81*
X031400Y026800D03*
X031190Y026540D03*
X028740Y026230D03*
D82*
X029275Y026230D03*
X032065Y026740D03*
D83*
X032065Y027250D03*
X031185Y027250D03*
X030315Y027250D03*
X028735Y026240D03*
D84*
X029880Y026250D03*
X030310Y027220D03*
X031190Y027220D03*
X032070Y027220D03*
X032390Y026250D03*
X032390Y026240D03*
D85*
X032070Y026760D03*
X032070Y027020D03*
X028730Y026250D03*
D86*
X030730Y026280D03*
X031610Y026260D03*
X031610Y026250D03*
D87*
X031185Y026530D03*
X030315Y026530D03*
X029435Y026310D03*
X028725Y026260D03*
X032065Y026530D03*
X032065Y026750D03*
D88*
X032070Y027030D03*
X029120Y026310D03*
X028720Y026270D03*
D89*
X028710Y026280D03*
X028710Y026290D03*
X030310Y027260D03*
X031190Y027260D03*
X032070Y027260D03*
X032070Y027040D03*
D90*
X032065Y026730D03*
X029435Y026640D03*
X029275Y027250D03*
X028705Y026300D03*
D91*
X030505Y026300D03*
D92*
X032265Y026300D03*
D93*
X032070Y027050D03*
X031180Y026760D03*
X031030Y026990D03*
X029440Y026840D03*
X029130Y026840D03*
X029130Y026640D03*
X028700Y026310D03*
D94*
X031165Y026310D03*
D95*
X031185Y026770D03*
X031195Y026780D03*
X030315Y026520D03*
X029435Y026630D03*
X029435Y026850D03*
X029135Y026850D03*
X029135Y026630D03*
X028695Y026320D03*
X032065Y026520D03*
X032065Y026720D03*
D96*
X032065Y026710D03*
X032185Y027210D03*
X031945Y027210D03*
X031345Y026830D03*
X031185Y026750D03*
X031185Y027010D03*
X031195Y027020D03*
X030435Y027210D03*
X030195Y027210D03*
X029435Y026860D03*
X029435Y026620D03*
X029135Y026620D03*
X029135Y026860D03*
X029075Y027160D03*
X029075Y026320D03*
X028685Y026340D03*
X028685Y026350D03*
X029485Y026320D03*
D97*
X031170Y026320D03*
D98*
X031190Y026520D03*
X031360Y026820D03*
X031200Y027030D03*
X031040Y026980D03*
X030930Y027010D03*
X032070Y027060D03*
X029480Y027160D03*
X028690Y026330D03*
D99*
X028675Y026370D03*
X028675Y026380D03*
X029045Y026330D03*
X029135Y026610D03*
X029135Y026870D03*
X029435Y026870D03*
X029435Y026610D03*
X029505Y026330D03*
X029505Y027150D03*
X030315Y027270D03*
X030315Y027000D03*
X030315Y026830D03*
X031185Y026740D03*
X032065Y027070D03*
X032065Y027270D03*
D100*
X031175Y026330D03*
D101*
X031180Y026340D03*
D102*
X031190Y026510D03*
X031340Y026580D03*
X031480Y026770D03*
X031200Y027050D03*
X031040Y026580D03*
X030460Y026580D03*
X030310Y026510D03*
X030170Y026580D03*
X029560Y026360D03*
X029130Y026600D03*
X029010Y026350D03*
X029440Y026880D03*
X029560Y027120D03*
X029010Y027130D03*
X031920Y026580D03*
X032070Y026510D03*
X032210Y026580D03*
D103*
X031185Y026360D03*
X031185Y026350D03*
D104*
X031460Y026790D03*
X031200Y027040D03*
X031050Y026970D03*
X030920Y027020D03*
X031070Y027210D03*
X031190Y027270D03*
X031310Y027210D03*
X030310Y026990D03*
X030310Y026980D03*
X030310Y026970D03*
X030310Y026960D03*
X030310Y026950D03*
X030310Y026940D03*
X030310Y026930D03*
X030310Y026920D03*
X030310Y026910D03*
X030310Y026900D03*
X030310Y026890D03*
X030310Y026880D03*
X030310Y026870D03*
X030310Y026860D03*
X030310Y026850D03*
X030310Y026840D03*
X029050Y027150D03*
X028680Y026360D03*
D105*
X028985Y026370D03*
X028995Y026360D03*
X029135Y026880D03*
X028985Y027110D03*
X028995Y027120D03*
X029575Y027110D03*
X030155Y027200D03*
X030475Y027200D03*
X031025Y027200D03*
X031355Y027200D03*
X031905Y027200D03*
X032065Y027080D03*
X032225Y027200D03*
X031185Y026730D03*
X029575Y026370D03*
D106*
X031190Y026370D03*
X031190Y026380D03*
D107*
X031195Y026390D03*
D108*
X031200Y026400D03*
D109*
X031380Y026600D03*
X031000Y026600D03*
X030520Y026610D03*
X030510Y026600D03*
X030120Y026600D03*
X029660Y026450D03*
X029650Y026440D03*
X029640Y026430D03*
X029630Y026420D03*
X029370Y026830D03*
X029630Y027060D03*
X029640Y027050D03*
X029650Y027040D03*
X029670Y027010D03*
X029280Y027260D03*
X028940Y027070D03*
X028930Y027060D03*
X028920Y027050D03*
X028910Y027040D03*
X028900Y027030D03*
X029060Y026650D03*
X028900Y026450D03*
X028910Y026440D03*
X028920Y026430D03*
X028930Y026420D03*
X030110Y027180D03*
X030130Y027190D03*
X030990Y027180D03*
X031200Y027060D03*
X031390Y027180D03*
X031860Y026610D03*
X031870Y026600D03*
X032060Y026690D03*
X032260Y026600D03*
X032170Y027010D03*
X032250Y027190D03*
X032270Y027180D03*
D110*
X031190Y027240D03*
D111*
X030590Y027370D03*
D112*
X030590Y027380D03*
D113*
X030590Y027390D03*
M02*
