G75*
%MOIN*%
%OFA0B0*%
%FSLAX24Y24*%
%IPPOS*%
%LPD*%
%AMOC8*
5,1,8,0,0,1.08239X$1,22.5*
%
%ADD10R,0.0472X0.1260*%
%ADD11C,0.0098*%
%ADD12R,0.0098X0.0266*%
%ADD13R,0.0266X0.0098*%
%ADD14R,0.0413X0.0413*%
%ADD15R,0.0472X0.0157*%
%ADD16R,0.0591X0.0512*%
%ADD17R,0.0512X0.0591*%
%ADD18R,0.0760X0.2100*%
%ADD19R,0.0472X0.0472*%
%ADD20R,0.1575X0.0354*%
D10*
X006712Y001811D03*
X008287Y001811D03*
X008287Y004489D03*
X006712Y004489D03*
D11*
X018014Y014287D03*
X018211Y014287D03*
X018407Y014287D03*
X018604Y014287D03*
X018801Y014287D03*
X018998Y014287D03*
X019195Y014287D03*
X019392Y014287D03*
X019589Y014287D03*
X019785Y014287D03*
X019963Y014464D03*
X019963Y014661D03*
X019963Y014858D03*
X019963Y015055D03*
X019963Y015252D03*
X019963Y015448D03*
X019963Y015645D03*
X019963Y015842D03*
X019963Y016039D03*
X019963Y016236D03*
X019785Y016413D03*
X019589Y016413D03*
X019392Y016413D03*
X019195Y016413D03*
X018998Y016413D03*
X018801Y016413D03*
X018604Y016413D03*
X018407Y016413D03*
X018211Y016413D03*
X018014Y016413D03*
X017837Y016236D03*
X017837Y016039D03*
X017837Y015842D03*
X017837Y015645D03*
X017837Y015448D03*
X017837Y015252D03*
X017837Y015055D03*
X017837Y014858D03*
X017837Y014661D03*
X017837Y014464D03*
D12*
X018014Y014154D03*
X018211Y014154D03*
X018407Y014154D03*
X018604Y014154D03*
X018801Y014154D03*
X018998Y014154D03*
X019195Y014154D03*
X019392Y014154D03*
X019589Y014154D03*
X019785Y014154D03*
X019785Y016546D03*
X019589Y016546D03*
X019392Y016546D03*
X019195Y016546D03*
X018998Y016546D03*
X018801Y016546D03*
X018604Y016546D03*
X018407Y016546D03*
X018211Y016546D03*
X018014Y016546D03*
D13*
X017704Y016236D03*
X017704Y016039D03*
X017704Y015842D03*
X017704Y015645D03*
X017704Y015448D03*
X017704Y015252D03*
X017704Y015055D03*
X017704Y014858D03*
X017704Y014661D03*
X017704Y014464D03*
X020095Y014464D03*
X020095Y014661D03*
X020095Y014858D03*
X020095Y015055D03*
X020095Y015252D03*
X020095Y015448D03*
X020095Y015645D03*
X020095Y015842D03*
X020095Y016039D03*
X020095Y016236D03*
D14*
X019470Y015921D03*
X018900Y015921D03*
X018900Y015350D03*
X019470Y015350D03*
X019470Y014779D03*
X018900Y014779D03*
X018329Y014779D03*
X018329Y015350D03*
X018329Y015921D03*
D15*
X007843Y016000D03*
X007843Y015500D03*
X007843Y015000D03*
X007843Y014500D03*
X005756Y014500D03*
X005756Y015000D03*
X005756Y015500D03*
X005756Y016000D03*
X006643Y023900D03*
X006643Y024400D03*
X006643Y024900D03*
X006643Y025400D03*
X004556Y025400D03*
X004556Y024900D03*
X004556Y024400D03*
X004556Y023900D03*
D16*
X006700Y026176D03*
X006700Y026924D03*
X008900Y026924D03*
X008900Y026176D03*
X010700Y026176D03*
X010700Y026924D03*
X014500Y026924D03*
X014500Y026176D03*
X012800Y023824D03*
X012800Y023076D03*
X012800Y021624D03*
X012800Y020876D03*
X012800Y019824D03*
X012800Y019076D03*
X010700Y015324D03*
X010700Y014576D03*
X009700Y014576D03*
X009700Y015324D03*
X010100Y011824D03*
X010100Y011076D03*
X010900Y003624D03*
X010900Y002876D03*
X009400Y002224D03*
X009400Y001476D03*
X031300Y004276D03*
X031300Y005024D03*
X031300Y008976D03*
X031300Y009724D03*
X031300Y013776D03*
X031300Y014524D03*
X031300Y018476D03*
X031300Y019224D03*
X031300Y023176D03*
X031300Y023924D03*
D17*
X023974Y016950D03*
X023226Y016950D03*
X023226Y015950D03*
X023974Y015950D03*
X022674Y011250D03*
X021926Y011250D03*
X016274Y013850D03*
X015526Y013850D03*
X014874Y014650D03*
X014126Y014650D03*
X013874Y013750D03*
X013126Y013750D03*
X009674Y016650D03*
X008926Y016650D03*
X006574Y016750D03*
X005826Y016750D03*
X005174Y013750D03*
X004426Y013750D03*
X004426Y012650D03*
X005174Y012650D03*
X006526Y012350D03*
X007274Y012350D03*
X014726Y017050D03*
X015474Y017050D03*
X015474Y018050D03*
X014726Y018050D03*
D18*
X014500Y019650D03*
X014500Y023450D03*
D19*
X030300Y023137D03*
X030300Y023963D03*
X030300Y019263D03*
X030300Y018437D03*
X030300Y014563D03*
X030300Y013737D03*
X030300Y009763D03*
X030300Y008937D03*
X030300Y005063D03*
X030300Y004237D03*
D20*
X009171Y019072D03*
X009171Y020056D03*
X009171Y020844D03*
X009171Y021828D03*
M02*
