G75*
%MOIN*%
%OFA0B0*%
%FSLAX24Y24*%
%IPPOS*%
%LPD*%
%AMOC8*
5,1,8,0,0,1.08239X$1,22.5*
%
%ADD10C,0.0540*%
%ADD11OC8,0.0472*%
%ADD12R,0.0472X0.0472*%
%ADD13R,0.0433X0.0433*%
%ADD14OC8,0.0591*%
%ADD15C,0.0660*%
%ADD16C,0.1300*%
%ADD17OC8,0.0850*%
%ADD18C,0.1306*%
%ADD19C,0.0100*%
%ADD20C,0.0376*%
%ADD21OC8,0.0376*%
%ADD22C,0.0400*%
%ADD23C,0.0160*%
%ADD24C,0.0240*%
%ADD25C,0.0320*%
%ADD26C,0.0120*%
%ADD27C,0.0337*%
D10*
X009300Y004480D02*
X009300Y005020D01*
X010300Y005020D02*
X010300Y004480D01*
X007400Y013180D02*
X007400Y013720D01*
X006400Y013720D02*
X006400Y013180D01*
X012000Y025980D02*
X012000Y026520D01*
X013000Y026520D02*
X013000Y025980D01*
D11*
X013000Y025150D03*
X014000Y025150D03*
X015000Y025150D03*
X016000Y025150D03*
X017000Y025150D03*
X018000Y025150D03*
X019000Y025150D03*
X020000Y025150D03*
X021000Y025150D03*
X022000Y025150D03*
X023000Y025150D03*
X024000Y025150D03*
X025000Y025150D03*
X026000Y025150D03*
X027000Y025150D03*
X026000Y026150D03*
X025000Y026150D03*
X024000Y026150D03*
X018000Y026150D03*
X017000Y026150D03*
X016000Y026150D03*
X012000Y025150D03*
X016000Y005150D03*
X017000Y005150D03*
X018000Y005150D03*
X018000Y004150D03*
X017000Y004150D03*
X017000Y003150D03*
X018000Y003150D03*
X019000Y003150D03*
X020000Y003150D03*
X021000Y003150D03*
X022000Y003150D03*
X023000Y003150D03*
X024000Y003150D03*
X025000Y003150D03*
X026000Y003150D03*
X027000Y003150D03*
X027000Y004150D03*
X026000Y004150D03*
X025000Y004150D03*
X024000Y004150D03*
X023000Y004150D03*
X022000Y004150D03*
X021000Y004150D03*
X020000Y004150D03*
X019000Y004150D03*
X021000Y002150D03*
X022000Y002150D03*
X023000Y002150D03*
X024000Y005150D03*
X025000Y005150D03*
X026000Y005150D03*
X016000Y004150D03*
X016000Y003150D03*
X015000Y003150D03*
X014000Y003150D03*
X014000Y004150D03*
X015000Y004150D03*
X013000Y004150D03*
X013000Y003150D03*
X012000Y003150D03*
X012000Y004150D03*
X013000Y002150D03*
X014000Y002150D03*
X015000Y002150D03*
D12*
X012000Y002150D03*
X019000Y005150D03*
X020000Y002150D03*
X027000Y005150D03*
X027000Y026150D03*
X019000Y026150D03*
D13*
X019087Y015950D03*
X018713Y015950D03*
X018299Y015950D03*
X018299Y015547D03*
X018299Y015153D03*
X018299Y014750D03*
X018713Y014750D03*
X019087Y014750D03*
X019087Y015153D03*
X018713Y015153D03*
X018713Y015547D03*
X019087Y015547D03*
X019500Y015547D03*
X019500Y015153D03*
X019500Y014750D03*
X019500Y015950D03*
D14*
X033100Y015650D03*
X034100Y015650D03*
X034100Y016650D03*
X033100Y016650D03*
X033100Y017650D03*
X034100Y017650D03*
X034100Y018650D03*
X033100Y018650D03*
X033100Y019650D03*
X034100Y019650D03*
X034100Y020650D03*
X033100Y020650D03*
X033100Y021650D03*
X034100Y021650D03*
X034100Y022650D03*
X034100Y023650D03*
X033100Y023650D03*
X033100Y022650D03*
X033100Y014650D03*
X034100Y014650D03*
X034100Y013650D03*
X033100Y013650D03*
X033100Y012650D03*
X034100Y012650D03*
X034100Y011650D03*
X033100Y011650D03*
X033100Y010650D03*
X034100Y010650D03*
X034100Y009650D03*
X033100Y009650D03*
X033100Y008650D03*
X034100Y008650D03*
X034100Y007650D03*
X033100Y007650D03*
X033100Y006650D03*
X034100Y006650D03*
X034100Y005650D03*
X034100Y004650D03*
X033100Y004650D03*
X033100Y005650D03*
D15*
X008980Y008258D03*
X008200Y008258D03*
X008200Y009242D03*
X008980Y009242D03*
D16*
X007130Y011120D03*
X007130Y006380D03*
D17*
X026400Y017350D03*
D18*
X007400Y017863D03*
X007400Y023037D03*
D19*
X003750Y026240D02*
X003750Y002060D01*
X003779Y002131D01*
X004018Y002371D01*
X004330Y002500D01*
X004669Y002500D01*
X004981Y002371D01*
X005220Y002131D01*
X005350Y001819D01*
X005350Y001481D01*
X005220Y001169D01*
X004981Y000929D01*
X004910Y000900D01*
X035589Y000900D01*
X035518Y000929D01*
X035279Y001169D01*
X035150Y001481D01*
X035150Y001819D01*
X035279Y002131D01*
X035518Y002371D01*
X035830Y002500D01*
X036169Y002500D01*
X036481Y002371D01*
X036720Y002131D01*
X036750Y002060D01*
X036750Y026240D01*
X036720Y026169D01*
X036481Y025929D01*
X036169Y025800D01*
X035830Y025800D01*
X035518Y025929D01*
X035279Y026169D01*
X035150Y026481D01*
X035150Y026819D01*
X035279Y027131D01*
X035518Y027371D01*
X035589Y027400D01*
X004910Y027400D01*
X004981Y027371D01*
X005220Y027131D01*
X005350Y026819D01*
X005350Y026481D01*
X005220Y026169D01*
X004981Y025929D01*
X004669Y025800D01*
X004330Y025800D01*
X004018Y025929D01*
X003779Y026169D01*
X003750Y026240D01*
X003750Y026162D02*
X003786Y026162D01*
X003750Y026063D02*
X003884Y026063D01*
X003983Y025965D02*
X003750Y025965D01*
X003750Y025866D02*
X004171Y025866D01*
X004828Y025866D02*
X011625Y025866D01*
X011610Y025902D02*
X011669Y025759D01*
X011779Y025649D01*
X011922Y025590D01*
X012077Y025590D01*
X012220Y025649D01*
X012330Y025759D01*
X012390Y025902D01*
X012390Y026598D01*
X012330Y026741D01*
X012301Y026770D01*
X012698Y026770D01*
X012669Y026741D01*
X012610Y026598D01*
X012610Y025902D01*
X012669Y025759D01*
X012779Y025649D01*
X012922Y025590D01*
X013077Y025590D01*
X013220Y025649D01*
X013330Y025759D01*
X013390Y025902D01*
X013390Y026598D01*
X013330Y026741D01*
X013301Y026770D01*
X013639Y026770D01*
X013736Y026730D01*
X015967Y026730D01*
X016643Y026054D01*
X016643Y026002D01*
X016852Y025794D01*
X017147Y025794D01*
X017356Y026002D01*
X017356Y026298D01*
X017147Y026506D01*
X017096Y026506D01*
X016371Y027231D01*
X016281Y027321D01*
X016163Y027370D01*
X013736Y027370D01*
X013639Y027330D01*
X009729Y027330D01*
X009661Y027358D01*
X009538Y027358D01*
X009470Y027330D01*
X007829Y027330D01*
X007761Y027358D01*
X007638Y027358D01*
X007570Y027330D01*
X006129Y027330D01*
X006061Y027358D01*
X005938Y027358D01*
X005825Y027311D01*
X005738Y027225D01*
X005691Y027111D01*
X005691Y026989D01*
X005738Y026875D01*
X005825Y026789D01*
X005938Y026742D01*
X006061Y026742D01*
X006129Y026770D01*
X007570Y026770D01*
X007638Y026742D01*
X007761Y026742D01*
X007829Y026770D01*
X009470Y026770D01*
X009538Y026742D01*
X009661Y026742D01*
X009729Y026770D01*
X011698Y026770D01*
X011669Y026741D01*
X011610Y026598D01*
X011610Y025902D01*
X011610Y025965D02*
X005016Y025965D01*
X005115Y026063D02*
X011610Y026063D01*
X011610Y026162D02*
X005213Y026162D01*
X005258Y026260D02*
X011610Y026260D01*
X011610Y026359D02*
X005299Y026359D01*
X005340Y026457D02*
X011610Y026457D01*
X011610Y026556D02*
X005350Y026556D01*
X005350Y026654D02*
X011633Y026654D01*
X011681Y026753D02*
X009687Y026753D01*
X009512Y026753D02*
X007787Y026753D01*
X007612Y026753D02*
X006087Y026753D01*
X005912Y026753D02*
X005350Y026753D01*
X005336Y026851D02*
X005763Y026851D01*
X005708Y026950D02*
X005295Y026950D01*
X005255Y027048D02*
X005691Y027048D01*
X005706Y027147D02*
X005205Y027147D01*
X005107Y027245D02*
X005759Y027245D01*
X005903Y027344D02*
X005008Y027344D01*
X006096Y027344D02*
X007603Y027344D01*
X007796Y027344D02*
X009503Y027344D01*
X009696Y027344D02*
X013672Y027344D01*
X013681Y026753D02*
X013319Y026753D01*
X013366Y026654D02*
X016043Y026654D01*
X016141Y026556D02*
X013390Y026556D01*
X013390Y026457D02*
X015803Y026457D01*
X015852Y026506D02*
X015643Y026298D01*
X015643Y026002D01*
X015852Y025794D01*
X016147Y025794D01*
X016356Y026002D01*
X016356Y026298D01*
X016147Y026506D01*
X015852Y026506D01*
X015704Y026359D02*
X013390Y026359D01*
X013390Y026260D02*
X015643Y026260D01*
X015643Y026162D02*
X013390Y026162D01*
X013390Y026063D02*
X015643Y026063D01*
X015681Y025965D02*
X013390Y025965D01*
X013374Y025866D02*
X015780Y025866D01*
X015852Y025506D02*
X015643Y025298D01*
X015643Y025002D01*
X015852Y024794D01*
X016115Y024794D01*
X022429Y018480D01*
X029629Y018480D01*
X030529Y017580D01*
X032684Y017580D01*
X032684Y017478D01*
X032928Y017235D01*
X033272Y017235D01*
X033515Y017478D01*
X033515Y017822D01*
X033357Y017980D01*
X033529Y017980D01*
X033686Y017823D01*
X033684Y017822D01*
X033684Y017478D01*
X033928Y017235D01*
X034272Y017235D01*
X034515Y017478D01*
X034515Y017822D01*
X034272Y018065D01*
X033928Y018065D01*
X033926Y018064D01*
X033770Y018220D01*
X033670Y018320D01*
X033357Y018320D01*
X033515Y018478D01*
X033515Y018822D01*
X033357Y018980D01*
X033529Y018980D01*
X033686Y018823D01*
X033684Y018822D01*
X033684Y018478D01*
X033928Y018235D01*
X034272Y018235D01*
X034515Y018478D01*
X034515Y018822D01*
X034272Y019065D01*
X033928Y019065D01*
X033926Y019064D01*
X033770Y019220D01*
X033670Y019320D01*
X033399Y019320D01*
X033545Y019466D01*
X033545Y019602D01*
X033148Y019602D01*
X033148Y019698D01*
X033545Y019698D01*
X033545Y019834D01*
X033284Y020095D01*
X033148Y020095D01*
X033148Y019698D01*
X033051Y019698D01*
X033051Y019602D01*
X032654Y019602D01*
X032654Y019466D01*
X032800Y019320D01*
X032070Y019320D01*
X031170Y020220D01*
X031070Y020320D01*
X024070Y020320D01*
X019356Y025034D01*
X019356Y025298D01*
X019147Y025506D01*
X018852Y025506D01*
X018643Y025298D01*
X018643Y025002D01*
X018852Y024794D01*
X019115Y024794D01*
X023929Y019980D01*
X030929Y019980D01*
X031929Y018980D01*
X032842Y018980D01*
X032684Y018822D01*
X032684Y018820D01*
X031570Y018820D01*
X030670Y019720D01*
X030570Y019820D01*
X023570Y019820D01*
X018356Y025034D01*
X018356Y025298D01*
X018147Y025506D01*
X017852Y025506D01*
X017643Y025298D01*
X017643Y025002D01*
X017852Y024794D01*
X018115Y024794D01*
X023429Y019480D01*
X030429Y019480D01*
X031429Y018480D01*
X032684Y018480D01*
X032684Y018478D01*
X032842Y018320D01*
X031170Y018320D01*
X030270Y019220D01*
X030170Y019320D01*
X023070Y019320D01*
X017356Y025034D01*
X017356Y025298D01*
X017147Y025506D01*
X016852Y025506D01*
X016643Y025298D01*
X016643Y025002D01*
X016852Y024794D01*
X017115Y024794D01*
X022929Y018980D01*
X030029Y018980D01*
X031029Y017980D01*
X032842Y017980D01*
X032782Y017920D01*
X030670Y017920D01*
X029870Y018720D01*
X029770Y018820D01*
X022570Y018820D01*
X016356Y025034D01*
X016356Y025298D01*
X016147Y025506D01*
X015852Y025506D01*
X015818Y025472D02*
X015181Y025472D01*
X015147Y025506D02*
X014852Y025506D01*
X014643Y025298D01*
X014643Y025002D01*
X014852Y024794D01*
X015147Y024794D01*
X015356Y025002D01*
X015356Y025298D01*
X015147Y025506D01*
X015280Y025374D02*
X015719Y025374D01*
X015643Y025275D02*
X015356Y025275D01*
X015356Y025177D02*
X015643Y025177D01*
X015643Y025078D02*
X015356Y025078D01*
X015333Y024980D02*
X015666Y024980D01*
X015765Y024881D02*
X015234Y024881D01*
X014765Y024881D02*
X014234Y024881D01*
X014147Y024794D02*
X014356Y025002D01*
X014356Y025298D01*
X014147Y025506D01*
X013852Y025506D01*
X013643Y025298D01*
X013643Y025002D01*
X013852Y024794D01*
X014147Y024794D01*
X014333Y024980D02*
X014666Y024980D01*
X014643Y025078D02*
X014356Y025078D01*
X014356Y025177D02*
X014643Y025177D01*
X014643Y025275D02*
X014356Y025275D01*
X014280Y025374D02*
X014719Y025374D01*
X014818Y025472D02*
X014181Y025472D01*
X013818Y025472D02*
X013181Y025472D01*
X013147Y025506D02*
X013356Y025298D01*
X013356Y025002D01*
X013147Y024794D01*
X012852Y024794D01*
X012643Y025002D01*
X012643Y025298D01*
X012852Y025506D01*
X013147Y025506D01*
X013280Y025374D02*
X013719Y025374D01*
X013643Y025275D02*
X013356Y025275D01*
X013356Y025177D02*
X013643Y025177D01*
X013643Y025078D02*
X013356Y025078D01*
X013333Y024980D02*
X013666Y024980D01*
X013765Y024881D02*
X013234Y024881D01*
X012765Y024881D02*
X012234Y024881D01*
X012147Y024794D02*
X012356Y025002D01*
X012356Y025298D01*
X012147Y025506D01*
X011852Y025506D01*
X011643Y025298D01*
X011643Y025002D01*
X011852Y024794D01*
X012147Y024794D01*
X012333Y024980D02*
X012666Y024980D01*
X012643Y025078D02*
X012356Y025078D01*
X012356Y025177D02*
X012643Y025177D01*
X012643Y025275D02*
X012356Y025275D01*
X012280Y025374D02*
X012719Y025374D01*
X012818Y025472D02*
X012181Y025472D01*
X012240Y025669D02*
X012759Y025669D01*
X012665Y025768D02*
X012334Y025768D01*
X012374Y025866D02*
X012625Y025866D01*
X012610Y025965D02*
X012390Y025965D01*
X012390Y026063D02*
X012610Y026063D01*
X012610Y026162D02*
X012390Y026162D01*
X012390Y026260D02*
X012610Y026260D01*
X012610Y026359D02*
X012390Y026359D01*
X012390Y026457D02*
X012610Y026457D01*
X012610Y026556D02*
X012390Y026556D01*
X012366Y026654D02*
X012633Y026654D01*
X012681Y026753D02*
X012319Y026753D01*
X011665Y025768D02*
X003750Y025768D01*
X003750Y025669D02*
X011759Y025669D01*
X011818Y025472D02*
X003750Y025472D01*
X003750Y025374D02*
X011719Y025374D01*
X011643Y025275D02*
X003750Y025275D01*
X003750Y025177D02*
X011643Y025177D01*
X011643Y025078D02*
X003750Y025078D01*
X003750Y024980D02*
X011666Y024980D01*
X011765Y024881D02*
X003750Y024881D01*
X003750Y024783D02*
X016127Y024783D01*
X016225Y024684D02*
X003750Y024684D01*
X003750Y024586D02*
X005599Y024586D01*
X005625Y024611D02*
X005538Y024525D01*
X005491Y024411D01*
X005491Y024289D01*
X005538Y024175D01*
X005625Y024089D01*
X005658Y024075D01*
X005894Y023052D01*
X005885Y023018D01*
X005912Y022974D01*
X005923Y022924D01*
X005953Y022906D01*
X006186Y022517D01*
X006153Y022517D01*
X006186Y022516D02*
X006229Y022446D01*
X006271Y022376D01*
X006272Y022376D01*
X008594Y018602D01*
X008593Y018586D01*
X008637Y018533D01*
X008673Y018475D01*
X008688Y018471D01*
X008991Y018107D01*
X008991Y017989D01*
X009038Y017875D01*
X009125Y017789D01*
X009238Y017742D01*
X009361Y017742D01*
X009474Y017789D01*
X009561Y017875D01*
X009608Y017989D01*
X009608Y018111D01*
X009561Y018225D01*
X009474Y018311D01*
X009361Y018358D01*
X009303Y018358D01*
X008962Y018767D01*
X006570Y022654D01*
X006287Y023126D01*
X006048Y024163D01*
X006061Y024175D01*
X006108Y024289D01*
X006108Y024411D01*
X006061Y024525D01*
X005974Y024611D01*
X005861Y024658D01*
X005738Y024658D01*
X005625Y024611D01*
X005523Y024487D02*
X003750Y024487D01*
X003750Y024389D02*
X005491Y024389D01*
X005491Y024290D02*
X003750Y024290D01*
X003750Y024192D02*
X005532Y024192D01*
X005621Y024093D02*
X003750Y024093D01*
X003750Y023995D02*
X005676Y023995D01*
X005699Y023896D02*
X003750Y023896D01*
X003750Y023798D02*
X005722Y023798D01*
X005745Y023699D02*
X003750Y023699D01*
X003750Y023601D02*
X005767Y023601D01*
X005790Y023502D02*
X003750Y023502D01*
X003750Y023404D02*
X005813Y023404D01*
X005835Y023305D02*
X003750Y023305D01*
X003750Y023207D02*
X005858Y023207D01*
X005881Y023108D02*
X005777Y023108D01*
X005774Y023111D02*
X005661Y023158D01*
X005538Y023158D01*
X005425Y023111D01*
X005338Y023025D01*
X005291Y022911D01*
X003750Y022911D01*
X003750Y022813D02*
X005291Y022813D01*
X005291Y022789D02*
X005338Y022675D01*
X005425Y022589D01*
X005538Y022542D01*
X005625Y022542D01*
X005741Y022426D01*
X008307Y018149D01*
X008291Y018111D01*
X008291Y017989D01*
X008338Y017875D01*
X008425Y017789D01*
X008538Y017742D01*
X008661Y017742D01*
X008774Y017789D01*
X008861Y017875D01*
X008908Y017989D01*
X008908Y018111D01*
X008861Y018225D01*
X008774Y018311D01*
X008661Y018358D01*
X008648Y018358D01*
X006100Y022605D01*
X006100Y022633D01*
X006058Y022674D01*
X006028Y022724D01*
X006002Y022731D01*
X005908Y022825D01*
X005908Y022911D01*
X005944Y022911D01*
X005908Y022911D02*
X005861Y023025D01*
X005774Y023111D01*
X005867Y023010D02*
X005891Y023010D01*
X005920Y022813D02*
X006009Y022813D01*
X006034Y022714D02*
X006068Y022714D01*
X006100Y022616D02*
X006127Y022616D01*
X006186Y022517D02*
X006186Y022516D01*
X006212Y022419D02*
X006245Y022419D01*
X006271Y022320D02*
X006306Y022320D01*
X006330Y022222D02*
X006367Y022222D01*
X006389Y022123D02*
X006427Y022123D01*
X006448Y022025D02*
X006488Y022025D01*
X006507Y021926D02*
X006549Y021926D01*
X006566Y021828D02*
X006609Y021828D01*
X006625Y021729D02*
X006670Y021729D01*
X006684Y021631D02*
X006731Y021631D01*
X006744Y021532D02*
X006791Y021532D01*
X006803Y021434D02*
X006852Y021434D01*
X006862Y021335D02*
X006912Y021335D01*
X006921Y021237D02*
X006973Y021237D01*
X006980Y021138D02*
X007034Y021138D01*
X007039Y021040D02*
X007094Y021040D01*
X007098Y020941D02*
X007155Y020941D01*
X007157Y020843D02*
X007215Y020843D01*
X007216Y020744D02*
X007276Y020744D01*
X007275Y020646D02*
X007337Y020646D01*
X007335Y020547D02*
X007397Y020547D01*
X007394Y020449D02*
X007458Y020449D01*
X007453Y020350D02*
X007519Y020350D01*
X007512Y020252D02*
X007579Y020252D01*
X007571Y020153D02*
X007640Y020153D01*
X007630Y020055D02*
X007700Y020055D01*
X007689Y019956D02*
X007761Y019956D01*
X007748Y019858D02*
X007822Y019858D01*
X007807Y019759D02*
X007882Y019759D01*
X007866Y019661D02*
X007943Y019661D01*
X007926Y019562D02*
X008003Y019562D01*
X007985Y019464D02*
X008064Y019464D01*
X008044Y019365D02*
X008125Y019365D01*
X008103Y019267D02*
X008185Y019267D01*
X008162Y019168D02*
X008246Y019168D01*
X008221Y019070D02*
X008307Y019070D01*
X008280Y018971D02*
X008367Y018971D01*
X008339Y018873D02*
X008428Y018873D01*
X008398Y018774D02*
X008488Y018774D01*
X008457Y018676D02*
X008549Y018676D01*
X008517Y018577D02*
X008600Y018577D01*
X008576Y018479D02*
X008670Y018479D01*
X008635Y018380D02*
X008764Y018380D01*
X008804Y018282D02*
X008846Y018282D01*
X008878Y018183D02*
X008928Y018183D01*
X008908Y018085D02*
X008991Y018085D01*
X008993Y017986D02*
X008907Y017986D01*
X008866Y017888D02*
X009033Y017888D01*
X009125Y017789D02*
X008774Y017789D01*
X008425Y017789D02*
X008172Y017789D01*
X008172Y017710D02*
X008055Y017426D01*
X007837Y017208D01*
X007553Y017091D01*
X007246Y017091D01*
X006962Y017208D01*
X006744Y017426D01*
X006627Y017710D01*
X006627Y018017D01*
X006744Y018301D01*
X006962Y018518D01*
X007246Y018636D01*
X007553Y018636D01*
X007837Y018518D01*
X008055Y018301D01*
X008172Y018017D01*
X008172Y017710D01*
X008164Y017691D02*
X010830Y017691D01*
X010830Y017789D02*
X009474Y017789D01*
X009566Y017888D02*
X010830Y017888D01*
X010830Y017986D02*
X009607Y017986D01*
X009608Y018085D02*
X010830Y018085D01*
X010830Y018183D02*
X009578Y018183D01*
X009504Y018282D02*
X010830Y018282D01*
X010830Y018380D02*
X009285Y018380D01*
X009203Y018479D02*
X010830Y018479D01*
X010830Y018577D02*
X009121Y018577D01*
X009039Y018676D02*
X010830Y018676D01*
X010830Y018774D02*
X008958Y018774D01*
X008897Y018873D02*
X010830Y018873D01*
X010830Y018971D02*
X008837Y018971D01*
X008776Y019070D02*
X010830Y019070D01*
X010830Y019168D02*
X008716Y019168D01*
X008655Y019267D02*
X010830Y019267D01*
X010830Y019365D02*
X008594Y019365D01*
X008534Y019464D02*
X010830Y019464D01*
X010830Y019562D02*
X008473Y019562D01*
X008412Y019661D02*
X010749Y019661D01*
X010830Y019580D02*
X010830Y012680D01*
X011643Y011866D01*
X011730Y011433D01*
X011730Y011380D01*
X011743Y011366D01*
X011747Y011348D01*
X011791Y011318D01*
X011811Y011298D01*
X011811Y011193D01*
X011855Y011087D01*
X011936Y011005D01*
X012042Y010962D01*
X012157Y010962D01*
X012263Y011005D01*
X012344Y011087D01*
X012388Y011193D01*
X012388Y011307D01*
X012344Y011413D01*
X012263Y011495D01*
X012157Y011538D01*
X012055Y011538D01*
X012001Y011808D01*
X012811Y010998D01*
X012811Y010893D01*
X012855Y010787D01*
X012936Y010705D01*
X013042Y010662D01*
X013157Y010662D01*
X013263Y010705D01*
X013344Y010787D01*
X013388Y010893D01*
X013388Y011007D01*
X013344Y011113D01*
X013263Y011195D01*
X013157Y011238D01*
X013052Y011238D01*
X011370Y012920D01*
X011370Y020187D01*
X011374Y020193D01*
X011370Y020257D01*
X011370Y020320D01*
X011364Y020326D01*
X011364Y020333D01*
X011315Y020375D01*
X011270Y020420D01*
X011262Y020420D01*
X010808Y020810D01*
X010808Y020911D01*
X010761Y021025D01*
X010674Y021111D01*
X010561Y021158D01*
X010438Y021158D01*
X010325Y021111D01*
X010238Y021025D01*
X010191Y020911D01*
X010191Y020789D01*
X010238Y020675D01*
X010325Y020589D01*
X010438Y020542D01*
X010561Y020542D01*
X010586Y020552D01*
X011030Y020172D01*
X011030Y019860D01*
X010808Y020082D01*
X010808Y020111D01*
X010761Y020225D01*
X010674Y020311D01*
X010561Y020358D01*
X010438Y020358D01*
X010325Y020311D01*
X010238Y020225D01*
X010191Y020111D01*
X010191Y019989D01*
X010238Y019875D01*
X010325Y019789D01*
X010438Y019742D01*
X010561Y019742D01*
X010636Y019773D01*
X010830Y019580D01*
X011000Y019650D02*
X010600Y020050D01*
X010500Y020050D01*
X010790Y020153D02*
X011030Y020153D01*
X011030Y020055D02*
X010835Y020055D01*
X010934Y019956D02*
X011030Y019956D01*
X011000Y019650D02*
X011000Y012750D01*
X011800Y011950D01*
X011900Y011450D01*
X012100Y011250D01*
X012232Y010993D02*
X012811Y010993D01*
X012811Y010894D02*
X009968Y010894D01*
X010017Y010796D02*
X012851Y010796D01*
X012957Y010697D02*
X010066Y010697D01*
X010115Y010599D02*
X013849Y010599D01*
X013855Y010613D02*
X013811Y010507D01*
X013811Y010393D01*
X013855Y010287D01*
X013936Y010205D01*
X014042Y010162D01*
X014157Y010162D01*
X014263Y010205D01*
X014344Y010287D01*
X014388Y010393D01*
X014388Y010507D01*
X014360Y010575D01*
X014827Y011442D01*
X014861Y011442D01*
X014974Y011489D01*
X015061Y011575D01*
X015100Y011669D01*
X015127Y011603D01*
X014662Y010738D01*
X014642Y010738D01*
X014536Y010695D01*
X014455Y010613D01*
X014411Y010507D01*
X014411Y010393D01*
X014455Y010287D01*
X014536Y010205D01*
X014642Y010162D01*
X014757Y010162D01*
X014863Y010205D01*
X014944Y010287D01*
X014988Y010393D01*
X014988Y010507D01*
X014960Y010575D01*
X015427Y011442D01*
X015461Y011442D01*
X015574Y011489D01*
X015661Y011575D01*
X015700Y011669D01*
X015727Y011603D01*
X015262Y010738D01*
X015242Y010738D01*
X015136Y010695D01*
X015055Y010613D01*
X015011Y010507D01*
X015011Y010393D01*
X015055Y010287D01*
X015136Y010205D01*
X015242Y010162D01*
X015357Y010162D01*
X015463Y010205D01*
X015544Y010287D01*
X015588Y010393D01*
X015588Y010507D01*
X015560Y010575D01*
X016027Y011442D01*
X016061Y011442D01*
X016174Y011489D01*
X016261Y011575D01*
X016300Y011669D01*
X016327Y011603D01*
X015862Y010738D01*
X015842Y010738D01*
X015736Y010695D01*
X015655Y010613D01*
X015611Y010507D01*
X015611Y010393D01*
X015655Y010287D01*
X015736Y010205D01*
X015842Y010162D01*
X015957Y010162D01*
X016063Y010205D01*
X016144Y010287D01*
X016188Y010393D01*
X016188Y010507D01*
X016160Y010575D01*
X016627Y011442D01*
X016661Y011442D01*
X016774Y011489D01*
X016861Y011575D01*
X016900Y011669D01*
X016927Y011603D01*
X016462Y010738D01*
X016442Y010738D01*
X016336Y010695D01*
X016255Y010613D01*
X016211Y010507D01*
X016211Y010393D01*
X016255Y010287D01*
X016336Y010205D01*
X016442Y010162D01*
X016557Y010162D01*
X016663Y010205D01*
X016744Y010287D01*
X016788Y010393D01*
X016788Y010507D01*
X016760Y010575D01*
X017227Y011442D01*
X017261Y011442D01*
X017374Y011489D01*
X017461Y011575D01*
X017500Y011669D01*
X017538Y011577D01*
X016589Y009420D01*
X013153Y009420D01*
X013140Y009429D01*
X013085Y009420D01*
X013029Y009420D01*
X013017Y009408D01*
X013001Y009406D01*
X012969Y009360D01*
X012930Y009320D01*
X012930Y009304D01*
X011909Y007858D01*
X011838Y007858D01*
X011725Y007811D01*
X011638Y007725D01*
X011591Y007611D01*
X011591Y007489D01*
X011638Y007375D01*
X011725Y007289D01*
X011838Y007242D01*
X011924Y007242D01*
X013130Y005692D01*
X013130Y005680D01*
X013172Y005637D01*
X013209Y005590D01*
X013221Y005589D01*
X013229Y005580D01*
X013289Y005580D01*
X013348Y005573D01*
X013358Y005580D01*
X032684Y005580D01*
X032684Y005478D01*
X032928Y005235D01*
X033272Y005235D01*
X033515Y005478D01*
X033515Y005822D01*
X033272Y006065D01*
X032928Y006065D01*
X032782Y005920D01*
X013383Y005920D01*
X012192Y007451D01*
X012208Y007489D01*
X012208Y007611D01*
X012187Y007662D01*
X013188Y009080D01*
X016664Y009080D01*
X016696Y009066D01*
X016731Y009080D01*
X016770Y009080D01*
X016794Y009105D01*
X016827Y009117D01*
X016842Y009152D01*
X016870Y009180D01*
X016870Y009214D01*
X017850Y011442D01*
X017861Y011442D01*
X017974Y011489D01*
X018061Y011575D01*
X018108Y011689D01*
X018108Y011811D01*
X018061Y011925D01*
X017974Y012011D01*
X017861Y012058D01*
X017738Y012058D01*
X017625Y012011D01*
X017538Y011925D01*
X017500Y011831D01*
X017461Y011925D01*
X017374Y012011D01*
X017261Y012058D01*
X017138Y012058D01*
X017025Y012011D01*
X016938Y011925D01*
X016900Y011831D01*
X016861Y011925D01*
X016774Y012011D01*
X016661Y012058D01*
X016538Y012058D01*
X016425Y012011D01*
X016338Y011925D01*
X016300Y011831D01*
X016261Y011925D01*
X016174Y012011D01*
X016061Y012058D01*
X015938Y012058D01*
X015825Y012011D01*
X015738Y011925D01*
X015700Y011831D01*
X015661Y011925D01*
X015574Y012011D01*
X015461Y012058D01*
X015338Y012058D01*
X015225Y012011D01*
X015138Y011925D01*
X015100Y011831D01*
X015061Y011925D01*
X014974Y012011D01*
X014861Y012058D01*
X014738Y012058D01*
X014625Y012011D01*
X014538Y011925D01*
X014491Y011811D01*
X014491Y011689D01*
X014527Y011603D01*
X014062Y010738D01*
X014042Y010738D01*
X013936Y010695D01*
X013855Y010613D01*
X013942Y010697D02*
X013242Y010697D01*
X013348Y010796D02*
X014093Y010796D01*
X014146Y010894D02*
X013388Y010894D01*
X013388Y010993D02*
X014199Y010993D01*
X014252Y011091D02*
X013353Y011091D01*
X013268Y011190D02*
X014305Y011190D01*
X014358Y011288D02*
X013002Y011288D01*
X012903Y011387D02*
X014411Y011387D01*
X014464Y011485D02*
X012805Y011485D01*
X012706Y011584D02*
X014517Y011584D01*
X014494Y011682D02*
X012608Y011682D01*
X012509Y011781D02*
X014491Y011781D01*
X014519Y011879D02*
X012411Y011879D01*
X012312Y011978D02*
X014591Y011978D01*
X014800Y011750D02*
X014100Y010450D01*
X014351Y010303D02*
X014448Y010303D01*
X014411Y010402D02*
X014388Y010402D01*
X014388Y010500D02*
X014411Y010500D01*
X014373Y010599D02*
X014449Y010599D01*
X014426Y010697D02*
X014542Y010697D01*
X014479Y010796D02*
X014693Y010796D01*
X014746Y010894D02*
X014532Y010894D01*
X014585Y010993D02*
X014799Y010993D01*
X014852Y011091D02*
X014638Y011091D01*
X014691Y011190D02*
X014905Y011190D01*
X014958Y011288D02*
X014744Y011288D01*
X014797Y011387D02*
X015011Y011387D01*
X014965Y011485D02*
X015064Y011485D01*
X015064Y011584D02*
X015117Y011584D01*
X015119Y011879D02*
X015080Y011879D01*
X015008Y011978D02*
X015191Y011978D01*
X015400Y011750D02*
X014700Y010450D01*
X014951Y010303D02*
X015048Y010303D01*
X015011Y010402D02*
X014988Y010402D01*
X014988Y010500D02*
X015011Y010500D01*
X014973Y010599D02*
X015049Y010599D01*
X015026Y010697D02*
X015142Y010697D01*
X015079Y010796D02*
X015293Y010796D01*
X015346Y010894D02*
X015132Y010894D01*
X015185Y010993D02*
X015399Y010993D01*
X015452Y011091D02*
X015238Y011091D01*
X015291Y011190D02*
X015505Y011190D01*
X015558Y011288D02*
X015344Y011288D01*
X015397Y011387D02*
X015611Y011387D01*
X015565Y011485D02*
X015664Y011485D01*
X015664Y011584D02*
X015717Y011584D01*
X015719Y011879D02*
X015680Y011879D01*
X015608Y011978D02*
X015791Y011978D01*
X015935Y012175D02*
X012115Y012175D01*
X012017Y012273D02*
X015930Y012273D01*
X015930Y012180D02*
X016029Y012080D01*
X018380Y012080D01*
X018380Y010983D01*
X018028Y010631D01*
X017980Y010514D01*
X017980Y010386D01*
X018028Y010269D01*
X018118Y010179D01*
X018236Y010130D01*
X018363Y010130D01*
X018481Y010179D01*
X018971Y010669D01*
X019020Y010786D01*
X019020Y012080D01*
X022170Y012080D01*
X022270Y012180D01*
X022270Y017120D01*
X022170Y017220D01*
X021482Y017220D01*
X021481Y017221D01*
X021363Y017270D01*
X017553Y017270D01*
X022106Y017270D01*
X022320Y017110D01*
X022320Y016379D01*
X022291Y016311D01*
X022291Y016189D01*
X022338Y016075D01*
X022425Y015989D01*
X022538Y015942D01*
X022661Y015942D01*
X022774Y015989D01*
X022861Y016075D01*
X022908Y016189D01*
X022908Y016311D01*
X022880Y016379D01*
X022880Y017215D01*
X022885Y017234D01*
X022880Y017270D01*
X022880Y017306D01*
X022872Y017325D01*
X022869Y017345D01*
X022851Y017376D01*
X022837Y017409D01*
X022822Y017423D01*
X022812Y017441D01*
X022783Y017462D01*
X022758Y017487D01*
X022739Y017495D01*
X022383Y017762D01*
X022358Y017787D01*
X022339Y017795D01*
X022323Y017807D01*
X022288Y017816D01*
X022255Y017830D01*
X022235Y017830D01*
X022215Y017835D01*
X022180Y017830D01*
X017148Y017830D01*
X017142Y017832D01*
X017093Y017830D01*
X017044Y017830D01*
X017037Y017827D01*
X017031Y017827D01*
X016986Y017806D01*
X016941Y017787D01*
X016936Y017782D01*
X016930Y017780D01*
X016897Y017743D01*
X016862Y017709D01*
X016860Y017702D01*
X015979Y016734D01*
X015925Y016711D01*
X015838Y016625D01*
X015791Y016511D01*
X015791Y016389D01*
X015838Y016275D01*
X015925Y016189D01*
X016038Y016142D01*
X016161Y016142D01*
X016274Y016189D01*
X016361Y016275D01*
X016395Y016359D01*
X017223Y017270D01*
X017490Y017270D01*
X017436Y017270D01*
X017427Y017266D01*
X017417Y017266D01*
X017368Y017242D01*
X017318Y017221D01*
X017311Y017214D01*
X017303Y017210D01*
X017267Y017170D01*
X017228Y017131D01*
X017225Y017122D01*
X016418Y016215D01*
X016376Y016095D01*
X016384Y015968D01*
X016439Y015853D01*
X016535Y015769D01*
X016655Y015727D01*
X016782Y015734D01*
X016896Y015790D01*
X017643Y016630D01*
X020930Y016630D01*
X020930Y016456D01*
X020874Y016511D01*
X020761Y016558D01*
X020638Y016558D01*
X020525Y016511D01*
X020438Y016425D01*
X020391Y016311D01*
X020391Y016189D01*
X020438Y016075D01*
X020525Y015989D01*
X020638Y015942D01*
X020761Y015942D01*
X020874Y015989D01*
X020930Y016044D01*
X020930Y014220D01*
X017270Y014220D01*
X017270Y015120D01*
X017170Y015220D01*
X016029Y015220D01*
X015930Y015120D01*
X015930Y012180D01*
X016100Y012250D02*
X016100Y015050D01*
X017100Y015050D01*
X017100Y014050D01*
X021100Y014050D01*
X021100Y017050D01*
X022100Y017050D01*
X022100Y012250D01*
X016100Y012250D01*
X016100Y012273D02*
X022100Y012273D01*
X022100Y012372D02*
X016100Y012372D01*
X016100Y012470D02*
X022100Y012470D01*
X022100Y012569D02*
X016100Y012569D01*
X016100Y012667D02*
X022100Y012667D01*
X022100Y012766D02*
X016100Y012766D01*
X016100Y012864D02*
X022100Y012864D01*
X022100Y012963D02*
X016100Y012963D01*
X016100Y013061D02*
X022100Y013061D01*
X022100Y013160D02*
X016100Y013160D01*
X016100Y013258D02*
X022100Y013258D01*
X022100Y013357D02*
X016100Y013357D01*
X016100Y013455D02*
X022100Y013455D01*
X022100Y013554D02*
X016100Y013554D01*
X016100Y013652D02*
X022100Y013652D01*
X022100Y013751D02*
X016100Y013751D01*
X016100Y013849D02*
X022100Y013849D01*
X022100Y013948D02*
X016100Y013948D01*
X016100Y014046D02*
X022100Y014046D01*
X022100Y014145D02*
X021100Y014145D01*
X021100Y014243D02*
X022100Y014243D01*
X022100Y014342D02*
X021100Y014342D01*
X021100Y014440D02*
X022100Y014440D01*
X022100Y014539D02*
X021100Y014539D01*
X021100Y014637D02*
X022100Y014637D01*
X022100Y014736D02*
X021100Y014736D01*
X021100Y014834D02*
X022100Y014834D01*
X022100Y014933D02*
X021100Y014933D01*
X021100Y015031D02*
X022100Y015031D01*
X022100Y015130D02*
X021100Y015130D01*
X021100Y015228D02*
X022100Y015228D01*
X022100Y015327D02*
X021100Y015327D01*
X021100Y015425D02*
X022100Y015425D01*
X022100Y015524D02*
X021100Y015524D01*
X021100Y015622D02*
X022100Y015622D01*
X022100Y015721D02*
X021100Y015721D01*
X021100Y015819D02*
X022100Y015819D01*
X022100Y015918D02*
X021100Y015918D01*
X021100Y016016D02*
X022100Y016016D01*
X022100Y016115D02*
X021100Y016115D01*
X021100Y016213D02*
X022100Y016213D01*
X022100Y016312D02*
X021100Y016312D01*
X021100Y016410D02*
X022100Y016410D01*
X022100Y016509D02*
X021100Y016509D01*
X021100Y016607D02*
X022100Y016607D01*
X022100Y016706D02*
X021100Y016706D01*
X021100Y016804D02*
X022100Y016804D01*
X022100Y016903D02*
X021100Y016903D01*
X021100Y017001D02*
X022100Y017001D01*
X022270Y017001D02*
X022320Y017001D01*
X022320Y016903D02*
X022270Y016903D01*
X022270Y016804D02*
X022320Y016804D01*
X022320Y016706D02*
X022270Y016706D01*
X022270Y016607D02*
X022320Y016607D01*
X022320Y016509D02*
X022270Y016509D01*
X022270Y016410D02*
X022320Y016410D01*
X022292Y016312D02*
X022270Y016312D01*
X022270Y016213D02*
X022291Y016213D01*
X022270Y016115D02*
X022322Y016115D01*
X022270Y016016D02*
X022398Y016016D01*
X022270Y015918D02*
X025327Y015918D01*
X025425Y016016D02*
X022801Y016016D01*
X022877Y016115D02*
X025524Y016115D01*
X025622Y016213D02*
X022908Y016213D01*
X022908Y016312D02*
X025721Y016312D01*
X025729Y016320D02*
X023565Y014156D01*
X023561Y014158D01*
X023438Y014158D01*
X023325Y014111D01*
X023238Y014025D01*
X023191Y013911D01*
X023191Y013789D01*
X023238Y013675D01*
X023325Y013589D01*
X023438Y013542D01*
X023561Y013542D01*
X023674Y013589D01*
X023761Y013675D01*
X023808Y013789D01*
X023808Y013911D01*
X023806Y013916D01*
X025870Y015980D01*
X032842Y015980D01*
X032684Y015822D01*
X032684Y015820D01*
X026229Y015820D01*
X024565Y014156D01*
X024561Y014158D01*
X024438Y014158D01*
X024325Y014111D01*
X024238Y014025D01*
X024191Y013911D01*
X024191Y013789D01*
X024238Y013675D01*
X024325Y013589D01*
X024438Y013542D01*
X024561Y013542D01*
X024674Y013589D01*
X024761Y013675D01*
X024808Y013789D01*
X024808Y013911D01*
X024806Y013916D01*
X026370Y015480D01*
X032684Y015480D01*
X032684Y015478D01*
X032928Y015235D01*
X033272Y015235D01*
X033515Y015478D01*
X033515Y015822D01*
X033357Y015980D01*
X033529Y015980D01*
X033686Y015823D01*
X033684Y015822D01*
X033684Y015478D01*
X033928Y015235D01*
X034272Y015235D01*
X034515Y015478D01*
X034515Y015822D01*
X034272Y016065D01*
X033928Y016065D01*
X033926Y016064D01*
X033770Y016220D01*
X033670Y016320D01*
X033357Y016320D01*
X033515Y016478D01*
X033515Y016822D01*
X033272Y017065D01*
X032928Y017065D01*
X032684Y016822D01*
X032684Y016478D01*
X032842Y016320D01*
X025729Y016320D01*
X025800Y016150D02*
X023500Y013850D01*
X023808Y013849D02*
X024191Y013849D01*
X024206Y013948D02*
X023837Y013948D01*
X023936Y014046D02*
X024260Y014046D01*
X024405Y014145D02*
X024034Y014145D01*
X024133Y014243D02*
X024652Y014243D01*
X024751Y014342D02*
X024231Y014342D01*
X024330Y014440D02*
X024849Y014440D01*
X024948Y014539D02*
X024428Y014539D01*
X024527Y014637D02*
X025046Y014637D01*
X025145Y014736D02*
X024625Y014736D01*
X024724Y014834D02*
X025243Y014834D01*
X025342Y014933D02*
X024822Y014933D01*
X024921Y015031D02*
X025440Y015031D01*
X025539Y015130D02*
X025019Y015130D01*
X025118Y015228D02*
X025637Y015228D01*
X025736Y015327D02*
X025216Y015327D01*
X025315Y015425D02*
X025834Y015425D01*
X025933Y015524D02*
X025413Y015524D01*
X025512Y015622D02*
X026031Y015622D01*
X026130Y015721D02*
X025610Y015721D01*
X025709Y015819D02*
X026228Y015819D01*
X026300Y015650D02*
X024500Y013850D01*
X024808Y013849D02*
X032711Y013849D01*
X032684Y013822D02*
X032684Y013820D01*
X027909Y013820D01*
X027848Y013827D01*
X027840Y013820D01*
X027829Y013820D01*
X027786Y013777D01*
X025840Y012220D01*
X022963Y012220D01*
X022961Y012225D01*
X022874Y012311D01*
X022761Y012358D01*
X022638Y012358D01*
X022525Y012311D01*
X022438Y012225D01*
X022391Y012111D01*
X022391Y011989D01*
X022438Y011875D01*
X022525Y011789D01*
X022638Y011742D01*
X022761Y011742D01*
X022874Y011789D01*
X022961Y011875D01*
X022963Y011880D01*
X025890Y011880D01*
X025951Y011873D01*
X025959Y011880D01*
X025970Y011880D01*
X026013Y011923D01*
X027959Y013480D01*
X032684Y013480D01*
X032684Y013478D01*
X032928Y013235D01*
X033272Y013235D01*
X033515Y013478D01*
X033515Y013822D01*
X033272Y014065D01*
X032928Y014065D01*
X032684Y013822D01*
X032810Y013948D02*
X024837Y013948D01*
X024936Y014046D02*
X032908Y014046D01*
X032915Y014205D02*
X032654Y014466D01*
X032654Y014602D01*
X033051Y014602D01*
X033051Y014698D01*
X032654Y014698D01*
X032654Y014834D01*
X025724Y014834D01*
X025625Y014736D02*
X032654Y014736D01*
X032654Y014834D02*
X032915Y015095D01*
X033051Y015095D01*
X033051Y014698D01*
X033148Y014698D01*
X033545Y014698D01*
X033545Y014834D01*
X033654Y014834D01*
X033654Y014698D01*
X034051Y014698D01*
X034051Y014602D01*
X033654Y014602D01*
X033654Y014466D01*
X033915Y014205D01*
X034051Y014205D01*
X034051Y014602D01*
X034148Y014602D01*
X034148Y014698D01*
X034545Y014698D01*
X034545Y014834D01*
X036750Y014834D01*
X036750Y014736D02*
X034545Y014736D01*
X034545Y014834D02*
X034284Y015095D01*
X034148Y015095D01*
X034148Y014698D01*
X034051Y014698D01*
X034051Y015095D01*
X033915Y015095D01*
X033654Y014834D01*
X033654Y014736D02*
X033545Y014736D01*
X033545Y014834D02*
X033284Y015095D01*
X033148Y015095D01*
X033148Y014698D01*
X033148Y014602D01*
X033545Y014602D01*
X033545Y014466D01*
X033284Y014205D01*
X033148Y014205D01*
X033148Y014602D01*
X033051Y014602D01*
X033051Y014205D01*
X032915Y014205D01*
X032877Y014243D02*
X025133Y014243D01*
X025034Y014145D02*
X036750Y014145D01*
X036750Y014243D02*
X034322Y014243D01*
X034284Y014205D02*
X034545Y014466D01*
X034545Y014602D01*
X034148Y014602D01*
X034148Y014205D01*
X034284Y014205D01*
X034284Y014095D02*
X034148Y014095D01*
X034148Y013698D01*
X034545Y013698D01*
X034545Y013834D01*
X034284Y014095D01*
X034333Y014046D02*
X036750Y014046D01*
X036750Y013948D02*
X034432Y013948D01*
X034530Y013849D02*
X036750Y013849D01*
X036750Y013751D02*
X034545Y013751D01*
X034545Y013602D02*
X034148Y013602D01*
X034148Y013698D01*
X034051Y013698D01*
X034051Y013602D01*
X033654Y013602D01*
X033654Y013466D01*
X033915Y013205D01*
X034051Y013205D01*
X034051Y013602D01*
X034148Y013602D01*
X034148Y013205D01*
X034284Y013205D01*
X034545Y013466D01*
X034545Y013602D01*
X034545Y013554D02*
X036750Y013554D01*
X036750Y013652D02*
X034148Y013652D01*
X034051Y013652D02*
X033515Y013652D01*
X033515Y013554D02*
X033654Y013554D01*
X033665Y013455D02*
X033492Y013455D01*
X033393Y013357D02*
X033763Y013357D01*
X033862Y013258D02*
X033295Y013258D01*
X033284Y013095D02*
X033148Y013095D01*
X033148Y012698D01*
X033545Y012698D01*
X033545Y012834D01*
X033284Y013095D01*
X033318Y013061D02*
X033923Y013061D01*
X033928Y013065D02*
X033684Y012822D01*
X033684Y012478D01*
X033686Y012477D01*
X033529Y012320D01*
X033399Y012320D01*
X033545Y012466D01*
X033545Y012602D01*
X033148Y012602D01*
X033148Y012698D01*
X033051Y012698D01*
X033051Y012602D01*
X032654Y012602D01*
X032654Y012466D01*
X032800Y012320D01*
X032629Y012320D01*
X029529Y009220D01*
X021140Y009220D01*
X020608Y009486D01*
X020608Y009511D01*
X020561Y009625D01*
X020474Y009711D01*
X020361Y009758D01*
X020238Y009758D01*
X020125Y009711D01*
X020038Y009625D01*
X019991Y009511D01*
X019991Y009389D01*
X020038Y009275D01*
X020125Y009189D01*
X020238Y009142D01*
X020361Y009142D01*
X020456Y009181D01*
X020999Y008910D01*
X021029Y008880D01*
X021059Y008880D01*
X021086Y008866D01*
X021127Y008880D01*
X029670Y008880D01*
X029770Y008980D01*
X032770Y011980D01*
X032842Y011980D01*
X032684Y011822D01*
X032684Y011667D01*
X032567Y011620D01*
X032529Y011620D01*
X032504Y011595D01*
X032471Y011582D01*
X032456Y011547D01*
X029729Y008820D01*
X020623Y008820D01*
X020195Y008942D01*
X020161Y009025D01*
X020074Y009111D01*
X019961Y009158D01*
X019838Y009158D01*
X019725Y009111D01*
X019638Y009025D01*
X019591Y008911D01*
X019591Y008789D01*
X019638Y008675D01*
X019725Y008589D01*
X019838Y008542D01*
X019961Y008542D01*
X020074Y008589D01*
X020101Y008616D01*
X020510Y008499D01*
X020529Y008480D01*
X020576Y008480D01*
X020621Y008467D01*
X020644Y008480D01*
X029870Y008480D01*
X029970Y008580D01*
X032695Y011305D01*
X032811Y011351D01*
X032928Y011235D01*
X033272Y011235D01*
X033515Y011478D01*
X033515Y011822D01*
X033357Y011980D01*
X033670Y011980D01*
X033770Y012080D01*
X033926Y012236D01*
X033928Y012235D01*
X034272Y012235D01*
X034515Y012478D01*
X034515Y012822D01*
X034272Y013065D01*
X033928Y013065D01*
X033825Y012963D02*
X033417Y012963D01*
X033515Y012864D02*
X033726Y012864D01*
X033684Y012766D02*
X033545Y012766D01*
X033684Y012667D02*
X033148Y012667D01*
X033051Y012667D02*
X026943Y012667D01*
X027066Y012766D02*
X032654Y012766D01*
X032654Y012834D02*
X032654Y012698D01*
X033051Y012698D01*
X033051Y013095D01*
X032915Y013095D01*
X032654Y012834D01*
X032684Y012864D02*
X027189Y012864D01*
X027312Y012963D02*
X032782Y012963D01*
X032881Y013061D02*
X027435Y013061D01*
X027559Y013160D02*
X036750Y013160D01*
X036750Y013258D02*
X034337Y013258D01*
X034436Y013357D02*
X036750Y013357D01*
X036750Y013455D02*
X034534Y013455D01*
X034148Y013455D02*
X034051Y013455D01*
X034051Y013357D02*
X034148Y013357D01*
X034148Y013258D02*
X034051Y013258D01*
X034051Y013554D02*
X034148Y013554D01*
X034051Y013698D02*
X033654Y013698D01*
X033654Y013834D01*
X033915Y014095D01*
X034051Y014095D01*
X034051Y013698D01*
X034051Y013751D02*
X034148Y013751D01*
X034148Y013849D02*
X034051Y013849D01*
X034051Y013948D02*
X034148Y013948D01*
X034148Y014046D02*
X034051Y014046D01*
X033866Y014046D02*
X033291Y014046D01*
X033389Y013948D02*
X033767Y013948D01*
X033669Y013849D02*
X033488Y013849D01*
X033515Y013751D02*
X033654Y013751D01*
X033877Y014243D02*
X033322Y014243D01*
X033421Y014342D02*
X033778Y014342D01*
X033680Y014440D02*
X033519Y014440D01*
X033545Y014539D02*
X033654Y014539D01*
X034051Y014539D02*
X034148Y014539D01*
X034148Y014637D02*
X036750Y014637D01*
X036750Y014539D02*
X034545Y014539D01*
X034519Y014440D02*
X036750Y014440D01*
X036750Y014342D02*
X034421Y014342D01*
X034148Y014342D02*
X034051Y014342D01*
X034051Y014440D02*
X034148Y014440D01*
X034148Y014243D02*
X034051Y014243D01*
X034051Y014637D02*
X033148Y014637D01*
X033051Y014637D02*
X025527Y014637D01*
X025428Y014539D02*
X032654Y014539D01*
X032680Y014440D02*
X025330Y014440D01*
X025231Y014342D02*
X032778Y014342D01*
X033051Y014342D02*
X033148Y014342D01*
X033148Y014440D02*
X033051Y014440D01*
X033051Y014539D02*
X033148Y014539D01*
X033148Y014736D02*
X033051Y014736D01*
X033051Y014834D02*
X033148Y014834D01*
X033148Y014933D02*
X033051Y014933D01*
X033051Y015031D02*
X033148Y015031D01*
X033348Y015031D02*
X033851Y015031D01*
X033752Y014933D02*
X033447Y014933D01*
X032851Y015031D02*
X025921Y015031D01*
X025822Y014933D02*
X032752Y014933D01*
X032836Y015327D02*
X026216Y015327D01*
X026118Y015228D02*
X036750Y015228D01*
X036750Y015130D02*
X026019Y015130D01*
X026315Y015425D02*
X032737Y015425D01*
X033100Y015650D02*
X026300Y015650D01*
X025807Y015918D02*
X032780Y015918D01*
X032752Y016410D02*
X022880Y016410D01*
X022880Y016509D02*
X032684Y016509D01*
X032684Y016607D02*
X022880Y016607D01*
X022880Y016706D02*
X032684Y016706D01*
X032684Y016804D02*
X026667Y016804D01*
X026638Y016775D02*
X026975Y017112D01*
X026975Y017300D01*
X026450Y017300D01*
X026450Y017400D01*
X026975Y017400D01*
X026975Y017588D01*
X026638Y017925D01*
X026450Y017925D01*
X026450Y017400D01*
X026350Y017400D01*
X026350Y017925D01*
X026161Y017925D01*
X025825Y017588D01*
X025825Y017400D01*
X026350Y017400D01*
X026350Y017300D01*
X026450Y017300D01*
X026450Y016775D01*
X026638Y016775D01*
X026765Y016903D02*
X032765Y016903D01*
X032863Y017001D02*
X026864Y017001D01*
X026962Y017100D02*
X036750Y017100D01*
X036750Y017198D02*
X026975Y017198D01*
X026975Y017297D02*
X032866Y017297D01*
X032767Y017395D02*
X026450Y017395D01*
X026450Y017297D02*
X026350Y017297D01*
X026350Y017300D02*
X026350Y016775D01*
X026161Y016775D01*
X025825Y017112D01*
X025825Y017300D01*
X026350Y017300D01*
X026350Y017395D02*
X022843Y017395D01*
X022880Y017297D02*
X025825Y017297D01*
X025825Y017198D02*
X022880Y017198D01*
X022880Y017100D02*
X025837Y017100D01*
X025935Y017001D02*
X022880Y017001D01*
X022880Y016903D02*
X026034Y016903D01*
X026132Y016804D02*
X022880Y016804D01*
X022320Y017100D02*
X022270Y017100D01*
X022202Y017198D02*
X022192Y017198D01*
X022479Y017691D02*
X025927Y017691D01*
X026025Y017789D02*
X022354Y017789D01*
X022610Y017592D02*
X025828Y017592D01*
X025825Y017494D02*
X022743Y017494D01*
X022332Y018577D02*
X011370Y018577D01*
X011370Y018479D02*
X029631Y018479D01*
X029729Y018380D02*
X011370Y018380D01*
X011370Y018282D02*
X029828Y018282D01*
X029926Y018183D02*
X011370Y018183D01*
X011370Y018085D02*
X030025Y018085D01*
X030123Y017986D02*
X011370Y017986D01*
X011370Y017888D02*
X026124Y017888D01*
X026350Y017888D02*
X026450Y017888D01*
X026450Y017789D02*
X026350Y017789D01*
X026350Y017691D02*
X026450Y017691D01*
X026450Y017592D02*
X026350Y017592D01*
X026350Y017494D02*
X026450Y017494D01*
X026450Y017198D02*
X026350Y017198D01*
X026350Y017100D02*
X026450Y017100D01*
X026450Y017001D02*
X026350Y017001D01*
X026350Y016903D02*
X026450Y016903D01*
X026450Y016804D02*
X026350Y016804D01*
X025800Y016150D02*
X033600Y016150D01*
X034100Y015650D01*
X034515Y015622D02*
X036750Y015622D01*
X036750Y015524D02*
X034515Y015524D01*
X034462Y015425D02*
X036750Y015425D01*
X036750Y015327D02*
X034363Y015327D01*
X034348Y015031D02*
X036750Y015031D01*
X036750Y014933D02*
X034447Y014933D01*
X034148Y014933D02*
X034051Y014933D01*
X034051Y015031D02*
X034148Y015031D01*
X034148Y014834D02*
X034051Y014834D01*
X034051Y014736D02*
X034148Y014736D01*
X033836Y015327D02*
X033363Y015327D01*
X033462Y015425D02*
X033737Y015425D01*
X033684Y015524D02*
X033515Y015524D01*
X033515Y015622D02*
X033684Y015622D01*
X033684Y015721D02*
X033515Y015721D01*
X033515Y015819D02*
X033684Y015819D01*
X033592Y015918D02*
X033419Y015918D01*
X033777Y016213D02*
X036750Y016213D01*
X036750Y016115D02*
X033875Y016115D01*
X033928Y016235D02*
X034272Y016235D01*
X034515Y016478D01*
X034515Y016822D01*
X034272Y017065D01*
X033928Y017065D01*
X033684Y016822D01*
X033684Y016478D01*
X033928Y016235D01*
X033851Y016312D02*
X033678Y016312D01*
X033752Y016410D02*
X033447Y016410D01*
X033515Y016509D02*
X033684Y016509D01*
X033684Y016607D02*
X033515Y016607D01*
X033515Y016706D02*
X033684Y016706D01*
X033684Y016804D02*
X033515Y016804D01*
X033434Y016903D02*
X033765Y016903D01*
X033863Y017001D02*
X033336Y017001D01*
X033333Y017297D02*
X033866Y017297D01*
X033767Y017395D02*
X033432Y017395D01*
X033515Y017494D02*
X033684Y017494D01*
X033684Y017592D02*
X033515Y017592D01*
X033515Y017691D02*
X033684Y017691D01*
X033684Y017789D02*
X033515Y017789D01*
X033449Y017888D02*
X033622Y017888D01*
X033600Y018150D02*
X031100Y018150D01*
X030100Y019150D01*
X023000Y019150D01*
X017000Y025150D01*
X017356Y025177D02*
X017643Y025177D01*
X017643Y025275D02*
X017356Y025275D01*
X017280Y025374D02*
X017719Y025374D01*
X017818Y025472D02*
X017181Y025472D01*
X016818Y025472D02*
X016181Y025472D01*
X016280Y025374D02*
X016719Y025374D01*
X016643Y025275D02*
X016356Y025275D01*
X016356Y025177D02*
X016643Y025177D01*
X016643Y025078D02*
X016356Y025078D01*
X016410Y024980D02*
X016666Y024980D01*
X016765Y024881D02*
X016509Y024881D01*
X016607Y024783D02*
X017127Y024783D01*
X017225Y024684D02*
X016706Y024684D01*
X016804Y024586D02*
X017324Y024586D01*
X017422Y024487D02*
X016903Y024487D01*
X017001Y024389D02*
X017521Y024389D01*
X017619Y024290D02*
X017100Y024290D01*
X017198Y024192D02*
X017718Y024192D01*
X017816Y024093D02*
X017297Y024093D01*
X017395Y023995D02*
X017915Y023995D01*
X018013Y023896D02*
X017494Y023896D01*
X017592Y023798D02*
X018112Y023798D01*
X018210Y023699D02*
X017691Y023699D01*
X017789Y023601D02*
X018309Y023601D01*
X018407Y023502D02*
X017888Y023502D01*
X017986Y023404D02*
X018506Y023404D01*
X018604Y023305D02*
X018085Y023305D01*
X018183Y023207D02*
X018703Y023207D01*
X018801Y023108D02*
X018282Y023108D01*
X018380Y023010D02*
X018900Y023010D01*
X018998Y022911D02*
X018479Y022911D01*
X018577Y022813D02*
X019097Y022813D01*
X019195Y022714D02*
X018676Y022714D01*
X018774Y022616D02*
X019294Y022616D01*
X019392Y022517D02*
X018873Y022517D01*
X018971Y022419D02*
X019491Y022419D01*
X019589Y022320D02*
X019070Y022320D01*
X019168Y022222D02*
X019688Y022222D01*
X019786Y022123D02*
X019267Y022123D01*
X019365Y022025D02*
X019885Y022025D01*
X019983Y021926D02*
X019464Y021926D01*
X019562Y021828D02*
X020082Y021828D01*
X020180Y021729D02*
X019661Y021729D01*
X019759Y021631D02*
X020279Y021631D01*
X020377Y021532D02*
X019858Y021532D01*
X019956Y021434D02*
X020476Y021434D01*
X020574Y021335D02*
X020055Y021335D01*
X020153Y021237D02*
X020673Y021237D01*
X020771Y021138D02*
X020252Y021138D01*
X020350Y021040D02*
X020870Y021040D01*
X020968Y020941D02*
X020449Y020941D01*
X020547Y020843D02*
X021067Y020843D01*
X021165Y020744D02*
X020646Y020744D01*
X020744Y020646D02*
X021264Y020646D01*
X021362Y020547D02*
X020843Y020547D01*
X020941Y020449D02*
X021461Y020449D01*
X021559Y020350D02*
X021040Y020350D01*
X021138Y020252D02*
X021658Y020252D01*
X021756Y020153D02*
X021237Y020153D01*
X021335Y020055D02*
X021855Y020055D01*
X021953Y019956D02*
X021434Y019956D01*
X021532Y019858D02*
X022052Y019858D01*
X022150Y019759D02*
X021631Y019759D01*
X021729Y019661D02*
X022249Y019661D01*
X022347Y019562D02*
X021828Y019562D01*
X021926Y019464D02*
X022446Y019464D01*
X022544Y019365D02*
X022025Y019365D01*
X022123Y019267D02*
X022643Y019267D01*
X022741Y019168D02*
X022222Y019168D01*
X022320Y019070D02*
X022840Y019070D01*
X023025Y019365D02*
X030544Y019365D01*
X030446Y019464D02*
X022926Y019464D01*
X022828Y019562D02*
X023347Y019562D01*
X023249Y019661D02*
X022729Y019661D01*
X022631Y019759D02*
X023150Y019759D01*
X023052Y019858D02*
X022532Y019858D01*
X022434Y019956D02*
X022953Y019956D01*
X022855Y020055D02*
X022335Y020055D01*
X022237Y020153D02*
X022756Y020153D01*
X022658Y020252D02*
X022138Y020252D01*
X022040Y020350D02*
X022559Y020350D01*
X022461Y020449D02*
X021941Y020449D01*
X021843Y020547D02*
X022362Y020547D01*
X022264Y020646D02*
X021744Y020646D01*
X021646Y020744D02*
X022165Y020744D01*
X022067Y020843D02*
X021547Y020843D01*
X021449Y020941D02*
X021968Y020941D01*
X021870Y021040D02*
X021350Y021040D01*
X021252Y021138D02*
X021771Y021138D01*
X021673Y021237D02*
X021153Y021237D01*
X021055Y021335D02*
X021574Y021335D01*
X021476Y021434D02*
X020956Y021434D01*
X020858Y021532D02*
X021377Y021532D01*
X021279Y021631D02*
X020759Y021631D01*
X020661Y021729D02*
X021180Y021729D01*
X021082Y021828D02*
X020562Y021828D01*
X020464Y021926D02*
X020983Y021926D01*
X020885Y022025D02*
X020365Y022025D01*
X020267Y022123D02*
X020786Y022123D01*
X020688Y022222D02*
X020168Y022222D01*
X020070Y022320D02*
X020589Y022320D01*
X020491Y022419D02*
X019971Y022419D01*
X019873Y022517D02*
X020392Y022517D01*
X020294Y022616D02*
X019774Y022616D01*
X019676Y022714D02*
X020195Y022714D01*
X020097Y022813D02*
X019577Y022813D01*
X019479Y022911D02*
X019998Y022911D01*
X019900Y023010D02*
X019380Y023010D01*
X019282Y023108D02*
X019801Y023108D01*
X019703Y023207D02*
X019183Y023207D01*
X019085Y023305D02*
X019604Y023305D01*
X019506Y023404D02*
X018986Y023404D01*
X018888Y023502D02*
X019407Y023502D01*
X019309Y023601D02*
X018789Y023601D01*
X018691Y023699D02*
X019210Y023699D01*
X019112Y023798D02*
X018592Y023798D01*
X018494Y023896D02*
X019013Y023896D01*
X018915Y023995D02*
X018395Y023995D01*
X018297Y024093D02*
X018816Y024093D01*
X018718Y024192D02*
X018198Y024192D01*
X018100Y024290D02*
X018619Y024290D01*
X018521Y024389D02*
X018001Y024389D01*
X017903Y024487D02*
X018422Y024487D01*
X018324Y024586D02*
X017804Y024586D01*
X017706Y024684D02*
X018225Y024684D01*
X018127Y024783D02*
X017607Y024783D01*
X017509Y024881D02*
X017765Y024881D01*
X017666Y024980D02*
X017410Y024980D01*
X017356Y025078D02*
X017643Y025078D01*
X018000Y025150D02*
X023500Y019650D01*
X030500Y019650D01*
X031500Y018650D01*
X033100Y018650D01*
X033417Y018380D02*
X033782Y018380D01*
X033708Y018282D02*
X033881Y018282D01*
X033807Y018183D02*
X036750Y018183D01*
X036750Y018085D02*
X033905Y018085D01*
X033600Y018150D02*
X034100Y017650D01*
X034515Y017691D02*
X036750Y017691D01*
X036750Y017789D02*
X034515Y017789D01*
X034449Y017888D02*
X036750Y017888D01*
X036750Y017986D02*
X034351Y017986D01*
X034318Y018282D02*
X036750Y018282D01*
X036750Y018380D02*
X034417Y018380D01*
X034515Y018479D02*
X036750Y018479D01*
X036750Y018577D02*
X034515Y018577D01*
X034515Y018676D02*
X036750Y018676D01*
X036750Y018774D02*
X034515Y018774D01*
X034464Y018873D02*
X036750Y018873D01*
X036750Y018971D02*
X034366Y018971D01*
X034284Y019205D02*
X034545Y019466D01*
X034545Y019602D01*
X034148Y019602D01*
X034148Y019698D01*
X034545Y019698D01*
X034545Y019834D01*
X034284Y020095D01*
X034148Y020095D01*
X034148Y019698D01*
X034051Y019698D01*
X034051Y019602D01*
X033654Y019602D01*
X033654Y019466D01*
X033915Y019205D01*
X034051Y019205D01*
X034051Y019602D01*
X034148Y019602D01*
X034148Y019205D01*
X034284Y019205D01*
X034346Y019267D02*
X036750Y019267D01*
X036750Y019365D02*
X034444Y019365D01*
X034543Y019464D02*
X036750Y019464D01*
X036750Y019562D02*
X034545Y019562D01*
X034545Y019759D02*
X036750Y019759D01*
X036750Y019661D02*
X034148Y019661D01*
X034051Y019661D02*
X033148Y019661D01*
X033051Y019661D02*
X031729Y019661D01*
X031631Y019759D02*
X032654Y019759D01*
X032654Y019698D02*
X033051Y019698D01*
X033051Y020095D01*
X032915Y020095D01*
X032654Y019834D01*
X032654Y019698D01*
X032654Y019562D02*
X031828Y019562D01*
X031926Y019464D02*
X032656Y019464D01*
X032755Y019365D02*
X032025Y019365D01*
X032000Y019150D02*
X031000Y020150D01*
X024000Y020150D01*
X019000Y025150D01*
X019356Y025177D02*
X019643Y025177D01*
X019643Y025275D02*
X019356Y025275D01*
X019280Y025374D02*
X019719Y025374D01*
X019643Y025298D02*
X019643Y025002D01*
X019852Y024794D01*
X020115Y024794D01*
X024429Y020480D01*
X032684Y020480D01*
X032684Y020478D01*
X032928Y020235D01*
X033272Y020235D01*
X033515Y020478D01*
X033515Y020822D01*
X033357Y020980D01*
X033529Y020980D01*
X033686Y020823D01*
X033684Y020822D01*
X033684Y020478D01*
X033928Y020235D01*
X034272Y020235D01*
X034515Y020478D01*
X034515Y020822D01*
X034272Y021065D01*
X033928Y021065D01*
X033926Y021064D01*
X033770Y021220D01*
X033670Y021320D01*
X033357Y021320D01*
X033515Y021478D01*
X033515Y021822D01*
X033357Y021980D01*
X033529Y021980D01*
X033686Y021823D01*
X033684Y021822D01*
X033684Y021478D01*
X033928Y021235D01*
X034272Y021235D01*
X034515Y021478D01*
X034515Y021822D01*
X034272Y022065D01*
X033928Y022065D01*
X033926Y022064D01*
X033670Y022320D01*
X033357Y022320D01*
X033842Y022320D01*
X033928Y022235D02*
X033684Y022478D01*
X033684Y022822D01*
X033686Y022823D01*
X033529Y022980D01*
X033357Y022980D01*
X033515Y022822D01*
X033515Y022478D01*
X033357Y022320D01*
X033455Y022419D02*
X033744Y022419D01*
X033684Y022517D02*
X033515Y022517D01*
X033515Y022616D02*
X033684Y022616D01*
X033684Y022714D02*
X033515Y022714D01*
X033515Y022813D02*
X033684Y022813D01*
X033598Y022911D02*
X033426Y022911D01*
X033600Y023150D02*
X027000Y023150D01*
X025000Y025150D01*
X025356Y025177D02*
X025643Y025177D01*
X025643Y025275D02*
X025356Y025275D01*
X025356Y025298D02*
X025147Y025506D01*
X024852Y025506D01*
X024643Y025298D01*
X024643Y025002D01*
X024852Y024794D01*
X025115Y024794D01*
X026929Y022980D01*
X032842Y022980D01*
X032684Y022822D01*
X032684Y022820D01*
X026570Y022820D01*
X024356Y025034D01*
X024356Y025298D01*
X024147Y025506D01*
X023852Y025506D01*
X023643Y025298D01*
X023643Y025002D01*
X023852Y024794D01*
X024115Y024794D01*
X026429Y022480D01*
X032684Y022480D01*
X032684Y022478D01*
X032842Y022320D01*
X026070Y022320D01*
X023356Y025034D01*
X023356Y025298D01*
X023147Y025506D01*
X022852Y025506D01*
X022643Y025298D01*
X022643Y025002D01*
X022852Y024794D01*
X023115Y024794D01*
X025929Y021980D01*
X032842Y021980D01*
X032684Y021822D01*
X032684Y021820D01*
X025570Y021820D01*
X022356Y025034D01*
X022356Y025298D01*
X022147Y025506D01*
X021852Y025506D01*
X021643Y025298D01*
X021643Y025002D01*
X021852Y024794D01*
X022115Y024794D01*
X025429Y021480D01*
X032684Y021480D01*
X032684Y021478D01*
X032842Y021320D01*
X025070Y021320D01*
X021356Y025034D01*
X021356Y025298D01*
X021147Y025506D01*
X020852Y025506D01*
X020643Y025298D01*
X020643Y025002D01*
X020852Y024794D01*
X021115Y024794D01*
X024929Y020980D01*
X032842Y020980D01*
X032684Y020822D01*
X032684Y020820D01*
X024570Y020820D01*
X020356Y025034D01*
X020356Y025298D01*
X020147Y025506D01*
X019852Y025506D01*
X019643Y025298D01*
X019643Y025078D02*
X019356Y025078D01*
X019410Y024980D02*
X019666Y024980D01*
X019765Y024881D02*
X019509Y024881D01*
X019607Y024783D02*
X020127Y024783D01*
X020225Y024684D02*
X019706Y024684D01*
X019804Y024586D02*
X020324Y024586D01*
X020422Y024487D02*
X019903Y024487D01*
X020001Y024389D02*
X020521Y024389D01*
X020619Y024290D02*
X020100Y024290D01*
X020198Y024192D02*
X020718Y024192D01*
X020816Y024093D02*
X020297Y024093D01*
X020395Y023995D02*
X020915Y023995D01*
X021013Y023896D02*
X020494Y023896D01*
X020592Y023798D02*
X021112Y023798D01*
X021210Y023699D02*
X020691Y023699D01*
X020789Y023601D02*
X021309Y023601D01*
X021407Y023502D02*
X020888Y023502D01*
X020986Y023404D02*
X021506Y023404D01*
X021604Y023305D02*
X021085Y023305D01*
X021183Y023207D02*
X021703Y023207D01*
X021801Y023108D02*
X021282Y023108D01*
X021380Y023010D02*
X021900Y023010D01*
X021998Y022911D02*
X021479Y022911D01*
X021577Y022813D02*
X022097Y022813D01*
X022195Y022714D02*
X021676Y022714D01*
X021774Y022616D02*
X022294Y022616D01*
X022392Y022517D02*
X021873Y022517D01*
X021971Y022419D02*
X022491Y022419D01*
X022589Y022320D02*
X022070Y022320D01*
X022168Y022222D02*
X022688Y022222D01*
X022786Y022123D02*
X022267Y022123D01*
X022365Y022025D02*
X022885Y022025D01*
X022983Y021926D02*
X022464Y021926D01*
X022562Y021828D02*
X023082Y021828D01*
X023180Y021729D02*
X022661Y021729D01*
X022759Y021631D02*
X023279Y021631D01*
X023377Y021532D02*
X022858Y021532D01*
X022956Y021434D02*
X023476Y021434D01*
X023574Y021335D02*
X023055Y021335D01*
X023153Y021237D02*
X023673Y021237D01*
X023771Y021138D02*
X023252Y021138D01*
X023350Y021040D02*
X023870Y021040D01*
X023968Y020941D02*
X023449Y020941D01*
X023547Y020843D02*
X024067Y020843D01*
X024165Y020744D02*
X023646Y020744D01*
X023744Y020646D02*
X024264Y020646D01*
X024362Y020547D02*
X023843Y020547D01*
X023941Y020449D02*
X032714Y020449D01*
X032812Y020350D02*
X024040Y020350D01*
X023756Y020153D02*
X023237Y020153D01*
X023335Y020055D02*
X023855Y020055D01*
X023658Y020252D02*
X023138Y020252D01*
X023040Y020350D02*
X023559Y020350D01*
X023461Y020449D02*
X022941Y020449D01*
X022843Y020547D02*
X023362Y020547D01*
X023264Y020646D02*
X022744Y020646D01*
X022646Y020744D02*
X023165Y020744D01*
X023067Y020843D02*
X022547Y020843D01*
X022449Y020941D02*
X022968Y020941D01*
X022870Y021040D02*
X022350Y021040D01*
X022252Y021138D02*
X022771Y021138D01*
X022673Y021237D02*
X022153Y021237D01*
X022055Y021335D02*
X022574Y021335D01*
X022476Y021434D02*
X021956Y021434D01*
X021858Y021532D02*
X022377Y021532D01*
X022279Y021631D02*
X021759Y021631D01*
X021661Y021729D02*
X022180Y021729D01*
X022082Y021828D02*
X021562Y021828D01*
X021464Y021926D02*
X021983Y021926D01*
X021885Y022025D02*
X021365Y022025D01*
X021267Y022123D02*
X021786Y022123D01*
X021688Y022222D02*
X021168Y022222D01*
X021070Y022320D02*
X021589Y022320D01*
X021491Y022419D02*
X020971Y022419D01*
X020873Y022517D02*
X021392Y022517D01*
X021294Y022616D02*
X020774Y022616D01*
X020676Y022714D02*
X021195Y022714D01*
X021097Y022813D02*
X020577Y022813D01*
X020479Y022911D02*
X020998Y022911D01*
X020900Y023010D02*
X020380Y023010D01*
X020282Y023108D02*
X020801Y023108D01*
X020703Y023207D02*
X020183Y023207D01*
X020085Y023305D02*
X020604Y023305D01*
X020506Y023404D02*
X019986Y023404D01*
X019888Y023502D02*
X020407Y023502D01*
X020309Y023601D02*
X019789Y023601D01*
X019691Y023699D02*
X020210Y023699D01*
X020112Y023798D02*
X019592Y023798D01*
X019494Y023896D02*
X020013Y023896D01*
X019915Y023995D02*
X019395Y023995D01*
X019297Y024093D02*
X019816Y024093D01*
X019718Y024192D02*
X019198Y024192D01*
X019100Y024290D02*
X019619Y024290D01*
X019521Y024389D02*
X019001Y024389D01*
X018903Y024487D02*
X019422Y024487D01*
X019324Y024586D02*
X018804Y024586D01*
X018706Y024684D02*
X019225Y024684D01*
X019127Y024783D02*
X018607Y024783D01*
X018509Y024881D02*
X018765Y024881D01*
X018666Y024980D02*
X018410Y024980D01*
X018356Y025078D02*
X018643Y025078D01*
X018643Y025177D02*
X018356Y025177D01*
X018356Y025275D02*
X018643Y025275D01*
X018719Y025374D02*
X018280Y025374D01*
X018181Y025472D02*
X018818Y025472D01*
X018744Y025764D02*
X018971Y025764D01*
X018971Y026121D01*
X019028Y026121D01*
X019028Y025764D01*
X019256Y025764D01*
X019294Y025774D01*
X019328Y025794D01*
X019356Y025822D01*
X019376Y025856D01*
X019386Y025894D01*
X019386Y026121D01*
X019028Y026121D01*
X019028Y026179D01*
X018971Y026179D01*
X018971Y026536D01*
X018744Y026536D01*
X018705Y026526D01*
X018671Y026506D01*
X018643Y026478D01*
X018624Y026444D01*
X018613Y026406D01*
X018613Y026179D01*
X018971Y026179D01*
X018971Y026121D01*
X018613Y026121D01*
X018613Y025894D01*
X018624Y025856D01*
X018643Y025822D01*
X018671Y025794D01*
X018705Y025774D01*
X018744Y025764D01*
X018729Y025768D02*
X013334Y025768D01*
X013240Y025669D02*
X036750Y025669D01*
X036750Y025571D02*
X003750Y025571D01*
X006000Y024586D02*
X016324Y024586D01*
X016422Y024487D02*
X006076Y024487D01*
X006108Y024389D02*
X016521Y024389D01*
X016619Y024290D02*
X006108Y024290D01*
X006067Y024192D02*
X016718Y024192D01*
X016816Y024093D02*
X006064Y024093D01*
X006087Y023995D02*
X016915Y023995D01*
X017013Y023896D02*
X006110Y023896D01*
X006132Y023798D02*
X007217Y023798D01*
X007246Y023809D02*
X006962Y023692D01*
X006744Y023474D01*
X006627Y023190D01*
X006627Y022883D01*
X006744Y022599D01*
X006962Y022382D01*
X007246Y022264D01*
X007553Y022264D01*
X007837Y022382D01*
X008055Y022599D01*
X008172Y022883D01*
X008172Y023190D01*
X008055Y023474D01*
X007837Y023692D01*
X007553Y023809D01*
X007246Y023809D01*
X006980Y023699D02*
X006155Y023699D01*
X006178Y023601D02*
X006871Y023601D01*
X006772Y023502D02*
X006200Y023502D01*
X006223Y023404D02*
X006715Y023404D01*
X006674Y023305D02*
X006246Y023305D01*
X006269Y023207D02*
X006634Y023207D01*
X006627Y023108D02*
X006298Y023108D01*
X006357Y023010D02*
X006627Y023010D01*
X006627Y022911D02*
X006416Y022911D01*
X006475Y022813D02*
X006656Y022813D01*
X006697Y022714D02*
X006534Y022714D01*
X006594Y022616D02*
X006738Y022616D01*
X006655Y022517D02*
X006826Y022517D01*
X006925Y022419D02*
X006715Y022419D01*
X006776Y022320D02*
X007110Y022320D01*
X006897Y022123D02*
X018786Y022123D01*
X018688Y022222D02*
X006836Y022222D01*
X006958Y022025D02*
X018885Y022025D01*
X018983Y021926D02*
X007018Y021926D01*
X007079Y021828D02*
X019082Y021828D01*
X019180Y021729D02*
X007140Y021729D01*
X007200Y021631D02*
X019279Y021631D01*
X019377Y021532D02*
X007261Y021532D01*
X007321Y021434D02*
X019476Y021434D01*
X019574Y021335D02*
X007382Y021335D01*
X007443Y021237D02*
X019673Y021237D01*
X019771Y021138D02*
X010609Y021138D01*
X010746Y021040D02*
X019870Y021040D01*
X019968Y020941D02*
X010795Y020941D01*
X010808Y020843D02*
X020067Y020843D01*
X020165Y020744D02*
X010884Y020744D01*
X010999Y020646D02*
X020264Y020646D01*
X020362Y020547D02*
X011114Y020547D01*
X011229Y020449D02*
X020461Y020449D01*
X020559Y020350D02*
X011344Y020350D01*
X011370Y020252D02*
X020658Y020252D01*
X020756Y020153D02*
X011370Y020153D01*
X011370Y020055D02*
X020855Y020055D01*
X020953Y019956D02*
X011370Y019956D01*
X011370Y019858D02*
X021052Y019858D01*
X021150Y019759D02*
X011370Y019759D01*
X011370Y019661D02*
X021249Y019661D01*
X021347Y019562D02*
X011370Y019562D01*
X011370Y019464D02*
X021446Y019464D01*
X021544Y019365D02*
X011370Y019365D01*
X011370Y019267D02*
X021643Y019267D01*
X021741Y019168D02*
X011370Y019168D01*
X011370Y019070D02*
X021840Y019070D01*
X021938Y018971D02*
X011370Y018971D01*
X011370Y018873D02*
X022037Y018873D01*
X022135Y018774D02*
X011370Y018774D01*
X011370Y018676D02*
X022234Y018676D01*
X022500Y018650D02*
X016000Y025150D01*
X016219Y025866D02*
X016780Y025866D01*
X016681Y025965D02*
X016318Y025965D01*
X016356Y026063D02*
X016634Y026063D01*
X016535Y026162D02*
X016356Y026162D01*
X016356Y026260D02*
X016437Y026260D01*
X016338Y026359D02*
X016295Y026359D01*
X016240Y026457D02*
X016196Y026457D01*
X016751Y026851D02*
X035163Y026851D01*
X035150Y026753D02*
X016850Y026753D01*
X016948Y026654D02*
X035150Y026654D01*
X035150Y026556D02*
X017047Y026556D01*
X017196Y026457D02*
X017803Y026457D01*
X017852Y026506D02*
X017643Y026298D01*
X017643Y026002D01*
X017852Y025794D01*
X018147Y025794D01*
X018356Y026002D01*
X018356Y026298D01*
X018147Y026506D01*
X017852Y026506D01*
X017704Y026359D02*
X017295Y026359D01*
X017356Y026260D02*
X017643Y026260D01*
X017643Y026162D02*
X017356Y026162D01*
X017356Y026063D02*
X017643Y026063D01*
X017681Y025965D02*
X017318Y025965D01*
X017219Y025866D02*
X017780Y025866D01*
X018219Y025866D02*
X018621Y025866D01*
X018613Y025965D02*
X018318Y025965D01*
X018356Y026063D02*
X018613Y026063D01*
X018613Y026260D02*
X018356Y026260D01*
X018356Y026162D02*
X018971Y026162D01*
X019028Y026162D02*
X023643Y026162D01*
X023643Y026260D02*
X019386Y026260D01*
X019386Y026179D02*
X019386Y026406D01*
X019376Y026444D01*
X019356Y026478D01*
X019328Y026506D01*
X019294Y026526D01*
X019256Y026536D01*
X019028Y026536D01*
X019028Y026179D01*
X019386Y026179D01*
X019386Y026063D02*
X023643Y026063D01*
X023643Y026002D02*
X023643Y026298D01*
X023852Y026506D01*
X024147Y026506D01*
X024356Y026298D01*
X024356Y026002D01*
X024147Y025794D01*
X023852Y025794D01*
X023643Y026002D01*
X023681Y025965D02*
X019386Y025965D01*
X019378Y025866D02*
X023780Y025866D01*
X023818Y025472D02*
X023181Y025472D01*
X023280Y025374D02*
X023719Y025374D01*
X023643Y025275D02*
X023356Y025275D01*
X023356Y025177D02*
X023643Y025177D01*
X023643Y025078D02*
X023356Y025078D01*
X023410Y024980D02*
X023666Y024980D01*
X023765Y024881D02*
X023509Y024881D01*
X023607Y024783D02*
X024127Y024783D01*
X024225Y024684D02*
X023706Y024684D01*
X023804Y024586D02*
X024324Y024586D01*
X024422Y024487D02*
X023903Y024487D01*
X024001Y024389D02*
X024521Y024389D01*
X024619Y024290D02*
X024100Y024290D01*
X024198Y024192D02*
X024718Y024192D01*
X024816Y024093D02*
X024297Y024093D01*
X024395Y023995D02*
X024915Y023995D01*
X025013Y023896D02*
X024494Y023896D01*
X024592Y023798D02*
X025112Y023798D01*
X025210Y023699D02*
X024691Y023699D01*
X024789Y023601D02*
X025309Y023601D01*
X025407Y023502D02*
X024888Y023502D01*
X024986Y023404D02*
X025506Y023404D01*
X025604Y023305D02*
X025085Y023305D01*
X025183Y023207D02*
X025703Y023207D01*
X025801Y023108D02*
X025282Y023108D01*
X025380Y023010D02*
X025900Y023010D01*
X025998Y022911D02*
X025479Y022911D01*
X025577Y022813D02*
X026097Y022813D01*
X026195Y022714D02*
X025676Y022714D01*
X025774Y022616D02*
X026294Y022616D01*
X026392Y022517D02*
X025873Y022517D01*
X025971Y022419D02*
X032744Y022419D01*
X032842Y022320D02*
X026070Y022320D01*
X026000Y022150D02*
X023000Y025150D01*
X022765Y024881D02*
X022509Y024881D01*
X022607Y024783D02*
X023127Y024783D01*
X023225Y024684D02*
X022706Y024684D01*
X022804Y024586D02*
X023324Y024586D01*
X023422Y024487D02*
X022903Y024487D01*
X023001Y024389D02*
X023521Y024389D01*
X023619Y024290D02*
X023100Y024290D01*
X023198Y024192D02*
X023718Y024192D01*
X023816Y024093D02*
X023297Y024093D01*
X023395Y023995D02*
X023915Y023995D01*
X024013Y023896D02*
X023494Y023896D01*
X023592Y023798D02*
X024112Y023798D01*
X024210Y023699D02*
X023691Y023699D01*
X023789Y023601D02*
X024309Y023601D01*
X024407Y023502D02*
X023888Y023502D01*
X023986Y023404D02*
X024506Y023404D01*
X024604Y023305D02*
X024085Y023305D01*
X024183Y023207D02*
X024703Y023207D01*
X024801Y023108D02*
X024282Y023108D01*
X024380Y023010D02*
X024900Y023010D01*
X024998Y022911D02*
X024479Y022911D01*
X024577Y022813D02*
X025097Y022813D01*
X025195Y022714D02*
X024676Y022714D01*
X024774Y022616D02*
X025294Y022616D01*
X025392Y022517D02*
X024873Y022517D01*
X024971Y022419D02*
X025491Y022419D01*
X025589Y022320D02*
X025070Y022320D01*
X025168Y022222D02*
X025688Y022222D01*
X025786Y022123D02*
X025267Y022123D01*
X025365Y022025D02*
X025885Y022025D01*
X026000Y022150D02*
X033600Y022150D01*
X034100Y021650D01*
X034515Y021631D02*
X036750Y021631D01*
X036750Y021729D02*
X034515Y021729D01*
X034509Y021828D02*
X036750Y021828D01*
X036750Y021926D02*
X034411Y021926D01*
X034312Y022025D02*
X036750Y022025D01*
X036750Y022123D02*
X033867Y022123D01*
X033928Y022235D02*
X034272Y022235D01*
X034515Y022478D01*
X034515Y022822D01*
X034272Y023065D01*
X033928Y023065D01*
X033926Y023064D01*
X033770Y023220D01*
X033670Y023320D01*
X033357Y023320D01*
X033515Y023478D01*
X033515Y023822D01*
X033357Y023980D01*
X033529Y023980D01*
X033686Y023823D01*
X033684Y023822D01*
X033684Y023478D01*
X033928Y023235D01*
X034272Y023235D01*
X034515Y023478D01*
X034515Y023822D01*
X034272Y024065D01*
X033928Y024065D01*
X033926Y024064D01*
X033770Y024220D01*
X033670Y024320D01*
X028165Y024320D01*
X027356Y025056D01*
X027356Y025298D01*
X027147Y025506D01*
X026852Y025506D01*
X026643Y025298D01*
X026643Y025002D01*
X026852Y024794D01*
X027139Y024794D01*
X027982Y024027D01*
X028029Y023980D01*
X028034Y023980D01*
X028037Y023977D01*
X028104Y023980D01*
X032842Y023980D01*
X032684Y023822D01*
X032684Y023820D01*
X027570Y023820D01*
X026356Y025034D01*
X026356Y025298D01*
X026147Y025506D01*
X025852Y025506D01*
X025643Y025298D01*
X025643Y025002D01*
X025852Y024794D01*
X026115Y024794D01*
X027429Y023480D01*
X032684Y023480D01*
X032684Y023478D01*
X032842Y023320D01*
X027070Y023320D01*
X025356Y025034D01*
X025356Y025298D01*
X025280Y025374D02*
X025719Y025374D01*
X025818Y025472D02*
X025181Y025472D01*
X025147Y025794D02*
X025356Y026002D01*
X025356Y026298D01*
X025147Y026506D01*
X024852Y026506D01*
X024643Y026298D01*
X024643Y026002D01*
X024852Y025794D01*
X025147Y025794D01*
X025219Y025866D02*
X025780Y025866D01*
X025852Y025794D02*
X026147Y025794D01*
X026356Y026002D01*
X026356Y026298D01*
X026147Y026506D01*
X025852Y026506D01*
X025643Y026298D01*
X025643Y026002D01*
X025852Y025794D01*
X025681Y025965D02*
X025318Y025965D01*
X025356Y026063D02*
X025643Y026063D01*
X025643Y026162D02*
X025356Y026162D01*
X025356Y026260D02*
X025643Y026260D01*
X025704Y026359D02*
X025295Y026359D01*
X025196Y026457D02*
X025803Y026457D01*
X026196Y026457D02*
X026631Y026457D01*
X026624Y026444D02*
X026613Y026406D01*
X026613Y026179D01*
X026971Y026179D01*
X026971Y026536D01*
X026744Y026536D01*
X026705Y026526D01*
X026671Y026506D01*
X026643Y026478D01*
X026624Y026444D01*
X026613Y026359D02*
X026295Y026359D01*
X026356Y026260D02*
X026613Y026260D01*
X026613Y026121D02*
X026613Y025894D01*
X026624Y025856D01*
X026643Y025822D01*
X026671Y025794D01*
X026705Y025774D01*
X026744Y025764D01*
X026971Y025764D01*
X026971Y026121D01*
X027028Y026121D01*
X027028Y025764D01*
X027256Y025764D01*
X027294Y025774D01*
X027328Y025794D01*
X027356Y025822D01*
X027376Y025856D01*
X027386Y025894D01*
X027386Y026121D01*
X027028Y026121D01*
X027028Y026179D01*
X026971Y026179D01*
X026971Y026121D01*
X026613Y026121D01*
X026613Y026063D02*
X026356Y026063D01*
X026356Y026162D02*
X026971Y026162D01*
X027028Y026162D02*
X035286Y026162D01*
X035241Y026260D02*
X027386Y026260D01*
X027386Y026179D02*
X027386Y026406D01*
X027376Y026444D01*
X027356Y026478D01*
X027328Y026506D01*
X027294Y026526D01*
X027256Y026536D01*
X027028Y026536D01*
X027028Y026179D01*
X027386Y026179D01*
X027386Y026063D02*
X035384Y026063D01*
X035483Y025965D02*
X027386Y025965D01*
X027378Y025866D02*
X035671Y025866D01*
X036328Y025866D02*
X036750Y025866D01*
X036750Y025768D02*
X027270Y025768D01*
X027028Y025768D02*
X026971Y025768D01*
X026971Y025866D02*
X027028Y025866D01*
X027028Y025965D02*
X026971Y025965D01*
X026971Y026063D02*
X027028Y026063D01*
X027028Y026260D02*
X026971Y026260D01*
X026971Y026359D02*
X027028Y026359D01*
X027028Y026457D02*
X026971Y026457D01*
X027368Y026457D02*
X035159Y026457D01*
X035200Y026359D02*
X027386Y026359D01*
X026613Y025965D02*
X026318Y025965D01*
X026219Y025866D02*
X026621Y025866D01*
X026729Y025768D02*
X019270Y025768D01*
X019028Y025768D02*
X018971Y025768D01*
X018971Y025866D02*
X019028Y025866D01*
X019028Y025965D02*
X018971Y025965D01*
X018971Y026063D02*
X019028Y026063D01*
X019028Y026260D02*
X018971Y026260D01*
X018971Y026359D02*
X019028Y026359D01*
X019028Y026457D02*
X018971Y026457D01*
X018631Y026457D02*
X018196Y026457D01*
X018295Y026359D02*
X018613Y026359D01*
X019368Y026457D02*
X023803Y026457D01*
X023704Y026359D02*
X019386Y026359D01*
X019181Y025472D02*
X019818Y025472D01*
X020181Y025472D02*
X020818Y025472D01*
X020719Y025374D02*
X020280Y025374D01*
X020356Y025275D02*
X020643Y025275D01*
X020643Y025177D02*
X020356Y025177D01*
X020356Y025078D02*
X020643Y025078D01*
X020666Y024980D02*
X020410Y024980D01*
X020509Y024881D02*
X020765Y024881D01*
X020607Y024783D02*
X021127Y024783D01*
X021225Y024684D02*
X020706Y024684D01*
X020804Y024586D02*
X021324Y024586D01*
X021422Y024487D02*
X020903Y024487D01*
X021001Y024389D02*
X021521Y024389D01*
X021619Y024290D02*
X021100Y024290D01*
X021198Y024192D02*
X021718Y024192D01*
X021816Y024093D02*
X021297Y024093D01*
X021395Y023995D02*
X021915Y023995D01*
X022013Y023896D02*
X021494Y023896D01*
X021592Y023798D02*
X022112Y023798D01*
X022210Y023699D02*
X021691Y023699D01*
X021789Y023601D02*
X022309Y023601D01*
X022407Y023502D02*
X021888Y023502D01*
X021986Y023404D02*
X022506Y023404D01*
X022604Y023305D02*
X022085Y023305D01*
X022183Y023207D02*
X022703Y023207D01*
X022801Y023108D02*
X022282Y023108D01*
X022380Y023010D02*
X022900Y023010D01*
X022998Y022911D02*
X022479Y022911D01*
X022577Y022813D02*
X023097Y022813D01*
X023195Y022714D02*
X022676Y022714D01*
X022774Y022616D02*
X023294Y022616D01*
X023392Y022517D02*
X022873Y022517D01*
X022971Y022419D02*
X023491Y022419D01*
X023589Y022320D02*
X023070Y022320D01*
X023168Y022222D02*
X023688Y022222D01*
X023786Y022123D02*
X023267Y022123D01*
X023365Y022025D02*
X023885Y022025D01*
X023983Y021926D02*
X023464Y021926D01*
X023562Y021828D02*
X024082Y021828D01*
X024180Y021729D02*
X023661Y021729D01*
X023759Y021631D02*
X024279Y021631D01*
X024377Y021532D02*
X023858Y021532D01*
X023956Y021434D02*
X024476Y021434D01*
X024574Y021335D02*
X024055Y021335D01*
X024153Y021237D02*
X024673Y021237D01*
X024771Y021138D02*
X024252Y021138D01*
X024350Y021040D02*
X024870Y021040D01*
X025000Y021150D02*
X021000Y025150D01*
X021356Y025177D02*
X021643Y025177D01*
X021643Y025275D02*
X021356Y025275D01*
X021280Y025374D02*
X021719Y025374D01*
X021818Y025472D02*
X021181Y025472D01*
X021356Y025078D02*
X021643Y025078D01*
X021666Y024980D02*
X021410Y024980D01*
X021509Y024881D02*
X021765Y024881D01*
X021607Y024783D02*
X022127Y024783D01*
X022225Y024684D02*
X021706Y024684D01*
X021804Y024586D02*
X022324Y024586D01*
X022422Y024487D02*
X021903Y024487D01*
X022001Y024389D02*
X022521Y024389D01*
X022619Y024290D02*
X022100Y024290D01*
X022198Y024192D02*
X022718Y024192D01*
X022816Y024093D02*
X022297Y024093D01*
X022395Y023995D02*
X022915Y023995D01*
X023013Y023896D02*
X022494Y023896D01*
X022592Y023798D02*
X023112Y023798D01*
X023210Y023699D02*
X022691Y023699D01*
X022789Y023601D02*
X023309Y023601D01*
X023407Y023502D02*
X022888Y023502D01*
X022986Y023404D02*
X023506Y023404D01*
X023604Y023305D02*
X023085Y023305D01*
X023183Y023207D02*
X023703Y023207D01*
X023801Y023108D02*
X023282Y023108D01*
X023380Y023010D02*
X023900Y023010D01*
X023998Y022911D02*
X023479Y022911D01*
X023577Y022813D02*
X024097Y022813D01*
X024195Y022714D02*
X023676Y022714D01*
X023774Y022616D02*
X024294Y022616D01*
X024392Y022517D02*
X023873Y022517D01*
X023971Y022419D02*
X024491Y022419D01*
X024589Y022320D02*
X024070Y022320D01*
X024168Y022222D02*
X024688Y022222D01*
X024786Y022123D02*
X024267Y022123D01*
X024365Y022025D02*
X024885Y022025D01*
X024983Y021926D02*
X024464Y021926D01*
X024562Y021828D02*
X025082Y021828D01*
X025180Y021729D02*
X024661Y021729D01*
X024759Y021631D02*
X025279Y021631D01*
X025377Y021532D02*
X024858Y021532D01*
X024956Y021434D02*
X032729Y021434D01*
X032827Y021335D02*
X025055Y021335D01*
X025000Y021150D02*
X033600Y021150D01*
X034100Y020650D01*
X034515Y020646D02*
X036750Y020646D01*
X036750Y020744D02*
X034515Y020744D01*
X034494Y020843D02*
X036750Y020843D01*
X036750Y020941D02*
X034396Y020941D01*
X034297Y021040D02*
X036750Y021040D01*
X036750Y021138D02*
X033852Y021138D01*
X033926Y021237D02*
X033753Y021237D01*
X033827Y021335D02*
X033372Y021335D01*
X033470Y021434D02*
X033729Y021434D01*
X033684Y021532D02*
X033515Y021532D01*
X033515Y021631D02*
X033684Y021631D01*
X033684Y021729D02*
X033515Y021729D01*
X033509Y021828D02*
X033682Y021828D01*
X033583Y021926D02*
X033411Y021926D01*
X033100Y021650D02*
X025500Y021650D01*
X022000Y025150D01*
X022356Y025177D02*
X022643Y025177D01*
X022643Y025275D02*
X022356Y025275D01*
X022280Y025374D02*
X022719Y025374D01*
X022818Y025472D02*
X022181Y025472D01*
X022356Y025078D02*
X022643Y025078D01*
X022666Y024980D02*
X022410Y024980D01*
X024000Y025150D02*
X026500Y022650D01*
X033100Y022650D01*
X032773Y022911D02*
X026479Y022911D01*
X026380Y023010D02*
X026900Y023010D01*
X026801Y023108D02*
X026282Y023108D01*
X026183Y023207D02*
X026703Y023207D01*
X026604Y023305D02*
X026085Y023305D01*
X025986Y023404D02*
X026506Y023404D01*
X026407Y023502D02*
X025888Y023502D01*
X025789Y023601D02*
X026309Y023601D01*
X026210Y023699D02*
X025691Y023699D01*
X025592Y023798D02*
X026112Y023798D01*
X026013Y023896D02*
X025494Y023896D01*
X025395Y023995D02*
X025915Y023995D01*
X025816Y024093D02*
X025297Y024093D01*
X025198Y024192D02*
X025718Y024192D01*
X025619Y024290D02*
X025100Y024290D01*
X025001Y024389D02*
X025521Y024389D01*
X025422Y024487D02*
X024903Y024487D01*
X024804Y024586D02*
X025324Y024586D01*
X025225Y024684D02*
X024706Y024684D01*
X024607Y024783D02*
X025127Y024783D01*
X025410Y024980D02*
X025666Y024980D01*
X025643Y025078D02*
X025356Y025078D01*
X025509Y024881D02*
X025765Y024881D01*
X025607Y024783D02*
X026127Y024783D01*
X026225Y024684D02*
X025706Y024684D01*
X025804Y024586D02*
X026324Y024586D01*
X026422Y024487D02*
X025903Y024487D01*
X026001Y024389D02*
X026521Y024389D01*
X026619Y024290D02*
X026100Y024290D01*
X026198Y024192D02*
X026718Y024192D01*
X026816Y024093D02*
X026297Y024093D01*
X026395Y023995D02*
X026915Y023995D01*
X027013Y023896D02*
X026494Y023896D01*
X026592Y023798D02*
X027112Y023798D01*
X027210Y023699D02*
X026691Y023699D01*
X026789Y023601D02*
X027309Y023601D01*
X027407Y023502D02*
X026888Y023502D01*
X026986Y023404D02*
X032759Y023404D01*
X033100Y023650D02*
X027500Y023650D01*
X026000Y025150D01*
X026356Y025177D02*
X026643Y025177D01*
X026643Y025275D02*
X026356Y025275D01*
X026280Y025374D02*
X026719Y025374D01*
X026818Y025472D02*
X026181Y025472D01*
X026356Y025078D02*
X026643Y025078D01*
X026666Y024980D02*
X026410Y024980D01*
X026509Y024881D02*
X026765Y024881D01*
X026607Y024783D02*
X027151Y024783D01*
X027259Y024684D02*
X026706Y024684D01*
X026804Y024586D02*
X027368Y024586D01*
X027476Y024487D02*
X026903Y024487D01*
X027001Y024389D02*
X027584Y024389D01*
X027693Y024290D02*
X027100Y024290D01*
X027198Y024192D02*
X027801Y024192D01*
X027909Y024093D02*
X027297Y024093D01*
X027395Y023995D02*
X028015Y023995D01*
X028100Y024150D02*
X027000Y025150D01*
X027356Y025177D02*
X036750Y025177D01*
X036750Y025275D02*
X027356Y025275D01*
X027280Y025374D02*
X036750Y025374D01*
X036750Y025472D02*
X027181Y025472D01*
X027356Y025078D02*
X036750Y025078D01*
X036750Y024980D02*
X027440Y024980D01*
X027548Y024881D02*
X036750Y024881D01*
X036750Y024783D02*
X027656Y024783D01*
X027765Y024684D02*
X036750Y024684D01*
X036750Y024586D02*
X027873Y024586D01*
X027981Y024487D02*
X036750Y024487D01*
X036750Y024389D02*
X028090Y024389D01*
X028100Y024150D02*
X033600Y024150D01*
X034100Y023650D01*
X034515Y023699D02*
X036750Y023699D01*
X036750Y023601D02*
X034515Y023601D01*
X034515Y023502D02*
X036750Y023502D01*
X036750Y023404D02*
X034440Y023404D01*
X034342Y023305D02*
X036750Y023305D01*
X036750Y023207D02*
X033783Y023207D01*
X033857Y023305D02*
X033685Y023305D01*
X033759Y023404D02*
X033440Y023404D01*
X033515Y023502D02*
X033684Y023502D01*
X033684Y023601D02*
X033515Y023601D01*
X033515Y023699D02*
X033684Y023699D01*
X033684Y023798D02*
X033515Y023798D01*
X033441Y023896D02*
X033613Y023896D01*
X033897Y024093D02*
X036750Y024093D01*
X036750Y023995D02*
X034342Y023995D01*
X034441Y023896D02*
X036750Y023896D01*
X036750Y023798D02*
X034515Y023798D01*
X033798Y024192D02*
X036750Y024192D01*
X036750Y024290D02*
X033700Y024290D01*
X032758Y023896D02*
X027494Y023896D01*
X025464Y021926D02*
X032788Y021926D01*
X032690Y021828D02*
X025562Y021828D01*
X024547Y020843D02*
X032705Y020843D01*
X032803Y020941D02*
X024449Y020941D01*
X024500Y020650D02*
X020000Y025150D01*
X017703Y023207D02*
X008166Y023207D01*
X008172Y023108D02*
X017801Y023108D01*
X017900Y023010D02*
X008172Y023010D01*
X008172Y022911D02*
X017998Y022911D01*
X018097Y022813D02*
X008143Y022813D01*
X008102Y022714D02*
X018195Y022714D01*
X018294Y022616D02*
X008062Y022616D01*
X007973Y022517D02*
X018392Y022517D01*
X018491Y022419D02*
X007874Y022419D01*
X007689Y022320D02*
X018589Y022320D01*
X017604Y023305D02*
X008125Y023305D01*
X008084Y023404D02*
X017506Y023404D01*
X017407Y023502D02*
X008027Y023502D01*
X007928Y023601D02*
X017309Y023601D01*
X017210Y023699D02*
X007820Y023699D01*
X007582Y023798D02*
X017112Y023798D01*
X016653Y026950D02*
X035204Y026950D01*
X035244Y027048D02*
X016554Y027048D01*
X016456Y027147D02*
X035294Y027147D01*
X035393Y027245D02*
X016357Y027245D01*
X016227Y027344D02*
X035491Y027344D01*
X036713Y026162D02*
X036750Y026162D01*
X036750Y026063D02*
X036615Y026063D01*
X036516Y025965D02*
X036750Y025965D01*
X036750Y023108D02*
X033882Y023108D01*
X033600Y023150D02*
X034100Y022650D01*
X034515Y022616D02*
X036750Y022616D01*
X036750Y022714D02*
X034515Y022714D01*
X034515Y022813D02*
X036750Y022813D01*
X036750Y022911D02*
X034426Y022911D01*
X034327Y023010D02*
X036750Y023010D01*
X036750Y022517D02*
X034515Y022517D01*
X034455Y022419D02*
X036750Y022419D01*
X036750Y022320D02*
X034357Y022320D01*
X033768Y022222D02*
X036750Y022222D01*
X036750Y021532D02*
X034515Y021532D01*
X034470Y021434D02*
X036750Y021434D01*
X036750Y021335D02*
X034372Y021335D01*
X034273Y021237D02*
X036750Y021237D01*
X036750Y020547D02*
X034515Y020547D01*
X034485Y020449D02*
X036750Y020449D01*
X036750Y020350D02*
X034387Y020350D01*
X034288Y020252D02*
X036750Y020252D01*
X036750Y020153D02*
X031237Y020153D01*
X031335Y020055D02*
X032874Y020055D01*
X032776Y019956D02*
X031434Y019956D01*
X031532Y019858D02*
X032677Y019858D01*
X033051Y019858D02*
X033148Y019858D01*
X033148Y019956D02*
X033051Y019956D01*
X033051Y020055D02*
X033148Y020055D01*
X033325Y020055D02*
X033874Y020055D01*
X033915Y020095D02*
X033654Y019834D01*
X033654Y019698D01*
X034051Y019698D01*
X034051Y020095D01*
X033915Y020095D01*
X034051Y020055D02*
X034148Y020055D01*
X034148Y019956D02*
X034051Y019956D01*
X034051Y019858D02*
X034148Y019858D01*
X034148Y019759D02*
X034051Y019759D01*
X034051Y019562D02*
X034148Y019562D01*
X034148Y019464D02*
X034051Y019464D01*
X034051Y019365D02*
X034148Y019365D01*
X034148Y019267D02*
X034051Y019267D01*
X033853Y019267D02*
X033723Y019267D01*
X033755Y019365D02*
X033444Y019365D01*
X033543Y019464D02*
X033656Y019464D01*
X033654Y019562D02*
X033545Y019562D01*
X033545Y019759D02*
X033654Y019759D01*
X033677Y019858D02*
X033522Y019858D01*
X033423Y019956D02*
X033776Y019956D01*
X033911Y020252D02*
X033288Y020252D01*
X033387Y020350D02*
X033812Y020350D01*
X033714Y020449D02*
X033485Y020449D01*
X033515Y020547D02*
X033684Y020547D01*
X033684Y020646D02*
X033515Y020646D01*
X033515Y020744D02*
X033684Y020744D01*
X033667Y020843D02*
X033494Y020843D01*
X033568Y020941D02*
X033396Y020941D01*
X033100Y020650D02*
X024500Y020650D01*
X023532Y019858D02*
X031052Y019858D01*
X030953Y019956D02*
X023434Y019956D01*
X022419Y018971D02*
X030038Y018971D01*
X030137Y018873D02*
X022517Y018873D01*
X022500Y018650D02*
X029700Y018650D01*
X030600Y017750D01*
X032900Y017750D01*
X033100Y017650D01*
X032684Y017494D02*
X026975Y017494D01*
X026971Y017592D02*
X030517Y017592D01*
X030419Y017691D02*
X026872Y017691D01*
X026774Y017789D02*
X030320Y017789D01*
X030222Y017888D02*
X026675Y017888D01*
X025228Y015819D02*
X022270Y015819D01*
X022270Y015721D02*
X025130Y015721D01*
X025031Y015622D02*
X022270Y015622D01*
X022270Y015524D02*
X024933Y015524D01*
X024834Y015425D02*
X022270Y015425D01*
X022270Y015327D02*
X024736Y015327D01*
X024637Y015228D02*
X022270Y015228D01*
X022270Y015130D02*
X024539Y015130D01*
X024440Y015031D02*
X022270Y015031D01*
X022270Y014933D02*
X024342Y014933D01*
X024243Y014834D02*
X022270Y014834D01*
X022270Y014736D02*
X024145Y014736D01*
X024046Y014637D02*
X022270Y014637D01*
X022270Y014539D02*
X023948Y014539D01*
X023849Y014440D02*
X022270Y014440D01*
X022270Y014342D02*
X023751Y014342D01*
X023652Y014243D02*
X022270Y014243D01*
X022270Y014145D02*
X023405Y014145D01*
X023260Y014046D02*
X022270Y014046D01*
X022270Y013948D02*
X023206Y013948D01*
X023191Y013849D02*
X022270Y013849D01*
X022270Y013751D02*
X023207Y013751D01*
X023262Y013652D02*
X022270Y013652D01*
X022270Y013554D02*
X023410Y013554D01*
X023589Y013554D02*
X024410Y013554D01*
X024262Y013652D02*
X023737Y013652D01*
X023792Y013751D02*
X024207Y013751D01*
X024589Y013554D02*
X027507Y013554D01*
X027630Y013652D02*
X024737Y013652D01*
X024792Y013751D02*
X027753Y013751D01*
X027900Y013650D02*
X033100Y013650D01*
X032806Y013357D02*
X027805Y013357D01*
X027928Y013455D02*
X032707Y013455D01*
X032904Y013258D02*
X027682Y013258D01*
X027384Y013455D02*
X022270Y013455D01*
X022270Y013357D02*
X027261Y013357D01*
X027137Y013258D02*
X022270Y013258D01*
X022270Y013160D02*
X027014Y013160D01*
X026891Y013061D02*
X022270Y013061D01*
X022270Y012963D02*
X026768Y012963D01*
X026645Y012864D02*
X022270Y012864D01*
X022270Y012766D02*
X026522Y012766D01*
X026399Y012667D02*
X022270Y012667D01*
X022270Y012569D02*
X026276Y012569D01*
X026152Y012470D02*
X022270Y012470D01*
X022270Y012372D02*
X026029Y012372D01*
X025906Y012273D02*
X022912Y012273D01*
X022700Y012050D02*
X025900Y012050D01*
X027900Y013650D01*
X026820Y012569D02*
X032654Y012569D01*
X032654Y012470D02*
X026697Y012470D01*
X026574Y012372D02*
X032748Y012372D01*
X032582Y012273D02*
X026450Y012273D01*
X026327Y012175D02*
X032484Y012175D01*
X032385Y012076D02*
X026204Y012076D01*
X026081Y011978D02*
X032287Y011978D01*
X032188Y011879D02*
X025958Y011879D01*
X025899Y011879D02*
X022962Y011879D01*
X022854Y011781D02*
X032090Y011781D01*
X031991Y011682D02*
X019020Y011682D01*
X019020Y011584D02*
X031893Y011584D01*
X031794Y011485D02*
X019020Y011485D01*
X019020Y011387D02*
X031696Y011387D01*
X031597Y011288D02*
X019020Y011288D01*
X019020Y011190D02*
X031499Y011190D01*
X031400Y011091D02*
X019020Y011091D01*
X019020Y010993D02*
X031302Y010993D01*
X031203Y010894D02*
X019020Y010894D01*
X019020Y010796D02*
X031105Y010796D01*
X031006Y010697D02*
X018983Y010697D01*
X018901Y010599D02*
X030908Y010599D01*
X030809Y010500D02*
X018802Y010500D01*
X018704Y010402D02*
X030711Y010402D01*
X030612Y010303D02*
X018605Y010303D01*
X018507Y010205D02*
X030514Y010205D01*
X030415Y010106D02*
X017262Y010106D01*
X017305Y010205D02*
X018092Y010205D01*
X018014Y010303D02*
X017349Y010303D01*
X017392Y010402D02*
X017980Y010402D01*
X017980Y010500D02*
X017435Y010500D01*
X017479Y010599D02*
X018015Y010599D01*
X018094Y010697D02*
X017522Y010697D01*
X017565Y010796D02*
X018193Y010796D01*
X018291Y010894D02*
X017609Y010894D01*
X017652Y010993D02*
X018380Y010993D01*
X018380Y011091D02*
X017695Y011091D01*
X017739Y011190D02*
X018380Y011190D01*
X018380Y011288D02*
X017782Y011288D01*
X017825Y011387D02*
X018380Y011387D01*
X018380Y011485D02*
X017965Y011485D01*
X018064Y011584D02*
X018380Y011584D01*
X018380Y011682D02*
X018105Y011682D01*
X018108Y011781D02*
X018380Y011781D01*
X018380Y011879D02*
X018080Y011879D01*
X018008Y011978D02*
X018380Y011978D01*
X018380Y012076D02*
X012214Y012076D01*
X012029Y011781D02*
X012007Y011781D01*
X012026Y011682D02*
X012127Y011682D01*
X012046Y011584D02*
X012226Y011584D01*
X012272Y011485D02*
X012324Y011485D01*
X012355Y011387D02*
X012423Y011387D01*
X012388Y011288D02*
X012521Y011288D01*
X012620Y011190D02*
X012387Y011190D01*
X012346Y011091D02*
X012718Y011091D01*
X013100Y010950D02*
X011200Y012850D01*
X011200Y020250D01*
X010500Y020850D01*
X010390Y021138D02*
X007503Y021138D01*
X007564Y021040D02*
X010253Y021040D01*
X010204Y020941D02*
X007624Y020941D01*
X007685Y020843D02*
X010191Y020843D01*
X010210Y020744D02*
X007746Y020744D01*
X007806Y020646D02*
X010268Y020646D01*
X010426Y020547D02*
X007867Y020547D01*
X007928Y020449D02*
X010707Y020449D01*
X010592Y020547D02*
X010573Y020547D01*
X010580Y020350D02*
X010822Y020350D01*
X010734Y020252D02*
X010937Y020252D01*
X010419Y020350D02*
X007988Y020350D01*
X008049Y020252D02*
X010265Y020252D01*
X010209Y020153D02*
X008109Y020153D01*
X008170Y020055D02*
X010191Y020055D01*
X010205Y019956D02*
X008231Y019956D01*
X008291Y019858D02*
X010256Y019858D01*
X010397Y019759D02*
X008352Y019759D01*
X007636Y019267D02*
X003750Y019267D01*
X003750Y019365D02*
X007577Y019365D01*
X007518Y019464D02*
X003750Y019464D01*
X003750Y019562D02*
X007459Y019562D01*
X007400Y019661D02*
X003750Y019661D01*
X003750Y019759D02*
X007341Y019759D01*
X007282Y019858D02*
X003750Y019858D01*
X003750Y019956D02*
X007223Y019956D01*
X007164Y020055D02*
X003750Y020055D01*
X003750Y020153D02*
X007104Y020153D01*
X007045Y020252D02*
X003750Y020252D01*
X003750Y020350D02*
X006986Y020350D01*
X006927Y020449D02*
X003750Y020449D01*
X003750Y020547D02*
X006868Y020547D01*
X006809Y020646D02*
X003750Y020646D01*
X003750Y020744D02*
X006750Y020744D01*
X006691Y020843D02*
X003750Y020843D01*
X003750Y020941D02*
X006632Y020941D01*
X006573Y021040D02*
X003750Y021040D01*
X003750Y021138D02*
X006513Y021138D01*
X006454Y021237D02*
X003750Y021237D01*
X003750Y021335D02*
X006395Y021335D01*
X006336Y021434D02*
X003750Y021434D01*
X003750Y021532D02*
X006277Y021532D01*
X006218Y021631D02*
X003750Y021631D01*
X003750Y021729D02*
X006159Y021729D01*
X006100Y021828D02*
X003750Y021828D01*
X003750Y021926D02*
X006041Y021926D01*
X005982Y022025D02*
X003750Y022025D01*
X003750Y022123D02*
X005922Y022123D01*
X005863Y022222D02*
X003750Y022222D01*
X003750Y022320D02*
X005804Y022320D01*
X005745Y022419D02*
X003750Y022419D01*
X003750Y022517D02*
X005650Y022517D01*
X005398Y022616D02*
X003750Y022616D01*
X003750Y022714D02*
X005322Y022714D01*
X005291Y022789D02*
X005291Y022911D01*
X005332Y023010D02*
X003750Y023010D01*
X003750Y023108D02*
X005422Y023108D01*
X003750Y019168D02*
X007695Y019168D01*
X007755Y019070D02*
X003750Y019070D01*
X003750Y018971D02*
X007814Y018971D01*
X007873Y018873D02*
X003750Y018873D01*
X003750Y018774D02*
X007932Y018774D01*
X007991Y018676D02*
X003750Y018676D01*
X003750Y018577D02*
X007103Y018577D01*
X006922Y018479D02*
X003750Y018479D01*
X003750Y018380D02*
X006823Y018380D01*
X006736Y018282D02*
X003750Y018282D01*
X003750Y018183D02*
X006696Y018183D01*
X006655Y018085D02*
X003750Y018085D01*
X003750Y017986D02*
X006627Y017986D01*
X006627Y017888D02*
X003750Y017888D01*
X003750Y017789D02*
X006627Y017789D01*
X006635Y017691D02*
X003750Y017691D01*
X003750Y017592D02*
X006676Y017592D01*
X006716Y017494D02*
X003750Y017494D01*
X003750Y017395D02*
X006775Y017395D01*
X006874Y017297D02*
X003750Y017297D01*
X003750Y017198D02*
X006987Y017198D01*
X007224Y017100D02*
X003750Y017100D01*
X003750Y017001D02*
X010830Y017001D01*
X010830Y016903D02*
X003750Y016903D01*
X003750Y016804D02*
X010830Y016804D01*
X010830Y016706D02*
X003750Y016706D01*
X003750Y016607D02*
X010830Y016607D01*
X010830Y016509D02*
X003750Y016509D01*
X003750Y016410D02*
X010830Y016410D01*
X010830Y016312D02*
X003750Y016312D01*
X003750Y016213D02*
X010830Y016213D01*
X010830Y016115D02*
X003750Y016115D01*
X003750Y016016D02*
X010830Y016016D01*
X010830Y015918D02*
X003750Y015918D01*
X003750Y015819D02*
X010830Y015819D01*
X010830Y015721D02*
X003750Y015721D01*
X003750Y015622D02*
X010830Y015622D01*
X010830Y015524D02*
X003750Y015524D01*
X003750Y015425D02*
X010830Y015425D01*
X010830Y015327D02*
X004837Y015327D01*
X004874Y015311D02*
X004761Y015358D01*
X004638Y015358D01*
X004525Y015311D01*
X004438Y015225D01*
X004391Y015111D01*
X004391Y014989D01*
X004438Y014875D01*
X004525Y014789D01*
X004638Y014742D01*
X004761Y014742D01*
X004874Y014789D01*
X004961Y014875D01*
X004963Y014880D01*
X008529Y014880D01*
X009151Y014258D01*
X009038Y014258D01*
X008925Y014211D01*
X008864Y014150D01*
X008185Y014150D01*
X008124Y014211D01*
X008011Y014258D01*
X007888Y014258D01*
X007775Y014211D01*
X007688Y014125D01*
X007647Y014024D01*
X007620Y014051D01*
X007477Y014110D01*
X007322Y014110D01*
X007179Y014051D01*
X007069Y013941D01*
X007010Y013798D01*
X007010Y013102D01*
X007069Y012959D01*
X007179Y012849D01*
X007322Y012790D01*
X007477Y012790D01*
X007620Y012849D01*
X007730Y012959D01*
X007790Y013102D01*
X007790Y013683D01*
X007888Y013642D01*
X008011Y013642D01*
X008124Y013689D01*
X008185Y013750D01*
X008864Y013750D01*
X008925Y013689D01*
X009038Y013642D01*
X009161Y013642D01*
X009274Y013689D01*
X009361Y013775D01*
X009408Y013889D01*
X009408Y014001D01*
X009930Y013480D01*
X009930Y012913D01*
X009925Y012911D01*
X009838Y012825D01*
X009791Y012711D01*
X009791Y012589D01*
X009838Y012475D01*
X009925Y012389D01*
X010038Y012342D01*
X010161Y012342D01*
X010274Y012389D01*
X010361Y012475D01*
X010408Y012589D01*
X010408Y012711D01*
X010361Y012825D01*
X010274Y012911D01*
X010270Y012913D01*
X010270Y013620D01*
X008770Y015120D01*
X008670Y015220D01*
X004963Y015220D01*
X004961Y015225D01*
X004874Y015311D01*
X004957Y015228D02*
X010830Y015228D01*
X010830Y015130D02*
X008760Y015130D01*
X008859Y015031D02*
X010830Y015031D01*
X010830Y014933D02*
X008957Y014933D01*
X009056Y014834D02*
X010830Y014834D01*
X010830Y014736D02*
X009154Y014736D01*
X009253Y014637D02*
X010830Y014637D01*
X010830Y014539D02*
X009351Y014539D01*
X009450Y014440D02*
X010830Y014440D01*
X010830Y014342D02*
X009548Y014342D01*
X009647Y014243D02*
X010830Y014243D01*
X010830Y014145D02*
X009745Y014145D01*
X009844Y014046D02*
X010830Y014046D01*
X010830Y013948D02*
X009942Y013948D01*
X010041Y013849D02*
X010830Y013849D01*
X010830Y013751D02*
X010139Y013751D01*
X010238Y013652D02*
X010830Y013652D01*
X010830Y013554D02*
X010270Y013554D01*
X010270Y013455D02*
X010830Y013455D01*
X010830Y013357D02*
X010270Y013357D01*
X010270Y013258D02*
X010830Y013258D01*
X010830Y013160D02*
X010270Y013160D01*
X010270Y013061D02*
X010830Y013061D01*
X010830Y012963D02*
X010270Y012963D01*
X010321Y012864D02*
X010830Y012864D01*
X010830Y012766D02*
X010385Y012766D01*
X010408Y012667D02*
X010842Y012667D01*
X010941Y012569D02*
X010399Y012569D01*
X010355Y012470D02*
X011039Y012470D01*
X011138Y012372D02*
X010232Y012372D01*
X009967Y012372D02*
X009501Y012372D01*
X009508Y012389D02*
X009461Y012275D01*
X009374Y012189D01*
X009261Y012142D01*
X009138Y012142D01*
X009025Y012189D01*
X008964Y012250D01*
X005980Y012250D01*
X005961Y012242D01*
X005838Y012242D01*
X005725Y012289D01*
X005638Y012375D01*
X005591Y012489D01*
X005591Y012611D01*
X005638Y012725D01*
X005725Y012811D01*
X005838Y012858D01*
X005961Y012858D01*
X006074Y012811D01*
X006161Y012725D01*
X006192Y012650D01*
X008964Y012650D01*
X009025Y012711D01*
X009138Y012758D01*
X009261Y012758D01*
X009374Y012711D01*
X009461Y012625D01*
X009508Y012511D01*
X009508Y012389D01*
X009508Y012470D02*
X009844Y012470D01*
X009800Y012569D02*
X009484Y012569D01*
X009418Y012667D02*
X009791Y012667D01*
X009814Y012766D02*
X006120Y012766D01*
X006179Y012849D02*
X006322Y012790D01*
X006477Y012790D01*
X006620Y012849D01*
X006730Y012959D01*
X006790Y013102D01*
X006790Y013798D01*
X006730Y013941D01*
X006620Y014051D01*
X006477Y014110D01*
X006322Y014110D01*
X006179Y014051D01*
X006069Y013941D01*
X006010Y013798D01*
X006010Y013102D01*
X006069Y012959D01*
X006179Y012849D01*
X006164Y012864D02*
X003750Y012864D01*
X003750Y012766D02*
X005679Y012766D01*
X005615Y012667D02*
X003750Y012667D01*
X003750Y012569D02*
X005591Y012569D01*
X005599Y012470D02*
X003750Y012470D01*
X003750Y012372D02*
X005642Y012372D01*
X005763Y012273D02*
X003750Y012273D01*
X003750Y012175D02*
X009059Y012175D01*
X009340Y012175D02*
X011335Y012175D01*
X011236Y012273D02*
X009458Y012273D01*
X009461Y011958D02*
X009338Y011958D01*
X009225Y011911D01*
X009138Y011825D01*
X009091Y011711D01*
X009091Y011589D01*
X009138Y011475D01*
X009225Y011389D01*
X009338Y011342D01*
X009364Y011342D01*
X010130Y009810D01*
X010130Y006780D01*
X010229Y006680D01*
X012643Y004266D01*
X012643Y004002D01*
X012852Y003794D01*
X013147Y003794D01*
X013356Y004002D01*
X013356Y004298D01*
X013147Y004506D01*
X012884Y004506D01*
X010470Y006920D01*
X010470Y009822D01*
X010483Y009863D01*
X010470Y009890D01*
X010470Y009920D01*
X010439Y009951D01*
X009668Y011493D01*
X009708Y011589D01*
X009708Y011711D01*
X009661Y011825D01*
X009574Y011911D01*
X009461Y011958D01*
X009606Y011879D02*
X011630Y011879D01*
X011660Y011781D02*
X009679Y011781D01*
X009708Y011682D02*
X011680Y011682D01*
X011699Y011584D02*
X009706Y011584D01*
X009672Y011485D02*
X011719Y011485D01*
X011730Y011387D02*
X009721Y011387D01*
X009771Y011288D02*
X011811Y011288D01*
X011812Y011190D02*
X009820Y011190D01*
X009869Y011091D02*
X011853Y011091D01*
X011967Y010993D02*
X009918Y010993D01*
X009637Y010796D02*
X009611Y010796D01*
X009570Y010887D02*
X009570Y010920D01*
X009542Y010948D01*
X009525Y010984D01*
X009494Y010996D01*
X009008Y011482D01*
X009008Y011511D01*
X008961Y011625D01*
X008874Y011711D01*
X008761Y011758D01*
X008638Y011758D01*
X008525Y011711D01*
X008438Y011625D01*
X008391Y011511D01*
X008391Y011389D01*
X008438Y011275D01*
X008525Y011189D01*
X008638Y011142D01*
X008761Y011142D01*
X008836Y011173D01*
X009258Y010752D01*
X009730Y009713D01*
X009730Y006680D01*
X011648Y004761D01*
X011750Y004404D01*
X011643Y004298D01*
X011643Y004002D01*
X011852Y003794D01*
X012147Y003794D01*
X012356Y004002D01*
X012356Y004298D01*
X012147Y004506D01*
X012075Y004506D01*
X011970Y004874D01*
X011970Y004920D01*
X011951Y004939D01*
X011944Y004964D01*
X011903Y004987D01*
X010070Y006820D01*
X010070Y009719D01*
X010083Y009756D01*
X010070Y009787D01*
X010070Y009820D01*
X010042Y009848D01*
X009570Y010887D01*
X009570Y010894D02*
X009587Y010894D01*
X009538Y010993D02*
X009504Y010993D01*
X009489Y011091D02*
X009399Y011091D01*
X009440Y011190D02*
X009300Y011190D01*
X009390Y011288D02*
X009202Y011288D01*
X009230Y011387D02*
X009103Y011387D01*
X009134Y011485D02*
X009008Y011485D01*
X008978Y011584D02*
X009094Y011584D01*
X009091Y011682D02*
X008903Y011682D01*
X009120Y011781D02*
X007547Y011781D01*
X007566Y011773D02*
X007283Y011890D01*
X006976Y011890D01*
X006693Y011773D01*
X006477Y011556D01*
X006360Y011273D01*
X006360Y010967D01*
X006477Y010684D01*
X006693Y010467D01*
X006976Y010350D01*
X007283Y010350D01*
X007566Y010467D01*
X007782Y010684D01*
X007900Y010967D01*
X007900Y011273D01*
X007782Y011556D01*
X007566Y011773D01*
X007656Y011682D02*
X008496Y011682D01*
X008421Y011584D02*
X007755Y011584D01*
X007812Y011485D02*
X008391Y011485D01*
X008392Y011387D02*
X007853Y011387D01*
X007893Y011288D02*
X008433Y011288D01*
X008524Y011190D02*
X007900Y011190D01*
X007900Y011091D02*
X008918Y011091D01*
X009017Y010993D02*
X007900Y010993D01*
X007869Y010894D02*
X009115Y010894D01*
X009214Y010796D02*
X007829Y010796D01*
X007788Y010697D02*
X009282Y010697D01*
X009327Y010599D02*
X007697Y010599D01*
X007599Y010500D02*
X009372Y010500D01*
X009417Y010402D02*
X007407Y010402D01*
X006852Y010402D02*
X003750Y010402D01*
X003750Y010500D02*
X006661Y010500D01*
X006562Y010599D02*
X003750Y010599D01*
X003750Y010697D02*
X006471Y010697D01*
X006430Y010796D02*
X003750Y010796D01*
X003750Y010894D02*
X006390Y010894D01*
X006360Y010993D02*
X003750Y010993D01*
X003750Y011091D02*
X006360Y011091D01*
X006360Y011190D02*
X003750Y011190D01*
X003750Y011288D02*
X006366Y011288D01*
X006406Y011387D02*
X003750Y011387D01*
X003750Y011485D02*
X006447Y011485D01*
X006504Y011584D02*
X003750Y011584D01*
X003750Y011682D02*
X006603Y011682D01*
X006712Y011781D02*
X003750Y011781D01*
X003750Y011879D02*
X006950Y011879D01*
X007309Y011879D02*
X009193Y011879D01*
X009400Y011650D02*
X010300Y009850D01*
X010300Y006850D01*
X013000Y004150D01*
X013254Y003901D02*
X013745Y003901D01*
X013647Y003999D02*
X013352Y003999D01*
X013356Y004098D02*
X013643Y004098D01*
X013643Y004002D02*
X013852Y003794D01*
X014147Y003794D01*
X014356Y004002D01*
X014356Y004298D01*
X014147Y004506D01*
X013852Y004506D01*
X013643Y004298D01*
X013643Y004002D01*
X013643Y004196D02*
X013356Y004196D01*
X013356Y004295D02*
X013643Y004295D01*
X013739Y004393D02*
X013260Y004393D01*
X013162Y004492D02*
X013837Y004492D01*
X014162Y004492D02*
X014837Y004492D01*
X014852Y004506D02*
X014643Y004298D01*
X014643Y004002D01*
X014852Y003794D01*
X015147Y003794D01*
X015356Y004002D01*
X015356Y004298D01*
X015147Y004506D01*
X014852Y004506D01*
X014739Y004393D02*
X014260Y004393D01*
X014356Y004295D02*
X014643Y004295D01*
X014643Y004196D02*
X014356Y004196D01*
X014356Y004098D02*
X014643Y004098D01*
X014647Y003999D02*
X014352Y003999D01*
X014254Y003901D02*
X014745Y003901D01*
X014844Y003802D02*
X014155Y003802D01*
X014147Y003506D02*
X013852Y003506D01*
X013643Y003298D01*
X013643Y003002D01*
X013852Y002794D01*
X014147Y002794D01*
X014356Y003002D01*
X014356Y003298D01*
X014147Y003506D01*
X014245Y003408D02*
X014754Y003408D01*
X014852Y003506D02*
X014643Y003298D01*
X014643Y003002D01*
X014756Y002890D01*
X014452Y002890D01*
X014364Y002853D01*
X014016Y002506D01*
X013852Y002506D01*
X013643Y002298D01*
X013643Y002002D01*
X013852Y001794D01*
X014147Y001794D01*
X014356Y002002D01*
X014356Y002167D01*
X014599Y002410D01*
X014756Y002410D01*
X014643Y002298D01*
X014643Y002002D01*
X014852Y001794D01*
X015147Y001794D01*
X015356Y002002D01*
X015356Y002298D01*
X015243Y002410D01*
X017260Y002410D01*
X017260Y002146D01*
X017238Y002125D01*
X017191Y002011D01*
X017191Y001889D01*
X017238Y001775D01*
X017325Y001689D01*
X017438Y001642D01*
X017561Y001642D01*
X017674Y001689D01*
X017761Y001775D01*
X017808Y001889D01*
X017808Y002011D01*
X017761Y002125D01*
X017740Y002146D01*
X017740Y002906D01*
X017852Y002794D01*
X018147Y002794D01*
X018356Y003002D01*
X018356Y003298D01*
X018147Y003506D01*
X017852Y003506D01*
X017740Y003394D01*
X017740Y003906D01*
X017852Y003794D01*
X018147Y003794D01*
X018356Y004002D01*
X018356Y004298D01*
X018147Y004506D01*
X017852Y004506D01*
X017740Y004394D01*
X017740Y004698D01*
X017703Y004786D01*
X017635Y004853D01*
X017356Y005133D01*
X017356Y005298D01*
X017147Y005506D01*
X016852Y005506D01*
X016643Y005298D01*
X016643Y005002D01*
X016852Y004794D01*
X017016Y004794D01*
X017260Y004551D01*
X017260Y004394D01*
X017147Y004506D01*
X016852Y004506D01*
X016643Y004298D01*
X016643Y004002D01*
X016852Y003794D01*
X017147Y003794D01*
X017260Y003906D01*
X017260Y003394D01*
X017147Y003506D01*
X016852Y003506D01*
X016643Y003298D01*
X016643Y003002D01*
X016756Y002890D01*
X016243Y002890D01*
X016356Y003002D01*
X016356Y003298D01*
X016147Y003506D01*
X015852Y003506D01*
X015643Y003298D01*
X015643Y003002D01*
X015756Y002890D01*
X015243Y002890D01*
X015356Y003002D01*
X015356Y003298D01*
X015147Y003506D01*
X014852Y003506D01*
X014655Y003310D02*
X014344Y003310D01*
X014356Y003211D02*
X014643Y003211D01*
X014643Y003113D02*
X014356Y003113D01*
X014356Y003014D02*
X014643Y003014D01*
X014730Y002916D02*
X014269Y002916D01*
X014327Y002817D02*
X014170Y002817D01*
X014229Y002719D02*
X003750Y002719D01*
X003750Y002817D02*
X011829Y002817D01*
X011852Y002794D02*
X012147Y002794D01*
X012356Y003002D01*
X012356Y003298D01*
X012147Y003506D01*
X011852Y003506D01*
X011643Y003298D01*
X011643Y003002D01*
X011852Y002794D01*
X011730Y002916D02*
X003750Y002916D01*
X003750Y003014D02*
X011643Y003014D01*
X011643Y003113D02*
X003750Y003113D01*
X003750Y003211D02*
X011643Y003211D01*
X011655Y003310D02*
X003750Y003310D01*
X003750Y003408D02*
X011754Y003408D01*
X011844Y003802D02*
X003750Y003802D01*
X003750Y003704D02*
X017260Y003704D01*
X017260Y003802D02*
X017155Y003802D01*
X017254Y003901D02*
X017260Y003901D01*
X017260Y003605D02*
X003750Y003605D01*
X003750Y003507D02*
X017260Y003507D01*
X017260Y003408D02*
X017245Y003408D01*
X016754Y003408D02*
X016245Y003408D01*
X016344Y003310D02*
X016655Y003310D01*
X016643Y003211D02*
X016356Y003211D01*
X016356Y003113D02*
X016643Y003113D01*
X016643Y003014D02*
X016356Y003014D01*
X016269Y002916D02*
X016730Y002916D01*
X017260Y002325D02*
X015329Y002325D01*
X015356Y002226D02*
X017260Y002226D01*
X017241Y002128D02*
X015356Y002128D01*
X015356Y002029D02*
X017199Y002029D01*
X017191Y001931D02*
X015284Y001931D01*
X015185Y001832D02*
X017215Y001832D01*
X017280Y001734D02*
X005350Y001734D01*
X005344Y001832D02*
X011637Y001832D01*
X011643Y001822D02*
X011671Y001794D01*
X011705Y001774D01*
X011744Y001764D01*
X011971Y001764D01*
X011971Y002121D01*
X012028Y002121D01*
X012028Y001764D01*
X012256Y001764D01*
X012294Y001774D01*
X012328Y001794D01*
X012356Y001822D01*
X012376Y001856D01*
X012386Y001894D01*
X012386Y002121D01*
X012028Y002121D01*
X012028Y002179D01*
X011971Y002179D01*
X011971Y002536D01*
X011744Y002536D01*
X011705Y002526D01*
X011671Y002506D01*
X011643Y002478D01*
X011624Y002444D01*
X011613Y002406D01*
X011613Y002179D01*
X011971Y002179D01*
X011971Y002121D01*
X011613Y002121D01*
X011613Y001894D01*
X011624Y001856D01*
X011643Y001822D01*
X011613Y001931D02*
X005303Y001931D01*
X005263Y002029D02*
X011613Y002029D01*
X011613Y002226D02*
X005126Y002226D01*
X005222Y002128D02*
X011971Y002128D01*
X012028Y002128D02*
X012643Y002128D01*
X012643Y002226D02*
X012386Y002226D01*
X012386Y002179D02*
X012386Y002406D01*
X012376Y002444D01*
X012356Y002478D01*
X012328Y002506D01*
X012294Y002526D01*
X012256Y002536D01*
X012028Y002536D01*
X012028Y002179D01*
X012386Y002179D01*
X012386Y002325D02*
X012670Y002325D01*
X012643Y002298D02*
X012643Y002002D01*
X012852Y001794D01*
X013147Y001794D01*
X013356Y002002D01*
X013356Y002298D01*
X013147Y002506D01*
X012852Y002506D01*
X012643Y002298D01*
X012769Y002423D02*
X012381Y002423D01*
X012301Y002522D02*
X014032Y002522D01*
X014130Y002620D02*
X003750Y002620D01*
X003750Y002522D02*
X011698Y002522D01*
X011618Y002423D02*
X004854Y002423D01*
X005027Y002325D02*
X011613Y002325D01*
X011971Y002325D02*
X012028Y002325D01*
X012028Y002423D02*
X011971Y002423D01*
X011971Y002522D02*
X012028Y002522D01*
X012028Y002226D02*
X011971Y002226D01*
X011971Y002029D02*
X012028Y002029D01*
X012028Y001931D02*
X011971Y001931D01*
X011971Y001832D02*
X012028Y001832D01*
X012362Y001832D02*
X012814Y001832D01*
X012715Y001931D02*
X012386Y001931D01*
X012386Y002029D02*
X012643Y002029D01*
X013185Y001832D02*
X013814Y001832D01*
X013715Y001931D02*
X013284Y001931D01*
X013356Y002029D02*
X013643Y002029D01*
X013643Y002128D02*
X013356Y002128D01*
X013356Y002226D02*
X013643Y002226D01*
X013670Y002325D02*
X013329Y002325D01*
X013230Y002423D02*
X013769Y002423D01*
X013829Y002817D02*
X013170Y002817D01*
X013147Y002794D02*
X013356Y003002D01*
X013356Y003298D01*
X013147Y003506D01*
X012852Y003506D01*
X012643Y003298D01*
X012643Y003002D01*
X012852Y002794D01*
X013147Y002794D01*
X013269Y002916D02*
X013730Y002916D01*
X013643Y003014D02*
X013356Y003014D01*
X013356Y003113D02*
X013643Y003113D01*
X013643Y003211D02*
X013356Y003211D01*
X013344Y003310D02*
X013655Y003310D01*
X013754Y003408D02*
X013245Y003408D01*
X013155Y003802D02*
X013844Y003802D01*
X012844Y003802D02*
X012155Y003802D01*
X012254Y003901D02*
X012745Y003901D01*
X012647Y003999D02*
X012352Y003999D01*
X012356Y004098D02*
X012643Y004098D01*
X012643Y004196D02*
X012356Y004196D01*
X012356Y004295D02*
X012615Y004295D01*
X012516Y004393D02*
X012260Y004393D01*
X012162Y004492D02*
X012418Y004492D01*
X012319Y004590D02*
X012051Y004590D01*
X012022Y004689D02*
X012221Y004689D01*
X012122Y004787D02*
X011994Y004787D01*
X011970Y004886D02*
X012024Y004886D01*
X011925Y004984D02*
X011908Y004984D01*
X011827Y005083D02*
X011807Y005083D01*
X011728Y005181D02*
X011709Y005181D01*
X011630Y005280D02*
X011610Y005280D01*
X011531Y005378D02*
X011512Y005378D01*
X011433Y005477D02*
X011413Y005477D01*
X011334Y005575D02*
X011315Y005575D01*
X011236Y005674D02*
X011216Y005674D01*
X011137Y005772D02*
X011118Y005772D01*
X011039Y005871D02*
X011019Y005871D01*
X010940Y005969D02*
X010921Y005969D01*
X010842Y006068D02*
X010822Y006068D01*
X010743Y006166D02*
X010724Y006166D01*
X010645Y006265D02*
X010625Y006265D01*
X010546Y006363D02*
X010527Y006363D01*
X010448Y006462D02*
X010428Y006462D01*
X010349Y006560D02*
X010330Y006560D01*
X010251Y006659D02*
X010231Y006659D01*
X010152Y006757D02*
X010133Y006757D01*
X010130Y006856D02*
X010070Y006856D01*
X010070Y006954D02*
X010130Y006954D01*
X010130Y007053D02*
X010070Y007053D01*
X010070Y007151D02*
X010130Y007151D01*
X010130Y007250D02*
X010070Y007250D01*
X010070Y007348D02*
X010130Y007348D01*
X010130Y007447D02*
X010070Y007447D01*
X010070Y007545D02*
X010130Y007545D01*
X010130Y007644D02*
X010070Y007644D01*
X010070Y007742D02*
X010130Y007742D01*
X010130Y007841D02*
X010070Y007841D01*
X010070Y007939D02*
X010130Y007939D01*
X010130Y008038D02*
X010070Y008038D01*
X010070Y008136D02*
X010130Y008136D01*
X010130Y008235D02*
X010070Y008235D01*
X010070Y008333D02*
X010130Y008333D01*
X010130Y008432D02*
X010070Y008432D01*
X010070Y008530D02*
X010130Y008530D01*
X010130Y008629D02*
X010070Y008629D01*
X010070Y008727D02*
X010130Y008727D01*
X010130Y008826D02*
X010070Y008826D01*
X010070Y008924D02*
X010130Y008924D01*
X010130Y009023D02*
X010070Y009023D01*
X010070Y009121D02*
X010130Y009121D01*
X010130Y009220D02*
X010070Y009220D01*
X010070Y009318D02*
X010130Y009318D01*
X010130Y009417D02*
X010070Y009417D01*
X010070Y009515D02*
X010130Y009515D01*
X010130Y009614D02*
X010070Y009614D01*
X010070Y009712D02*
X010130Y009712D01*
X010129Y009811D02*
X010070Y009811D01*
X010080Y009909D02*
X010014Y009909D01*
X010031Y010008D02*
X009969Y010008D01*
X009981Y010106D02*
X009924Y010106D01*
X009932Y010205D02*
X009880Y010205D01*
X009883Y010303D02*
X009835Y010303D01*
X009834Y010402D02*
X009790Y010402D01*
X009784Y010500D02*
X009745Y010500D01*
X009735Y010599D02*
X009701Y010599D01*
X009686Y010697D02*
X009656Y010697D01*
X009400Y010850D02*
X009900Y009750D01*
X009900Y006750D01*
X011800Y004850D01*
X012000Y004150D01*
X011745Y003901D02*
X003750Y003901D01*
X003750Y003999D02*
X011647Y003999D01*
X011643Y004098D02*
X010395Y004098D01*
X010377Y004090D02*
X010520Y004149D01*
X010630Y004259D01*
X010690Y004402D01*
X010690Y005098D01*
X010630Y005241D01*
X010520Y005351D01*
X010377Y005410D01*
X010222Y005410D01*
X010079Y005351D01*
X009969Y005241D01*
X009910Y005098D01*
X009910Y004402D01*
X009969Y004259D01*
X010079Y004149D01*
X010222Y004090D01*
X010377Y004090D01*
X010204Y004098D02*
X009474Y004098D01*
X009461Y004091D02*
X009520Y004121D01*
X009573Y004160D01*
X009620Y004206D01*
X009659Y004260D01*
X009689Y004319D01*
X009709Y004382D01*
X009720Y004447D01*
X009720Y004710D01*
X009340Y004710D01*
X009340Y004790D01*
X009720Y004790D01*
X009720Y005053D01*
X009709Y005118D01*
X009689Y005181D01*
X009944Y005181D01*
X009910Y005083D02*
X009715Y005083D01*
X009720Y004984D02*
X009910Y004984D01*
X009910Y004886D02*
X009720Y004886D01*
X009720Y004689D02*
X009910Y004689D01*
X009910Y004787D02*
X009340Y004787D01*
X009340Y004790D02*
X009260Y004790D01*
X009260Y005439D01*
X009201Y005430D01*
X009138Y005409D01*
X009079Y005379D01*
X009026Y005340D01*
X008979Y005294D01*
X008940Y005240D01*
X008910Y005181D01*
X003750Y005181D01*
X003750Y005083D02*
X008884Y005083D01*
X008880Y005053D02*
X008880Y004790D01*
X009260Y004790D01*
X009260Y004710D01*
X009340Y004710D01*
X009340Y004061D01*
X009398Y004070D01*
X009461Y004091D01*
X009340Y004098D02*
X009260Y004098D01*
X009260Y004061D02*
X009260Y004710D01*
X008880Y004710D01*
X008880Y004447D01*
X008890Y004382D01*
X008910Y004319D01*
X008940Y004260D01*
X008979Y004206D01*
X009026Y004160D01*
X009079Y004121D01*
X009138Y004091D01*
X009201Y004070D01*
X009260Y004061D01*
X009260Y004196D02*
X009340Y004196D01*
X009340Y004295D02*
X009260Y004295D01*
X009260Y004393D02*
X009340Y004393D01*
X009340Y004492D02*
X009260Y004492D01*
X009260Y004590D02*
X009340Y004590D01*
X009340Y004689D02*
X009260Y004689D01*
X009260Y004787D02*
X003750Y004787D01*
X003750Y004689D02*
X008880Y004689D01*
X008880Y004590D02*
X003750Y004590D01*
X003750Y004492D02*
X008880Y004492D01*
X008888Y004393D02*
X003750Y004393D01*
X003750Y004295D02*
X008923Y004295D01*
X008990Y004196D02*
X003750Y004196D01*
X003750Y004098D02*
X009125Y004098D01*
X009610Y004196D02*
X010032Y004196D01*
X009954Y004295D02*
X009676Y004295D01*
X009711Y004393D02*
X009913Y004393D01*
X009910Y004492D02*
X009720Y004492D01*
X009720Y004590D02*
X009910Y004590D01*
X009340Y004790D02*
X009340Y005439D01*
X009398Y005430D01*
X009461Y005409D01*
X009520Y005379D01*
X009573Y005340D01*
X009620Y005294D01*
X009659Y005240D01*
X009689Y005181D01*
X009630Y005280D02*
X010008Y005280D01*
X010145Y005378D02*
X009521Y005378D01*
X009340Y005378D02*
X009260Y005378D01*
X009260Y005280D02*
X009340Y005280D01*
X009340Y005181D02*
X009260Y005181D01*
X009260Y005083D02*
X009340Y005083D01*
X009340Y004984D02*
X009260Y004984D01*
X009260Y004886D02*
X009340Y004886D01*
X008880Y004886D02*
X003750Y004886D01*
X003750Y004984D02*
X008880Y004984D01*
X008880Y005053D02*
X008890Y005118D01*
X008910Y005181D01*
X008969Y005280D02*
X003750Y005280D01*
X003750Y005378D02*
X009078Y005378D01*
X010454Y005378D02*
X011031Y005378D01*
X010933Y005477D02*
X003750Y005477D01*
X003750Y005575D02*
X010834Y005575D01*
X010736Y005674D02*
X007436Y005674D01*
X007566Y005727D02*
X007283Y005610D01*
X006976Y005610D01*
X006693Y005727D01*
X006477Y005944D01*
X006360Y006227D01*
X006360Y006533D01*
X006477Y006816D01*
X006693Y007033D01*
X006976Y007150D01*
X007283Y007150D01*
X007566Y007033D01*
X007782Y006816D01*
X007900Y006533D01*
X007900Y006227D01*
X007782Y005944D01*
X007566Y005727D01*
X007610Y005772D02*
X010637Y005772D01*
X010539Y005871D02*
X007709Y005871D01*
X007793Y005969D02*
X010440Y005969D01*
X010342Y006068D02*
X007834Y006068D01*
X007874Y006166D02*
X010243Y006166D01*
X010145Y006265D02*
X007900Y006265D01*
X007900Y006363D02*
X010046Y006363D01*
X009948Y006462D02*
X007900Y006462D01*
X007888Y006560D02*
X009849Y006560D01*
X009751Y006659D02*
X007848Y006659D01*
X007807Y006757D02*
X009730Y006757D01*
X009730Y006856D02*
X007743Y006856D01*
X007644Y006954D02*
X009730Y006954D01*
X009730Y007053D02*
X007518Y007053D01*
X006741Y007053D02*
X003750Y007053D01*
X003750Y007151D02*
X009730Y007151D01*
X009730Y007250D02*
X003750Y007250D01*
X003750Y007348D02*
X009730Y007348D01*
X009730Y007447D02*
X003750Y007447D01*
X003750Y007545D02*
X009730Y007545D01*
X009730Y007644D02*
X003750Y007644D01*
X003750Y007742D02*
X009730Y007742D01*
X009730Y007841D02*
X009148Y007841D01*
X009069Y007808D02*
X009234Y007876D01*
X009361Y008003D01*
X009430Y008168D01*
X009430Y008347D01*
X009361Y008513D01*
X009234Y008639D01*
X009069Y008708D01*
X008890Y008708D01*
X008725Y008639D01*
X008604Y008518D01*
X008566Y008571D01*
X008512Y008624D01*
X008451Y008668D01*
X008384Y008703D01*
X008312Y008726D01*
X008240Y008738D01*
X008240Y008298D01*
X008160Y008298D01*
X008160Y008738D01*
X008087Y008726D01*
X008015Y008703D01*
X007948Y008668D01*
X007887Y008624D01*
X007833Y008571D01*
X007789Y008509D01*
X007755Y008442D01*
X007731Y008370D01*
X007720Y008298D01*
X008160Y008298D01*
X008160Y008218D01*
X008240Y008218D01*
X008240Y007778D01*
X008312Y007790D01*
X008384Y007813D01*
X008451Y007847D01*
X008512Y007892D01*
X008566Y007945D01*
X008604Y007997D01*
X008725Y007876D01*
X008890Y007808D01*
X009069Y007808D01*
X008811Y007841D02*
X008438Y007841D01*
X008560Y007939D02*
X008662Y007939D01*
X009297Y007939D02*
X009730Y007939D01*
X009730Y008038D02*
X009375Y008038D01*
X009416Y008136D02*
X009730Y008136D01*
X009730Y008235D02*
X009430Y008235D01*
X009430Y008333D02*
X009730Y008333D01*
X009730Y008432D02*
X009395Y008432D01*
X009344Y008530D02*
X009730Y008530D01*
X009730Y008629D02*
X009245Y008629D01*
X009150Y008826D02*
X009730Y008826D01*
X009730Y008924D02*
X009298Y008924D01*
X009361Y008987D02*
X009430Y009153D01*
X009430Y009332D01*
X009361Y009497D01*
X009234Y009624D01*
X009069Y009692D01*
X008890Y009692D01*
X008725Y009624D01*
X008598Y009497D01*
X008590Y009476D01*
X008581Y009497D01*
X008454Y009624D01*
X008289Y009692D01*
X008110Y009692D01*
X007945Y009624D01*
X007818Y009497D01*
X007750Y009332D01*
X007750Y009153D01*
X007818Y008987D01*
X007945Y008861D01*
X008110Y008792D01*
X008289Y008792D01*
X008454Y008861D01*
X008581Y008987D01*
X008590Y009008D01*
X008598Y008987D01*
X008725Y008861D01*
X008890Y008792D01*
X009069Y008792D01*
X009234Y008861D01*
X009361Y008987D01*
X009376Y009023D02*
X009730Y009023D01*
X009730Y009121D02*
X009416Y009121D01*
X009430Y009220D02*
X009730Y009220D01*
X009730Y009318D02*
X009430Y009318D01*
X009394Y009417D02*
X009730Y009417D01*
X009730Y009515D02*
X009343Y009515D01*
X009245Y009614D02*
X009730Y009614D01*
X009730Y009712D02*
X003750Y009712D01*
X003750Y009614D02*
X007935Y009614D01*
X007836Y009515D02*
X003750Y009515D01*
X003750Y009417D02*
X007785Y009417D01*
X007750Y009318D02*
X003750Y009318D01*
X003750Y009220D02*
X007750Y009220D01*
X007763Y009121D02*
X003750Y009121D01*
X003750Y009023D02*
X007803Y009023D01*
X007881Y008924D02*
X003750Y008924D01*
X003750Y008826D02*
X008029Y008826D01*
X008093Y008727D02*
X003750Y008727D01*
X003750Y008629D02*
X007893Y008629D01*
X007804Y008530D02*
X003750Y008530D01*
X003750Y008432D02*
X007751Y008432D01*
X007725Y008333D02*
X003750Y008333D01*
X003750Y008235D02*
X008160Y008235D01*
X008160Y008218D02*
X007720Y008218D01*
X007731Y008145D01*
X007755Y008074D01*
X007789Y008006D01*
X007833Y007945D01*
X007887Y007892D01*
X007948Y007847D01*
X008015Y007813D01*
X008087Y007790D01*
X008160Y007778D01*
X008160Y008218D01*
X008160Y008136D02*
X008240Y008136D01*
X008240Y008038D02*
X008160Y008038D01*
X008160Y007939D02*
X008240Y007939D01*
X008240Y007841D02*
X008160Y007841D01*
X007961Y007841D02*
X003750Y007841D01*
X003750Y007939D02*
X007840Y007939D01*
X007773Y008038D02*
X003750Y008038D01*
X003750Y008136D02*
X007734Y008136D01*
X008160Y008333D02*
X008240Y008333D01*
X008240Y008432D02*
X008160Y008432D01*
X008160Y008530D02*
X008240Y008530D01*
X008240Y008629D02*
X008160Y008629D01*
X008160Y008727D02*
X008240Y008727D01*
X008306Y008727D02*
X009730Y008727D01*
X010470Y008727D02*
X012522Y008727D01*
X012453Y008629D02*
X010470Y008629D01*
X010470Y008530D02*
X012383Y008530D01*
X012314Y008432D02*
X010470Y008432D01*
X010470Y008333D02*
X012244Y008333D01*
X012175Y008235D02*
X010470Y008235D01*
X010470Y008136D02*
X012105Y008136D01*
X012036Y008038D02*
X010470Y008038D01*
X010470Y007939D02*
X011966Y007939D01*
X011796Y007841D02*
X010470Y007841D01*
X010470Y007742D02*
X011656Y007742D01*
X011605Y007644D02*
X010470Y007644D01*
X010470Y007545D02*
X011591Y007545D01*
X011609Y007447D02*
X010470Y007447D01*
X010470Y007348D02*
X011666Y007348D01*
X011820Y007250D02*
X010470Y007250D01*
X010470Y007151D02*
X011994Y007151D01*
X012071Y007053D02*
X010470Y007053D01*
X010470Y006954D02*
X012148Y006954D01*
X012224Y006856D02*
X010534Y006856D01*
X010633Y006757D02*
X012301Y006757D01*
X012378Y006659D02*
X010731Y006659D01*
X010830Y006560D02*
X012454Y006560D01*
X012531Y006462D02*
X010928Y006462D01*
X011027Y006363D02*
X012607Y006363D01*
X012684Y006265D02*
X011125Y006265D01*
X011224Y006166D02*
X012761Y006166D01*
X012837Y006068D02*
X011322Y006068D01*
X011421Y005969D02*
X012914Y005969D01*
X012990Y005871D02*
X011519Y005871D01*
X011618Y005772D02*
X013067Y005772D01*
X013136Y005674D02*
X011716Y005674D01*
X011815Y005575D02*
X013329Y005575D01*
X013351Y005575D02*
X032684Y005575D01*
X032686Y005477D02*
X027357Y005477D01*
X027356Y005478D02*
X027328Y005506D01*
X027294Y005526D01*
X027256Y005536D01*
X027028Y005536D01*
X027028Y005179D01*
X026971Y005179D01*
X026971Y005536D01*
X026744Y005536D01*
X026705Y005526D01*
X026671Y005506D01*
X026643Y005478D01*
X026624Y005444D01*
X026613Y005406D01*
X026613Y005179D01*
X026971Y005179D01*
X026971Y005121D01*
X027028Y005121D01*
X027028Y004764D01*
X027256Y004764D01*
X027294Y004774D01*
X027328Y004794D01*
X027356Y004822D01*
X027376Y004856D01*
X027386Y004894D01*
X027386Y005121D01*
X027028Y005121D01*
X027028Y005179D01*
X027386Y005179D01*
X027386Y005406D01*
X027376Y005444D01*
X027356Y005478D01*
X027386Y005378D02*
X032784Y005378D01*
X032883Y005280D02*
X027386Y005280D01*
X027386Y005181D02*
X036750Y005181D01*
X036750Y005083D02*
X033297Y005083D01*
X033284Y005095D02*
X033148Y005095D01*
X033148Y004698D01*
X033545Y004698D01*
X033545Y004834D01*
X033284Y005095D01*
X033148Y005083D02*
X033051Y005083D01*
X033051Y005095D02*
X033051Y004698D01*
X033051Y004602D01*
X032654Y004602D01*
X032654Y004466D01*
X032915Y004205D01*
X033051Y004205D01*
X033051Y004602D01*
X033148Y004602D01*
X033148Y004698D01*
X033051Y004698D01*
X032654Y004698D01*
X032654Y004834D01*
X032915Y005095D01*
X033051Y005095D01*
X033051Y004984D02*
X033148Y004984D01*
X033148Y004886D02*
X033051Y004886D01*
X033051Y004787D02*
X033148Y004787D01*
X033148Y004689D02*
X033684Y004689D01*
X033684Y004787D02*
X033545Y004787D01*
X033494Y004886D02*
X033748Y004886D01*
X033684Y004822D02*
X033684Y004478D01*
X033928Y004235D01*
X034272Y004235D01*
X034515Y004478D01*
X034515Y004822D01*
X034272Y005065D01*
X033928Y005065D01*
X033684Y004822D01*
X033846Y004984D02*
X033395Y004984D01*
X033316Y005280D02*
X033883Y005280D01*
X033928Y005235D02*
X033684Y005478D01*
X033684Y005822D01*
X033928Y006065D01*
X034272Y006065D01*
X034515Y005822D01*
X034515Y005478D01*
X034272Y005235D01*
X033928Y005235D01*
X033784Y005378D02*
X033415Y005378D01*
X033513Y005477D02*
X033686Y005477D01*
X033684Y005575D02*
X033515Y005575D01*
X033515Y005674D02*
X033684Y005674D01*
X033684Y005772D02*
X033515Y005772D01*
X033466Y005871D02*
X033733Y005871D01*
X033831Y005969D02*
X033368Y005969D01*
X033272Y006235D02*
X032928Y006235D01*
X032684Y006478D01*
X032684Y006822D01*
X032842Y006980D01*
X032070Y006980D01*
X031270Y006180D01*
X031170Y006080D01*
X015263Y006080D01*
X015261Y006075D01*
X015174Y005989D01*
X015061Y005942D01*
X014938Y005942D01*
X014825Y005989D01*
X014738Y006075D01*
X014691Y006189D01*
X014691Y006311D01*
X014738Y006425D01*
X014825Y006511D01*
X014938Y006558D01*
X015061Y006558D01*
X015174Y006511D01*
X015261Y006425D01*
X015263Y006420D01*
X031029Y006420D01*
X031929Y007320D01*
X032842Y007320D01*
X032684Y007478D01*
X032684Y007480D01*
X031970Y007480D01*
X031070Y006580D01*
X030970Y006480D01*
X015840Y006480D01*
X015813Y006466D01*
X015772Y006480D01*
X015729Y006480D01*
X015708Y006501D01*
X015692Y006507D01*
X015674Y006489D01*
X015561Y006442D01*
X015438Y006442D01*
X015325Y006489D01*
X015238Y006575D01*
X015191Y006689D01*
X015191Y006811D01*
X015238Y006925D01*
X015325Y007011D01*
X015438Y007058D01*
X015561Y007058D01*
X015674Y007011D01*
X015761Y006925D01*
X015800Y006829D01*
X015827Y006820D01*
X030829Y006820D01*
X031829Y007820D01*
X032684Y007820D01*
X032684Y007822D01*
X032842Y007980D01*
X031870Y007980D01*
X030870Y006980D01*
X030770Y006880D01*
X016131Y006880D01*
X016095Y006866D01*
X016063Y006880D01*
X016029Y006880D01*
X016002Y006907D01*
X015163Y007280D01*
X014363Y007280D01*
X014361Y007275D01*
X014274Y007189D01*
X014161Y007142D01*
X014038Y007142D01*
X013925Y007189D01*
X013838Y007275D01*
X013791Y007389D01*
X013791Y007511D01*
X013838Y007625D01*
X013925Y007711D01*
X014038Y007758D01*
X014161Y007758D01*
X014274Y007711D01*
X014361Y007625D01*
X014363Y007620D01*
X015168Y007620D01*
X015204Y007634D01*
X015236Y007620D01*
X015270Y007620D01*
X015297Y007593D01*
X016136Y007220D01*
X030629Y007220D01*
X031729Y008320D01*
X032842Y008320D01*
X032684Y008478D01*
X032684Y008480D01*
X031770Y008480D01*
X030670Y007380D01*
X030570Y007280D01*
X016320Y007280D01*
X016272Y007268D01*
X016252Y007280D01*
X016229Y007280D01*
X016194Y007315D01*
X015252Y007880D01*
X014763Y007880D01*
X014761Y007875D01*
X014674Y007789D01*
X014561Y007742D01*
X015482Y007742D01*
X015318Y007841D02*
X014726Y007841D01*
X014561Y007742D02*
X014438Y007742D01*
X014200Y007742D01*
X014273Y007841D02*
X012313Y007841D01*
X012382Y007939D02*
X014212Y007939D01*
X014191Y007989D02*
X014238Y007875D01*
X014325Y007789D01*
X014438Y007742D01*
X014342Y007644D02*
X015647Y007644D01*
X015811Y007545D02*
X015404Y007545D01*
X015200Y007450D02*
X014100Y007450D01*
X013791Y007447D02*
X012195Y007447D01*
X012208Y007545D02*
X013805Y007545D01*
X013857Y007644D02*
X012194Y007644D01*
X012243Y007742D02*
X013999Y007742D01*
X014191Y007989D02*
X014191Y008111D01*
X014238Y008225D01*
X014325Y008311D01*
X014438Y008358D01*
X014561Y008358D01*
X014674Y008311D01*
X014761Y008225D01*
X014763Y008220D01*
X015279Y008220D01*
X015327Y008232D01*
X015347Y008220D01*
X015370Y008220D01*
X015405Y008185D01*
X016347Y007620D01*
X030429Y007620D01*
X031629Y008820D01*
X032684Y008820D01*
X032684Y008822D01*
X032842Y008980D01*
X031570Y008980D01*
X030370Y007780D01*
X030270Y007680D01*
X019840Y007680D01*
X019813Y007666D01*
X019772Y007680D01*
X019729Y007680D01*
X019708Y007701D01*
X019692Y007707D01*
X019674Y007689D01*
X019561Y007642D01*
X019438Y007642D01*
X019325Y007689D01*
X019238Y007775D01*
X019191Y007889D01*
X019191Y008011D01*
X019238Y008125D01*
X019325Y008211D01*
X019438Y008258D01*
X019561Y008258D01*
X019674Y008211D01*
X019761Y008125D01*
X019800Y008029D01*
X019827Y008020D01*
X030129Y008020D01*
X031429Y009320D01*
X032842Y009320D01*
X032684Y009478D01*
X032684Y009822D01*
X032928Y010065D01*
X033272Y010065D01*
X033430Y009907D01*
X033430Y010393D01*
X033272Y010235D01*
X032928Y010235D01*
X032684Y010478D01*
X032684Y010480D01*
X032470Y010480D01*
X030070Y008080D01*
X020136Y008080D01*
X020106Y008066D01*
X020069Y008080D01*
X020029Y008080D01*
X020005Y008104D01*
X018684Y008599D01*
X018674Y008589D01*
X018561Y008542D01*
X018438Y008542D01*
X018325Y008589D01*
X018238Y008675D01*
X018191Y008789D01*
X018191Y008911D01*
X018238Y009025D01*
X018325Y009111D01*
X018438Y009158D01*
X018561Y009158D01*
X018674Y009111D01*
X018761Y009025D01*
X018805Y008917D01*
X020130Y008420D01*
X029929Y008420D01*
X032230Y010720D01*
X032329Y010820D01*
X032684Y010820D01*
X032684Y010822D01*
X032928Y011065D01*
X033272Y011065D01*
X033430Y010907D01*
X033430Y011220D01*
X033686Y011477D01*
X033684Y011478D01*
X033684Y011822D01*
X033928Y012065D01*
X034272Y012065D01*
X034515Y011822D01*
X034515Y011478D01*
X034272Y011235D01*
X033928Y011235D01*
X033926Y011236D01*
X033770Y011080D01*
X033770Y010907D01*
X033928Y011065D01*
X034272Y011065D01*
X034515Y010822D01*
X034515Y010478D01*
X034272Y010235D01*
X033928Y010235D01*
X033770Y010393D01*
X033770Y009950D01*
X033915Y010095D01*
X034051Y010095D01*
X034051Y009698D01*
X034148Y009698D01*
X034545Y009698D01*
X034545Y009834D01*
X034284Y010095D01*
X034148Y010095D01*
X034148Y009698D01*
X034148Y009602D01*
X034545Y009602D01*
X034545Y009466D01*
X034284Y009205D01*
X034148Y009205D01*
X034148Y009602D01*
X034051Y009602D01*
X034051Y009205D01*
X033915Y009205D01*
X033770Y009350D01*
X033770Y009280D01*
X033570Y009080D01*
X033570Y009080D01*
X033470Y008980D01*
X033357Y008980D01*
X033515Y008822D01*
X033515Y008478D01*
X033357Y008320D01*
X033529Y008320D01*
X033686Y008477D01*
X033684Y008478D01*
X033684Y008822D01*
X033928Y009065D01*
X034272Y009065D01*
X034515Y008822D01*
X034515Y008478D01*
X034272Y008235D01*
X033928Y008235D01*
X033926Y008236D01*
X033770Y008080D01*
X033670Y007980D01*
X033357Y007980D01*
X033515Y007822D01*
X033515Y007478D01*
X033357Y007320D01*
X033670Y007320D01*
X033770Y007220D01*
X033770Y007080D01*
X033670Y006980D01*
X033357Y006980D01*
X033515Y006822D01*
X033515Y006478D01*
X033272Y006235D01*
X033301Y006265D02*
X033898Y006265D01*
X033928Y006235D02*
X034272Y006235D01*
X034515Y006478D01*
X034515Y006822D01*
X034272Y007065D01*
X033928Y007065D01*
X033684Y006822D01*
X033684Y006478D01*
X033928Y006235D01*
X033799Y006363D02*
X033400Y006363D01*
X033498Y006462D02*
X033701Y006462D01*
X033684Y006560D02*
X033515Y006560D01*
X033515Y006659D02*
X033684Y006659D01*
X033684Y006757D02*
X033515Y006757D01*
X033481Y006856D02*
X033718Y006856D01*
X033816Y006954D02*
X033383Y006954D01*
X033600Y007150D02*
X032000Y007150D01*
X031100Y006250D01*
X015000Y006250D01*
X015224Y006462D02*
X015391Y006462D01*
X015254Y006560D02*
X012885Y006560D01*
X012962Y006462D02*
X014775Y006462D01*
X014713Y006363D02*
X013038Y006363D01*
X013115Y006265D02*
X014691Y006265D01*
X014701Y006166D02*
X013191Y006166D01*
X013268Y006068D02*
X014746Y006068D01*
X014873Y005969D02*
X013345Y005969D01*
X013300Y005750D02*
X011900Y007550D01*
X013100Y009250D01*
X016700Y009250D01*
X017800Y011750D01*
X017591Y011978D02*
X017408Y011978D01*
X017480Y011879D02*
X017519Y011879D01*
X017535Y011584D02*
X017464Y011584D01*
X017497Y011485D02*
X017365Y011485D01*
X017454Y011387D02*
X017197Y011387D01*
X017144Y011288D02*
X017411Y011288D01*
X017367Y011190D02*
X017091Y011190D01*
X017038Y011091D02*
X017324Y011091D01*
X017281Y010993D02*
X016985Y010993D01*
X016932Y010894D02*
X017237Y010894D01*
X017194Y010796D02*
X016879Y010796D01*
X016826Y010697D02*
X017151Y010697D01*
X017107Y010599D02*
X016773Y010599D01*
X016788Y010500D02*
X017064Y010500D01*
X017020Y010402D02*
X016788Y010402D01*
X016751Y010303D02*
X016977Y010303D01*
X016934Y010205D02*
X016661Y010205D01*
X016890Y010106D02*
X010362Y010106D01*
X010411Y010008D02*
X016847Y010008D01*
X016804Y009909D02*
X010470Y009909D01*
X010470Y009811D02*
X016760Y009811D01*
X016717Y009712D02*
X010470Y009712D01*
X010470Y009614D02*
X016674Y009614D01*
X016630Y009515D02*
X010470Y009515D01*
X010470Y009417D02*
X013026Y009417D01*
X012930Y009318D02*
X010470Y009318D01*
X010470Y009220D02*
X012870Y009220D01*
X012800Y009121D02*
X010470Y009121D01*
X010470Y009023D02*
X012731Y009023D01*
X012661Y008924D02*
X010470Y008924D01*
X010470Y008826D02*
X012592Y008826D01*
X012869Y008629D02*
X018285Y008629D01*
X018217Y008727D02*
X012938Y008727D01*
X013008Y008826D02*
X018191Y008826D01*
X018197Y008924D02*
X013078Y008924D01*
X013147Y009023D02*
X018238Y009023D01*
X018349Y009121D02*
X016829Y009121D01*
X016872Y009220D02*
X020094Y009220D01*
X020050Y009121D02*
X020577Y009121D01*
X020774Y009023D02*
X020162Y009023D01*
X020259Y008924D02*
X020971Y008924D01*
X021100Y009050D02*
X020300Y009450D01*
X020021Y009318D02*
X016915Y009318D01*
X016959Y009417D02*
X019991Y009417D01*
X019993Y009515D02*
X017002Y009515D01*
X017045Y009614D02*
X020034Y009614D01*
X020127Y009712D02*
X017089Y009712D01*
X017132Y009811D02*
X030120Y009811D01*
X030218Y009909D02*
X017175Y009909D01*
X017219Y010008D02*
X030317Y010008D01*
X030600Y009811D02*
X030720Y009811D01*
X030699Y009909D02*
X030818Y009909D01*
X030797Y010008D02*
X030917Y010008D01*
X030896Y010106D02*
X031015Y010106D01*
X030994Y010205D02*
X031114Y010205D01*
X031093Y010303D02*
X031212Y010303D01*
X031191Y010402D02*
X031311Y010402D01*
X031290Y010500D02*
X031409Y010500D01*
X031388Y010599D02*
X031508Y010599D01*
X031487Y010697D02*
X031606Y010697D01*
X031585Y010796D02*
X031705Y010796D01*
X031684Y010894D02*
X031803Y010894D01*
X031782Y010993D02*
X031902Y010993D01*
X031881Y011091D02*
X032000Y011091D01*
X031979Y011190D02*
X032099Y011190D01*
X032078Y011288D02*
X032197Y011288D01*
X032176Y011387D02*
X032296Y011387D01*
X032275Y011485D02*
X032394Y011485D01*
X032373Y011584D02*
X032476Y011584D01*
X032472Y011682D02*
X032684Y011682D01*
X032684Y011781D02*
X032570Y011781D01*
X032669Y011879D02*
X032741Y011879D01*
X032767Y011978D02*
X032840Y011978D01*
X032700Y012150D02*
X029600Y009050D01*
X021100Y009050D01*
X020944Y009318D02*
X029627Y009318D01*
X029726Y009417D02*
X020747Y009417D01*
X020606Y009515D02*
X029824Y009515D01*
X029923Y009614D02*
X020565Y009614D01*
X020472Y009712D02*
X030021Y009712D01*
X030305Y009515D02*
X030424Y009515D01*
X030403Y009614D02*
X030523Y009614D01*
X030502Y009712D02*
X030621Y009712D01*
X030905Y009515D02*
X031024Y009515D01*
X031003Y009614D02*
X031123Y009614D01*
X031102Y009712D02*
X031221Y009712D01*
X031200Y009811D02*
X031320Y009811D01*
X031299Y009909D02*
X031418Y009909D01*
X031397Y010008D02*
X031517Y010008D01*
X031496Y010106D02*
X031615Y010106D01*
X031594Y010205D02*
X031714Y010205D01*
X031693Y010303D02*
X031812Y010303D01*
X031791Y010402D02*
X031911Y010402D01*
X031890Y010500D02*
X032009Y010500D01*
X031988Y010599D02*
X032108Y010599D01*
X032087Y010697D02*
X032206Y010697D01*
X032185Y010796D02*
X032305Y010796D01*
X032284Y010894D02*
X032756Y010894D01*
X032855Y010993D02*
X032382Y010993D01*
X032481Y011091D02*
X033430Y011091D01*
X033430Y010993D02*
X033344Y010993D01*
X033430Y011190D02*
X032579Y011190D01*
X032678Y011288D02*
X032874Y011288D01*
X032600Y011450D02*
X029800Y008650D01*
X020600Y008650D01*
X019900Y008850D01*
X019685Y008629D02*
X019574Y008629D01*
X019617Y008727D02*
X019312Y008727D01*
X019049Y008826D02*
X019591Y008826D01*
X019597Y008924D02*
X018802Y008924D01*
X018762Y009023D02*
X019638Y009023D01*
X019749Y009121D02*
X018650Y009121D01*
X018500Y008850D02*
X020100Y008250D01*
X030000Y008250D01*
X032400Y010650D01*
X033100Y010650D01*
X032761Y010402D02*
X032391Y010402D01*
X032293Y010303D02*
X032859Y010303D01*
X032870Y010008D02*
X031997Y010008D01*
X031899Y009909D02*
X032771Y009909D01*
X032684Y009811D02*
X031800Y009811D01*
X031702Y009712D02*
X032684Y009712D01*
X032684Y009614D02*
X031603Y009614D01*
X031505Y009515D02*
X032684Y009515D01*
X032746Y009417D02*
X031406Y009417D01*
X031427Y009318D02*
X031308Y009318D01*
X031329Y009220D02*
X031209Y009220D01*
X031230Y009121D02*
X031111Y009121D01*
X031132Y009023D02*
X031012Y009023D01*
X031033Y008924D02*
X030914Y008924D01*
X030935Y008826D02*
X030815Y008826D01*
X030836Y008727D02*
X030717Y008727D01*
X030738Y008629D02*
X030618Y008629D01*
X030639Y008530D02*
X030520Y008530D01*
X030541Y008432D02*
X030421Y008432D01*
X030442Y008333D02*
X030323Y008333D01*
X030344Y008235D02*
X030224Y008235D01*
X030245Y008136D02*
X030126Y008136D01*
X030147Y008038D02*
X019797Y008038D01*
X019749Y008136D02*
X019919Y008136D01*
X019657Y008235D02*
X019618Y008235D01*
X019381Y008235D02*
X014751Y008235D01*
X014621Y008333D02*
X019394Y008333D01*
X019250Y008136D02*
X015487Y008136D01*
X015651Y008038D02*
X019202Y008038D01*
X019191Y007939D02*
X015815Y007939D01*
X015979Y007841D02*
X019211Y007841D01*
X019272Y007742D02*
X016143Y007742D01*
X016307Y007644D02*
X019434Y007644D01*
X019565Y007644D02*
X030453Y007644D01*
X030551Y007742D02*
X030332Y007742D01*
X030430Y007841D02*
X030650Y007841D01*
X030748Y007939D02*
X030529Y007939D01*
X030627Y008038D02*
X030847Y008038D01*
X030945Y008136D02*
X030726Y008136D01*
X030824Y008235D02*
X031044Y008235D01*
X031142Y008333D02*
X030923Y008333D01*
X031021Y008432D02*
X031241Y008432D01*
X031339Y008530D02*
X031120Y008530D01*
X031218Y008629D02*
X031438Y008629D01*
X031536Y008727D02*
X031317Y008727D01*
X031415Y008826D02*
X032688Y008826D01*
X032786Y008924D02*
X031514Y008924D01*
X031500Y009150D02*
X030200Y007850D01*
X019800Y007850D01*
X019500Y007950D01*
X019131Y008432D02*
X012730Y008432D01*
X012799Y008530D02*
X018869Y008530D01*
X019837Y008530D02*
X020401Y008530D01*
X020100Y008432D02*
X029941Y008432D01*
X029920Y008530D02*
X030039Y008530D01*
X030018Y008629D02*
X030138Y008629D01*
X030117Y008727D02*
X030236Y008727D01*
X030215Y008826D02*
X030335Y008826D01*
X030314Y008924D02*
X030433Y008924D01*
X030412Y009023D02*
X030532Y009023D01*
X030511Y009121D02*
X030630Y009121D01*
X030609Y009220D02*
X030729Y009220D01*
X030708Y009318D02*
X030827Y009318D01*
X030806Y009417D02*
X030926Y009417D01*
X031500Y009150D02*
X033400Y009150D01*
X033600Y009350D01*
X033600Y011150D01*
X034100Y011650D01*
X034515Y011682D02*
X036750Y011682D01*
X036750Y011584D02*
X034515Y011584D01*
X034515Y011485D02*
X036750Y011485D01*
X036750Y011387D02*
X034423Y011387D01*
X034325Y011288D02*
X036750Y011288D01*
X036750Y011190D02*
X033879Y011190D01*
X033781Y011091D02*
X036750Y011091D01*
X036750Y010993D02*
X034344Y010993D01*
X034443Y010894D02*
X036750Y010894D01*
X036750Y010796D02*
X034515Y010796D01*
X034515Y010697D02*
X036750Y010697D01*
X036750Y010599D02*
X034515Y010599D01*
X034515Y010500D02*
X036750Y010500D01*
X036750Y010402D02*
X034438Y010402D01*
X034340Y010303D02*
X036750Y010303D01*
X036750Y010205D02*
X033770Y010205D01*
X033770Y010303D02*
X033859Y010303D01*
X033770Y010106D02*
X036750Y010106D01*
X036750Y010008D02*
X034372Y010008D01*
X034470Y009909D02*
X036750Y009909D01*
X036750Y009811D02*
X034545Y009811D01*
X034545Y009712D02*
X036750Y009712D01*
X036750Y009614D02*
X034148Y009614D01*
X034148Y009712D02*
X034051Y009712D01*
X034051Y009811D02*
X034148Y009811D01*
X034148Y009909D02*
X034051Y009909D01*
X034051Y010008D02*
X034148Y010008D01*
X033827Y010008D02*
X033770Y010008D01*
X033430Y010008D02*
X033329Y010008D01*
X033428Y009909D02*
X033430Y009909D01*
X033430Y010106D02*
X032096Y010106D01*
X032194Y010205D02*
X033430Y010205D01*
X033430Y010303D02*
X033340Y010303D01*
X033770Y010993D02*
X033855Y010993D01*
X033497Y011288D02*
X033325Y011288D01*
X033423Y011387D02*
X033596Y011387D01*
X033515Y011485D02*
X033684Y011485D01*
X033684Y011584D02*
X033515Y011584D01*
X033515Y011682D02*
X033684Y011682D01*
X033684Y011781D02*
X033515Y011781D01*
X033458Y011879D02*
X033741Y011879D01*
X033840Y011978D02*
X033359Y011978D01*
X033600Y012150D02*
X032700Y012150D01*
X033100Y011650D02*
X032600Y011450D01*
X033600Y012150D02*
X034100Y012650D01*
X034515Y012667D02*
X036750Y012667D01*
X036750Y012569D02*
X034515Y012569D01*
X034507Y012470D02*
X036750Y012470D01*
X036750Y012372D02*
X034408Y012372D01*
X034310Y012273D02*
X036750Y012273D01*
X036750Y012175D02*
X033864Y012175D01*
X033766Y012076D02*
X036750Y012076D01*
X036750Y011978D02*
X034359Y011978D01*
X034458Y011879D02*
X036750Y011879D01*
X036750Y011781D02*
X034515Y011781D01*
X033581Y012372D02*
X033451Y012372D01*
X033545Y012470D02*
X033679Y012470D01*
X033684Y012569D02*
X033545Y012569D01*
X033148Y012766D02*
X033051Y012766D01*
X033051Y012864D02*
X033148Y012864D01*
X033148Y012963D02*
X033051Y012963D01*
X033051Y013061D02*
X033148Y013061D01*
X034276Y013061D02*
X036750Y013061D01*
X036750Y012963D02*
X034374Y012963D01*
X034473Y012864D02*
X036750Y012864D01*
X036750Y012766D02*
X034515Y012766D01*
X033148Y014243D02*
X033051Y014243D01*
X034515Y015721D02*
X036750Y015721D01*
X036750Y015819D02*
X034515Y015819D01*
X034419Y015918D02*
X036750Y015918D01*
X036750Y016016D02*
X034321Y016016D01*
X034348Y016312D02*
X036750Y016312D01*
X036750Y016410D02*
X034447Y016410D01*
X034515Y016509D02*
X036750Y016509D01*
X036750Y016607D02*
X034515Y016607D01*
X034515Y016706D02*
X036750Y016706D01*
X036750Y016804D02*
X034515Y016804D01*
X034434Y016903D02*
X036750Y016903D01*
X036750Y017001D02*
X034336Y017001D01*
X034333Y017297D02*
X036750Y017297D01*
X036750Y017395D02*
X034432Y017395D01*
X034515Y017494D02*
X036750Y017494D01*
X036750Y017592D02*
X034515Y017592D01*
X034100Y018650D02*
X033600Y019150D01*
X032000Y019150D01*
X031840Y019070D02*
X031320Y019070D01*
X031222Y019168D02*
X031741Y019168D01*
X031643Y019267D02*
X031123Y019267D01*
X031025Y019365D02*
X031544Y019365D01*
X031446Y019464D02*
X030926Y019464D01*
X030828Y019562D02*
X031347Y019562D01*
X031249Y019661D02*
X030729Y019661D01*
X030631Y019759D02*
X031150Y019759D01*
X030643Y019267D02*
X030223Y019267D01*
X030322Y019168D02*
X030741Y019168D01*
X030840Y019070D02*
X030420Y019070D01*
X030519Y018971D02*
X030938Y018971D01*
X031037Y018873D02*
X030617Y018873D01*
X030716Y018774D02*
X031135Y018774D01*
X031234Y018676D02*
X030814Y018676D01*
X030913Y018577D02*
X031332Y018577D01*
X031110Y018380D02*
X032782Y018380D01*
X032684Y018479D02*
X031011Y018479D01*
X030728Y018282D02*
X030308Y018282D01*
X030210Y018380D02*
X030629Y018380D01*
X030531Y018479D02*
X030111Y018479D01*
X030013Y018577D02*
X030432Y018577D01*
X030334Y018676D02*
X029914Y018676D01*
X029816Y018774D02*
X030235Y018774D01*
X030407Y018183D02*
X030826Y018183D01*
X030925Y018085D02*
X030505Y018085D01*
X030604Y017986D02*
X031023Y017986D01*
X031517Y018873D02*
X032735Y018873D01*
X032833Y018971D02*
X031419Y018971D01*
X031138Y020252D02*
X032911Y020252D01*
X033051Y019759D02*
X033148Y019759D01*
X033366Y018971D02*
X033538Y018971D01*
X033464Y018873D02*
X033637Y018873D01*
X033684Y018774D02*
X033515Y018774D01*
X033515Y018676D02*
X033684Y018676D01*
X033684Y018577D02*
X033515Y018577D01*
X033515Y018479D02*
X033684Y018479D01*
X033920Y019070D02*
X036750Y019070D01*
X036750Y019168D02*
X033822Y019168D01*
X034522Y019858D02*
X036750Y019858D01*
X036750Y019956D02*
X034423Y019956D01*
X034325Y020055D02*
X036750Y020055D01*
X024765Y024881D02*
X024509Y024881D01*
X024410Y024980D02*
X024666Y024980D01*
X024643Y025078D02*
X024356Y025078D01*
X024356Y025177D02*
X024643Y025177D01*
X024643Y025275D02*
X024356Y025275D01*
X024280Y025374D02*
X024719Y025374D01*
X024818Y025472D02*
X024181Y025472D01*
X024219Y025866D02*
X024780Y025866D01*
X024681Y025965D02*
X024318Y025965D01*
X024356Y026063D02*
X024643Y026063D01*
X024643Y026162D02*
X024356Y026162D01*
X024356Y026260D02*
X024643Y026260D01*
X024704Y026359D02*
X024295Y026359D01*
X024196Y026457D02*
X024803Y026457D01*
X016945Y017789D02*
X011370Y017789D01*
X011370Y017691D02*
X016849Y017691D01*
X016759Y017592D02*
X011370Y017592D01*
X011370Y017494D02*
X016670Y017494D01*
X016580Y017395D02*
X011370Y017395D01*
X011370Y017297D02*
X016491Y017297D01*
X016401Y017198D02*
X011370Y017198D01*
X011370Y017100D02*
X016312Y017100D01*
X016222Y017001D02*
X011370Y017001D01*
X011370Y016903D02*
X016133Y016903D01*
X016043Y016804D02*
X011370Y016804D01*
X011370Y016706D02*
X015919Y016706D01*
X015831Y016607D02*
X011370Y016607D01*
X011370Y016509D02*
X015791Y016509D01*
X015791Y016410D02*
X011370Y016410D01*
X011370Y016312D02*
X015823Y016312D01*
X015901Y016213D02*
X011370Y016213D01*
X011370Y016115D02*
X016383Y016115D01*
X016381Y016016D02*
X011370Y016016D01*
X011370Y015918D02*
X016408Y015918D01*
X016478Y015819D02*
X011370Y015819D01*
X011370Y015721D02*
X017933Y015721D01*
X017933Y015783D02*
X017933Y015547D01*
X018299Y015547D01*
X018299Y015547D01*
X018299Y015950D01*
X018299Y015950D01*
X017933Y015950D01*
X017933Y015783D01*
X017933Y015819D02*
X016922Y015819D01*
X017010Y015918D02*
X017933Y015918D01*
X017933Y015950D02*
X018299Y015950D01*
X018299Y015950D01*
X018299Y015584D01*
X018299Y015547D01*
X018299Y015547D01*
X017933Y015547D01*
X017933Y015389D01*
X017933Y015153D01*
X017933Y014984D01*
X017933Y014750D01*
X018299Y014750D01*
X018299Y015153D01*
X017933Y015153D01*
X018299Y015153D01*
X018299Y015153D01*
X018299Y015153D01*
X018299Y014787D01*
X018299Y014750D01*
X018299Y014750D01*
X018299Y014750D01*
X018713Y014750D01*
X019087Y014750D01*
X019500Y014750D01*
X019500Y014750D01*
X019500Y014787D01*
X019500Y015153D01*
X019500Y015153D01*
X019500Y015153D01*
X019866Y015153D01*
X019866Y014750D01*
X019500Y014750D01*
X019500Y015153D01*
X019453Y015153D01*
X019087Y015153D01*
X019087Y015153D01*
X019500Y015153D01*
X019500Y015153D01*
X019866Y015153D01*
X019866Y015547D01*
X019866Y015950D01*
X019500Y015950D01*
X019500Y015584D01*
X019500Y015547D01*
X019500Y015547D01*
X019866Y015547D01*
X019500Y015547D01*
X019500Y015547D01*
X019500Y015950D01*
X019500Y015950D01*
X019500Y015950D01*
X019133Y015950D01*
X019087Y015950D01*
X019087Y015950D01*
X019087Y015584D01*
X019087Y015547D01*
X019500Y015547D01*
X019500Y015547D01*
X019500Y015180D01*
X019500Y015153D01*
X019500Y015153D01*
X019500Y015547D01*
X019500Y015547D01*
X019453Y015547D01*
X019087Y015547D01*
X019087Y015547D01*
X019087Y015547D01*
X019087Y015180D01*
X019087Y015153D01*
X019087Y014787D01*
X019087Y014750D01*
X019087Y014750D01*
X019087Y014750D01*
X019453Y014750D01*
X019500Y014750D01*
X019500Y014750D01*
X019500Y014750D01*
X019866Y014750D01*
X019866Y014513D01*
X019856Y014475D01*
X019836Y014441D01*
X019809Y014413D01*
X019774Y014393D01*
X019736Y014383D01*
X019500Y014383D01*
X019500Y014750D01*
X019500Y014750D01*
X019500Y014383D01*
X019087Y014383D01*
X019087Y014750D01*
X019087Y015153D01*
X019087Y015153D01*
X019087Y015153D01*
X018720Y015153D01*
X018713Y015153D01*
X018713Y015153D01*
X019087Y015153D01*
X019087Y015153D01*
X019087Y015547D01*
X019087Y015547D01*
X019087Y015950D01*
X019087Y015950D01*
X019500Y015950D01*
X019500Y015950D01*
X019866Y015950D01*
X019866Y016187D01*
X019856Y016225D01*
X019836Y016259D01*
X019809Y016287D01*
X019774Y016307D01*
X019736Y016317D01*
X019500Y016317D01*
X019500Y015950D01*
X019500Y015950D01*
X019500Y016317D01*
X019087Y016317D01*
X019087Y015950D01*
X019087Y015950D01*
X019079Y015950D01*
X018713Y015950D01*
X018713Y015950D01*
X018713Y015584D01*
X018713Y015547D01*
X019087Y015547D01*
X019087Y015547D01*
X018720Y015547D01*
X018713Y015547D01*
X018713Y015547D01*
X018713Y015547D01*
X018713Y015180D01*
X018713Y015153D01*
X018713Y014787D01*
X018713Y014750D01*
X018713Y014750D01*
X018713Y014750D01*
X018720Y014750D01*
X019087Y014750D01*
X019087Y014750D01*
X019087Y014750D01*
X019087Y014383D01*
X018713Y014383D01*
X018713Y014750D01*
X018713Y015153D01*
X018713Y015153D01*
X018713Y015153D01*
X018713Y015547D01*
X018713Y015547D01*
X018713Y015950D01*
X018713Y015950D01*
X019087Y015950D01*
X019087Y015950D01*
X019087Y016317D01*
X018713Y016317D01*
X018713Y015950D01*
X018713Y015950D01*
X018666Y015950D01*
X018299Y015950D01*
X018299Y015950D01*
X018299Y016317D01*
X018063Y016317D01*
X018025Y016307D01*
X017991Y016287D01*
X017963Y016259D01*
X017943Y016225D01*
X017933Y016187D01*
X017933Y015950D01*
X017933Y016016D02*
X017097Y016016D01*
X017185Y016115D02*
X017933Y016115D01*
X017940Y016213D02*
X017273Y016213D01*
X017360Y016312D02*
X018043Y016312D01*
X018299Y016312D02*
X018299Y016312D01*
X018299Y016317D02*
X018299Y015950D01*
X018299Y015950D01*
X018713Y015950D01*
X018713Y015950D01*
X018713Y016317D01*
X018299Y016317D01*
X018299Y016213D02*
X018299Y016213D01*
X018299Y016115D02*
X018299Y016115D01*
X018299Y016016D02*
X018299Y016016D01*
X018299Y015918D02*
X018299Y015918D01*
X018299Y015819D02*
X018299Y015819D01*
X018299Y015721D02*
X018299Y015721D01*
X018299Y015622D02*
X018299Y015622D01*
X018299Y015547D02*
X018713Y015547D01*
X018713Y015547D01*
X018666Y015547D01*
X018299Y015547D01*
X018299Y015547D01*
X018299Y015547D01*
X018299Y015153D01*
X018299Y015153D01*
X018666Y015153D01*
X018713Y015153D01*
X018713Y015153D01*
X018299Y015153D01*
X018299Y015153D01*
X018299Y015180D01*
X018299Y015547D01*
X018299Y015524D02*
X018299Y015524D01*
X018299Y015425D02*
X018299Y015425D01*
X018299Y015327D02*
X018299Y015327D01*
X018299Y015228D02*
X018299Y015228D01*
X018299Y015130D02*
X018299Y015130D01*
X018299Y015031D02*
X018299Y015031D01*
X018299Y014933D02*
X018299Y014933D01*
X018299Y014834D02*
X018299Y014834D01*
X018299Y014750D02*
X018299Y014750D01*
X017933Y014750D01*
X017933Y014513D01*
X017943Y014475D01*
X017963Y014441D01*
X017991Y014413D01*
X018025Y014393D01*
X018063Y014383D01*
X018299Y014383D01*
X018299Y014750D01*
X018299Y014750D01*
X018666Y014750D01*
X018713Y014750D01*
X018713Y014750D01*
X018713Y014750D01*
X018713Y014383D01*
X018299Y014383D01*
X018299Y014750D01*
X018299Y014736D02*
X018299Y014736D01*
X018299Y014637D02*
X018299Y014637D01*
X018299Y014539D02*
X018299Y014539D01*
X018299Y014440D02*
X018299Y014440D01*
X017964Y014440D02*
X017270Y014440D01*
X017270Y014342D02*
X020930Y014342D01*
X020930Y014440D02*
X019836Y014440D01*
X019866Y014539D02*
X020930Y014539D01*
X020930Y014637D02*
X019866Y014637D01*
X019866Y014736D02*
X020930Y014736D01*
X020930Y014834D02*
X019866Y014834D01*
X019866Y014933D02*
X020930Y014933D01*
X020930Y015031D02*
X019866Y015031D01*
X019866Y015130D02*
X020930Y015130D01*
X020930Y015228D02*
X019866Y015228D01*
X019866Y015327D02*
X020930Y015327D01*
X020930Y015425D02*
X019866Y015425D01*
X019866Y015524D02*
X020930Y015524D01*
X020930Y015622D02*
X019866Y015622D01*
X019866Y015721D02*
X020930Y015721D01*
X020930Y015819D02*
X019866Y015819D01*
X019866Y015918D02*
X020930Y015918D01*
X020930Y016016D02*
X020901Y016016D01*
X020498Y016016D02*
X019866Y016016D01*
X019866Y016115D02*
X020422Y016115D01*
X020391Y016213D02*
X019859Y016213D01*
X019756Y016312D02*
X020392Y016312D01*
X020432Y016410D02*
X017448Y016410D01*
X017535Y016509D02*
X020522Y016509D01*
X020877Y016509D02*
X020930Y016509D01*
X020930Y016607D02*
X017623Y016607D01*
X017029Y016903D02*
X016889Y016903D01*
X016942Y016804D02*
X016800Y016804D01*
X016854Y016706D02*
X016710Y016706D01*
X016767Y016607D02*
X016621Y016607D01*
X016679Y016509D02*
X016531Y016509D01*
X016591Y016410D02*
X016442Y016410D01*
X016504Y016312D02*
X016376Y016312D01*
X016417Y016213D02*
X016298Y016213D01*
X016979Y017001D02*
X017117Y017001D01*
X017068Y017100D02*
X017204Y017100D01*
X017158Y017198D02*
X017292Y017198D01*
X017490Y017270D02*
X017490Y017270D01*
X017553Y017270D02*
X017553Y017270D01*
X018713Y016312D02*
X018713Y016312D01*
X018713Y016213D02*
X018713Y016213D01*
X018713Y016115D02*
X018713Y016115D01*
X018713Y016016D02*
X018713Y016016D01*
X018713Y015918D02*
X018713Y015918D01*
X018713Y015819D02*
X018713Y015819D01*
X018713Y015721D02*
X018713Y015721D01*
X018713Y015622D02*
X018713Y015622D01*
X018713Y015524D02*
X018713Y015524D01*
X018713Y015425D02*
X018713Y015425D01*
X018713Y015327D02*
X018713Y015327D01*
X018713Y015228D02*
X018713Y015228D01*
X018713Y015130D02*
X018713Y015130D01*
X018713Y015031D02*
X018713Y015031D01*
X018713Y014933D02*
X018713Y014933D01*
X018713Y014834D02*
X018713Y014834D01*
X018713Y014736D02*
X018713Y014736D01*
X018713Y014637D02*
X018713Y014637D01*
X018713Y014539D02*
X018713Y014539D01*
X018713Y014440D02*
X018713Y014440D01*
X019087Y014440D02*
X019087Y014440D01*
X019087Y014539D02*
X019087Y014539D01*
X019087Y014637D02*
X019087Y014637D01*
X019087Y014736D02*
X019087Y014736D01*
X019087Y014834D02*
X019087Y014834D01*
X019087Y014933D02*
X019087Y014933D01*
X019087Y015031D02*
X019087Y015031D01*
X019087Y015130D02*
X019087Y015130D01*
X019087Y015228D02*
X019087Y015228D01*
X019087Y015327D02*
X019087Y015327D01*
X019087Y015425D02*
X019087Y015425D01*
X019087Y015524D02*
X019087Y015524D01*
X019087Y015622D02*
X019087Y015622D01*
X019087Y015721D02*
X019087Y015721D01*
X019087Y015819D02*
X019087Y015819D01*
X019087Y015918D02*
X019087Y015918D01*
X019087Y016016D02*
X019087Y016016D01*
X019087Y016115D02*
X019087Y016115D01*
X019087Y016213D02*
X019087Y016213D01*
X019087Y016312D02*
X019087Y016312D01*
X019500Y016312D02*
X019500Y016312D01*
X019500Y016213D02*
X019500Y016213D01*
X019500Y016115D02*
X019500Y016115D01*
X019500Y016016D02*
X019500Y016016D01*
X019500Y015918D02*
X019500Y015918D01*
X019500Y015819D02*
X019500Y015819D01*
X019500Y015721D02*
X019500Y015721D01*
X019500Y015622D02*
X019500Y015622D01*
X019500Y015524D02*
X019500Y015524D01*
X019500Y015425D02*
X019500Y015425D01*
X019500Y015327D02*
X019500Y015327D01*
X019500Y015228D02*
X019500Y015228D01*
X019500Y015130D02*
X019500Y015130D01*
X019500Y015031D02*
X019500Y015031D01*
X019500Y014933D02*
X019500Y014933D01*
X019500Y014834D02*
X019500Y014834D01*
X019500Y014736D02*
X019500Y014736D01*
X019500Y014637D02*
X019500Y014637D01*
X019500Y014539D02*
X019500Y014539D01*
X019500Y014440D02*
X019500Y014440D01*
X020930Y014243D02*
X017270Y014243D01*
X017100Y014243D02*
X016100Y014243D01*
X016100Y014145D02*
X017100Y014145D01*
X017100Y014342D02*
X016100Y014342D01*
X016100Y014440D02*
X017100Y014440D01*
X017100Y014539D02*
X016100Y014539D01*
X016100Y014637D02*
X017100Y014637D01*
X017100Y014736D02*
X016100Y014736D01*
X016100Y014834D02*
X017100Y014834D01*
X017100Y014933D02*
X016100Y014933D01*
X016100Y015031D02*
X017100Y015031D01*
X017270Y015031D02*
X017933Y015031D01*
X017933Y014933D02*
X017270Y014933D01*
X017270Y014834D02*
X017933Y014834D01*
X017933Y014736D02*
X017270Y014736D01*
X017270Y014637D02*
X017933Y014637D01*
X017933Y014539D02*
X017270Y014539D01*
X017260Y015130D02*
X017933Y015130D01*
X017933Y015228D02*
X011370Y015228D01*
X011370Y015130D02*
X015939Y015130D01*
X015930Y015031D02*
X011370Y015031D01*
X011370Y014933D02*
X015930Y014933D01*
X015930Y014834D02*
X011370Y014834D01*
X011370Y014736D02*
X015930Y014736D01*
X015930Y014637D02*
X011370Y014637D01*
X011370Y014539D02*
X015930Y014539D01*
X015930Y014440D02*
X011370Y014440D01*
X011370Y014342D02*
X015930Y014342D01*
X015930Y014243D02*
X011370Y014243D01*
X011370Y014145D02*
X015930Y014145D01*
X015930Y014046D02*
X011370Y014046D01*
X011370Y013948D02*
X015930Y013948D01*
X015930Y013849D02*
X011370Y013849D01*
X011370Y013751D02*
X015930Y013751D01*
X015930Y013652D02*
X011370Y013652D01*
X011370Y013554D02*
X015930Y013554D01*
X015930Y013455D02*
X011370Y013455D01*
X011370Y013357D02*
X015930Y013357D01*
X015930Y013258D02*
X011370Y013258D01*
X011370Y013160D02*
X015930Y013160D01*
X015930Y013061D02*
X011370Y013061D01*
X011370Y012963D02*
X015930Y012963D01*
X015930Y012864D02*
X011426Y012864D01*
X011524Y012766D02*
X015930Y012766D01*
X015930Y012667D02*
X011623Y012667D01*
X011721Y012569D02*
X015930Y012569D01*
X015930Y012470D02*
X011820Y012470D01*
X011918Y012372D02*
X015930Y012372D01*
X016208Y011978D02*
X016391Y011978D01*
X016319Y011879D02*
X016280Y011879D01*
X016264Y011584D02*
X016317Y011584D01*
X016264Y011485D02*
X016165Y011485D01*
X016211Y011387D02*
X015997Y011387D01*
X015944Y011288D02*
X016158Y011288D01*
X016105Y011190D02*
X015891Y011190D01*
X015838Y011091D02*
X016052Y011091D01*
X015999Y010993D02*
X015785Y010993D01*
X015732Y010894D02*
X015946Y010894D01*
X015893Y010796D02*
X015679Y010796D01*
X015626Y010697D02*
X015742Y010697D01*
X015649Y010599D02*
X015573Y010599D01*
X015588Y010500D02*
X015611Y010500D01*
X015611Y010402D02*
X015588Y010402D01*
X015551Y010303D02*
X015648Y010303D01*
X015738Y010205D02*
X015461Y010205D01*
X015300Y010450D02*
X016000Y011750D01*
X016600Y011750D02*
X015900Y010450D01*
X016151Y010303D02*
X016248Y010303D01*
X016211Y010402D02*
X016188Y010402D01*
X016188Y010500D02*
X016211Y010500D01*
X016173Y010599D02*
X016249Y010599D01*
X016226Y010697D02*
X016342Y010697D01*
X016279Y010796D02*
X016493Y010796D01*
X016546Y010894D02*
X016332Y010894D01*
X016385Y010993D02*
X016599Y010993D01*
X016652Y011091D02*
X016438Y011091D01*
X016491Y011190D02*
X016705Y011190D01*
X016758Y011288D02*
X016544Y011288D01*
X016597Y011387D02*
X016811Y011387D01*
X016765Y011485D02*
X016864Y011485D01*
X016864Y011584D02*
X016917Y011584D01*
X016919Y011879D02*
X016880Y011879D01*
X016808Y011978D02*
X016991Y011978D01*
X017200Y011750D02*
X016500Y010450D01*
X016338Y010205D02*
X016061Y010205D01*
X015138Y010205D02*
X014861Y010205D01*
X014538Y010205D02*
X014261Y010205D01*
X013938Y010205D02*
X010312Y010205D01*
X010263Y010303D02*
X013848Y010303D01*
X013811Y010402D02*
X010214Y010402D01*
X010165Y010500D02*
X013811Y010500D01*
X011532Y011978D02*
X003750Y011978D01*
X003750Y012076D02*
X011433Y012076D01*
X010100Y012650D02*
X010100Y013550D01*
X008600Y015050D01*
X004700Y015050D01*
X004919Y014834D02*
X008575Y014834D01*
X008674Y014736D02*
X003750Y014736D01*
X003750Y014834D02*
X004480Y014834D01*
X004415Y014933D02*
X003750Y014933D01*
X003750Y015031D02*
X004391Y015031D01*
X004399Y015130D02*
X003750Y015130D01*
X003750Y015228D02*
X004442Y015228D01*
X004562Y015327D02*
X003750Y015327D01*
X003750Y014637D02*
X008772Y014637D01*
X008871Y014539D02*
X003750Y014539D01*
X003750Y014440D02*
X008969Y014440D01*
X009068Y014342D02*
X003750Y014342D01*
X003750Y014243D02*
X007852Y014243D01*
X007708Y014145D02*
X003750Y014145D01*
X003750Y014046D02*
X006174Y014046D01*
X006076Y013948D02*
X003750Y013948D01*
X003750Y013849D02*
X006031Y013849D01*
X006010Y013751D02*
X003750Y013751D01*
X003750Y013652D02*
X006010Y013652D01*
X006010Y013554D02*
X003750Y013554D01*
X003750Y013455D02*
X006010Y013455D01*
X006010Y013357D02*
X003750Y013357D01*
X003750Y013258D02*
X006010Y013258D01*
X006010Y013160D02*
X003750Y013160D01*
X003750Y013061D02*
X006027Y013061D01*
X006067Y012963D02*
X003750Y012963D01*
X006185Y012667D02*
X008981Y012667D01*
X009878Y012864D02*
X007635Y012864D01*
X007732Y012963D02*
X009930Y012963D01*
X009930Y013061D02*
X007772Y013061D01*
X007790Y013160D02*
X009930Y013160D01*
X009930Y013258D02*
X007790Y013258D01*
X007790Y013357D02*
X009930Y013357D01*
X009930Y013455D02*
X007790Y013455D01*
X007790Y013554D02*
X009856Y013554D01*
X009757Y013652D02*
X009185Y013652D01*
X009014Y013652D02*
X008035Y013652D01*
X007864Y013652D02*
X007790Y013652D01*
X007656Y014046D02*
X007625Y014046D01*
X007174Y014046D02*
X006625Y014046D01*
X006724Y013948D02*
X007076Y013948D01*
X007031Y013849D02*
X006768Y013849D01*
X006790Y013751D02*
X007010Y013751D01*
X007010Y013652D02*
X006790Y013652D01*
X006790Y013554D02*
X007010Y013554D01*
X007010Y013455D02*
X006790Y013455D01*
X006790Y013357D02*
X007010Y013357D01*
X007010Y013258D02*
X006790Y013258D01*
X006790Y013160D02*
X007010Y013160D01*
X007027Y013061D02*
X006772Y013061D01*
X006732Y012963D02*
X007067Y012963D01*
X007164Y012864D02*
X006635Y012864D01*
X008047Y014243D02*
X009002Y014243D01*
X009408Y013948D02*
X009462Y013948D01*
X009391Y013849D02*
X009560Y013849D01*
X009659Y013751D02*
X009336Y013751D01*
X011370Y015327D02*
X017933Y015327D01*
X017933Y015425D02*
X011370Y015425D01*
X011370Y015524D02*
X017933Y015524D01*
X017933Y015622D02*
X011370Y015622D01*
X010830Y017100D02*
X007575Y017100D01*
X007813Y017198D02*
X010830Y017198D01*
X010830Y017297D02*
X007926Y017297D01*
X008024Y017395D02*
X010830Y017395D01*
X010830Y017494D02*
X008083Y017494D01*
X008124Y017592D02*
X010830Y017592D01*
X008333Y017888D02*
X008172Y017888D01*
X008172Y017986D02*
X008293Y017986D01*
X008291Y018085D02*
X008144Y018085D01*
X008104Y018183D02*
X008286Y018183D01*
X008227Y018282D02*
X008063Y018282D01*
X007976Y018380D02*
X008168Y018380D01*
X008109Y018479D02*
X007877Y018479D01*
X008050Y018577D02*
X007696Y018577D01*
X010602Y019759D02*
X010650Y019759D01*
X019020Y012076D02*
X022391Y012076D01*
X022396Y011978D02*
X019020Y011978D01*
X019020Y011879D02*
X022437Y011879D01*
X022545Y011781D02*
X019020Y011781D01*
X022264Y012175D02*
X022418Y012175D01*
X022487Y012273D02*
X022270Y012273D01*
X020604Y008826D02*
X029735Y008826D01*
X029714Y008924D02*
X029833Y008924D01*
X029812Y009023D02*
X029932Y009023D01*
X029911Y009121D02*
X030030Y009121D01*
X030009Y009220D02*
X030129Y009220D01*
X030108Y009318D02*
X030227Y009318D01*
X030206Y009417D02*
X030326Y009417D01*
X031700Y008650D02*
X030500Y007450D01*
X016300Y007450D01*
X015300Y008050D01*
X014500Y008050D01*
X014378Y008333D02*
X012660Y008333D01*
X012591Y008235D02*
X014248Y008235D01*
X014202Y008136D02*
X012521Y008136D01*
X012452Y008038D02*
X014191Y008038D01*
X013808Y007348D02*
X012272Y007348D01*
X012349Y007250D02*
X013864Y007250D01*
X014016Y007151D02*
X012425Y007151D01*
X012502Y007053D02*
X015425Y007053D01*
X015454Y007151D02*
X014183Y007151D01*
X014335Y007250D02*
X015232Y007250D01*
X015200Y007450D02*
X016100Y007050D01*
X030700Y007050D01*
X031800Y008150D01*
X033600Y008150D01*
X034100Y008650D01*
X034515Y008629D02*
X036750Y008629D01*
X036750Y008727D02*
X034515Y008727D01*
X034511Y008826D02*
X036750Y008826D01*
X036750Y008924D02*
X034413Y008924D01*
X034314Y009023D02*
X036750Y009023D01*
X036750Y009121D02*
X033611Y009121D01*
X033709Y009220D02*
X033900Y009220D01*
X033802Y009318D02*
X033770Y009318D01*
X034051Y009318D02*
X034148Y009318D01*
X034148Y009220D02*
X034051Y009220D01*
X034051Y009417D02*
X034148Y009417D01*
X034148Y009515D02*
X034051Y009515D01*
X034299Y009220D02*
X036750Y009220D01*
X036750Y009318D02*
X034397Y009318D01*
X034496Y009417D02*
X036750Y009417D01*
X036750Y009515D02*
X034545Y009515D01*
X033885Y009023D02*
X033512Y009023D01*
X033413Y008924D02*
X033786Y008924D01*
X033688Y008826D02*
X033511Y008826D01*
X033515Y008727D02*
X033684Y008727D01*
X033684Y008629D02*
X033515Y008629D01*
X033515Y008530D02*
X033684Y008530D01*
X033641Y008432D02*
X033468Y008432D01*
X033542Y008333D02*
X033370Y008333D01*
X033398Y007939D02*
X033801Y007939D01*
X033727Y008038D02*
X033900Y008038D01*
X033928Y008065D02*
X033684Y007822D01*
X033684Y007478D01*
X033928Y007235D01*
X034272Y007235D01*
X034515Y007478D01*
X034515Y007822D01*
X034272Y008065D01*
X033928Y008065D01*
X033826Y008136D02*
X036750Y008136D01*
X036750Y008038D02*
X034299Y008038D01*
X034398Y007939D02*
X036750Y007939D01*
X036750Y007841D02*
X034496Y007841D01*
X034515Y007742D02*
X036750Y007742D01*
X036750Y007644D02*
X034515Y007644D01*
X034515Y007545D02*
X036750Y007545D01*
X036750Y007447D02*
X034483Y007447D01*
X034385Y007348D02*
X036750Y007348D01*
X036750Y007250D02*
X034286Y007250D01*
X034284Y007053D02*
X036750Y007053D01*
X036750Y007151D02*
X033770Y007151D01*
X033742Y007053D02*
X033915Y007053D01*
X033913Y007250D02*
X033740Y007250D01*
X033814Y007348D02*
X033385Y007348D01*
X033483Y007447D02*
X033716Y007447D01*
X033684Y007545D02*
X033515Y007545D01*
X033515Y007644D02*
X033684Y007644D01*
X033684Y007742D02*
X033515Y007742D01*
X033496Y007841D02*
X033703Y007841D01*
X033924Y008235D02*
X036750Y008235D01*
X036750Y008333D02*
X034370Y008333D01*
X034468Y008432D02*
X036750Y008432D01*
X036750Y008530D02*
X034515Y008530D01*
X033100Y008650D02*
X031700Y008650D01*
X031721Y008432D02*
X032731Y008432D01*
X032829Y008333D02*
X031623Y008333D01*
X031644Y008235D02*
X031524Y008235D01*
X031545Y008136D02*
X031426Y008136D01*
X031447Y008038D02*
X031327Y008038D01*
X031348Y007939D02*
X031229Y007939D01*
X031250Y007841D02*
X031130Y007841D01*
X031151Y007742D02*
X031032Y007742D01*
X031053Y007644D02*
X030933Y007644D01*
X030954Y007545D02*
X030835Y007545D01*
X030856Y007447D02*
X030736Y007447D01*
X030757Y007348D02*
X030638Y007348D01*
X030659Y007250D02*
X016069Y007250D01*
X016139Y007348D02*
X015848Y007348D01*
X015975Y007447D02*
X015626Y007447D01*
X015574Y007053D02*
X015675Y007053D01*
X015731Y006954D02*
X015897Y006954D01*
X015789Y006856D02*
X030865Y006856D01*
X030844Y006954D02*
X030963Y006954D01*
X030942Y007053D02*
X031062Y007053D01*
X031041Y007151D02*
X031160Y007151D01*
X031139Y007250D02*
X031259Y007250D01*
X031238Y007348D02*
X031357Y007348D01*
X031336Y007447D02*
X031456Y007447D01*
X031435Y007545D02*
X031554Y007545D01*
X031533Y007644D02*
X031653Y007644D01*
X031632Y007742D02*
X031751Y007742D01*
X031730Y007841D02*
X032703Y007841D01*
X032801Y007939D02*
X031829Y007939D01*
X031900Y007650D02*
X030900Y006650D01*
X015800Y006650D01*
X015500Y006750D01*
X015608Y006462D02*
X031071Y006462D01*
X031050Y006560D02*
X031169Y006560D01*
X031148Y006659D02*
X031268Y006659D01*
X031247Y006757D02*
X031366Y006757D01*
X031345Y006856D02*
X031465Y006856D01*
X031444Y006954D02*
X031563Y006954D01*
X031542Y007053D02*
X031662Y007053D01*
X031641Y007151D02*
X031760Y007151D01*
X031739Y007250D02*
X031859Y007250D01*
X031838Y007348D02*
X032814Y007348D01*
X032716Y007447D02*
X031936Y007447D01*
X031900Y007650D02*
X033100Y007650D01*
X032816Y006954D02*
X032044Y006954D01*
X031945Y006856D02*
X032718Y006856D01*
X032684Y006757D02*
X031847Y006757D01*
X031748Y006659D02*
X032684Y006659D01*
X032684Y006560D02*
X031650Y006560D01*
X031551Y006462D02*
X032701Y006462D01*
X032799Y006363D02*
X031453Y006363D01*
X031354Y006265D02*
X032898Y006265D01*
X032831Y005969D02*
X015126Y005969D01*
X015253Y006068D02*
X036750Y006068D01*
X036750Y006166D02*
X031256Y006166D01*
X032900Y005750D02*
X033100Y005650D01*
X032900Y005750D02*
X013300Y005750D01*
X012808Y006659D02*
X015204Y006659D01*
X015191Y006757D02*
X012732Y006757D01*
X012655Y006856D02*
X015210Y006856D01*
X015268Y006954D02*
X012578Y006954D01*
X011913Y005477D02*
X015822Y005477D01*
X015852Y005506D02*
X015643Y005298D01*
X015643Y005002D01*
X015852Y004794D01*
X016147Y004794D01*
X016356Y005002D01*
X016356Y005298D01*
X016147Y005506D01*
X015852Y005506D01*
X015724Y005378D02*
X012012Y005378D01*
X012110Y005280D02*
X015643Y005280D01*
X015643Y005181D02*
X012209Y005181D01*
X012307Y005083D02*
X015643Y005083D01*
X015662Y004984D02*
X012406Y004984D01*
X012504Y004886D02*
X015760Y004886D01*
X015852Y004506D02*
X015643Y004298D01*
X015643Y004002D01*
X015852Y003794D01*
X016147Y003794D01*
X016356Y004002D01*
X016356Y004298D01*
X016147Y004506D01*
X015852Y004506D01*
X015837Y004492D02*
X015162Y004492D01*
X015260Y004393D02*
X015739Y004393D01*
X015643Y004295D02*
X015356Y004295D01*
X015356Y004196D02*
X015643Y004196D01*
X015643Y004098D02*
X015356Y004098D01*
X015352Y003999D02*
X015647Y003999D01*
X015745Y003901D02*
X015254Y003901D01*
X015155Y003802D02*
X015844Y003802D01*
X016155Y003802D02*
X016844Y003802D01*
X016745Y003901D02*
X016254Y003901D01*
X016352Y003999D02*
X016647Y003999D01*
X016643Y004098D02*
X016356Y004098D01*
X016356Y004196D02*
X016643Y004196D01*
X016643Y004295D02*
X016356Y004295D01*
X016260Y004393D02*
X016739Y004393D01*
X016837Y004492D02*
X016162Y004492D01*
X016239Y004886D02*
X016760Y004886D01*
X016662Y004984D02*
X016337Y004984D01*
X016356Y005083D02*
X016643Y005083D01*
X016643Y005181D02*
X016356Y005181D01*
X016356Y005280D02*
X016643Y005280D01*
X016724Y005378D02*
X016275Y005378D01*
X016177Y005477D02*
X016822Y005477D01*
X017177Y005477D02*
X017822Y005477D01*
X017852Y005506D02*
X017643Y005298D01*
X017643Y005002D01*
X017852Y004794D01*
X018147Y004794D01*
X018356Y005002D01*
X018356Y005298D01*
X018147Y005506D01*
X017852Y005506D01*
X017724Y005378D02*
X017275Y005378D01*
X017356Y005280D02*
X017643Y005280D01*
X017643Y005181D02*
X017356Y005181D01*
X017406Y005083D02*
X017643Y005083D01*
X017662Y004984D02*
X017505Y004984D01*
X017603Y004886D02*
X017760Y004886D01*
X017702Y004787D02*
X018683Y004787D01*
X018671Y004794D02*
X018705Y004774D01*
X018744Y004764D01*
X018971Y004764D01*
X018971Y005121D01*
X019028Y005121D01*
X019028Y004764D01*
X019256Y004764D01*
X019294Y004774D01*
X019328Y004794D01*
X019356Y004822D01*
X019376Y004856D01*
X019386Y004894D01*
X019386Y005121D01*
X019028Y005121D01*
X019028Y005179D01*
X018971Y005179D01*
X018971Y005536D01*
X018744Y005536D01*
X018705Y005526D01*
X018671Y005506D01*
X018643Y005478D01*
X018624Y005444D01*
X018613Y005406D01*
X018613Y005179D01*
X018971Y005179D01*
X018971Y005121D01*
X018613Y005121D01*
X018613Y004894D01*
X018624Y004856D01*
X018643Y004822D01*
X018671Y004794D01*
X018616Y004886D02*
X018239Y004886D01*
X018337Y004984D02*
X018613Y004984D01*
X018613Y005083D02*
X018356Y005083D01*
X018356Y005181D02*
X018613Y005181D01*
X018613Y005280D02*
X018356Y005280D01*
X018275Y005378D02*
X018613Y005378D01*
X018642Y005477D02*
X018177Y005477D01*
X018971Y005477D02*
X019028Y005477D01*
X019028Y005536D02*
X019028Y005179D01*
X019386Y005179D01*
X019386Y005406D01*
X019376Y005444D01*
X019356Y005478D01*
X019328Y005506D01*
X019294Y005526D01*
X019256Y005536D01*
X019028Y005536D01*
X019028Y005378D02*
X018971Y005378D01*
X018971Y005280D02*
X019028Y005280D01*
X019028Y005181D02*
X018971Y005181D01*
X018971Y005083D02*
X019028Y005083D01*
X019028Y004984D02*
X018971Y004984D01*
X018971Y004886D02*
X019028Y004886D01*
X019028Y004787D02*
X018971Y004787D01*
X018852Y004506D02*
X018643Y004298D01*
X018643Y004002D01*
X018852Y003794D01*
X019147Y003794D01*
X019356Y004002D01*
X019356Y004298D01*
X019147Y004506D01*
X018852Y004506D01*
X018837Y004492D02*
X018162Y004492D01*
X018260Y004393D02*
X018739Y004393D01*
X018643Y004295D02*
X018356Y004295D01*
X018356Y004196D02*
X018643Y004196D01*
X018643Y004098D02*
X018356Y004098D01*
X018352Y003999D02*
X018647Y003999D01*
X018745Y003901D02*
X018254Y003901D01*
X018155Y003802D02*
X018844Y003802D01*
X018852Y003506D02*
X018643Y003298D01*
X018643Y003002D01*
X018852Y002794D01*
X019147Y002794D01*
X019356Y003002D01*
X019356Y003298D01*
X019147Y003506D01*
X018852Y003506D01*
X018754Y003408D02*
X018245Y003408D01*
X018344Y003310D02*
X018655Y003310D01*
X018643Y003211D02*
X018356Y003211D01*
X018356Y003113D02*
X018643Y003113D01*
X018643Y003014D02*
X018356Y003014D01*
X018269Y002916D02*
X018730Y002916D01*
X018829Y002817D02*
X018170Y002817D01*
X017829Y002817D02*
X017740Y002817D01*
X017740Y002719D02*
X019257Y002719D01*
X019287Y002764D02*
X019104Y002489D01*
X018927Y002254D01*
X018825Y002211D01*
X018738Y002125D01*
X018691Y002011D01*
X018691Y001889D01*
X018738Y001775D01*
X018825Y001689D01*
X018938Y001642D01*
X019061Y001642D01*
X019174Y001689D01*
X019261Y001775D01*
X019308Y001889D01*
X019308Y001961D01*
X019467Y002173D01*
X019473Y002177D01*
X019496Y002211D01*
X019520Y002244D01*
X019522Y002251D01*
X019613Y002388D01*
X019613Y002179D01*
X019971Y002179D01*
X019971Y002121D01*
X020028Y002121D01*
X020028Y001764D01*
X020256Y001764D01*
X020294Y001774D01*
X020328Y001794D01*
X020356Y001822D01*
X020376Y001856D01*
X020386Y001894D01*
X020386Y002121D01*
X020028Y002121D01*
X020028Y002179D01*
X020386Y002179D01*
X020386Y002406D01*
X020385Y002410D01*
X020756Y002410D01*
X020643Y002298D01*
X020643Y002002D01*
X020852Y001794D01*
X021147Y001794D01*
X021356Y002002D01*
X021356Y002298D01*
X021243Y002410D01*
X021400Y002410D01*
X021643Y002167D01*
X021643Y002002D01*
X021852Y001794D01*
X022147Y001794D01*
X022356Y002002D01*
X022356Y002167D01*
X022599Y002410D01*
X022756Y002410D01*
X022643Y002298D01*
X022643Y002002D01*
X022852Y001794D01*
X023147Y001794D01*
X023356Y002002D01*
X023356Y002298D01*
X023243Y002410D01*
X025547Y002410D01*
X025635Y002447D01*
X025703Y002514D01*
X025740Y002602D01*
X025740Y002906D01*
X025852Y002794D01*
X026147Y002794D01*
X026356Y003002D01*
X026356Y003298D01*
X026147Y003506D01*
X025852Y003506D01*
X025740Y003394D01*
X025740Y003906D01*
X025852Y003794D01*
X026147Y003794D01*
X026356Y004002D01*
X026356Y004298D01*
X026147Y004506D01*
X025852Y004506D01*
X025740Y004394D01*
X025740Y004698D01*
X025703Y004786D01*
X025356Y005133D01*
X025356Y005298D01*
X025147Y005506D01*
X024852Y005506D01*
X024643Y005298D01*
X024643Y005002D01*
X024852Y004794D01*
X025016Y004794D01*
X025260Y004551D01*
X025260Y004394D01*
X025147Y004506D01*
X024852Y004506D01*
X024643Y004298D01*
X024643Y004002D01*
X024852Y003794D01*
X025147Y003794D01*
X025260Y003906D01*
X025260Y003394D01*
X025147Y003506D01*
X024852Y003506D01*
X024643Y003298D01*
X024643Y003002D01*
X024756Y002890D01*
X024243Y002890D01*
X024356Y003002D01*
X024356Y003298D01*
X024147Y003506D01*
X023852Y003506D01*
X023643Y003298D01*
X023643Y003002D01*
X023756Y002890D01*
X023243Y002890D01*
X023356Y003002D01*
X023356Y003298D01*
X023147Y003506D01*
X022852Y003506D01*
X022643Y003298D01*
X022643Y003002D01*
X022756Y002890D01*
X022452Y002890D01*
X022364Y002853D01*
X022296Y002786D01*
X022016Y002506D01*
X021983Y002506D01*
X021635Y002853D01*
X021547Y002890D01*
X021243Y002890D01*
X021356Y003002D01*
X021356Y003298D01*
X021147Y003506D01*
X020852Y003506D01*
X020643Y003298D01*
X020643Y003002D01*
X020756Y002890D01*
X020243Y002890D01*
X020356Y003002D01*
X020356Y003298D01*
X020147Y003506D01*
X019852Y003506D01*
X019643Y003298D01*
X019643Y003002D01*
X019756Y002890D01*
X019523Y002890D01*
X019499Y002895D01*
X019476Y002890D01*
X019452Y002890D01*
X019429Y002881D01*
X019406Y002876D01*
X019386Y002863D01*
X019364Y002853D01*
X019346Y002836D01*
X019326Y002823D01*
X019313Y002803D01*
X019296Y002786D01*
X019287Y002764D01*
X019322Y002817D02*
X019170Y002817D01*
X019269Y002916D02*
X019730Y002916D01*
X019643Y003014D02*
X019356Y003014D01*
X019356Y003113D02*
X019643Y003113D01*
X019643Y003211D02*
X019356Y003211D01*
X019344Y003310D02*
X019655Y003310D01*
X019754Y003408D02*
X019245Y003408D01*
X019155Y003802D02*
X019844Y003802D01*
X019852Y003794D02*
X020147Y003794D01*
X020356Y004002D01*
X020356Y004298D01*
X020147Y004506D01*
X019852Y004506D01*
X019643Y004298D01*
X019643Y004002D01*
X019852Y003794D01*
X019745Y003901D02*
X019254Y003901D01*
X019352Y003999D02*
X019647Y003999D01*
X019643Y004098D02*
X019356Y004098D01*
X019356Y004196D02*
X019643Y004196D01*
X019643Y004295D02*
X019356Y004295D01*
X019260Y004393D02*
X019739Y004393D01*
X019837Y004492D02*
X019162Y004492D01*
X019316Y004787D02*
X025023Y004787D01*
X025122Y004689D02*
X017740Y004689D01*
X017740Y004590D02*
X025220Y004590D01*
X025260Y004492D02*
X025162Y004492D01*
X024837Y004492D02*
X024162Y004492D01*
X024147Y004506D02*
X023852Y004506D01*
X023643Y004298D01*
X023643Y004002D01*
X023852Y003794D01*
X024147Y003794D01*
X024356Y004002D01*
X024356Y004298D01*
X024147Y004506D01*
X024260Y004393D02*
X024739Y004393D01*
X024643Y004295D02*
X024356Y004295D01*
X024356Y004196D02*
X024643Y004196D01*
X024643Y004098D02*
X024356Y004098D01*
X024352Y003999D02*
X024647Y003999D01*
X024745Y003901D02*
X024254Y003901D01*
X024155Y003802D02*
X024844Y003802D01*
X025155Y003802D02*
X025260Y003802D01*
X025260Y003704D02*
X017740Y003704D01*
X017740Y003802D02*
X017844Y003802D01*
X017745Y003901D02*
X017740Y003901D01*
X017740Y003605D02*
X025260Y003605D01*
X025260Y003507D02*
X017740Y003507D01*
X017740Y003408D02*
X017754Y003408D01*
X017740Y002620D02*
X019191Y002620D01*
X019125Y002522D02*
X017740Y002522D01*
X017740Y002423D02*
X019054Y002423D01*
X018980Y002325D02*
X017740Y002325D01*
X017740Y002226D02*
X018861Y002226D01*
X018741Y002128D02*
X017758Y002128D01*
X017800Y002029D02*
X018699Y002029D01*
X018691Y001931D02*
X017808Y001931D01*
X017784Y001832D02*
X018715Y001832D01*
X018780Y001734D02*
X017719Y001734D01*
X019219Y001734D02*
X035150Y001734D01*
X035155Y001832D02*
X023185Y001832D01*
X023284Y001931D02*
X035196Y001931D01*
X035236Y002029D02*
X023356Y002029D01*
X023356Y002128D02*
X035277Y002128D01*
X035373Y002226D02*
X023356Y002226D01*
X023329Y002325D02*
X035472Y002325D01*
X035645Y002423D02*
X025579Y002423D01*
X025706Y002522D02*
X036750Y002522D01*
X036750Y002620D02*
X025740Y002620D01*
X025740Y002719D02*
X036750Y002719D01*
X036750Y002817D02*
X027170Y002817D01*
X027147Y002794D02*
X027356Y003002D01*
X027356Y003298D01*
X027147Y003506D01*
X026852Y003506D01*
X026643Y003298D01*
X026643Y003002D01*
X026852Y002794D01*
X027147Y002794D01*
X027269Y002916D02*
X036750Y002916D01*
X036750Y003014D02*
X027356Y003014D01*
X027356Y003113D02*
X036750Y003113D01*
X036750Y003211D02*
X027356Y003211D01*
X027344Y003310D02*
X036750Y003310D01*
X036750Y003408D02*
X027245Y003408D01*
X027147Y003794D02*
X026852Y003794D01*
X026643Y004002D01*
X026643Y004298D01*
X026852Y004506D01*
X027147Y004506D01*
X027356Y004298D01*
X027356Y004002D01*
X027147Y003794D01*
X027155Y003802D02*
X036750Y003802D01*
X036750Y003704D02*
X025740Y003704D01*
X025740Y003802D02*
X025844Y003802D01*
X025745Y003901D02*
X025740Y003901D01*
X025740Y003605D02*
X036750Y003605D01*
X036750Y003507D02*
X025740Y003507D01*
X025740Y003408D02*
X025754Y003408D01*
X026245Y003408D02*
X026754Y003408D01*
X026655Y003310D02*
X026344Y003310D01*
X026356Y003211D02*
X026643Y003211D01*
X026643Y003113D02*
X026356Y003113D01*
X026356Y003014D02*
X026643Y003014D01*
X026730Y002916D02*
X026269Y002916D01*
X026170Y002817D02*
X026829Y002817D01*
X025829Y002817D02*
X025740Y002817D01*
X025260Y003408D02*
X025245Y003408D01*
X025254Y003901D02*
X025260Y003901D01*
X024754Y003408D02*
X024245Y003408D01*
X024344Y003310D02*
X024655Y003310D01*
X024643Y003211D02*
X024356Y003211D01*
X024356Y003113D02*
X024643Y003113D01*
X024643Y003014D02*
X024356Y003014D01*
X024269Y002916D02*
X024730Y002916D01*
X023730Y002916D02*
X023269Y002916D01*
X023356Y003014D02*
X023643Y003014D01*
X023643Y003113D02*
X023356Y003113D01*
X023356Y003211D02*
X023643Y003211D01*
X023655Y003310D02*
X023344Y003310D01*
X023245Y003408D02*
X023754Y003408D01*
X023844Y003802D02*
X023155Y003802D01*
X023147Y003794D02*
X023356Y004002D01*
X023356Y004298D01*
X023147Y004506D01*
X022852Y004506D01*
X022643Y004298D01*
X022643Y004002D01*
X022852Y003794D01*
X023147Y003794D01*
X023254Y003901D02*
X023745Y003901D01*
X023647Y003999D02*
X023352Y003999D01*
X023356Y004098D02*
X023643Y004098D01*
X023643Y004196D02*
X023356Y004196D01*
X023356Y004295D02*
X023643Y004295D01*
X023739Y004393D02*
X023260Y004393D01*
X023162Y004492D02*
X023837Y004492D01*
X023852Y004794D02*
X024147Y004794D01*
X024356Y005002D01*
X024356Y005298D01*
X024147Y005506D01*
X023852Y005506D01*
X023643Y005298D01*
X023643Y005002D01*
X023852Y004794D01*
X023760Y004886D02*
X019383Y004886D01*
X019386Y004984D02*
X023662Y004984D01*
X023643Y005083D02*
X019386Y005083D01*
X019386Y005181D02*
X023643Y005181D01*
X023643Y005280D02*
X019386Y005280D01*
X019386Y005378D02*
X023724Y005378D01*
X023822Y005477D02*
X019357Y005477D01*
X020162Y004492D02*
X020837Y004492D01*
X020852Y004506D02*
X020643Y004298D01*
X020643Y004002D01*
X020852Y003794D01*
X021147Y003794D01*
X021356Y004002D01*
X021356Y004298D01*
X021147Y004506D01*
X020852Y004506D01*
X020739Y004393D02*
X020260Y004393D01*
X020356Y004295D02*
X020643Y004295D01*
X020643Y004196D02*
X020356Y004196D01*
X020356Y004098D02*
X020643Y004098D01*
X020647Y003999D02*
X020352Y003999D01*
X020254Y003901D02*
X020745Y003901D01*
X020844Y003802D02*
X020155Y003802D01*
X020245Y003408D02*
X020754Y003408D01*
X020655Y003310D02*
X020344Y003310D01*
X020356Y003211D02*
X020643Y003211D01*
X020643Y003113D02*
X020356Y003113D01*
X020356Y003014D02*
X020643Y003014D01*
X020730Y002916D02*
X020269Y002916D01*
X020386Y002325D02*
X020670Y002325D01*
X020643Y002226D02*
X020386Y002226D01*
X020386Y002029D02*
X020643Y002029D01*
X020643Y002128D02*
X020028Y002128D01*
X019971Y002128D02*
X019433Y002128D01*
X019507Y002226D02*
X019613Y002226D01*
X019613Y002325D02*
X019571Y002325D01*
X019613Y002121D02*
X019613Y001894D01*
X019624Y001856D01*
X019643Y001822D01*
X019671Y001794D01*
X019705Y001774D01*
X019744Y001764D01*
X019971Y001764D01*
X019971Y002121D01*
X019613Y002121D01*
X019613Y002029D02*
X019359Y002029D01*
X019308Y001931D02*
X019613Y001931D01*
X019637Y001832D02*
X019284Y001832D01*
X019971Y001832D02*
X020028Y001832D01*
X020028Y001931D02*
X019971Y001931D01*
X019971Y002029D02*
X020028Y002029D01*
X020386Y001931D02*
X020715Y001931D01*
X020814Y001832D02*
X020362Y001832D01*
X021185Y001832D02*
X021814Y001832D01*
X021715Y001931D02*
X021284Y001931D01*
X021356Y002029D02*
X021643Y002029D01*
X021643Y002128D02*
X021356Y002128D01*
X021356Y002226D02*
X021584Y002226D01*
X021486Y002325D02*
X021329Y002325D01*
X021770Y002719D02*
X022229Y002719D01*
X022147Y002794D02*
X022356Y003002D01*
X022356Y003298D01*
X022147Y003506D01*
X021852Y003506D01*
X021643Y003298D01*
X021643Y003002D01*
X021852Y002794D01*
X022147Y002794D01*
X022170Y002817D02*
X022327Y002817D01*
X022269Y002916D02*
X022730Y002916D01*
X022643Y003014D02*
X022356Y003014D01*
X022356Y003113D02*
X022643Y003113D01*
X022643Y003211D02*
X022356Y003211D01*
X022344Y003310D02*
X022655Y003310D01*
X022754Y003408D02*
X022245Y003408D01*
X022147Y003794D02*
X022356Y004002D01*
X022356Y004298D01*
X022147Y004506D01*
X021852Y004506D01*
X021643Y004298D01*
X021643Y004002D01*
X021852Y003794D01*
X022147Y003794D01*
X022155Y003802D02*
X022844Y003802D01*
X022745Y003901D02*
X022254Y003901D01*
X022352Y003999D02*
X022647Y003999D01*
X022643Y004098D02*
X022356Y004098D01*
X022356Y004196D02*
X022643Y004196D01*
X022643Y004295D02*
X022356Y004295D01*
X022260Y004393D02*
X022739Y004393D01*
X022837Y004492D02*
X022162Y004492D01*
X021837Y004492D02*
X021162Y004492D01*
X021260Y004393D02*
X021739Y004393D01*
X021643Y004295D02*
X021356Y004295D01*
X021356Y004196D02*
X021643Y004196D01*
X021643Y004098D02*
X021356Y004098D01*
X021352Y003999D02*
X021647Y003999D01*
X021745Y003901D02*
X021254Y003901D01*
X021155Y003802D02*
X021844Y003802D01*
X021754Y003408D02*
X021245Y003408D01*
X021344Y003310D02*
X021655Y003310D01*
X021643Y003211D02*
X021356Y003211D01*
X021356Y003113D02*
X021643Y003113D01*
X021643Y003014D02*
X021356Y003014D01*
X021269Y002916D02*
X021730Y002916D01*
X021672Y002817D02*
X021829Y002817D01*
X021869Y002620D02*
X022130Y002620D01*
X022032Y002522D02*
X021967Y002522D01*
X022415Y002226D02*
X022643Y002226D01*
X022643Y002128D02*
X022356Y002128D01*
X022356Y002029D02*
X022643Y002029D01*
X022715Y001931D02*
X022284Y001931D01*
X022185Y001832D02*
X022814Y001832D01*
X022670Y002325D02*
X022513Y002325D01*
X024239Y004886D02*
X024760Y004886D01*
X024662Y004984D02*
X024337Y004984D01*
X024356Y005083D02*
X024643Y005083D01*
X024643Y005181D02*
X024356Y005181D01*
X024356Y005280D02*
X024643Y005280D01*
X024724Y005378D02*
X024275Y005378D01*
X024177Y005477D02*
X024822Y005477D01*
X025177Y005477D02*
X025822Y005477D01*
X025852Y005506D02*
X025643Y005298D01*
X025643Y005002D01*
X025852Y004794D01*
X026147Y004794D01*
X026356Y005002D01*
X026356Y005298D01*
X026147Y005506D01*
X025852Y005506D01*
X025724Y005378D02*
X025275Y005378D01*
X025356Y005280D02*
X025643Y005280D01*
X025643Y005181D02*
X025356Y005181D01*
X025406Y005083D02*
X025643Y005083D01*
X025662Y004984D02*
X025505Y004984D01*
X025603Y004886D02*
X025760Y004886D01*
X025702Y004787D02*
X026683Y004787D01*
X026671Y004794D02*
X026705Y004774D01*
X026744Y004764D01*
X026971Y004764D01*
X026971Y005121D01*
X026613Y005121D01*
X026613Y004894D01*
X026624Y004856D01*
X026643Y004822D01*
X026671Y004794D01*
X026616Y004886D02*
X026239Y004886D01*
X026337Y004984D02*
X026613Y004984D01*
X026613Y005083D02*
X026356Y005083D01*
X026356Y005181D02*
X026613Y005181D01*
X026613Y005280D02*
X026356Y005280D01*
X026275Y005378D02*
X026613Y005378D01*
X026642Y005477D02*
X026177Y005477D01*
X026971Y005477D02*
X027028Y005477D01*
X027028Y005378D02*
X026971Y005378D01*
X026971Y005280D02*
X027028Y005280D01*
X027028Y005181D02*
X026971Y005181D01*
X026971Y005083D02*
X027028Y005083D01*
X027028Y004984D02*
X026971Y004984D01*
X026971Y004886D02*
X027028Y004886D01*
X027028Y004787D02*
X026971Y004787D01*
X026837Y004492D02*
X026162Y004492D01*
X026260Y004393D02*
X026739Y004393D01*
X026643Y004295D02*
X026356Y004295D01*
X026356Y004196D02*
X026643Y004196D01*
X026643Y004098D02*
X026356Y004098D01*
X026352Y003999D02*
X026647Y003999D01*
X026745Y003901D02*
X026254Y003901D01*
X026155Y003802D02*
X026844Y003802D01*
X027254Y003901D02*
X036750Y003901D01*
X036750Y003999D02*
X027352Y003999D01*
X027356Y004098D02*
X036750Y004098D01*
X036750Y004196D02*
X027356Y004196D01*
X027356Y004295D02*
X032825Y004295D01*
X032727Y004393D02*
X027260Y004393D01*
X027162Y004492D02*
X032654Y004492D01*
X032654Y004590D02*
X025740Y004590D01*
X025740Y004492D02*
X025837Y004492D01*
X025740Y004689D02*
X033051Y004689D01*
X033051Y004590D02*
X033148Y004590D01*
X033148Y004602D02*
X033148Y004205D01*
X033284Y004205D01*
X033545Y004466D01*
X033545Y004602D01*
X033148Y004602D01*
X033148Y004492D02*
X033051Y004492D01*
X033051Y004393D02*
X033148Y004393D01*
X033148Y004295D02*
X033051Y004295D01*
X033374Y004295D02*
X033868Y004295D01*
X033769Y004393D02*
X033472Y004393D01*
X033545Y004492D02*
X033684Y004492D01*
X033684Y004590D02*
X033545Y004590D01*
X032902Y005083D02*
X027386Y005083D01*
X027386Y004984D02*
X032804Y004984D01*
X032705Y004886D02*
X027383Y004886D01*
X027316Y004787D02*
X032654Y004787D01*
X034353Y004984D02*
X036750Y004984D01*
X036750Y004886D02*
X034451Y004886D01*
X034515Y004787D02*
X036750Y004787D01*
X036750Y004689D02*
X034515Y004689D01*
X034515Y004590D02*
X036750Y004590D01*
X036750Y004492D02*
X034515Y004492D01*
X034430Y004393D02*
X036750Y004393D01*
X036750Y004295D02*
X034331Y004295D01*
X034316Y005280D02*
X036750Y005280D01*
X036750Y005378D02*
X034415Y005378D01*
X034513Y005477D02*
X036750Y005477D01*
X036750Y005575D02*
X034515Y005575D01*
X034515Y005674D02*
X036750Y005674D01*
X036750Y005772D02*
X034515Y005772D01*
X034466Y005871D02*
X036750Y005871D01*
X036750Y005969D02*
X034368Y005969D01*
X034301Y006265D02*
X036750Y006265D01*
X036750Y006363D02*
X034400Y006363D01*
X034498Y006462D02*
X036750Y006462D01*
X036750Y006560D02*
X034515Y006560D01*
X034515Y006659D02*
X036750Y006659D01*
X036750Y006757D02*
X034515Y006757D01*
X034481Y006856D02*
X036750Y006856D01*
X036750Y006954D02*
X034383Y006954D01*
X036354Y002423D02*
X036750Y002423D01*
X036750Y002325D02*
X036527Y002325D01*
X036626Y002226D02*
X036750Y002226D01*
X036750Y002128D02*
X036722Y002128D01*
X035150Y001635D02*
X005350Y001635D01*
X005350Y001537D02*
X035150Y001537D01*
X035167Y001438D02*
X005332Y001438D01*
X005291Y001340D02*
X035208Y001340D01*
X035249Y001241D02*
X005250Y001241D01*
X005194Y001143D02*
X035305Y001143D01*
X035403Y001044D02*
X005096Y001044D01*
X004997Y000946D02*
X035502Y000946D01*
X017837Y004492D02*
X017740Y004492D01*
X017260Y004492D02*
X017162Y004492D01*
X017220Y004590D02*
X012800Y004590D01*
X012701Y004689D02*
X017122Y004689D01*
X017023Y004787D02*
X012603Y004787D01*
X011725Y004492D02*
X010690Y004492D01*
X010690Y004590D02*
X011697Y004590D01*
X011669Y004689D02*
X010690Y004689D01*
X010690Y004787D02*
X011622Y004787D01*
X011524Y004886D02*
X010690Y004886D01*
X010690Y004984D02*
X011425Y004984D01*
X011327Y005083D02*
X010690Y005083D01*
X010655Y005181D02*
X011228Y005181D01*
X011130Y005280D02*
X010592Y005280D01*
X010686Y004393D02*
X011739Y004393D01*
X011643Y004295D02*
X010645Y004295D01*
X010567Y004196D02*
X011643Y004196D01*
X012245Y003408D02*
X012754Y003408D01*
X012655Y003310D02*
X012344Y003310D01*
X012356Y003211D02*
X012643Y003211D01*
X012643Y003113D02*
X012356Y003113D01*
X012356Y003014D02*
X012643Y003014D01*
X012730Y002916D02*
X012269Y002916D01*
X012170Y002817D02*
X012829Y002817D01*
X014185Y001832D02*
X014814Y001832D01*
X014715Y001931D02*
X014284Y001931D01*
X014356Y002029D02*
X014643Y002029D01*
X014643Y002128D02*
X014356Y002128D01*
X014415Y002226D02*
X014643Y002226D01*
X014670Y002325D02*
X014513Y002325D01*
X015269Y002916D02*
X015730Y002916D01*
X015643Y003014D02*
X015356Y003014D01*
X015356Y003113D02*
X015643Y003113D01*
X015643Y003211D02*
X015356Y003211D01*
X015344Y003310D02*
X015655Y003310D01*
X015754Y003408D02*
X015245Y003408D01*
X008714Y008629D02*
X008506Y008629D01*
X008595Y008530D02*
X008615Y008530D01*
X008809Y008826D02*
X008370Y008826D01*
X008518Y008924D02*
X008661Y008924D01*
X008616Y009515D02*
X008563Y009515D01*
X008465Y009614D02*
X008715Y009614D01*
X009596Y010008D02*
X003750Y010008D01*
X003750Y010106D02*
X009551Y010106D01*
X009506Y010205D02*
X003750Y010205D01*
X003750Y010303D02*
X009461Y010303D01*
X009641Y009909D02*
X003750Y009909D01*
X003750Y009811D02*
X009685Y009811D01*
X009400Y010850D02*
X008800Y011450D01*
X008700Y011450D01*
X006615Y006954D02*
X003750Y006954D01*
X003750Y006856D02*
X006516Y006856D01*
X006452Y006757D02*
X003750Y006757D01*
X003750Y006659D02*
X006411Y006659D01*
X006371Y006560D02*
X003750Y006560D01*
X003750Y006462D02*
X006360Y006462D01*
X006360Y006363D02*
X003750Y006363D01*
X003750Y006265D02*
X006360Y006265D01*
X006385Y006166D02*
X003750Y006166D01*
X003750Y006068D02*
X006426Y006068D01*
X006466Y005969D02*
X003750Y005969D01*
X003750Y005871D02*
X006550Y005871D01*
X006649Y005772D02*
X003750Y005772D01*
X003750Y005674D02*
X006823Y005674D01*
X004145Y002423D02*
X003750Y002423D01*
X003750Y002325D02*
X003972Y002325D01*
X003873Y002226D02*
X003750Y002226D01*
X003750Y002128D02*
X003777Y002128D01*
D20*
X011900Y007550D03*
X014100Y007450D03*
X014500Y008050D03*
X015500Y006750D03*
X015000Y006250D03*
X018500Y008850D03*
X019500Y007950D03*
X019900Y008850D03*
X020300Y009450D03*
X018300Y010450D03*
X017800Y011750D03*
X017200Y011750D03*
X016600Y011750D03*
X016000Y011750D03*
X015400Y011750D03*
X014800Y011750D03*
X014900Y013550D03*
X016300Y014650D03*
X016700Y016050D03*
X016100Y016450D03*
X017500Y016950D03*
X020700Y016250D03*
X021500Y016850D03*
X022600Y016250D03*
X023500Y013850D03*
X024500Y013850D03*
X022700Y012050D03*
X020500Y013650D03*
X018700Y012450D03*
X013400Y014650D03*
X010100Y012650D03*
X009200Y012450D03*
X009400Y011650D03*
X008700Y011450D03*
X005900Y012550D03*
X004200Y011850D03*
X004200Y014450D03*
X004700Y015050D03*
X007300Y016750D03*
X008600Y018050D03*
X009300Y018050D03*
X010200Y017750D03*
X010200Y018350D03*
X010500Y020050D03*
X010500Y020850D03*
X013500Y018150D03*
X008600Y015550D03*
X009100Y013950D03*
X007950Y013950D03*
X005600Y022850D03*
X005800Y024350D03*
X005500Y024950D03*
X007400Y024400D03*
X007700Y026150D03*
X007700Y027050D03*
X006000Y027050D03*
X009600Y027050D03*
X012000Y023850D03*
X013800Y027050D03*
X030300Y024850D03*
X030300Y017350D03*
X030300Y012950D03*
X030300Y010450D03*
X030300Y003450D03*
X019000Y001950D03*
X017500Y001950D03*
D21*
X008200Y005650D03*
X006700Y003150D03*
X024800Y016950D03*
D22*
X021300Y016950D02*
X017500Y016950D01*
X016700Y016050D01*
X018700Y012450D02*
X018700Y010850D01*
X018300Y010450D01*
X017000Y026150D02*
X016100Y027050D01*
X013800Y027050D01*
D23*
X005800Y024350D02*
X006100Y023050D01*
X006400Y022550D01*
X008800Y018650D01*
X009300Y018050D01*
X008600Y018050D02*
X005900Y022550D01*
X005600Y022850D01*
X007950Y013950D02*
X009100Y013950D01*
X009200Y012450D02*
X006000Y012450D01*
X021300Y016950D02*
X021500Y016850D01*
D24*
X025000Y005150D02*
X025500Y004650D01*
X025500Y002650D01*
X022500Y002650D01*
X022000Y002150D01*
X021500Y002650D01*
X019500Y002650D01*
X019300Y002350D01*
X019000Y001950D01*
X017500Y001950D02*
X017500Y002650D01*
X014500Y002650D01*
X014000Y002150D01*
X017500Y002650D02*
X017500Y004650D01*
X017000Y005150D01*
D25*
X022600Y016250D02*
X022600Y017250D01*
X022200Y017550D01*
X017100Y017550D01*
X016100Y016450D01*
X013800Y027050D02*
X009600Y027050D01*
X007700Y027050D01*
X006000Y027050D01*
D26*
X007400Y013450D02*
X007400Y013150D01*
X006000Y012450D02*
X005900Y012550D01*
D27*
X012100Y011250D03*
X013100Y010950D03*
X014100Y010450D03*
X014700Y010450D03*
X015300Y010450D03*
X015900Y010450D03*
X016500Y010450D03*
M02*
