G75*
%MOIN*%
%OFA0B0*%
%FSLAX24Y24*%
%IPPOS*%
%LPD*%
%AMOC8*
5,1,8,0,0,1.08239X$1,22.5*
%
%ADD10C,0.0100*%
%ADD11C,0.0000*%
%ADD12R,0.0472X0.1260*%
%ADD13C,0.0540*%
%ADD14OC8,0.0472*%
%ADD15R,0.0472X0.0472*%
%ADD16R,0.0433X0.0433*%
%ADD17C,0.0110*%
%ADD18R,0.0098X0.0098*%
%ADD19R,0.0472X0.0157*%
%ADD20OC8,0.0591*%
%ADD21R,0.0591X0.0512*%
%ADD22R,0.0512X0.0591*%
%ADD23R,0.0760X0.2100*%
%ADD24C,0.0660*%
%ADD25C,0.1300*%
%ADD26OC8,0.0850*%
%ADD27C,0.1306*%
%ADD28R,0.1575X0.0354*%
%ADD29C,0.0376*%
%ADD30C,0.0240*%
%ADD31C,0.0400*%
%ADD32C,0.0320*%
%ADD33OC8,0.0376*%
%ADD34C,0.0160*%
%ADD35C,0.0120*%
%ADD36C,0.0500*%
%ADD37C,0.0337*%
D10*
X003500Y000650D02*
X003500Y027650D01*
X037000Y027650D01*
X037000Y000650D01*
X003500Y000650D01*
X008287Y004489D02*
X009126Y003650D01*
X010300Y003650D01*
X010993Y003650D01*
X011500Y003150D02*
X012000Y003150D01*
X011500Y003150D02*
X011400Y003050D01*
X011193Y003050D01*
X010300Y003650D02*
X010300Y004750D01*
X010300Y006056D01*
X011900Y007550D01*
X014100Y007450D02*
X014100Y010450D01*
X014500Y010250D02*
X014500Y008050D01*
X014500Y003650D01*
X015000Y003150D01*
X015500Y003650D02*
X016000Y003150D01*
X015500Y003650D02*
X015500Y006750D01*
X015500Y010050D01*
X015900Y010450D01*
X016500Y010450D02*
X016500Y004650D01*
X016000Y004150D01*
X015000Y004150D02*
X015000Y006250D01*
X015000Y010150D01*
X015300Y010450D01*
X014700Y010450D02*
X014500Y010250D01*
X013700Y011050D02*
X018300Y011050D01*
X019589Y012139D01*
X019589Y014159D01*
X019392Y014159D02*
X019392Y012242D01*
X018200Y011250D01*
X012100Y011250D01*
X012000Y011150D01*
X011800Y010850D01*
X009700Y009850D01*
X008600Y009750D01*
X008200Y009242D01*
X008980Y009242D02*
X012500Y010950D01*
X013100Y010950D01*
X013700Y011050D01*
X014800Y011750D02*
X016300Y013050D01*
X017450Y013750D01*
X018000Y013900D01*
X018000Y014050D01*
X018014Y014159D01*
X018211Y014159D02*
X018200Y013750D01*
X017500Y013550D01*
X015400Y011750D01*
X016000Y011750D02*
X017700Y013350D01*
X018400Y013600D01*
X018407Y014159D01*
X018604Y014159D02*
X018600Y013400D01*
X017900Y013150D01*
X017300Y012600D01*
X016600Y011750D01*
X017200Y011750D02*
X018100Y012950D01*
X018800Y013200D01*
X018801Y014159D01*
X018998Y014159D02*
X018998Y012948D01*
X018400Y012800D01*
X017800Y011750D01*
X018700Y012450D02*
X019195Y012745D01*
X019195Y014159D01*
X020090Y014464D02*
X020285Y014464D01*
X020500Y014250D01*
X020500Y013650D01*
X020900Y013250D02*
X019900Y012250D01*
X019900Y011250D01*
X018500Y009850D01*
X018500Y008850D01*
X018500Y003650D01*
X019000Y003150D01*
X019500Y003650D02*
X019500Y004450D01*
X019900Y004850D01*
X019900Y008850D01*
X019900Y010450D01*
X020900Y011450D01*
X020900Y012450D01*
X021700Y013250D01*
X021700Y014250D01*
X021095Y015055D01*
X020090Y015055D01*
X020495Y015055D01*
X020498Y015252D02*
X020090Y015252D01*
X021398Y015252D01*
X022100Y014250D01*
X022100Y013250D01*
X021300Y012450D01*
X021300Y011450D01*
X020300Y010450D01*
X020300Y009450D01*
X020300Y004850D01*
X020000Y004550D01*
X020000Y004150D01*
X019500Y003650D02*
X020000Y003150D01*
X019000Y004150D02*
X019000Y004350D01*
X019500Y004850D01*
X019500Y007950D01*
X019500Y010450D01*
X020500Y011450D01*
X020500Y012450D01*
X021300Y013250D01*
X021300Y014250D01*
X020692Y014858D01*
X020090Y014858D01*
X020492Y014858D01*
X020489Y014661D02*
X020090Y014661D01*
X020489Y014661D02*
X020900Y014250D01*
X020900Y013250D01*
X021900Y012050D02*
X021900Y011450D01*
X021900Y011250D01*
X021926Y011250D01*
X021900Y011250D02*
X021900Y004250D01*
X022000Y004150D01*
X023500Y003650D02*
X023500Y013850D01*
X021904Y015645D01*
X020090Y015645D01*
X020090Y015448D02*
X020498Y015448D01*
X021601Y015448D01*
X022700Y014050D01*
X022700Y013050D01*
X021900Y012050D01*
X022700Y012050D02*
X022674Y011250D01*
X024500Y013850D02*
X024500Y004650D01*
X024000Y004150D01*
X023500Y003650D02*
X024000Y003150D01*
X030300Y005063D02*
X030339Y005024D01*
X031300Y005024D01*
X031300Y008976D02*
X030339Y008976D01*
X030300Y008937D01*
X024500Y013850D02*
X022107Y015842D01*
X020090Y015842D01*
X020090Y016039D02*
X020489Y016039D01*
X020700Y016250D01*
X020235Y016286D02*
X020090Y016236D01*
X019785Y016541D02*
X019785Y016736D01*
X027000Y023950D01*
X027000Y025150D01*
X026000Y025150D02*
X026000Y023350D01*
X019589Y016939D01*
X019589Y016541D01*
X019392Y016541D02*
X019392Y017142D01*
X025000Y022750D01*
X025000Y025150D01*
X024000Y025150D02*
X024000Y022150D01*
X019195Y017345D01*
X019195Y016541D01*
X018998Y016541D02*
X018998Y017548D01*
X023000Y021550D01*
X023000Y025150D01*
X022000Y025150D02*
X022000Y020950D01*
X018801Y017752D01*
X018801Y016541D01*
X018604Y016541D02*
X018604Y017955D01*
X021000Y020350D01*
X021000Y025150D01*
X020000Y025150D02*
X020000Y019750D01*
X018407Y018158D01*
X018407Y016541D01*
X018211Y016541D02*
X018211Y018361D01*
X019050Y019200D01*
X019050Y025100D01*
X019000Y025150D01*
X018000Y025150D02*
X018000Y022350D01*
X018014Y018464D01*
X018014Y016541D01*
X017709Y016236D02*
X017514Y016236D01*
X017000Y016900D01*
X017000Y025150D01*
X016000Y025150D02*
X016000Y018750D01*
X016300Y018450D01*
X016300Y017250D01*
X017311Y016039D01*
X017709Y016039D01*
X017709Y015842D02*
X016907Y015842D01*
X016700Y016050D01*
X016300Y015650D02*
X017709Y015645D01*
X017709Y015448D02*
X015501Y015448D01*
X015500Y015450D01*
X012200Y017850D01*
X012200Y020850D01*
X012800Y020850D01*
X012800Y019824D01*
X014100Y019850D01*
X014074Y019624D02*
X014500Y019650D01*
X014100Y019250D01*
X012000Y017750D02*
X015401Y015252D01*
X017709Y015252D01*
X017709Y015055D02*
X015904Y015055D01*
X015950Y015000D01*
X016300Y014650D02*
X016507Y014858D01*
X017709Y014858D01*
X017709Y014661D02*
X016400Y014661D01*
X016400Y014750D01*
X016874Y014424D02*
X017500Y014450D01*
X017694Y014450D01*
X017709Y014464D01*
X016874Y014424D02*
X016274Y013850D01*
X016100Y015745D02*
X016104Y015745D01*
X012000Y017750D02*
X012000Y021150D01*
X012800Y021624D01*
X012800Y022650D01*
X012800Y023076D01*
X012800Y022650D02*
X014100Y022650D01*
X012500Y024650D02*
X011800Y024650D01*
X011550Y024900D01*
X006643Y024900D01*
X006643Y025400D02*
X011550Y025400D01*
X012000Y025150D01*
X012000Y026250D01*
X011800Y026250D01*
X011400Y026150D01*
X010726Y026150D01*
X010700Y026176D01*
X012500Y024650D02*
X013000Y025150D01*
X013000Y026250D01*
X013100Y026250D01*
X013500Y026150D01*
X014774Y026150D01*
X014500Y026176D01*
X010500Y020850D02*
X009177Y020850D01*
X009171Y020844D01*
X009171Y020056D02*
X010000Y020056D01*
X010000Y020050D01*
X010500Y020050D01*
X008700Y015000D02*
X007843Y015000D01*
X007843Y014500D02*
X008400Y014500D01*
X008400Y012050D01*
X008700Y011450D01*
X009400Y011650D02*
X010100Y011076D01*
X010100Y011824D02*
X010100Y012650D01*
X009400Y011650D02*
X008700Y012350D01*
X008700Y015000D01*
X014100Y007450D02*
X014100Y004250D01*
X014000Y004150D01*
X020498Y015448D02*
X020500Y015450D01*
X030300Y014563D02*
X030339Y014524D01*
X031300Y014524D01*
X031300Y019224D02*
X031189Y019274D01*
X030300Y019263D01*
X030300Y023137D02*
X030339Y023176D01*
X031300Y023176D01*
D11*
X035350Y026650D02*
X035352Y026700D01*
X035358Y026750D01*
X035368Y026800D01*
X035381Y026848D01*
X035398Y026896D01*
X035419Y026942D01*
X035443Y026986D01*
X035471Y027028D01*
X035502Y027068D01*
X035536Y027105D01*
X035573Y027140D01*
X035612Y027171D01*
X035653Y027200D01*
X035697Y027225D01*
X035743Y027247D01*
X035790Y027265D01*
X035838Y027279D01*
X035887Y027290D01*
X035937Y027297D01*
X035987Y027300D01*
X036038Y027299D01*
X036088Y027294D01*
X036138Y027285D01*
X036186Y027273D01*
X036234Y027256D01*
X036280Y027236D01*
X036325Y027213D01*
X036368Y027186D01*
X036408Y027156D01*
X036446Y027123D01*
X036481Y027087D01*
X036514Y027048D01*
X036543Y027007D01*
X036569Y026964D01*
X036592Y026919D01*
X036611Y026872D01*
X036626Y026824D01*
X036638Y026775D01*
X036646Y026725D01*
X036650Y026675D01*
X036650Y026625D01*
X036646Y026575D01*
X036638Y026525D01*
X036626Y026476D01*
X036611Y026428D01*
X036592Y026381D01*
X036569Y026336D01*
X036543Y026293D01*
X036514Y026252D01*
X036481Y026213D01*
X036446Y026177D01*
X036408Y026144D01*
X036368Y026114D01*
X036325Y026087D01*
X036280Y026064D01*
X036234Y026044D01*
X036186Y026027D01*
X036138Y026015D01*
X036088Y026006D01*
X036038Y026001D01*
X035987Y026000D01*
X035937Y026003D01*
X035887Y026010D01*
X035838Y026021D01*
X035790Y026035D01*
X035743Y026053D01*
X035697Y026075D01*
X035653Y026100D01*
X035612Y026129D01*
X035573Y026160D01*
X035536Y026195D01*
X035502Y026232D01*
X035471Y026272D01*
X035443Y026314D01*
X035419Y026358D01*
X035398Y026404D01*
X035381Y026452D01*
X035368Y026500D01*
X035358Y026550D01*
X035352Y026600D01*
X035350Y026650D01*
X003850Y026650D02*
X003852Y026700D01*
X003858Y026750D01*
X003868Y026800D01*
X003881Y026848D01*
X003898Y026896D01*
X003919Y026942D01*
X003943Y026986D01*
X003971Y027028D01*
X004002Y027068D01*
X004036Y027105D01*
X004073Y027140D01*
X004112Y027171D01*
X004153Y027200D01*
X004197Y027225D01*
X004243Y027247D01*
X004290Y027265D01*
X004338Y027279D01*
X004387Y027290D01*
X004437Y027297D01*
X004487Y027300D01*
X004538Y027299D01*
X004588Y027294D01*
X004638Y027285D01*
X004686Y027273D01*
X004734Y027256D01*
X004780Y027236D01*
X004825Y027213D01*
X004868Y027186D01*
X004908Y027156D01*
X004946Y027123D01*
X004981Y027087D01*
X005014Y027048D01*
X005043Y027007D01*
X005069Y026964D01*
X005092Y026919D01*
X005111Y026872D01*
X005126Y026824D01*
X005138Y026775D01*
X005146Y026725D01*
X005150Y026675D01*
X005150Y026625D01*
X005146Y026575D01*
X005138Y026525D01*
X005126Y026476D01*
X005111Y026428D01*
X005092Y026381D01*
X005069Y026336D01*
X005043Y026293D01*
X005014Y026252D01*
X004981Y026213D01*
X004946Y026177D01*
X004908Y026144D01*
X004868Y026114D01*
X004825Y026087D01*
X004780Y026064D01*
X004734Y026044D01*
X004686Y026027D01*
X004638Y026015D01*
X004588Y026006D01*
X004538Y026001D01*
X004487Y026000D01*
X004437Y026003D01*
X004387Y026010D01*
X004338Y026021D01*
X004290Y026035D01*
X004243Y026053D01*
X004197Y026075D01*
X004153Y026100D01*
X004112Y026129D01*
X004073Y026160D01*
X004036Y026195D01*
X004002Y026232D01*
X003971Y026272D01*
X003943Y026314D01*
X003919Y026358D01*
X003898Y026404D01*
X003881Y026452D01*
X003868Y026500D01*
X003858Y026550D01*
X003852Y026600D01*
X003850Y026650D01*
X003850Y001650D02*
X003852Y001700D01*
X003858Y001750D01*
X003868Y001800D01*
X003881Y001848D01*
X003898Y001896D01*
X003919Y001942D01*
X003943Y001986D01*
X003971Y002028D01*
X004002Y002068D01*
X004036Y002105D01*
X004073Y002140D01*
X004112Y002171D01*
X004153Y002200D01*
X004197Y002225D01*
X004243Y002247D01*
X004290Y002265D01*
X004338Y002279D01*
X004387Y002290D01*
X004437Y002297D01*
X004487Y002300D01*
X004538Y002299D01*
X004588Y002294D01*
X004638Y002285D01*
X004686Y002273D01*
X004734Y002256D01*
X004780Y002236D01*
X004825Y002213D01*
X004868Y002186D01*
X004908Y002156D01*
X004946Y002123D01*
X004981Y002087D01*
X005014Y002048D01*
X005043Y002007D01*
X005069Y001964D01*
X005092Y001919D01*
X005111Y001872D01*
X005126Y001824D01*
X005138Y001775D01*
X005146Y001725D01*
X005150Y001675D01*
X005150Y001625D01*
X005146Y001575D01*
X005138Y001525D01*
X005126Y001476D01*
X005111Y001428D01*
X005092Y001381D01*
X005069Y001336D01*
X005043Y001293D01*
X005014Y001252D01*
X004981Y001213D01*
X004946Y001177D01*
X004908Y001144D01*
X004868Y001114D01*
X004825Y001087D01*
X004780Y001064D01*
X004734Y001044D01*
X004686Y001027D01*
X004638Y001015D01*
X004588Y001006D01*
X004538Y001001D01*
X004487Y001000D01*
X004437Y001003D01*
X004387Y001010D01*
X004338Y001021D01*
X004290Y001035D01*
X004243Y001053D01*
X004197Y001075D01*
X004153Y001100D01*
X004112Y001129D01*
X004073Y001160D01*
X004036Y001195D01*
X004002Y001232D01*
X003971Y001272D01*
X003943Y001314D01*
X003919Y001358D01*
X003898Y001404D01*
X003881Y001452D01*
X003868Y001500D01*
X003858Y001550D01*
X003852Y001600D01*
X003850Y001650D01*
X035350Y001650D02*
X035352Y001700D01*
X035358Y001750D01*
X035368Y001800D01*
X035381Y001848D01*
X035398Y001896D01*
X035419Y001942D01*
X035443Y001986D01*
X035471Y002028D01*
X035502Y002068D01*
X035536Y002105D01*
X035573Y002140D01*
X035612Y002171D01*
X035653Y002200D01*
X035697Y002225D01*
X035743Y002247D01*
X035790Y002265D01*
X035838Y002279D01*
X035887Y002290D01*
X035937Y002297D01*
X035987Y002300D01*
X036038Y002299D01*
X036088Y002294D01*
X036138Y002285D01*
X036186Y002273D01*
X036234Y002256D01*
X036280Y002236D01*
X036325Y002213D01*
X036368Y002186D01*
X036408Y002156D01*
X036446Y002123D01*
X036481Y002087D01*
X036514Y002048D01*
X036543Y002007D01*
X036569Y001964D01*
X036592Y001919D01*
X036611Y001872D01*
X036626Y001824D01*
X036638Y001775D01*
X036646Y001725D01*
X036650Y001675D01*
X036650Y001625D01*
X036646Y001575D01*
X036638Y001525D01*
X036626Y001476D01*
X036611Y001428D01*
X036592Y001381D01*
X036569Y001336D01*
X036543Y001293D01*
X036514Y001252D01*
X036481Y001213D01*
X036446Y001177D01*
X036408Y001144D01*
X036368Y001114D01*
X036325Y001087D01*
X036280Y001064D01*
X036234Y001044D01*
X036186Y001027D01*
X036138Y001015D01*
X036088Y001006D01*
X036038Y001001D01*
X035987Y001000D01*
X035937Y001003D01*
X035887Y001010D01*
X035838Y001021D01*
X035790Y001035D01*
X035743Y001053D01*
X035697Y001075D01*
X035653Y001100D01*
X035612Y001129D01*
X035573Y001160D01*
X035536Y001195D01*
X035502Y001232D01*
X035471Y001272D01*
X035443Y001314D01*
X035419Y001358D01*
X035398Y001404D01*
X035381Y001452D01*
X035368Y001500D01*
X035358Y001550D01*
X035352Y001600D01*
X035350Y001650D01*
D12*
X008287Y001811D03*
X006712Y001811D03*
X006712Y004489D03*
X008287Y004489D03*
D13*
X009300Y004480D02*
X009300Y005020D01*
X010300Y005020D02*
X010300Y004480D01*
X007400Y013180D02*
X007400Y013720D01*
X006400Y013720D02*
X006400Y013180D01*
X012000Y025980D02*
X012000Y026520D01*
X013000Y026520D02*
X013000Y025980D01*
D14*
X013000Y025150D03*
X014000Y025150D03*
X015000Y025150D03*
X016000Y025150D03*
X017000Y025150D03*
X018000Y025150D03*
X019000Y025150D03*
X020000Y025150D03*
X021000Y025150D03*
X022000Y025150D03*
X023000Y025150D03*
X024000Y025150D03*
X025000Y025150D03*
X026000Y025150D03*
X027000Y025150D03*
X026000Y026150D03*
X025000Y026150D03*
X024000Y026150D03*
X018000Y026150D03*
X017000Y026150D03*
X016000Y026150D03*
X012000Y025150D03*
X016000Y005150D03*
X017000Y005150D03*
X018000Y005150D03*
X018000Y004150D03*
X017000Y004150D03*
X017000Y003150D03*
X018000Y003150D03*
X019000Y003150D03*
X020000Y003150D03*
X021000Y003150D03*
X022000Y003150D03*
X023000Y003150D03*
X024000Y003150D03*
X025000Y003150D03*
X026000Y003150D03*
X027000Y003150D03*
X027000Y004150D03*
X026000Y004150D03*
X025000Y004150D03*
X024000Y004150D03*
X023000Y004150D03*
X022000Y004150D03*
X021000Y004150D03*
X020000Y004150D03*
X019000Y004150D03*
X021000Y002150D03*
X022000Y002150D03*
X023000Y002150D03*
X024000Y005150D03*
X025000Y005150D03*
X026000Y005150D03*
X016000Y004150D03*
X016000Y003150D03*
X015000Y003150D03*
X014000Y003150D03*
X014000Y004150D03*
X015000Y004150D03*
X013000Y004150D03*
X013000Y003150D03*
X012000Y003150D03*
X012000Y004150D03*
X013000Y002150D03*
X014000Y002150D03*
X015000Y002150D03*
D15*
X012000Y002150D03*
X019000Y005150D03*
X020000Y002150D03*
X027000Y005150D03*
X030300Y005063D03*
X030300Y004237D03*
X030300Y008937D03*
X030300Y009763D03*
X030300Y013737D03*
X030300Y014563D03*
X030300Y018437D03*
X030300Y019263D03*
X030300Y023137D03*
X030300Y023963D03*
X027000Y026150D03*
X019000Y026150D03*
D16*
X019087Y015950D03*
X018713Y015950D03*
X018299Y015950D03*
X018299Y015547D03*
X018299Y015153D03*
X018299Y014750D03*
X018713Y014750D03*
X019087Y014750D03*
X019087Y015153D03*
X018713Y015153D03*
X018713Y015547D03*
X019087Y015547D03*
X019500Y015547D03*
X019500Y015153D03*
X019500Y014750D03*
X019500Y015950D03*
D17*
X019958Y016039D02*
X020222Y016039D01*
X020222Y016236D02*
X019958Y016236D01*
X019785Y016409D02*
X019785Y016673D01*
X019589Y016673D02*
X019589Y016409D01*
X019392Y016409D02*
X019392Y016673D01*
X019195Y016673D02*
X019195Y016409D01*
X018998Y016409D02*
X018998Y016673D01*
X018801Y016673D02*
X018801Y016409D01*
X018604Y016409D02*
X018604Y016673D01*
X018407Y016673D02*
X018407Y016409D01*
X018211Y016409D02*
X018211Y016673D01*
X018014Y016673D02*
X018014Y016409D01*
X017841Y016236D02*
X017577Y016236D01*
X017577Y016039D02*
X017841Y016039D01*
X017841Y015842D02*
X017577Y015842D01*
X017577Y015645D02*
X017841Y015645D01*
X017841Y015448D02*
X017577Y015448D01*
X017577Y015252D02*
X017841Y015252D01*
X017841Y015055D02*
X017577Y015055D01*
X017577Y014858D02*
X017841Y014858D01*
X017841Y014661D02*
X017577Y014661D01*
X017577Y014464D02*
X017841Y014464D01*
X018014Y014291D02*
X018014Y014027D01*
X018211Y014027D02*
X018211Y014291D01*
X018407Y014291D02*
X018407Y014027D01*
X018604Y014027D02*
X018604Y014291D01*
X018801Y014291D02*
X018801Y014027D01*
X018998Y014027D02*
X018998Y014291D01*
X019195Y014291D02*
X019195Y014027D01*
X019392Y014027D02*
X019392Y014291D01*
X019589Y014291D02*
X019589Y014027D01*
X019785Y014027D02*
X019785Y014291D01*
X019958Y014464D02*
X020222Y014464D01*
X020222Y014661D02*
X019958Y014661D01*
X019958Y014858D02*
X020222Y014858D01*
X020222Y015055D02*
X019958Y015055D01*
X019958Y015252D02*
X020222Y015252D01*
X020222Y015448D02*
X019958Y015448D01*
X019958Y015645D02*
X020222Y015645D01*
X020222Y015842D02*
X019958Y015842D01*
D18*
X017768Y014218D03*
D19*
X007843Y014500D03*
X007843Y015000D03*
X007843Y015500D03*
X007843Y016000D03*
X005756Y016000D03*
X005756Y015500D03*
X005756Y015000D03*
X005756Y014500D03*
X006643Y023900D03*
X006643Y024400D03*
X006643Y024900D03*
X006643Y025400D03*
X004556Y025400D03*
X004556Y024900D03*
X004556Y024400D03*
X004556Y023900D03*
D20*
X033100Y023650D03*
X034100Y023650D03*
X034100Y022650D03*
X033100Y022650D03*
X033100Y021650D03*
X034100Y021650D03*
X034100Y020650D03*
X034100Y019650D03*
X033100Y019650D03*
X033100Y020650D03*
X033100Y018650D03*
X034100Y018650D03*
X034100Y017650D03*
X033100Y017650D03*
X033100Y016650D03*
X034100Y016650D03*
X034100Y015650D03*
X033100Y015650D03*
X033100Y014650D03*
X034100Y014650D03*
X034100Y013650D03*
X033100Y013650D03*
X033100Y012650D03*
X034100Y012650D03*
X034100Y011650D03*
X033100Y011650D03*
X033100Y010650D03*
X034100Y010650D03*
X034100Y009650D03*
X033100Y009650D03*
X033100Y008650D03*
X034100Y008650D03*
X034100Y007650D03*
X033100Y007650D03*
X033100Y006650D03*
X034100Y006650D03*
X034100Y005650D03*
X034100Y004650D03*
X033100Y004650D03*
X033100Y005650D03*
D21*
X031300Y005024D03*
X031300Y004276D03*
X031300Y008976D03*
X031300Y009724D03*
X031300Y013776D03*
X031300Y014524D03*
X031300Y018476D03*
X031300Y019224D03*
X031300Y023176D03*
X031300Y023924D03*
X014500Y026176D03*
X014500Y026924D03*
X010700Y026924D03*
X010700Y026176D03*
X008900Y026176D03*
X008900Y026924D03*
X006700Y026924D03*
X006700Y026176D03*
X012800Y023824D03*
X012800Y023076D03*
X012800Y021624D03*
X012800Y020876D03*
X012800Y019824D03*
X012800Y019076D03*
X010700Y015324D03*
X010700Y014576D03*
X009700Y014576D03*
X009700Y015324D03*
X010100Y011824D03*
X010100Y011076D03*
X010900Y003624D03*
X010900Y002876D03*
X009400Y002224D03*
X009400Y001476D03*
D22*
X021926Y011250D03*
X022674Y011250D03*
X023226Y015950D03*
X023974Y015950D03*
X023974Y016950D03*
X023226Y016950D03*
X016274Y013850D03*
X015526Y013850D03*
X014874Y014650D03*
X014126Y014650D03*
X013874Y013750D03*
X013126Y013750D03*
X009674Y016650D03*
X008926Y016650D03*
X006574Y016750D03*
X005826Y016750D03*
X005174Y013750D03*
X004426Y013750D03*
X004426Y012650D03*
X005174Y012650D03*
X006526Y012350D03*
X007274Y012350D03*
X014726Y017050D03*
X015474Y017050D03*
X015474Y018050D03*
X014726Y018050D03*
D23*
X014500Y019650D03*
X014500Y023450D03*
D24*
X008980Y009242D03*
X008200Y009242D03*
X008200Y008258D03*
X008980Y008258D03*
D25*
X007130Y006380D03*
X007130Y011120D03*
D26*
X026400Y017350D03*
D27*
X007400Y017863D03*
X007400Y023037D03*
D28*
X009171Y021828D03*
X009171Y020844D03*
X009171Y020056D03*
X009171Y019072D03*
D29*
X010200Y018350D03*
X010200Y017750D03*
X009300Y018050D03*
X008600Y018050D03*
X007300Y016750D03*
X008600Y015550D03*
X009100Y013950D03*
X007950Y013950D03*
X010100Y012650D03*
X009200Y012450D03*
X009400Y011650D03*
X008700Y011450D03*
X005900Y012550D03*
X004200Y011850D03*
X004200Y014450D03*
X004700Y015050D03*
X010500Y020050D03*
X010500Y020850D03*
X013500Y018150D03*
X016100Y016450D03*
X016700Y016050D03*
X017500Y016950D03*
X016300Y014650D03*
X014900Y013550D03*
X013400Y014650D03*
X014800Y011750D03*
X015400Y011750D03*
X016000Y011750D03*
X016600Y011750D03*
X017200Y011750D03*
X017800Y011750D03*
X018700Y012450D03*
X020500Y013650D03*
X022700Y012050D03*
X023500Y013850D03*
X024500Y013850D03*
X022600Y016250D03*
X021500Y016850D03*
X020700Y016250D03*
X018300Y010450D03*
X018500Y008850D03*
X019500Y007950D03*
X019900Y008850D03*
X020300Y009450D03*
X015500Y006750D03*
X015000Y006250D03*
X014100Y007450D03*
X014500Y008050D03*
X011900Y007550D03*
X017500Y001950D03*
X019000Y001950D03*
X030300Y003450D03*
X030300Y010450D03*
X030300Y012950D03*
X030300Y017350D03*
X030300Y024850D03*
X013800Y027050D03*
X012000Y023850D03*
X009600Y027050D03*
X007700Y027050D03*
X007700Y026150D03*
X006000Y027050D03*
X005500Y024950D03*
X005800Y024350D03*
X007400Y024400D03*
X005600Y022850D03*
D30*
X006643Y023900D02*
X007050Y023900D01*
X007400Y024400D01*
X006643Y024400D01*
X005500Y024950D02*
X004956Y024900D01*
X004556Y024900D01*
X012800Y019076D02*
X012800Y018850D01*
X013500Y018150D01*
X014626Y018150D01*
X014726Y018050D01*
X014726Y017050D01*
X015474Y017050D02*
X015474Y018050D01*
X016100Y016450D02*
X016104Y015745D01*
X015950Y015000D02*
X015500Y014650D01*
X014874Y014650D01*
X014874Y014424D01*
X014200Y013750D01*
X013874Y013750D01*
X013126Y013750D02*
X013126Y014376D01*
X013400Y014650D01*
X014126Y014650D01*
X014900Y013550D02*
X015226Y013776D01*
X015526Y013850D01*
X020235Y016286D02*
X020400Y016850D01*
X021500Y016850D01*
X014500Y019650D02*
X014100Y019850D01*
X008600Y015550D02*
X008550Y015500D01*
X007843Y015500D01*
X006700Y015500D02*
X005756Y015500D01*
X005756Y015000D02*
X004750Y015000D01*
X004700Y015050D01*
X004200Y014450D02*
X004426Y014224D01*
X004426Y013750D01*
X004426Y012650D01*
X004426Y012076D01*
X004200Y011850D01*
X005174Y012650D02*
X005174Y013750D01*
X005756Y014500D02*
X006700Y014500D01*
X017500Y025650D02*
X024500Y025650D01*
X025000Y026150D01*
X030300Y024850D02*
X030300Y023963D01*
X030300Y018437D02*
X030300Y017350D01*
X030300Y013737D02*
X030300Y012950D01*
X030300Y010450D02*
X030300Y009763D01*
X030300Y004237D02*
X030300Y003450D01*
X017500Y025650D02*
X017000Y026150D01*
X014500Y026924D02*
X014126Y026924D01*
X013800Y027050D01*
D31*
X010700Y026924D02*
X010574Y027050D01*
X010600Y027050D01*
X010574Y027050D02*
X009600Y027050D01*
X008900Y027050D01*
X008900Y026924D01*
X008900Y027050D02*
X007700Y027050D01*
X006700Y027050D01*
X006700Y026924D01*
X006700Y027050D02*
X006000Y027050D01*
X006000Y026350D01*
X005306Y025550D01*
X004556Y025400D01*
X006700Y026176D02*
X007674Y026176D01*
X007700Y026150D01*
X008874Y026150D01*
X008900Y026176D01*
X012000Y023850D02*
X012026Y023824D01*
X012800Y023824D01*
X009477Y019072D02*
X009171Y019072D01*
X009477Y019072D02*
X010200Y018350D01*
X010200Y017750D01*
X007300Y016750D02*
X006574Y016750D01*
X006700Y015500D02*
X006700Y014500D01*
X006400Y013450D01*
X004700Y016800D02*
X004700Y016850D01*
X008980Y007530D02*
X008900Y007450D01*
X017000Y005150D02*
X017500Y005650D01*
X017500Y009650D01*
X018300Y010450D01*
X019000Y001950D02*
X017500Y001950D01*
D32*
X009300Y004750D02*
X009300Y005250D01*
X008900Y005650D01*
X008200Y005650D01*
X006712Y004489D02*
X006700Y004476D01*
X006700Y003150D01*
X006712Y003137D01*
X006712Y001811D01*
X023126Y016050D02*
X023226Y015950D01*
X023126Y016050D02*
X023126Y016850D01*
X023226Y016950D01*
X023126Y016850D02*
X021500Y016850D01*
X020700Y016250D02*
X022600Y016250D01*
X023974Y015950D02*
X023974Y016950D01*
X024800Y016950D01*
X017500Y016950D02*
X017500Y025650D01*
X015474Y018050D02*
X015474Y016450D01*
X016100Y016450D01*
D33*
X024800Y016950D03*
X008200Y005650D03*
X006700Y003150D03*
D34*
X008287Y001811D02*
X008287Y004489D01*
X009700Y001300D02*
X013200Y001300D01*
X014000Y002150D01*
X009200Y012450D02*
X009726Y013176D01*
X010700Y014576D01*
X010700Y015324D02*
X009674Y016650D01*
X009300Y018050D01*
X008700Y017950D02*
X008926Y016650D01*
X008926Y016498D01*
X009700Y015324D01*
X009700Y014550D02*
X009100Y013950D01*
X007950Y013950D02*
X007400Y013450D01*
X006426Y012450D02*
X005900Y012550D01*
X008700Y017950D02*
X008600Y018050D01*
X012800Y020850D02*
X012800Y020876D01*
X014100Y022450D02*
X014100Y022650D01*
X014500Y023450D01*
X005800Y024350D02*
X005750Y024400D01*
X004556Y024400D01*
X004556Y023900D02*
X005450Y023900D01*
X005600Y022850D01*
X016300Y014650D02*
X016400Y014750D01*
X028900Y006450D02*
X028900Y025050D01*
D35*
X029200Y025350D01*
X030900Y025350D01*
X031300Y024950D01*
X031300Y023924D01*
X031300Y018476D02*
X031300Y016850D01*
X029600Y016850D01*
X029200Y016450D01*
X029200Y004550D01*
X028800Y004150D01*
X027000Y004150D01*
X026500Y004650D02*
X026500Y005650D01*
X026900Y006050D01*
X028500Y006050D01*
X028900Y006450D01*
X026500Y004650D02*
X026000Y004150D01*
X026000Y003150D02*
X026000Y002150D01*
X026400Y001750D01*
X029400Y001750D01*
X029800Y002150D01*
X029800Y010550D01*
X030200Y010950D01*
X030900Y010950D01*
X031300Y010550D01*
X031300Y009724D01*
X029500Y012150D02*
X029800Y012450D01*
X031000Y012450D01*
X031300Y012750D01*
X031300Y013776D01*
X029500Y012150D02*
X029500Y002450D01*
X029100Y002050D01*
X027400Y002050D01*
X027000Y002450D01*
X027000Y003150D01*
X025000Y003150D02*
X025000Y001850D01*
X025400Y001450D01*
X030900Y001450D01*
X031300Y001850D01*
X031300Y004276D01*
X016300Y015650D02*
X016100Y015745D01*
X009700Y014576D02*
X009700Y014550D01*
X006526Y012350D02*
X006426Y012450D01*
X010900Y003624D02*
X010993Y003650D01*
X011193Y003050D02*
X010900Y002876D01*
X009400Y002224D02*
X008287Y001811D01*
X009400Y001476D02*
X009600Y001350D01*
X009650Y001350D01*
X009700Y001300D01*
D36*
X008900Y007450D02*
X007700Y007450D01*
X005700Y010650D01*
X005700Y011524D01*
X005700Y011850D01*
X005200Y012350D01*
X005200Y012624D01*
X005174Y012650D01*
X005700Y011524D02*
X006526Y012350D01*
X007274Y012350D02*
X007300Y012350D01*
X007400Y012450D01*
X007400Y013450D01*
X004700Y015050D02*
X004700Y016800D01*
X005826Y016750D01*
X004700Y016850D02*
X008277Y021828D01*
X009171Y021828D01*
X008980Y008258D02*
X008980Y007530D01*
D37*
X013100Y010950D03*
X012100Y011250D03*
X014100Y010450D03*
X014700Y010450D03*
X015300Y010450D03*
X015900Y010450D03*
X016500Y010450D03*
M02*
