G75*
%MOIN*%
%OFA0B0*%
%FSLAX24Y24*%
%IPPOS*%
%LPD*%
%AMOC8*
5,1,8,0,0,1.08239X$1,22.5*
%
%ADD10C,0.1380*%
%ADD11C,0.0620*%
%ADD12OC8,0.0552*%
%ADD13R,0.0552X0.0552*%
%ADD14R,0.1575X0.1575*%
%ADD15OC8,0.0671*%
%ADD16C,0.0740*%
%ADD17OC8,0.0930*%
%ADD18C,0.1386*%
%ADD19C,0.0456*%
%ADD20OC8,0.0456*%
%ADD21C,0.0417*%
D10*
X004500Y001650D03*
X007130Y006380D03*
X007130Y011120D03*
X004500Y026650D03*
X036000Y026650D03*
X036000Y001650D03*
D11*
X010300Y004480D02*
X010300Y005020D01*
X009300Y005020D02*
X009300Y004480D01*
X007400Y013180D02*
X007400Y013720D01*
X006400Y013720D02*
X006400Y013180D01*
X012000Y025980D02*
X012000Y026520D01*
X013000Y026520D02*
X013000Y025980D01*
D12*
X013000Y025150D03*
X014000Y025150D03*
X015000Y025150D03*
X016000Y025150D03*
X017000Y025150D03*
X018000Y025150D03*
X019000Y025150D03*
X020000Y025150D03*
X021000Y025150D03*
X022000Y025150D03*
X023000Y025150D03*
X024000Y025150D03*
X025000Y025150D03*
X026000Y025150D03*
X027000Y025150D03*
X026000Y026150D03*
X025000Y026150D03*
X024000Y026150D03*
X018000Y026150D03*
X017000Y026150D03*
X016000Y026150D03*
X012000Y025150D03*
X016000Y005150D03*
X017000Y005150D03*
X018000Y005150D03*
X018000Y004150D03*
X017000Y004150D03*
X017000Y003150D03*
X018000Y003150D03*
X019000Y003150D03*
X020000Y003150D03*
X021000Y003150D03*
X022000Y003150D03*
X023000Y003150D03*
X024000Y003150D03*
X025000Y003150D03*
X026000Y003150D03*
X027000Y003150D03*
X027000Y004150D03*
X026000Y004150D03*
X025000Y004150D03*
X024000Y004150D03*
X023000Y004150D03*
X022000Y004150D03*
X021000Y004150D03*
X020000Y004150D03*
X019000Y004150D03*
X021000Y002150D03*
X022000Y002150D03*
X023000Y002150D03*
X024000Y005150D03*
X025000Y005150D03*
X026000Y005150D03*
X016000Y004150D03*
X016000Y003150D03*
X015000Y003150D03*
X014000Y003150D03*
X014000Y004150D03*
X015000Y004150D03*
X013000Y004150D03*
X013000Y003150D03*
X012000Y003150D03*
X012000Y004150D03*
X013000Y002150D03*
X014000Y002150D03*
X015000Y002150D03*
D13*
X012000Y002150D03*
X019000Y005150D03*
X020000Y002150D03*
X027000Y005150D03*
X027000Y026150D03*
X019000Y026150D03*
D14*
X018900Y015350D03*
D15*
X033100Y015650D03*
X034100Y015650D03*
X034100Y016650D03*
X033100Y016650D03*
X033100Y017650D03*
X034100Y017650D03*
X034100Y018650D03*
X033100Y018650D03*
X033100Y019650D03*
X034100Y019650D03*
X034100Y020650D03*
X033100Y020650D03*
X033100Y021650D03*
X034100Y021650D03*
X034100Y022650D03*
X034100Y023650D03*
X033100Y023650D03*
X033100Y022650D03*
X033100Y014650D03*
X034100Y014650D03*
X034100Y013650D03*
X033100Y013650D03*
X033100Y012650D03*
X034100Y012650D03*
X034100Y011650D03*
X033100Y011650D03*
X033100Y010650D03*
X034100Y010650D03*
X034100Y009650D03*
X033100Y009650D03*
X033100Y008650D03*
X034100Y008650D03*
X034100Y007650D03*
X033100Y007650D03*
X033100Y006650D03*
X034100Y006650D03*
X034100Y005650D03*
X034100Y004650D03*
X033100Y004650D03*
X033100Y005650D03*
D16*
X008980Y008258D03*
X008200Y008258D03*
X008200Y009242D03*
X008980Y009242D03*
D17*
X026400Y017350D03*
D18*
X007400Y017863D03*
X007400Y023037D03*
D19*
X007400Y024400D03*
X005800Y024350D03*
X005500Y024950D03*
X007700Y026150D03*
X007700Y027050D03*
X006000Y027050D03*
X009600Y027050D03*
X012000Y023850D03*
X010500Y020850D03*
X010500Y020050D03*
X010200Y018350D03*
X010200Y017750D03*
X009300Y018050D03*
X008600Y018050D03*
X007300Y016750D03*
X008600Y015550D03*
X009100Y013950D03*
X007950Y013950D03*
X010100Y012650D03*
X009200Y012450D03*
X009400Y011650D03*
X008700Y011450D03*
X005900Y012550D03*
X004200Y011850D03*
X004200Y014450D03*
X004700Y015050D03*
X013400Y014650D03*
X014900Y013550D03*
X016300Y014650D03*
X016700Y016050D03*
X016100Y016450D03*
X017500Y016950D03*
X020700Y016250D03*
X021500Y016850D03*
X022600Y016250D03*
X023500Y013850D03*
X024500Y013850D03*
X022700Y012050D03*
X020500Y013650D03*
X018700Y012450D03*
X017800Y011750D03*
X017200Y011750D03*
X016600Y011750D03*
X016000Y011750D03*
X015400Y011750D03*
X014800Y011750D03*
X018300Y010450D03*
X018500Y008850D03*
X019500Y007950D03*
X019900Y008850D03*
X020300Y009450D03*
X015500Y006750D03*
X015000Y006250D03*
X014100Y007450D03*
X014500Y008050D03*
X011900Y007550D03*
X017500Y001950D03*
X019000Y001950D03*
X030300Y003450D03*
X030300Y010450D03*
X030300Y012950D03*
X030300Y017350D03*
X030300Y024850D03*
X013800Y027050D03*
X005600Y022850D03*
X013500Y018150D03*
D20*
X024800Y016950D03*
X031100Y011250D03*
X029000Y002700D03*
X029800Y002150D03*
X031300Y001850D03*
X016500Y008550D03*
X008200Y005650D03*
X006700Y003150D03*
D21*
X014100Y010450D03*
X014700Y010450D03*
X015300Y010450D03*
X015900Y010450D03*
X016500Y010450D03*
X013100Y010950D03*
X012100Y011250D03*
M02*
