%
M48
M72
T01C0.0197
T02C0.0236
T03C0.0315
T04C0.0360
T05C0.0394
T06C0.0520
T07C0.0900
T08C0.0906
T09C0.1300
%
T01
X14100Y10450
X14700Y10450
X15300Y10450
X15900Y10450
X16500Y10450
X13100Y10950
X12100Y11250
X18299Y14750
X18299Y15153
X18299Y15547
X18713Y15547
X19087Y15547
X19087Y15153
X18713Y15153
X18713Y14750
X19087Y14750
X19500Y14750
X19500Y15153
X19500Y15547
X19500Y15950
X19087Y15950
X18713Y15950
X18299Y15950
T02
X17500Y16950
X16700Y16050
X16100Y16450
X16300Y14650
X14900Y13550
X13400Y14650
X10100Y12650
X9200Y12450
X9400Y11650
X8700Y11450
X5900Y12550
X4200Y11850
X4200Y14450
X4700Y15050
X7300Y16750
X8600Y18050
X9300Y18050
X10200Y17750
X10200Y18350
X10500Y20050
X10500Y20850
X13500Y18150
X8600Y15550
X9100Y13950
X7950Y13950
X14800Y11750
X15400Y11750
X16000Y11750
X16600Y11750
X17200Y11750
X17800Y11750
X18700Y12450
X20500Y13650
X22700Y12050
X23500Y13850
X24500Y13850
X22600Y16250
X21500Y16850
X20700Y16250
X24800Y16950
X30300Y17350
X30300Y12950
X30300Y10450
X30300Y3450
X20300Y9450
X19900Y8850
X19500Y7950
X18500Y8850
X18300Y10450
X14500Y8050
X14100Y7450
X15000Y6250
X15500Y6750
X11900Y7550
X8200Y5650
X6700Y3150
X17500Y1950
X19000Y1950
X5600Y22850
X5800Y24350
X5500Y24950
X7400Y24400
X7700Y26150
X7700Y27050
X6000Y27050
X9600Y27050
X12000Y23850
X13800Y27050
X30300Y24850
T03
X27000Y25150
X26000Y25150
X25000Y25150
X24000Y25150
X23000Y25150
X22000Y25150
X21000Y25150
X20000Y25150
X19000Y25150
X18000Y25150
X17000Y25150
X16000Y25150
X15000Y25150
X14000Y25150
X13000Y25150
X12000Y25150
X16000Y26150
X17000Y26150
X18000Y26150
X19000Y26150
X24000Y26150
X25000Y26150
X26000Y26150
X27000Y26150
X27000Y5150
X26000Y5150
X25000Y5150
X24000Y5150
X24000Y4150
X23000Y4150
X23000Y3150
X24000Y3150
X25000Y3150
X26000Y3150
X27000Y3150
X27000Y4150
X26000Y4150
X25000Y4150
X23000Y2150
X22000Y2150
X21000Y2150
X20000Y2150
X20000Y3150
X21000Y3150
X22000Y3150
X22000Y4150
X21000Y4150
X20000Y4150
X19000Y4150
X19000Y3150
X18000Y3150
X17000Y3150
X17000Y4150
X18000Y4150
X18000Y5150
X17000Y5150
X16000Y5150
X16000Y4150
X16000Y3150
X15000Y3150
X14000Y3150
X14000Y4150
X15000Y4150
X13000Y4150
X13000Y3150
X12000Y3150
X12000Y4150
X12000Y2150
X13000Y2150
X14000Y2150
X15000Y2150
X19000Y5150
T04
X10300Y4750
X9300Y4750
X8980Y8258
X8200Y8258
X8200Y9242
X8980Y9242
X7400Y13450
X6400Y13450
X12000Y26250
X13000Y26250
T05
X33100Y23650
X34100Y23650
X34100Y22650
X33100Y22650
X33100Y21650
X34100Y21650
X34100Y20650
X34100Y19650
X33100Y19650
X33100Y20650
X33100Y18650
X34100Y18650
X34100Y17650
X33100Y17650
X33100Y16650
X34100Y16650
X34100Y15650
X33100Y15650
X33100Y14650
X34100Y14650
X34100Y13650
X33100Y13650
X33100Y12650
X34100Y12650
X34100Y11650
X33100Y11650
X33100Y10650
X34100Y10650
X34100Y9650
X33100Y9650
X33100Y8650
X34100Y8650
X34100Y7650
X33100Y7650
X33100Y6650
X34100Y6650
X34100Y5650
X34100Y4650
X33100Y4650
X33100Y5650
T06
X26400Y17350
T07
X7130Y11120
X7130Y6380
T08
X7400Y17863
X7400Y23037
T09
X4500Y1650
X36000Y1650
X36000Y26650
X4500Y26650
M30
