G75*
%MOIN*%
%OFA0B0*%
%FSLAX24Y24*%
%IPPOS*%
%LPD*%
%AMOC8*
5,1,8,0,0,1.08239X$1,22.5*
%
%ADD10C,0.0100*%
%ADD11C,0.0000*%
D10*
X003500Y000650D02*
X003500Y027650D01*
X037000Y027650D01*
X037000Y000650D01*
X003500Y000650D01*
D11*
X003850Y001650D02*
X003852Y001700D01*
X003858Y001750D01*
X003868Y001800D01*
X003881Y001848D01*
X003898Y001896D01*
X003919Y001942D01*
X003943Y001986D01*
X003971Y002028D01*
X004002Y002068D01*
X004036Y002105D01*
X004073Y002140D01*
X004112Y002171D01*
X004153Y002200D01*
X004197Y002225D01*
X004243Y002247D01*
X004290Y002265D01*
X004338Y002279D01*
X004387Y002290D01*
X004437Y002297D01*
X004487Y002300D01*
X004538Y002299D01*
X004588Y002294D01*
X004638Y002285D01*
X004686Y002273D01*
X004734Y002256D01*
X004780Y002236D01*
X004825Y002213D01*
X004868Y002186D01*
X004908Y002156D01*
X004946Y002123D01*
X004981Y002087D01*
X005014Y002048D01*
X005043Y002007D01*
X005069Y001964D01*
X005092Y001919D01*
X005111Y001872D01*
X005126Y001824D01*
X005138Y001775D01*
X005146Y001725D01*
X005150Y001675D01*
X005150Y001625D01*
X005146Y001575D01*
X005138Y001525D01*
X005126Y001476D01*
X005111Y001428D01*
X005092Y001381D01*
X005069Y001336D01*
X005043Y001293D01*
X005014Y001252D01*
X004981Y001213D01*
X004946Y001177D01*
X004908Y001144D01*
X004868Y001114D01*
X004825Y001087D01*
X004780Y001064D01*
X004734Y001044D01*
X004686Y001027D01*
X004638Y001015D01*
X004588Y001006D01*
X004538Y001001D01*
X004487Y001000D01*
X004437Y001003D01*
X004387Y001010D01*
X004338Y001021D01*
X004290Y001035D01*
X004243Y001053D01*
X004197Y001075D01*
X004153Y001100D01*
X004112Y001129D01*
X004073Y001160D01*
X004036Y001195D01*
X004002Y001232D01*
X003971Y001272D01*
X003943Y001314D01*
X003919Y001358D01*
X003898Y001404D01*
X003881Y001452D01*
X003868Y001500D01*
X003858Y001550D01*
X003852Y001600D01*
X003850Y001650D01*
X035350Y001650D02*
X035352Y001700D01*
X035358Y001750D01*
X035368Y001800D01*
X035381Y001848D01*
X035398Y001896D01*
X035419Y001942D01*
X035443Y001986D01*
X035471Y002028D01*
X035502Y002068D01*
X035536Y002105D01*
X035573Y002140D01*
X035612Y002171D01*
X035653Y002200D01*
X035697Y002225D01*
X035743Y002247D01*
X035790Y002265D01*
X035838Y002279D01*
X035887Y002290D01*
X035937Y002297D01*
X035987Y002300D01*
X036038Y002299D01*
X036088Y002294D01*
X036138Y002285D01*
X036186Y002273D01*
X036234Y002256D01*
X036280Y002236D01*
X036325Y002213D01*
X036368Y002186D01*
X036408Y002156D01*
X036446Y002123D01*
X036481Y002087D01*
X036514Y002048D01*
X036543Y002007D01*
X036569Y001964D01*
X036592Y001919D01*
X036611Y001872D01*
X036626Y001824D01*
X036638Y001775D01*
X036646Y001725D01*
X036650Y001675D01*
X036650Y001625D01*
X036646Y001575D01*
X036638Y001525D01*
X036626Y001476D01*
X036611Y001428D01*
X036592Y001381D01*
X036569Y001336D01*
X036543Y001293D01*
X036514Y001252D01*
X036481Y001213D01*
X036446Y001177D01*
X036408Y001144D01*
X036368Y001114D01*
X036325Y001087D01*
X036280Y001064D01*
X036234Y001044D01*
X036186Y001027D01*
X036138Y001015D01*
X036088Y001006D01*
X036038Y001001D01*
X035987Y001000D01*
X035937Y001003D01*
X035887Y001010D01*
X035838Y001021D01*
X035790Y001035D01*
X035743Y001053D01*
X035697Y001075D01*
X035653Y001100D01*
X035612Y001129D01*
X035573Y001160D01*
X035536Y001195D01*
X035502Y001232D01*
X035471Y001272D01*
X035443Y001314D01*
X035419Y001358D01*
X035398Y001404D01*
X035381Y001452D01*
X035368Y001500D01*
X035358Y001550D01*
X035352Y001600D01*
X035350Y001650D01*
X035350Y026650D02*
X035352Y026700D01*
X035358Y026750D01*
X035368Y026800D01*
X035381Y026848D01*
X035398Y026896D01*
X035419Y026942D01*
X035443Y026986D01*
X035471Y027028D01*
X035502Y027068D01*
X035536Y027105D01*
X035573Y027140D01*
X035612Y027171D01*
X035653Y027200D01*
X035697Y027225D01*
X035743Y027247D01*
X035790Y027265D01*
X035838Y027279D01*
X035887Y027290D01*
X035937Y027297D01*
X035987Y027300D01*
X036038Y027299D01*
X036088Y027294D01*
X036138Y027285D01*
X036186Y027273D01*
X036234Y027256D01*
X036280Y027236D01*
X036325Y027213D01*
X036368Y027186D01*
X036408Y027156D01*
X036446Y027123D01*
X036481Y027087D01*
X036514Y027048D01*
X036543Y027007D01*
X036569Y026964D01*
X036592Y026919D01*
X036611Y026872D01*
X036626Y026824D01*
X036638Y026775D01*
X036646Y026725D01*
X036650Y026675D01*
X036650Y026625D01*
X036646Y026575D01*
X036638Y026525D01*
X036626Y026476D01*
X036611Y026428D01*
X036592Y026381D01*
X036569Y026336D01*
X036543Y026293D01*
X036514Y026252D01*
X036481Y026213D01*
X036446Y026177D01*
X036408Y026144D01*
X036368Y026114D01*
X036325Y026087D01*
X036280Y026064D01*
X036234Y026044D01*
X036186Y026027D01*
X036138Y026015D01*
X036088Y026006D01*
X036038Y026001D01*
X035987Y026000D01*
X035937Y026003D01*
X035887Y026010D01*
X035838Y026021D01*
X035790Y026035D01*
X035743Y026053D01*
X035697Y026075D01*
X035653Y026100D01*
X035612Y026129D01*
X035573Y026160D01*
X035536Y026195D01*
X035502Y026232D01*
X035471Y026272D01*
X035443Y026314D01*
X035419Y026358D01*
X035398Y026404D01*
X035381Y026452D01*
X035368Y026500D01*
X035358Y026550D01*
X035352Y026600D01*
X035350Y026650D01*
X003850Y026650D02*
X003852Y026700D01*
X003858Y026750D01*
X003868Y026800D01*
X003881Y026848D01*
X003898Y026896D01*
X003919Y026942D01*
X003943Y026986D01*
X003971Y027028D01*
X004002Y027068D01*
X004036Y027105D01*
X004073Y027140D01*
X004112Y027171D01*
X004153Y027200D01*
X004197Y027225D01*
X004243Y027247D01*
X004290Y027265D01*
X004338Y027279D01*
X004387Y027290D01*
X004437Y027297D01*
X004487Y027300D01*
X004538Y027299D01*
X004588Y027294D01*
X004638Y027285D01*
X004686Y027273D01*
X004734Y027256D01*
X004780Y027236D01*
X004825Y027213D01*
X004868Y027186D01*
X004908Y027156D01*
X004946Y027123D01*
X004981Y027087D01*
X005014Y027048D01*
X005043Y027007D01*
X005069Y026964D01*
X005092Y026919D01*
X005111Y026872D01*
X005126Y026824D01*
X005138Y026775D01*
X005146Y026725D01*
X005150Y026675D01*
X005150Y026625D01*
X005146Y026575D01*
X005138Y026525D01*
X005126Y026476D01*
X005111Y026428D01*
X005092Y026381D01*
X005069Y026336D01*
X005043Y026293D01*
X005014Y026252D01*
X004981Y026213D01*
X004946Y026177D01*
X004908Y026144D01*
X004868Y026114D01*
X004825Y026087D01*
X004780Y026064D01*
X004734Y026044D01*
X004686Y026027D01*
X004638Y026015D01*
X004588Y026006D01*
X004538Y026001D01*
X004487Y026000D01*
X004437Y026003D01*
X004387Y026010D01*
X004338Y026021D01*
X004290Y026035D01*
X004243Y026053D01*
X004197Y026075D01*
X004153Y026100D01*
X004112Y026129D01*
X004073Y026160D01*
X004036Y026195D01*
X004002Y026232D01*
X003971Y026272D01*
X003943Y026314D01*
X003919Y026358D01*
X003898Y026404D01*
X003881Y026452D01*
X003868Y026500D01*
X003858Y026550D01*
X003852Y026600D01*
X003850Y026650D01*
M02*
